%TF.GenerationSoftware,KiCad,Pcbnew,(5.1.12)-1*%
%TF.CreationDate,2022-04-27T23:33:07+02:00*%
%TF.ProjectId,1834_Ethernet,31383334-5f45-4746-9865-726e65742e6b,1.0*%
%TF.SameCoordinates,Original*%
%TF.FileFunction,Copper,L2,Bot*%
%TF.FilePolarity,Positive*%
%FSLAX46Y46*%
G04 Gerber Fmt 4.6, Leading zero omitted, Abs format (unit mm)*
G04 Created by KiCad (PCBNEW (5.1.12)-1) date 2022-04-27 23:33:07*
%MOMM*%
%LPD*%
G01*
G04 APERTURE LIST*
%TA.AperFunction,ComponentPad*%
%ADD10C,1.550000*%
%TD*%
%TA.AperFunction,ComponentPad*%
%ADD11C,1.524000*%
%TD*%
%TA.AperFunction,ComponentPad*%
%ADD12R,1.524000X1.524000*%
%TD*%
%TA.AperFunction,ComponentPad*%
%ADD13C,1.397000*%
%TD*%
%TA.AperFunction,ComponentPad*%
%ADD14R,1.397000X1.397000*%
%TD*%
%TA.AperFunction,ComponentPad*%
%ADD15C,6.400000*%
%TD*%
%TA.AperFunction,ComponentPad*%
%ADD16C,0.800000*%
%TD*%
%TA.AperFunction,ComponentPad*%
%ADD17R,1.900000X1.900000*%
%TD*%
%TA.AperFunction,ComponentPad*%
%ADD18C,1.900000*%
%TD*%
%TA.AperFunction,ComponentPad*%
%ADD19C,1.890000*%
%TD*%
%TA.AperFunction,ComponentPad*%
%ADD20C,2.600000*%
%TD*%
%TA.AperFunction,ViaPad*%
%ADD21C,0.889000*%
%TD*%
%TA.AperFunction,Conductor*%
%ADD22C,0.254000*%
%TD*%
%TA.AperFunction,Conductor*%
%ADD23C,0.368300*%
%TD*%
%TA.AperFunction,Conductor*%
%ADD24C,1.524000*%
%TD*%
%TA.AperFunction,Conductor*%
%ADD25C,1.016000*%
%TD*%
%TA.AperFunction,Conductor*%
%ADD26C,0.762000*%
%TD*%
%TA.AperFunction,Conductor*%
%ADD27C,0.150000*%
%TD*%
G04 APERTURE END LIST*
D10*
%TO.P,BUS2,c32*%
%TO.N,Net-(BUS2-Padc32)*%
X101600000Y-124206000D03*
%TO.P,BUS2,c31*%
%TO.N,/A0*%
X104140000Y-124206000D03*
%TO.P,BUS2,c30*%
%TO.N,/A1*%
X106680000Y-124206000D03*
%TO.P,BUS2,c29*%
%TO.N,/A2*%
X109220000Y-124206000D03*
%TO.P,BUS2,c28*%
%TO.N,/A3*%
X111760000Y-124206000D03*
%TO.P,BUS2,c27*%
%TO.N,/A4*%
X114300000Y-124206000D03*
%TO.P,BUS2,c26*%
%TO.N,/A5*%
X116840000Y-124206000D03*
%TO.P,BUS2,c25*%
%TO.N,/A6*%
X119380000Y-124206000D03*
%TO.P,BUS2,c24*%
%TO.N,/A7*%
X121920000Y-124206000D03*
%TO.P,BUS2,c23*%
%TO.N,/A8*%
X124460000Y-124206000D03*
%TO.P,BUS2,c22*%
%TO.N,/A9*%
X127000000Y-124206000D03*
%TO.P,BUS2,c21*%
%TO.N,/A10*%
X129540000Y-124206000D03*
%TO.P,BUS2,c20*%
%TO.N,/A11*%
X132080000Y-124206000D03*
%TO.P,BUS2,c19*%
%TO.N,/A12*%
X134620000Y-124206000D03*
%TO.P,BUS2,c18*%
%TO.N,/A13*%
X137160000Y-124206000D03*
%TO.P,BUS2,c17*%
%TO.N,/A14*%
X139700000Y-124206000D03*
%TO.P,BUS2,c16*%
%TO.N,/A15*%
X142240000Y-124206000D03*
%TO.P,BUS2,c15*%
%TO.N,/A16*%
X144780000Y-124206000D03*
%TO.P,BUS2,c14*%
%TO.N,/A17*%
X147320000Y-124206000D03*
%TO.P,BUS2,c13*%
%TO.N,/A18*%
X149860000Y-124206000D03*
%TO.P,BUS2,c12*%
%TO.N,/A19*%
X152400000Y-124206000D03*
%TO.P,BUS2,c11*%
%TO.N,/AEN*%
X154940000Y-124206000D03*
%TO.P,BUS2,c10*%
%TO.N,/IOCHRDY*%
X157480000Y-124206000D03*
%TO.P,BUS2,c9*%
%TO.N,/D0*%
X160020000Y-124206000D03*
%TO.P,BUS2,c8*%
%TO.N,/D1*%
X162560000Y-124206000D03*
%TO.P,BUS2,c7*%
%TO.N,/D2*%
X165100000Y-124206000D03*
%TO.P,BUS2,c6*%
%TO.N,/D3*%
X167640000Y-124206000D03*
%TO.P,BUS2,c5*%
%TO.N,/D4*%
X170180000Y-124206000D03*
%TO.P,BUS2,c4*%
%TO.N,/D5*%
X172720000Y-124206000D03*
%TO.P,BUS2,c3*%
%TO.N,/D6*%
X175260000Y-124206000D03*
%TO.P,BUS2,c2*%
%TO.N,/D7*%
X177800000Y-124206000D03*
%TO.P,BUS2,c1*%
%TO.N,Net-(BUS2-Padc1)*%
X180340000Y-124206000D03*
%TO.P,BUS2,a32*%
%TO.N,Net-(BUS2-Pada32)*%
X101600000Y-129286000D03*
%TO.P,BUS2,a31*%
%TO.N,GND*%
X104140000Y-129286000D03*
%TO.P,BUS2,a30*%
%TO.N,Net-(BUS2-Pada30)*%
X106680000Y-129286000D03*
%TO.P,BUS2,a29*%
%TO.N,VCC*%
X109220000Y-129286000D03*
%TO.P,BUS2,a28*%
%TO.N,Net-(BUS2-Pada28)*%
X111760000Y-129286000D03*
%TO.P,BUS2,a27*%
%TO.N,Net-(BUS2-Pada27)*%
X114300000Y-129286000D03*
%TO.P,BUS2,a26*%
%TO.N,Net-(BUS2-Pada26)*%
X116840000Y-129286000D03*
%TO.P,BUS2,a25*%
%TO.N,/IRQ3*%
X119380000Y-129286000D03*
%TO.P,BUS2,a24*%
%TO.N,/IRQ4*%
X121920000Y-129286000D03*
%TO.P,BUS2,a23*%
%TO.N,/IRQ5*%
X124460000Y-129286000D03*
%TO.P,BUS2,a22*%
%TO.N,Net-(BUS2-Pada22)*%
X127000000Y-129286000D03*
%TO.P,BUS2,a21*%
%TO.N,Net-(BUS2-Pada21)*%
X129540000Y-129286000D03*
%TO.P,BUS2,a20*%
%TO.N,Net-(BUS2-Pada20)*%
X132080000Y-129286000D03*
%TO.P,BUS2,a19*%
%TO.N,Net-(BUS2-Pada19)*%
X134620000Y-129286000D03*
%TO.P,BUS2,a18*%
%TO.N,Net-(BUS2-Pada18)*%
X137160000Y-129286000D03*
%TO.P,BUS2,a17*%
%TO.N,Net-(BUS2-Pada17)*%
X139700000Y-129286000D03*
%TO.P,BUS2,a16*%
%TO.N,Net-(BUS2-Pada16)*%
X142240000Y-129286000D03*
%TO.P,BUS2,a15*%
%TO.N,Net-(BUS2-Pada15)*%
X144780000Y-129286000D03*
%TO.P,BUS2,a14*%
%TO.N,/~IOR*%
X147320000Y-129286000D03*
%TO.P,BUS2,a13*%
%TO.N,/~IOW*%
X149860000Y-129286000D03*
%TO.P,BUS2,a12*%
%TO.N,/~SMEMR*%
X152400000Y-129286000D03*
%TO.P,BUS2,a11*%
%TO.N,/~SMEMW*%
X154940000Y-129286000D03*
%TO.P,BUS2,a10*%
%TO.N,GND*%
X157480000Y-129286000D03*
%TO.P,BUS2,a9*%
%TO.N,Net-(BUS2-Pada9)*%
X160020000Y-129286000D03*
%TO.P,BUS2,a8*%
%TO.N,Net-(BUS2-Pada8)*%
X162560000Y-129286000D03*
%TO.P,BUS2,a7*%
%TO.N,Net-(BUS2-Pada7)*%
X165100000Y-129286000D03*
%TO.P,BUS2,a6*%
%TO.N,Net-(BUS2-Pada6)*%
X167640000Y-129286000D03*
%TO.P,BUS2,a5*%
%TO.N,Net-(BUS2-Pada5)*%
X170180000Y-129286000D03*
%TO.P,BUS2,a4*%
%TO.N,/IRQ9*%
X172720000Y-129286000D03*
%TO.P,BUS2,a3*%
%TO.N,VCC*%
X175260000Y-129286000D03*
%TO.P,BUS2,a2*%
%TO.N,/RSTDRV*%
X177800000Y-129286000D03*
%TO.P,BUS2,a1*%
%TO.N,GND*%
%TA.AperFunction,ComponentPad*%
G36*
G01*
X181115000Y-128760999D02*
X181115000Y-129811001D01*
G75*
G02*
X180865001Y-130061000I-249999J0D01*
G01*
X179814999Y-130061000D01*
G75*
G02*
X179565000Y-129811001I0J249999D01*
G01*
X179565000Y-128760999D01*
G75*
G02*
X179814999Y-128511000I249999J0D01*
G01*
X180865001Y-128511000D01*
G75*
G02*
X181115000Y-128760999I0J-249999D01*
G01*
G37*
%TD.AperFunction*%
%TD*%
D11*
%TO.P,J2,40*%
%TO.N,GND*%
X100330000Y-113030000D03*
%TO.P,J2,39*%
X97790000Y-113030000D03*
%TO.P,J2,38*%
%TO.N,/BD3*%
X100330000Y-110490000D03*
%TO.P,J2,37*%
%TO.N,/BD2*%
X97790000Y-110490000D03*
%TO.P,J2,36*%
%TO.N,/BD4*%
X100330000Y-107950000D03*
%TO.P,J2,35*%
%TO.N,/BD1*%
X97790000Y-107950000D03*
%TO.P,J2,34*%
%TO.N,/BD5*%
X100330000Y-105410000D03*
%TO.P,J2,33*%
%TO.N,/BD0*%
X97790000Y-105410000D03*
%TO.P,J2,32*%
%TO.N,/BD6*%
X100330000Y-102870000D03*
%TO.P,J2,31*%
%TO.N,/A0*%
X97790000Y-102870000D03*
%TO.P,J2,29*%
%TO.N,/A1*%
X97790000Y-100330000D03*
%TO.P,J2,30*%
%TO.N,/BD7*%
X100330000Y-100330000D03*
%TO.P,J2,27*%
%TO.N,/A2*%
X97790000Y-97790000D03*
%TO.P,J2,28*%
%TO.N,/~BCS*%
X100330000Y-97790000D03*
%TO.P,J2,26*%
%TO.N,/A10*%
X100330000Y-95250000D03*
%TO.P,J2,25*%
%TO.N,/A3*%
X97790000Y-95250000D03*
%TO.P,J2,24*%
%TO.N,/~SMEMR*%
X100330000Y-92710000D03*
%TO.P,J2,23*%
%TO.N,/A4*%
X97790000Y-92710000D03*
%TO.P,J2,22*%
%TO.N,/A11*%
X100330000Y-90170000D03*
%TO.P,J2,21*%
%TO.N,/A5*%
X97790000Y-90170000D03*
%TO.P,J2,20*%
%TO.N,/A9*%
X100330000Y-87630000D03*
%TO.P,J2,19*%
%TO.N,/A6*%
X97790000Y-87630000D03*
%TO.P,J2,18*%
%TO.N,/A8*%
X100330000Y-85090000D03*
%TO.P,J2,17*%
%TO.N,/A7*%
X97790000Y-85090000D03*
%TO.P,J2,16*%
%TO.N,/A13*%
X100330000Y-82550000D03*
%TO.P,J2,15*%
%TO.N,/A12*%
X97790000Y-82550000D03*
%TO.P,J2,14*%
%TO.N,/BA14*%
X100330000Y-80010000D03*
%TO.P,J2,13*%
%TO.N,/BA15*%
X97790000Y-80010000D03*
%TO.P,J2,12*%
%TO.N,/BA17*%
X100330000Y-77470000D03*
%TO.P,J2,11*%
%TO.N,/BA16*%
X97790000Y-77470000D03*
%TO.P,J2,10*%
%TO.N,/~SMEMW*%
X100330000Y-74930000D03*
%TO.P,J2,9*%
%TO.N,/BA18*%
X97790000Y-74930000D03*
%TO.P,J2,8*%
%TO.N,/BA19*%
X100330000Y-72390000D03*
%TO.P,J2,7*%
%TO.N,Net-(J2-Pad7)*%
X97790000Y-72390000D03*
%TO.P,J2,6*%
%TO.N,/BA20*%
X100330000Y-69850000D03*
%TO.P,J2,5*%
%TO.N,Net-(J2-Pad5)*%
X97790000Y-69850000D03*
%TO.P,J2,4*%
%TO.N,/BA21*%
X100330000Y-67310000D03*
%TO.P,J2,3*%
%TO.N,Net-(J2-Pad3)*%
X97790000Y-67310000D03*
%TO.P,J2,2*%
%TO.N,VCC*%
X100330000Y-64770000D03*
D12*
%TO.P,J2,1*%
X97790000Y-64770000D03*
%TD*%
D13*
%TO.P,SW4,10*%
%TO.N,VCC*%
X171450000Y-62230000D03*
%TO.P,SW4,9*%
X173990000Y-62230000D03*
%TO.P,SW4,8*%
X176530000Y-62230000D03*
%TO.P,SW4,7*%
X179070000Y-62230000D03*
%TO.P,SW4,6*%
X181610000Y-62230000D03*
%TO.P,SW4,5*%
%TO.N,Net-(RN4-Pad7)*%
X181610000Y-69850000D03*
%TO.P,SW4,4*%
%TO.N,Net-(RN3-Pad5)*%
X179070000Y-69850000D03*
%TO.P,SW4,3*%
%TO.N,Net-(RN3-Pad6)*%
X176530000Y-69850000D03*
%TO.P,SW4,2*%
%TO.N,Net-(RN3-Pad7)*%
X173990000Y-69850000D03*
D14*
%TO.P,SW4,1*%
%TO.N,Net-(RN3-Pad8)*%
X171450000Y-69850000D03*
%TD*%
D13*
%TO.P,SW3,8*%
%TO.N,VCC*%
X156210000Y-62230000D03*
%TO.P,SW3,7*%
X158750000Y-62230000D03*
%TO.P,SW3,6*%
X161290000Y-62230000D03*
%TO.P,SW3,5*%
X163830000Y-62230000D03*
%TO.P,SW3,4*%
%TO.N,Net-(RN2-Pad5)*%
X163830000Y-69850000D03*
%TO.P,SW3,3*%
%TO.N,Net-(RN2-Pad6)*%
X161290000Y-69850000D03*
%TO.P,SW3,2*%
%TO.N,Net-(RN2-Pad7)*%
X158750000Y-69850000D03*
D14*
%TO.P,SW3,1*%
%TO.N,Net-(RN2-Pad8)*%
X156210000Y-69850000D03*
%TD*%
D13*
%TO.P,SW2,4*%
%TO.N,VCC*%
X146050000Y-62230000D03*
%TO.P,SW2,3*%
X148590000Y-62230000D03*
%TO.P,SW2,2*%
%TO.N,Net-(RN1-Pad5)*%
X148590000Y-69850000D03*
D14*
%TO.P,SW2,1*%
%TO.N,Net-(RN1-Pad6)*%
X146050000Y-69850000D03*
%TD*%
D13*
%TO.P,SW1,4*%
%TO.N,VCC*%
X135890000Y-62230000D03*
%TO.P,SW1,3*%
X138430000Y-62230000D03*
%TO.P,SW1,2*%
%TO.N,Net-(RN1-Pad7)*%
X138430000Y-69850000D03*
D14*
%TO.P,SW1,1*%
%TO.N,Net-(RN1-Pad8)*%
X135890000Y-69850000D03*
%TD*%
D13*
%TO.P,Y1,2*%
%TO.N,Net-(C2-Pad2)*%
X177800000Y-83919060D03*
%TO.P,Y1,1*%
%TO.N,Net-(C1-Pad2)*%
X177800000Y-88800940D03*
%TD*%
D14*
%TO.P,U2,1*%
%TO.N,/BA18*%
X110363000Y-72390000D03*
D13*
%TO.P,U2,2*%
%TO.N,/BA16*%
X110363000Y-74930000D03*
%TO.P,U2,3*%
%TO.N,/BA15*%
X110363000Y-77470000D03*
%TO.P,U2,4*%
%TO.N,/A12*%
X110363000Y-80010000D03*
%TO.P,U2,5*%
%TO.N,/A7*%
X110363000Y-82550000D03*
%TO.P,U2,6*%
%TO.N,/A6*%
X110363000Y-85090000D03*
%TO.P,U2,7*%
%TO.N,/A5*%
X110363000Y-87630000D03*
%TO.P,U2,8*%
%TO.N,/A4*%
X110363000Y-90170000D03*
%TO.P,U2,9*%
%TO.N,/A3*%
X110363000Y-92710000D03*
%TO.P,U2,10*%
%TO.N,/A2*%
X110363000Y-95250000D03*
%TO.P,U2,11*%
%TO.N,/A1*%
X110363000Y-97790000D03*
%TO.P,U2,12*%
%TO.N,/A0*%
X110363000Y-100330000D03*
%TO.P,U2,13*%
%TO.N,/BD0*%
X110363000Y-102870000D03*
%TO.P,U2,14*%
%TO.N,/BD1*%
X110363000Y-105410000D03*
%TO.P,U2,15*%
%TO.N,/BD2*%
X110363000Y-107950000D03*
%TO.P,U2,16*%
%TO.N,GND*%
X110363000Y-110490000D03*
%TO.P,U2,17*%
%TO.N,/BD3*%
X125603000Y-110490000D03*
%TO.P,U2,18*%
%TO.N,/BD4*%
X125603000Y-107950000D03*
%TO.P,U2,19*%
%TO.N,/BD5*%
X125603000Y-105410000D03*
%TO.P,U2,20*%
%TO.N,/BD6*%
X125603000Y-102870000D03*
%TO.P,U2,21*%
%TO.N,/BD7*%
X125603000Y-100330000D03*
%TO.P,U2,22*%
%TO.N,/~BCS*%
X125603000Y-97790000D03*
%TO.P,U2,23*%
%TO.N,/A10*%
X125603000Y-95250000D03*
%TO.P,U2,24*%
%TO.N,/~SMEMR*%
X125603000Y-92710000D03*
%TO.P,U2,25*%
%TO.N,/A11*%
X125603000Y-90170000D03*
%TO.P,U2,26*%
%TO.N,/A9*%
X125603000Y-87630000D03*
%TO.P,U2,27*%
%TO.N,/A8*%
X125603000Y-85090000D03*
%TO.P,U2,28*%
%TO.N,/A13*%
X125603000Y-82550000D03*
%TO.P,U2,29*%
%TO.N,/BA14*%
X125603000Y-80010000D03*
%TO.P,U2,30*%
%TO.N,/BA17*%
X125603000Y-77470000D03*
%TO.P,U2,31*%
%TO.N,/~SMEMW*%
X125603000Y-74930000D03*
%TO.P,U2,32*%
%TO.N,VCC*%
X125603000Y-72390000D03*
%TD*%
D15*
%TO.P,HOLE1,1*%
%TO.N,GND*%
X201041000Y-66040000D03*
D16*
X203441000Y-66040000D03*
X202738056Y-67737056D03*
X201041000Y-68440000D03*
X199343944Y-67737056D03*
X198641000Y-66040000D03*
X199343944Y-64342944D03*
X201041000Y-63640000D03*
X202738056Y-64342944D03*
%TD*%
%TO.P,HOLE2,1*%
%TO.N,GND*%
X202738056Y-120857944D03*
X201041000Y-120155000D03*
X199343944Y-120857944D03*
X198641000Y-122555000D03*
X199343944Y-124252056D03*
X201041000Y-124955000D03*
X202738056Y-124252056D03*
X203441000Y-122555000D03*
D15*
X201041000Y-122555000D03*
%TD*%
D17*
%TO.P,J1,R1*%
%TO.N,/TP_TX+*%
X189230000Y-99060000D03*
D18*
%TO.P,J1,R2*%
%TO.N,/TP_TX-*%
X186690000Y-97790000D03*
%TO.P,J1,R3*%
%TO.N,/TP_RX+*%
X189230000Y-96520000D03*
%TO.P,J1,R4*%
%TO.N,Net-(C3-Pad1)*%
X186690000Y-95250000D03*
%TO.P,J1,R5*%
%TO.N,Net-(C4-Pad1)*%
X189230000Y-93980000D03*
%TO.P,J1,R6*%
%TO.N,/TP_RX-*%
X186690000Y-92710000D03*
%TO.P,J1,R7*%
%TO.N,Net-(J1-PadR7)*%
X189230000Y-91440000D03*
%TO.P,J1,R8*%
%TO.N,GND*%
X186690000Y-90170000D03*
D19*
%TO.P,J1,L1*%
%TO.N,VCC*%
X198950000Y-88290000D03*
%TO.P,J1,L2*%
%TO.N,Net-(J1-PadL2)*%
X200470000Y-90830000D03*
%TO.P,J1,L3*%
%TO.N,Net-(J1-PadL3)*%
X198950000Y-98400000D03*
%TO.P,J1,L4*%
%TO.N,VCC*%
X200470000Y-100940000D03*
D20*
%TO.P,J1,13*%
%TO.N,GND*%
X192520000Y-102390000D03*
X192520000Y-86840000D03*
%TD*%
D21*
%TO.N,/A0*%
X114839750Y-116617750D03*
%TO.N,/A1*%
X116078000Y-116967000D03*
%TO.N,/A10*%
X130200387Y-122212101D03*
%TO.N,/A11*%
X138430000Y-119062500D03*
%TO.N,/A12*%
X139382500Y-120015000D03*
X130238500Y-88963500D03*
%TO.N,/A13*%
X142557500Y-120015000D03*
%TO.N,/A2*%
X117379750Y-117252750D03*
%TO.N,/A3*%
X118491000Y-117729000D03*
%TO.N,/A4*%
X119475250Y-118332250D03*
%TO.N,/A5*%
X120332500Y-119062500D03*
%TO.N,/A6*%
X121666000Y-119634000D03*
%TO.N,/A7*%
X123698000Y-120269000D03*
%TO.N,/A8*%
X139700000Y-116205000D03*
%TO.N,/A9*%
X139065000Y-117157500D03*
%TO.N,/~IOR*%
X155575000Y-120015000D03*
%TO.N,/~IOW*%
X156845000Y-120014996D03*
%TO.N,GND*%
X153987500Y-102870000D03*
X162877500Y-102870000D03*
X164147500Y-94297500D03*
X163512500Y-90170000D03*
X145732500Y-93980000D03*
X193040000Y-82550000D03*
X181927500Y-90487500D03*
X173672500Y-81279998D03*
X173672500Y-91439988D03*
X174307500Y-94615000D03*
X140335000Y-110490000D03*
X140335000Y-104140000D03*
X146000952Y-91073452D03*
X135572500Y-83820000D03*
X153669998Y-73977500D03*
X122491500Y-69215000D03*
X170180000Y-86360000D03*
X170180000Y-87630000D03*
X141605000Y-104140000D03*
X167005000Y-104140000D03*
X168275000Y-104140000D03*
X162242500Y-119380048D03*
X162242500Y-120650000D03*
X98171000Y-119062500D03*
X98171000Y-120332500D03*
X98171000Y-117792506D03*
%TO.N,VCC*%
X152082500Y-90170000D03*
X164147500Y-92392500D03*
X155892500Y-102870000D03*
X148907500Y-102870000D03*
X145732500Y-95567500D03*
X168275000Y-83820000D03*
X144145000Y-110490000D03*
X133667500Y-83820000D03*
X168275000Y-118110000D03*
X168275000Y-116840000D03*
X168275000Y-115570000D03*
X178752500Y-106680000D03*
X160020000Y-90170000D03*
X104013000Y-120142000D03*
X104013000Y-118871999D03*
X104013000Y-117602000D03*
X178308000Y-119380000D03*
X178308000Y-120396000D03*
X178308000Y-121412000D03*
X127381000Y-69342000D03*
%TO.N,/RSTDRV*%
X171132514Y-108267500D03*
%TO.N,/IRQ9*%
X147320000Y-102870000D03*
%TO.N,/~SMEMW*%
X159385000Y-120015001D03*
%TO.N,/~SMEMR*%
X158115000Y-120015000D03*
%TO.N,/IRQ5*%
X125730006Y-112712500D03*
%TO.N,/IRQ4*%
X124777500Y-113665000D03*
%TO.N,/IRQ3*%
X122555000Y-114617500D03*
%TO.N,/BA18*%
X151764998Y-81279998D03*
X158750000Y-80010000D03*
%TO.N,/BA17*%
X151130000Y-82232500D03*
X158750000Y-81280000D03*
%TO.N,/BA16*%
X150495003Y-83185003D03*
X156844989Y-82232489D03*
X130373437Y-76636563D03*
%TO.N,/BD6*%
X142627488Y-77175423D03*
X142557508Y-85407500D03*
%TO.N,/BD5*%
X133985000Y-93662500D03*
X135572500Y-94932500D03*
X143827500Y-77152500D03*
X143827500Y-86360000D03*
%TO.N,/BD3*%
X143827500Y-88582500D03*
X147320000Y-77152500D03*
%TO.N,/BD2*%
X146050000Y-89852494D03*
X148590000Y-77152500D03*
X133096000Y-106553000D03*
X130937000Y-106807000D03*
%TO.N,/BD1*%
X147002500Y-92075000D03*
X149860000Y-77152500D03*
X133721499Y-105273499D03*
X128778000Y-106807000D03*
%TO.N,/BD0*%
X147954999Y-92709999D03*
X151130000Y-77152500D03*
X134493000Y-102997000D03*
X128270000Y-102997000D03*
%TO.N,/BA19*%
X152400000Y-80327500D03*
X158750000Y-78740000D03*
%TO.N,/BA20*%
X153035000Y-79375000D03*
X158750000Y-77470000D03*
%TD*%
D22*
%TO.N,/A0*%
X110363000Y-101352258D02*
X110363000Y-100330000D01*
X114839750Y-105829008D02*
X110363000Y-101352258D01*
X114839750Y-116617750D02*
X114839750Y-105829008D01*
%TO.N,/A1*%
X116078000Y-103505000D02*
X110363000Y-97790000D01*
X116078000Y-116967000D02*
X116078000Y-103505000D01*
D23*
%TO.N,/A10*%
X130149601Y-122212101D02*
X127317500Y-119380000D01*
X130200387Y-122212101D02*
X130149601Y-122212101D01*
X127317500Y-96964500D02*
X125603000Y-95250000D01*
X127317500Y-119380000D02*
X127317500Y-96964500D01*
%TO.N,/A11*%
X136207500Y-116840000D02*
X138430000Y-119062500D01*
X136207500Y-99377500D02*
X136207500Y-116840000D01*
X131762500Y-94932500D02*
X136207500Y-99377500D01*
X131762500Y-92392500D02*
X131762500Y-94932500D01*
X129540000Y-90170000D02*
X129540000Y-90170000D01*
X129540000Y-90170000D02*
X131762500Y-92392500D01*
X129540000Y-90170000D02*
X125603000Y-90170000D01*
%TO.N,/A12*%
X139382500Y-118745000D02*
X139382500Y-120015000D01*
X136842500Y-116205000D02*
X139382500Y-118745000D01*
X136842500Y-98742500D02*
X136842500Y-116205000D01*
X132715000Y-94615000D02*
X136842500Y-98742500D01*
X132715000Y-91440000D02*
X132715000Y-94615000D01*
X130175000Y-88900000D02*
X130238500Y-88963500D01*
X130238500Y-88963500D02*
X132715000Y-91440000D01*
%TO.N,/A13*%
X138747500Y-93027500D02*
X128143000Y-82423000D01*
X138747500Y-113665000D02*
X138747500Y-93027500D01*
X142557500Y-117475000D02*
X138747500Y-113665000D01*
X142557500Y-120015000D02*
X142557500Y-117475000D01*
X128143000Y-82423000D02*
X128143000Y-82423000D01*
X125730000Y-82423000D02*
X125603000Y-82550000D01*
X128143000Y-82423000D02*
X125730000Y-82423000D01*
D22*
%TO.N,/A2*%
X117379750Y-102266750D02*
X110363000Y-95250000D01*
X117379750Y-117252750D02*
X117379750Y-102266750D01*
%TO.N,/A3*%
X118491000Y-100838000D02*
X110363000Y-92710000D01*
X118491000Y-117729000D02*
X118491000Y-100838000D01*
%TO.N,/A4*%
X119475250Y-99282250D02*
X110363000Y-90170000D01*
X119475250Y-118332250D02*
X119475250Y-99282250D01*
%TO.N,/A5*%
X110363000Y-88652258D02*
X110363000Y-87630000D01*
X120332500Y-98621758D02*
X110363000Y-88652258D01*
X120332500Y-119062500D02*
X120332500Y-98621758D01*
%TO.N,/A6*%
X110363000Y-86112258D02*
X110363000Y-85090000D01*
X121666000Y-97415258D02*
X110363000Y-86112258D01*
X121666000Y-119634000D02*
X121666000Y-97415258D01*
%TO.N,/A7*%
X110363000Y-83572258D02*
X110363000Y-82550000D01*
X123698000Y-96907258D02*
X110363000Y-83572258D01*
X123698000Y-120269000D02*
X123698000Y-96907258D01*
D23*
%TO.N,/A8*%
X138112500Y-93662500D02*
X129286000Y-84963000D01*
X138112500Y-114617500D02*
X138112500Y-93662500D01*
X139700000Y-116205000D02*
X138112500Y-114617500D01*
X129286000Y-84963000D02*
X129286000Y-84963000D01*
X125730000Y-84963000D02*
X125603000Y-85090000D01*
X129286000Y-84963000D02*
X125730000Y-84963000D01*
%TO.N,/A9*%
X137477500Y-94932500D02*
X129286000Y-86487000D01*
X137477500Y-115570000D02*
X137477500Y-94932500D01*
X139065000Y-117157500D02*
X137477500Y-115570000D01*
X129286000Y-86487000D02*
X129286000Y-86487000D01*
X126746000Y-86487000D02*
X125603000Y-87630000D01*
X129286000Y-86487000D02*
X126746000Y-86487000D01*
%TO.N,/~IOR*%
X154940000Y-120650000D02*
X149542500Y-120650000D01*
X149542500Y-120650000D02*
X148844000Y-121412000D01*
X155575000Y-120015000D02*
X154940000Y-120650000D01*
X148700849Y-127905151D02*
X147320000Y-129286000D01*
X148700849Y-121555151D02*
X148700849Y-127905151D01*
X148844000Y-121412000D02*
X148700849Y-121555151D01*
%TO.N,/~IOW*%
X151447500Y-121285000D02*
X151130000Y-121666000D01*
X155575000Y-121285000D02*
X151447500Y-121285000D01*
X156845000Y-120015000D02*
X155575000Y-121285000D01*
X156845000Y-120014996D02*
X156845000Y-120015000D01*
X151130000Y-128016000D02*
X149860000Y-129286000D01*
X151130000Y-121666000D02*
X151130000Y-128016000D01*
%TO.N,GND*%
X196913500Y-118427500D02*
X201041000Y-122555000D01*
X193040000Y-82550000D02*
X193992500Y-83502500D01*
X193992500Y-83502500D02*
X193992500Y-85407500D01*
X193952500Y-85407500D02*
X192520000Y-86840000D01*
X193992500Y-85407500D02*
X193952500Y-85407500D01*
X188595000Y-88265000D02*
X186690000Y-90170000D01*
X191095000Y-88265000D02*
X188595000Y-88265000D01*
X192520000Y-86840000D02*
X191095000Y-88265000D01*
X191095000Y-100965000D02*
X192520000Y-102390000D01*
X191095000Y-88265000D02*
X191095000Y-100965000D01*
X184785000Y-88265000D02*
X186690000Y-90170000D01*
X184150000Y-88265000D02*
X184785000Y-88265000D01*
X181927500Y-90487500D02*
X184150000Y-88265000D01*
X193992500Y-73088500D02*
X201041000Y-66040000D01*
X193992500Y-83502500D02*
X193992500Y-73088500D01*
X182245000Y-86360000D02*
X174625000Y-86360000D01*
X184150000Y-88265000D02*
X182245000Y-86360000D01*
X174625000Y-86360000D02*
X174625000Y-82232498D01*
X174625000Y-82232498D02*
X173672500Y-81279998D01*
X174625000Y-86360000D02*
X174625000Y-90487488D01*
X174625000Y-90487488D02*
X173672500Y-91439988D01*
X173672500Y-93980000D02*
X174307500Y-94615000D01*
X173672500Y-91439988D02*
X173672500Y-93980000D01*
D24*
X156527500Y-113982500D02*
X143827500Y-113982500D01*
X161290000Y-118745000D02*
X156527500Y-113982500D01*
X143827500Y-113982500D02*
X140970000Y-111125000D01*
X161290000Y-120650000D02*
X161290000Y-118745000D01*
D23*
X196913500Y-106783500D02*
X192520000Y-102390000D01*
X196913500Y-118427500D02*
X196913500Y-106783500D01*
X170180000Y-86360000D02*
X170180000Y-87630000D01*
D25*
X140335000Y-104140000D02*
X140970000Y-104140000D01*
X140970000Y-104140000D02*
X141605000Y-104140000D01*
X140335000Y-110490000D02*
X140652500Y-110490000D01*
D24*
X140970000Y-110172500D02*
X140970000Y-111125000D01*
D25*
X140652500Y-110490000D02*
X140970000Y-110172500D01*
D24*
X140970000Y-104140000D02*
X140970000Y-110172500D01*
X140970000Y-104140000D02*
X140970000Y-89217500D01*
X140970000Y-89217500D02*
X136048750Y-84296250D01*
D26*
X135572500Y-83820000D02*
X136048750Y-84296250D01*
D24*
X136048750Y-81438750D02*
X143510000Y-73977500D01*
X143510000Y-73977500D02*
X153669998Y-73977500D01*
D25*
X135890000Y-83820000D02*
X136048750Y-83661250D01*
X135572500Y-83820000D02*
X135890000Y-83820000D01*
D24*
X136048750Y-83661250D02*
X136048750Y-81438750D01*
X136048750Y-84296250D02*
X136048750Y-83661250D01*
D25*
X161290000Y-118745000D02*
X161925048Y-119380048D01*
X161925048Y-119380048D02*
X162242500Y-119380048D01*
X161290000Y-120650000D02*
X162242500Y-120650000D01*
D24*
X98171000Y-119062500D02*
X98171000Y-117792506D01*
X180340000Y-129286000D02*
X180340000Y-131318000D01*
X182118000Y-133096000D02*
X183157238Y-133096000D01*
X180340000Y-131318000D02*
X182118000Y-133096000D01*
X157480000Y-129286000D02*
X157480000Y-132842000D01*
X104140000Y-129286000D02*
X104140000Y-132588000D01*
X98171000Y-119062500D02*
X98171000Y-120332500D01*
D23*
X183832500Y-118427500D02*
X196913500Y-118427500D01*
X181356000Y-120650000D02*
X183832500Y-118427500D01*
X95504000Y-115824000D02*
X98552000Y-118872000D01*
X95504000Y-61277500D02*
X95504000Y-115824000D01*
X112776000Y-61277500D02*
X95504000Y-61277500D01*
X116522500Y-69215000D02*
X112776000Y-61277500D01*
D25*
%TO.N,VCC*%
X129658202Y-72390000D02*
X129540000Y-72390000D01*
D23*
X131445000Y-66675000D02*
X135890000Y-62230000D01*
X135890000Y-62230000D02*
X137160000Y-63500000D01*
X137160000Y-63500000D02*
X138430000Y-62230000D01*
X138430000Y-62230000D02*
X139700000Y-63500000D01*
X144780000Y-63500000D02*
X146050000Y-62230000D01*
X139700000Y-63500000D02*
X144780000Y-63500000D01*
X146050000Y-62230000D02*
X147320000Y-63500000D01*
X147320000Y-63500000D02*
X148590000Y-62230000D01*
X148590000Y-62230000D02*
X149860000Y-63500000D01*
X154940000Y-63500000D02*
X156210000Y-62230000D01*
X149860000Y-63500000D02*
X154940000Y-63500000D01*
X156210000Y-62230000D02*
X157480000Y-63500000D01*
X157480000Y-63500000D02*
X158750000Y-62230000D01*
X158750000Y-62230000D02*
X160020000Y-63500000D01*
X160020000Y-63500000D02*
X161290000Y-62230000D01*
X161290000Y-62230000D02*
X162560000Y-63500000D01*
X162560000Y-63500000D02*
X163830000Y-62230000D01*
X163830000Y-62230000D02*
X165100000Y-63500000D01*
X165100000Y-63500000D02*
X168275000Y-63500000D01*
X170180000Y-63500000D02*
X171450000Y-62230000D01*
X168275000Y-63500000D02*
X170180000Y-63500000D01*
X168275000Y-63500000D02*
X168275000Y-83820000D01*
X171450000Y-62230000D02*
X172720000Y-63500000D01*
X172720000Y-63500000D02*
X173990000Y-62230000D01*
X173990000Y-62230000D02*
X175260000Y-63500000D01*
X175260000Y-63500000D02*
X176530000Y-62230000D01*
X176530000Y-62230000D02*
X177800000Y-63500000D01*
X177800000Y-63500000D02*
X179070000Y-62230000D01*
X179070000Y-62230000D02*
X180340000Y-63500000D01*
X180340000Y-63500000D02*
X181610000Y-62230000D01*
X144145000Y-110490000D02*
X144145000Y-101600000D01*
X144145000Y-101600000D02*
X148907500Y-101600000D01*
X148907500Y-102870000D02*
X148907500Y-101600000D01*
X148907500Y-101600000D02*
X148907500Y-95567500D01*
X145732500Y-95567500D02*
X148907500Y-95567500D01*
X152082500Y-90170000D02*
X152082500Y-95567500D01*
X148907500Y-95567500D02*
X152082500Y-95567500D01*
X148907500Y-102870000D02*
X148907500Y-106680000D01*
X148907500Y-106680000D02*
X155892500Y-106680000D01*
X155892500Y-102870000D02*
X155892500Y-106680000D01*
X164147500Y-92392500D02*
X168275000Y-92392500D01*
X168275000Y-92392500D02*
X168275000Y-83820000D01*
X168275000Y-86042500D02*
X160020000Y-86042500D01*
X160020000Y-86042500D02*
X160020000Y-90170000D01*
X168275000Y-83820000D02*
X168275000Y-86042500D01*
X129540000Y-72390000D02*
X131445000Y-70485000D01*
X131445000Y-70485000D02*
X131445000Y-66675000D01*
X133667500Y-76517500D02*
X129540000Y-72390000D01*
X133667500Y-83820000D02*
X133667500Y-76517500D01*
X165735000Y-106680000D02*
X165735000Y-103505000D01*
X155892500Y-106680000D02*
X165735000Y-106680000D01*
X165735000Y-103505000D02*
X168275000Y-100965000D01*
X168275000Y-100965000D02*
X168275000Y-92392500D01*
X168275000Y-115570000D02*
X168275000Y-109220000D01*
D25*
X167322500Y-108267500D02*
X168910000Y-106680000D01*
D23*
X168275000Y-109220000D02*
X167322500Y-108267500D01*
X167322500Y-108267500D02*
X165735000Y-106680000D01*
D25*
X178752500Y-106680000D02*
X168910000Y-106680000D01*
D24*
X104013000Y-120142000D02*
X104013000Y-118871999D01*
X104013000Y-118871999D02*
X104013000Y-117602000D01*
D23*
X168275000Y-118110000D02*
X171450000Y-121285000D01*
X171450000Y-121285000D02*
X174307500Y-121285000D01*
X174307500Y-121285000D02*
X175260001Y-122237501D01*
D24*
X100330000Y-127000000D02*
X106934000Y-127000000D01*
X99568000Y-126238000D02*
X100330000Y-127000000D01*
X106934000Y-127000000D02*
X109220000Y-129286000D01*
X99568000Y-122936000D02*
X99568000Y-126238000D01*
X101092000Y-121412000D02*
X99568000Y-122936000D01*
X103759000Y-64770000D02*
X103759000Y-69977000D01*
X97028000Y-64770000D02*
X103759000Y-64770000D01*
X104013000Y-117602000D02*
X104013000Y-120142000D01*
X102743000Y-121412000D02*
X104013000Y-120142000D01*
X101092000Y-121412000D02*
X102743000Y-121412000D01*
D23*
X114173000Y-71120000D02*
X111760000Y-69850000D01*
X128270000Y-71120000D02*
X114173000Y-71120000D01*
X129540000Y-72390000D02*
X128270000Y-71120000D01*
D24*
X107823000Y-114300000D02*
X104013000Y-117602000D01*
X107823000Y-73025000D02*
X107823000Y-114300000D01*
X103759000Y-69723000D02*
X107823000Y-73025000D01*
D23*
%TO.N,/RSTDRV*%
X178816000Y-115824000D02*
X171132514Y-108267500D01*
X178816000Y-115824000D02*
X179324000Y-116332000D01*
X178959151Y-128126849D02*
X177800000Y-129286000D01*
X178959151Y-123871305D02*
X178959151Y-128126849D01*
X179324000Y-123506456D02*
X178959151Y-123871305D01*
X179324000Y-116332000D02*
X179324000Y-123506456D01*
%TO.N,/IRQ9*%
X157162500Y-108902500D02*
X170815000Y-122555000D01*
X149542500Y-108902500D02*
X157162500Y-108902500D01*
X147320000Y-106680000D02*
X149542500Y-108902500D01*
X147320000Y-102870000D02*
X147320000Y-106680000D01*
X171560849Y-128126849D02*
X172720000Y-129286000D01*
X170815000Y-123063000D02*
X171560849Y-123808849D01*
X171560849Y-123808849D02*
X171560849Y-128126849D01*
X170815000Y-122555000D02*
X170815000Y-123063000D01*
%TO.N,/~SMEMW*%
X131762500Y-84772500D02*
X131762500Y-82867500D01*
X139386206Y-92396206D02*
X131762500Y-84772500D01*
X139386206Y-112716206D02*
X139386206Y-92396206D01*
X144938751Y-118268751D02*
X139386206Y-112716206D01*
X130182412Y-81287412D02*
X130182412Y-81280000D01*
X157638749Y-118268751D02*
X144938751Y-118268751D01*
X131762500Y-82867500D02*
X130182412Y-81287412D01*
X159385000Y-120015001D02*
X157638749Y-118268751D01*
X156845001Y-122555000D02*
X159385000Y-120015001D01*
X156464000Y-122555000D02*
X156845001Y-122555000D01*
X156210000Y-122936000D02*
X156464000Y-122555000D01*
X156210000Y-128016000D02*
X154940000Y-129286000D01*
X156210000Y-122936000D02*
X156210000Y-128016000D01*
X130182412Y-79509412D02*
X125603000Y-74930000D01*
X130182412Y-81287412D02*
X130182412Y-79509412D01*
%TO.N,/~SMEMR*%
X156210000Y-121920000D02*
X158115000Y-120015000D01*
X154432000Y-121920000D02*
X156210000Y-121920000D01*
X153670000Y-122682000D02*
X154432000Y-121920000D01*
X153670000Y-128016000D02*
X152400000Y-129286000D01*
X153670000Y-122682000D02*
X153670000Y-128016000D01*
X129540000Y-92710000D02*
X125603000Y-92710000D01*
X130810000Y-95250000D02*
X130810000Y-93980000D01*
X135572500Y-117792500D02*
X135572500Y-100012500D01*
X138747500Y-120967500D02*
X135572500Y-117792500D01*
X135572500Y-100012500D02*
X130810000Y-95250000D01*
X149225000Y-119062500D02*
X147320000Y-120967500D01*
X130810000Y-93980000D02*
X129540000Y-92710000D01*
X157162500Y-119062500D02*
X149225000Y-119062500D01*
X147320000Y-120967500D02*
X138747500Y-120967500D01*
X158115000Y-120015000D02*
X157162500Y-119062500D01*
%TO.N,/IRQ5*%
X125730006Y-121602494D02*
X125730006Y-112712500D01*
X125730000Y-122428000D02*
X125730006Y-121602494D01*
X125730000Y-128016000D02*
X124460000Y-129286000D01*
X125730000Y-122428000D02*
X125730000Y-128016000D01*
%TO.N,/IRQ4*%
X124777500Y-120650000D02*
X124777500Y-113665000D01*
X123190000Y-122174000D02*
X124777500Y-120650000D01*
X123190000Y-128016000D02*
X121920000Y-129286000D01*
X123190000Y-122174000D02*
X123190000Y-128016000D01*
%TO.N,/IRQ3*%
X122555000Y-120332500D02*
X122555000Y-114617500D01*
X120650000Y-122174000D02*
X122555000Y-120332500D01*
X120650000Y-128016000D02*
X119380000Y-129286000D01*
X120650000Y-122174000D02*
X120650000Y-128016000D01*
%TO.N,/BA18*%
X156210000Y-80010000D02*
X158750000Y-80010000D01*
X154940002Y-81279998D02*
X156210000Y-80010000D01*
X151764998Y-81279998D02*
X154940002Y-81279998D01*
%TO.N,/BA17*%
X156210000Y-81280000D02*
X158750000Y-81280000D01*
X155257500Y-82232500D02*
X156210000Y-81280000D01*
X151130000Y-82232500D02*
X155257500Y-82232500D01*
%TO.N,/BA16*%
X150495003Y-83185003D02*
X155892475Y-83185003D01*
X155892475Y-83185003D02*
X156844989Y-82232489D01*
X127584223Y-73847349D02*
X125034651Y-73847349D01*
X130373437Y-76636563D02*
X127584223Y-73847349D01*
X123952000Y-74930000D02*
X110363000Y-74930000D01*
X125034651Y-73847349D02*
X123952000Y-74930000D01*
%TO.N,/BD6*%
X142627488Y-77175423D02*
X142627488Y-85337520D01*
X142627488Y-85337520D02*
X142557508Y-85407500D01*
%TO.N,/BD5*%
X133985000Y-93662500D02*
X135255000Y-94932500D01*
X135255000Y-94932500D02*
X135572500Y-94932500D01*
X143827500Y-77152500D02*
X143827500Y-86042500D01*
X143827500Y-86042500D02*
X143827500Y-86360000D01*
%TO.N,/BD3*%
X145097500Y-79375000D02*
X147320000Y-77152500D01*
X143827500Y-88582500D02*
X145097500Y-87312500D01*
X145097500Y-87312500D02*
X145097500Y-79375000D01*
%TO.N,/BD2*%
X146050000Y-79692500D02*
X148590000Y-77152500D01*
X146050000Y-89852494D02*
X146050000Y-79692500D01*
D22*
X133096000Y-106553000D02*
X131191000Y-106553000D01*
X131191000Y-106553000D02*
X130937000Y-106807000D01*
X130937000Y-106807000D02*
X130937000Y-106807000D01*
D23*
%TO.N,/BD1*%
X147002500Y-80010000D02*
X149860000Y-77152500D01*
X147002500Y-92075000D02*
X147002500Y-80010000D01*
D22*
X133721499Y-105273499D02*
X130311501Y-105273499D01*
X130311501Y-105273499D02*
X128778000Y-106807000D01*
X128778000Y-106807000D02*
X128778000Y-106807000D01*
D23*
%TO.N,/BD0*%
X147954999Y-80327501D02*
X151130000Y-77152500D01*
X147954999Y-92709999D02*
X147954999Y-80327501D01*
X134493000Y-102997000D02*
X128270000Y-102997000D01*
X128270000Y-102997000D02*
X128270000Y-102997000D01*
%TO.N,/BA19*%
X156210000Y-78740000D02*
X158750000Y-78740000D01*
X154622500Y-80327500D02*
X156210000Y-78740000D01*
X152400000Y-80327500D02*
X154622500Y-80327500D01*
%TO.N,/BA20*%
X156210000Y-77470000D02*
X158750000Y-77470000D01*
X154305000Y-79375000D02*
X156210000Y-77470000D01*
X153035000Y-79375000D02*
X154305000Y-79375000D01*
%TD*%
D22*
%TO.N,GND*%
X158940500Y-73077606D02*
X158940500Y-75829894D01*
X158697394Y-76073000D01*
X142240000Y-76073000D01*
X142215224Y-76075440D01*
X142191399Y-76082667D01*
X142169443Y-76094403D01*
X142150197Y-76110197D01*
X141515197Y-76745197D01*
X141499403Y-76764443D01*
X141487667Y-76786399D01*
X141480440Y-76810224D01*
X141478000Y-76835000D01*
X141478000Y-87630000D01*
X141480440Y-87654776D01*
X141487667Y-87678601D01*
X141499403Y-87700557D01*
X141515197Y-87719803D01*
X143420197Y-89624803D01*
X143439443Y-89640597D01*
X143461399Y-89652333D01*
X143485224Y-89659560D01*
X143510000Y-89662000D01*
X144409894Y-89662000D01*
X145923000Y-91175106D01*
X145923000Y-92392500D01*
X145925440Y-92417276D01*
X145932667Y-92441101D01*
X145944403Y-92463057D01*
X145960197Y-92482303D01*
X146875500Y-93397606D01*
X146875500Y-93927394D01*
X146632394Y-94170500D01*
X142240000Y-94170500D01*
X142215224Y-94172940D01*
X142191399Y-94180167D01*
X142169443Y-94191903D01*
X142150197Y-94207697D01*
X141832697Y-94525197D01*
X141816903Y-94544443D01*
X141805167Y-94566399D01*
X141797940Y-94590224D01*
X141795500Y-94615000D01*
X141795500Y-110807500D01*
X141797940Y-110832276D01*
X141805167Y-110856101D01*
X141816903Y-110878057D01*
X141832697Y-110897303D01*
X143102697Y-112167303D01*
X143121943Y-112183097D01*
X143143899Y-112194833D01*
X143167724Y-112202060D01*
X143192500Y-112204500D01*
X145097500Y-112204500D01*
X145122276Y-112202060D01*
X145146101Y-112194833D01*
X145168057Y-112183097D01*
X145187303Y-112167303D01*
X147690106Y-109664500D01*
X156792394Y-109664500D01*
X169100500Y-121972606D01*
X169100500Y-122184894D01*
X168857394Y-122428000D01*
X158739106Y-122428000D01*
X160744803Y-120422303D01*
X160760597Y-120403057D01*
X160772333Y-120381101D01*
X160779560Y-120357276D01*
X160782000Y-120332500D01*
X160782000Y-119697500D01*
X160779560Y-119672724D01*
X160772333Y-119648899D01*
X160760597Y-119626943D01*
X160744803Y-119607697D01*
X158522303Y-117385197D01*
X158503057Y-117369403D01*
X158481101Y-117357667D01*
X158457276Y-117350440D01*
X158432500Y-117348000D01*
X145150106Y-117348000D01*
X140144500Y-112342394D01*
X140144500Y-92075000D01*
X140142060Y-92050224D01*
X140134833Y-92026399D01*
X140123097Y-92004443D01*
X140107303Y-91985197D01*
X135382000Y-87259894D01*
X135382000Y-81332606D01*
X143880106Y-72834500D01*
X158697394Y-72834500D01*
X158940500Y-73077606D01*
%TA.AperFunction,Conductor*%
D27*
G36*
X158940500Y-73077606D02*
G01*
X158940500Y-75829894D01*
X158697394Y-76073000D01*
X142240000Y-76073000D01*
X142215224Y-76075440D01*
X142191399Y-76082667D01*
X142169443Y-76094403D01*
X142150197Y-76110197D01*
X141515197Y-76745197D01*
X141499403Y-76764443D01*
X141487667Y-76786399D01*
X141480440Y-76810224D01*
X141478000Y-76835000D01*
X141478000Y-87630000D01*
X141480440Y-87654776D01*
X141487667Y-87678601D01*
X141499403Y-87700557D01*
X141515197Y-87719803D01*
X143420197Y-89624803D01*
X143439443Y-89640597D01*
X143461399Y-89652333D01*
X143485224Y-89659560D01*
X143510000Y-89662000D01*
X144409894Y-89662000D01*
X145923000Y-91175106D01*
X145923000Y-92392500D01*
X145925440Y-92417276D01*
X145932667Y-92441101D01*
X145944403Y-92463057D01*
X145960197Y-92482303D01*
X146875500Y-93397606D01*
X146875500Y-93927394D01*
X146632394Y-94170500D01*
X142240000Y-94170500D01*
X142215224Y-94172940D01*
X142191399Y-94180167D01*
X142169443Y-94191903D01*
X142150197Y-94207697D01*
X141832697Y-94525197D01*
X141816903Y-94544443D01*
X141805167Y-94566399D01*
X141797940Y-94590224D01*
X141795500Y-94615000D01*
X141795500Y-110807500D01*
X141797940Y-110832276D01*
X141805167Y-110856101D01*
X141816903Y-110878057D01*
X141832697Y-110897303D01*
X143102697Y-112167303D01*
X143121943Y-112183097D01*
X143143899Y-112194833D01*
X143167724Y-112202060D01*
X143192500Y-112204500D01*
X145097500Y-112204500D01*
X145122276Y-112202060D01*
X145146101Y-112194833D01*
X145168057Y-112183097D01*
X145187303Y-112167303D01*
X147690106Y-109664500D01*
X156792394Y-109664500D01*
X169100500Y-121972606D01*
X169100500Y-122184894D01*
X168857394Y-122428000D01*
X158739106Y-122428000D01*
X160744803Y-120422303D01*
X160760597Y-120403057D01*
X160772333Y-120381101D01*
X160779560Y-120357276D01*
X160782000Y-120332500D01*
X160782000Y-119697500D01*
X160779560Y-119672724D01*
X160772333Y-119648899D01*
X160760597Y-119626943D01*
X160744803Y-119607697D01*
X158522303Y-117385197D01*
X158503057Y-117369403D01*
X158481101Y-117357667D01*
X158457276Y-117350440D01*
X158432500Y-117348000D01*
X145150106Y-117348000D01*
X140144500Y-112342394D01*
X140144500Y-92075000D01*
X140142060Y-92050224D01*
X140134833Y-92026399D01*
X140123097Y-92004443D01*
X140107303Y-91985197D01*
X135382000Y-87259894D01*
X135382000Y-81332606D01*
X143880106Y-72834500D01*
X158697394Y-72834500D01*
X158940500Y-73077606D01*
G37*
%TD.AperFunction*%
%TD*%
D22*
%TO.N,VCC*%
X144785441Y-61786875D02*
X144723289Y-62042093D01*
X144712124Y-62304533D01*
X144752371Y-62564107D01*
X144842486Y-62810842D01*
X144896188Y-62911314D01*
X145129803Y-62970592D01*
X145870395Y-62230000D01*
X145856253Y-62215858D01*
X146035858Y-62036253D01*
X146050000Y-62050395D01*
X146064143Y-62036253D01*
X146243748Y-62215858D01*
X146229605Y-62230000D01*
X146970197Y-62970592D01*
X147203812Y-62911314D01*
X147314559Y-62673125D01*
X147321611Y-62644166D01*
X147382486Y-62810842D01*
X147436188Y-62911314D01*
X147669803Y-62970592D01*
X148410395Y-62230000D01*
X148396253Y-62215858D01*
X148575858Y-62036253D01*
X148590000Y-62050395D01*
X148604143Y-62036253D01*
X148783748Y-62215858D01*
X148769605Y-62230000D01*
X149510197Y-62970592D01*
X149743812Y-62911314D01*
X149854559Y-62673125D01*
X149916711Y-62417907D01*
X149927876Y-62155467D01*
X149887629Y-61895893D01*
X149824118Y-61722000D01*
X154975605Y-61722000D01*
X154945441Y-61786875D01*
X154883289Y-62042093D01*
X154872124Y-62304533D01*
X154912371Y-62564107D01*
X155002486Y-62810842D01*
X155056188Y-62911314D01*
X155289803Y-62970592D01*
X156030395Y-62230000D01*
X156016253Y-62215858D01*
X156195858Y-62036253D01*
X156210000Y-62050395D01*
X156224143Y-62036253D01*
X156403748Y-62215858D01*
X156389605Y-62230000D01*
X157130197Y-62970592D01*
X157363812Y-62911314D01*
X157474559Y-62673125D01*
X157481611Y-62644166D01*
X157542486Y-62810842D01*
X157596188Y-62911314D01*
X157829803Y-62970592D01*
X158570395Y-62230000D01*
X158556253Y-62215858D01*
X158735858Y-62036253D01*
X158750000Y-62050395D01*
X158764143Y-62036253D01*
X158943748Y-62215858D01*
X158929605Y-62230000D01*
X159670197Y-62970592D01*
X159903812Y-62911314D01*
X160014559Y-62673125D01*
X160021611Y-62644166D01*
X160082486Y-62810842D01*
X160136188Y-62911314D01*
X160369803Y-62970592D01*
X161110395Y-62230000D01*
X161096253Y-62215858D01*
X161275858Y-62036253D01*
X161290000Y-62050395D01*
X161304143Y-62036253D01*
X161483748Y-62215858D01*
X161469605Y-62230000D01*
X162210197Y-62970592D01*
X162443812Y-62911314D01*
X162554559Y-62673125D01*
X162561611Y-62644166D01*
X162622486Y-62810842D01*
X162676188Y-62911314D01*
X162909803Y-62970592D01*
X163650395Y-62230000D01*
X163636253Y-62215858D01*
X163815858Y-62036253D01*
X163830000Y-62050395D01*
X163844143Y-62036253D01*
X164023748Y-62215858D01*
X164009605Y-62230000D01*
X164750197Y-62970592D01*
X164983812Y-62911314D01*
X165094559Y-62673125D01*
X165156711Y-62417907D01*
X165167876Y-62155467D01*
X165127629Y-61895893D01*
X165064118Y-61722000D01*
X170215605Y-61722000D01*
X170185441Y-61786875D01*
X170123289Y-62042093D01*
X170112124Y-62304533D01*
X170152371Y-62564107D01*
X170242486Y-62810842D01*
X170296188Y-62911314D01*
X170529803Y-62970592D01*
X171270395Y-62230000D01*
X171256253Y-62215858D01*
X171435858Y-62036253D01*
X171450000Y-62050395D01*
X171464143Y-62036253D01*
X171643748Y-62215858D01*
X171629605Y-62230000D01*
X172370197Y-62970592D01*
X172603812Y-62911314D01*
X172714559Y-62673125D01*
X172721611Y-62644166D01*
X172782486Y-62810842D01*
X172836188Y-62911314D01*
X173069803Y-62970592D01*
X173810395Y-62230000D01*
X173796253Y-62215858D01*
X173975858Y-62036253D01*
X173990000Y-62050395D01*
X174004143Y-62036253D01*
X174183748Y-62215858D01*
X174169605Y-62230000D01*
X174910197Y-62970592D01*
X175143812Y-62911314D01*
X175254559Y-62673125D01*
X175261611Y-62644166D01*
X175322486Y-62810842D01*
X175376188Y-62911314D01*
X175609803Y-62970592D01*
X176350395Y-62230000D01*
X176336253Y-62215858D01*
X176515858Y-62036253D01*
X176530000Y-62050395D01*
X176544143Y-62036253D01*
X176723748Y-62215858D01*
X176709605Y-62230000D01*
X177450197Y-62970592D01*
X177683812Y-62911314D01*
X177794559Y-62673125D01*
X177801611Y-62644166D01*
X177862486Y-62810842D01*
X177916188Y-62911314D01*
X178149803Y-62970592D01*
X178890395Y-62230000D01*
X178876253Y-62215858D01*
X179055858Y-62036253D01*
X179070000Y-62050395D01*
X179084143Y-62036253D01*
X179263748Y-62215858D01*
X179249605Y-62230000D01*
X179990197Y-62970592D01*
X180223812Y-62911314D01*
X180334559Y-62673125D01*
X180341611Y-62644166D01*
X180402486Y-62810842D01*
X180456188Y-62911314D01*
X180689803Y-62970592D01*
X181430395Y-62230000D01*
X181416253Y-62215858D01*
X181595858Y-62036253D01*
X181610000Y-62050395D01*
X181624143Y-62036253D01*
X181803748Y-62215858D01*
X181789605Y-62230000D01*
X181803748Y-62244143D01*
X181624143Y-62423748D01*
X181610000Y-62409605D01*
X180869408Y-63150197D01*
X180928686Y-63383812D01*
X181166875Y-63494559D01*
X181422093Y-63556711D01*
X181684533Y-63567876D01*
X181944107Y-63527629D01*
X182118000Y-63464118D01*
X182118000Y-68782007D01*
X181954514Y-68714289D01*
X181726328Y-68668900D01*
X181493672Y-68668900D01*
X181265486Y-68714289D01*
X181050539Y-68803323D01*
X180857093Y-68932580D01*
X180692580Y-69097093D01*
X180563323Y-69290539D01*
X180474289Y-69505486D01*
X180428900Y-69733672D01*
X180428900Y-69966328D01*
X180474289Y-70194514D01*
X180563323Y-70409461D01*
X180692580Y-70602907D01*
X180857093Y-70767420D01*
X181050539Y-70896677D01*
X181265486Y-70985711D01*
X181493672Y-71031100D01*
X181726328Y-71031100D01*
X181954514Y-70985711D01*
X182118000Y-70917993D01*
X182118000Y-78369894D01*
X181874894Y-78613000D01*
X169227500Y-78613000D01*
X169202724Y-78615440D01*
X169178899Y-78622667D01*
X169156943Y-78634403D01*
X169137697Y-78650197D01*
X168820197Y-78967697D01*
X168804403Y-78986943D01*
X168792667Y-79008899D01*
X168785440Y-79032724D01*
X168783000Y-79057500D01*
X168783000Y-100594894D01*
X165962697Y-103415197D01*
X165946903Y-103434443D01*
X165935167Y-103456399D01*
X165927940Y-103480224D01*
X165925500Y-103505000D01*
X165925500Y-104775000D01*
X165927940Y-104799776D01*
X165935167Y-104823601D01*
X165946903Y-104845557D01*
X165962697Y-104864803D01*
X177060985Y-115963091D01*
X178657250Y-119094227D01*
X178657251Y-122301000D01*
X174264610Y-122301000D01*
X172760161Y-121799517D01*
X172735884Y-121793997D01*
X172720000Y-121793000D01*
X171185106Y-121793000D01*
X157569803Y-108177697D01*
X157550557Y-108161903D01*
X157528601Y-108150167D01*
X157504776Y-108142940D01*
X157480000Y-108140500D01*
X149912606Y-108140500D01*
X148044803Y-106272697D01*
X148025557Y-106256903D01*
X148003601Y-106245167D01*
X147986750Y-106240055D01*
X147986750Y-103514368D01*
X148040126Y-103460992D01*
X148141586Y-103309147D01*
X148211472Y-103140425D01*
X148247100Y-102961311D01*
X148247100Y-102778689D01*
X153060400Y-102778689D01*
X153060400Y-102961311D01*
X153096028Y-103140425D01*
X153165914Y-103309147D01*
X153267374Y-103460992D01*
X153396508Y-103590126D01*
X153548353Y-103691586D01*
X153717075Y-103761472D01*
X153896189Y-103797100D01*
X154078811Y-103797100D01*
X154257925Y-103761472D01*
X154426647Y-103691586D01*
X154578492Y-103590126D01*
X154707626Y-103460992D01*
X154809086Y-103309147D01*
X154878972Y-103140425D01*
X154914600Y-102961311D01*
X154914600Y-102778689D01*
X161950400Y-102778689D01*
X161950400Y-102961311D01*
X161986028Y-103140425D01*
X162055914Y-103309147D01*
X162157374Y-103460992D01*
X162286508Y-103590126D01*
X162438353Y-103691586D01*
X162607075Y-103761472D01*
X162786189Y-103797100D01*
X162968811Y-103797100D01*
X163147925Y-103761472D01*
X163316647Y-103691586D01*
X163468492Y-103590126D01*
X163597626Y-103460992D01*
X163699086Y-103309147D01*
X163768972Y-103140425D01*
X163804600Y-102961311D01*
X163804600Y-102778689D01*
X163768972Y-102599575D01*
X163699086Y-102430853D01*
X163597626Y-102279008D01*
X163468492Y-102149874D01*
X163316647Y-102048414D01*
X163147925Y-101978528D01*
X162968811Y-101942900D01*
X162786189Y-101942900D01*
X162607075Y-101978528D01*
X162438353Y-102048414D01*
X162286508Y-102149874D01*
X162157374Y-102279008D01*
X162055914Y-102430853D01*
X161986028Y-102599575D01*
X161950400Y-102778689D01*
X154914600Y-102778689D01*
X154878972Y-102599575D01*
X154809086Y-102430853D01*
X154707626Y-102279008D01*
X154578492Y-102149874D01*
X154426647Y-102048414D01*
X154257925Y-101978528D01*
X154078811Y-101942900D01*
X153896189Y-101942900D01*
X153717075Y-101978528D01*
X153548353Y-102048414D01*
X153396508Y-102149874D01*
X153267374Y-102279008D01*
X153165914Y-102430853D01*
X153096028Y-102599575D01*
X153060400Y-102778689D01*
X148247100Y-102778689D01*
X148211472Y-102599575D01*
X148141586Y-102430853D01*
X148040126Y-102279008D01*
X147910992Y-102149874D01*
X147759147Y-102048414D01*
X147590425Y-101978528D01*
X147411311Y-101942900D01*
X147228689Y-101942900D01*
X147049575Y-101978528D01*
X146880853Y-102048414D01*
X146729008Y-102149874D01*
X146599874Y-102279008D01*
X146498414Y-102430853D01*
X146428528Y-102599575D01*
X146392900Y-102778689D01*
X146392900Y-102961311D01*
X146428528Y-103140425D01*
X146498414Y-103309147D01*
X146599874Y-103460992D01*
X146653250Y-103514368D01*
X146653251Y-106647235D01*
X146650024Y-106680000D01*
X146662897Y-106810705D01*
X146701023Y-106936388D01*
X146762935Y-107052218D01*
X146762936Y-107052219D01*
X146846256Y-107153745D01*
X146871702Y-107174628D01*
X146875500Y-107178426D01*
X146875500Y-109167394D01*
X144727394Y-111315500D01*
X143562606Y-111315500D01*
X142684500Y-110437394D01*
X142684500Y-95302606D01*
X142927606Y-95059500D01*
X147002500Y-95059500D01*
X147027276Y-95057060D01*
X147051101Y-95049833D01*
X147073057Y-95038097D01*
X147092303Y-95022303D01*
X147908417Y-94206189D01*
X163220400Y-94206189D01*
X163220400Y-94388811D01*
X163256028Y-94567925D01*
X163325914Y-94736647D01*
X163427374Y-94888492D01*
X163556508Y-95017626D01*
X163708353Y-95119086D01*
X163877075Y-95188972D01*
X164056189Y-95224600D01*
X164238811Y-95224600D01*
X164417925Y-95188972D01*
X164586647Y-95119086D01*
X164738492Y-95017626D01*
X164867626Y-94888492D01*
X164969086Y-94736647D01*
X165038972Y-94567925D01*
X165074600Y-94388811D01*
X165074600Y-94206189D01*
X165038972Y-94027075D01*
X164969086Y-93858353D01*
X164867626Y-93706508D01*
X164738492Y-93577374D01*
X164586647Y-93475914D01*
X164417925Y-93406028D01*
X164238811Y-93370400D01*
X164056189Y-93370400D01*
X163877075Y-93406028D01*
X163708353Y-93475914D01*
X163556508Y-93577374D01*
X163427374Y-93706508D01*
X163325914Y-93858353D01*
X163256028Y-94027075D01*
X163220400Y-94206189D01*
X147908417Y-94206189D01*
X149314803Y-92799803D01*
X149330597Y-92780557D01*
X149342333Y-92758601D01*
X149349560Y-92734776D01*
X149352000Y-92710000D01*
X149352000Y-90078689D01*
X162585400Y-90078689D01*
X162585400Y-90261311D01*
X162621028Y-90440425D01*
X162690914Y-90609147D01*
X162792374Y-90760992D01*
X162921508Y-90890126D01*
X163073353Y-90991586D01*
X163242075Y-91061472D01*
X163421189Y-91097100D01*
X163603811Y-91097100D01*
X163782925Y-91061472D01*
X163951647Y-90991586D01*
X164103492Y-90890126D01*
X164232626Y-90760992D01*
X164334086Y-90609147D01*
X164403972Y-90440425D01*
X164439600Y-90261311D01*
X164439600Y-90078689D01*
X164403972Y-89899575D01*
X164334086Y-89730853D01*
X164232626Y-89579008D01*
X164103492Y-89449874D01*
X163951647Y-89348414D01*
X163782925Y-89278528D01*
X163603811Y-89242900D01*
X163421189Y-89242900D01*
X163242075Y-89278528D01*
X163073353Y-89348414D01*
X162921508Y-89449874D01*
X162792374Y-89579008D01*
X162690914Y-89730853D01*
X162621028Y-89899575D01*
X162585400Y-90078689D01*
X149352000Y-90078689D01*
X149352000Y-86095106D01*
X151500106Y-83947000D01*
X157797500Y-83947000D01*
X157822276Y-83944560D01*
X157846101Y-83937333D01*
X157868057Y-83925597D01*
X157887303Y-83909803D01*
X159792303Y-82004803D01*
X159808097Y-81985557D01*
X159819833Y-81963601D01*
X159827060Y-81939776D01*
X159829500Y-81915000D01*
X159829500Y-72390000D01*
X159827060Y-72365224D01*
X159819833Y-72341399D01*
X159808097Y-72319443D01*
X159792303Y-72300197D01*
X159474803Y-71982697D01*
X159455557Y-71966903D01*
X159433601Y-71955167D01*
X159409776Y-71947940D01*
X159385000Y-71945500D01*
X143192500Y-71945500D01*
X143167724Y-71947940D01*
X143143899Y-71955167D01*
X143121943Y-71966903D01*
X143102697Y-71982697D01*
X134530197Y-80555197D01*
X134514403Y-80574443D01*
X134502667Y-80596399D01*
X134495440Y-80620224D01*
X134493000Y-80645000D01*
X134493000Y-84402394D01*
X134249894Y-84645500D01*
X133085106Y-84645500D01*
X132842000Y-84402394D01*
X132842000Y-75819000D01*
X132839560Y-75794224D01*
X132832333Y-75770399D01*
X132820597Y-75748443D01*
X132804803Y-75729197D01*
X130645803Y-73570197D01*
X130626557Y-73554403D01*
X130604601Y-73542667D01*
X130580776Y-73535440D01*
X130556000Y-73533000D01*
X128212800Y-73533000D01*
X128078855Y-73399055D01*
X128057968Y-73373604D01*
X127956442Y-73290284D01*
X127840612Y-73228372D01*
X127714929Y-73190246D01*
X127616978Y-73180599D01*
X127584223Y-73177373D01*
X127551468Y-73180599D01*
X126873000Y-73180599D01*
X126873000Y-72810782D01*
X126929711Y-72577907D01*
X126940876Y-72315467D01*
X126900629Y-72055893D01*
X126873000Y-71980245D01*
X126873000Y-71374000D01*
X126870560Y-71349224D01*
X126863333Y-71325399D01*
X126851597Y-71303443D01*
X126835803Y-71284197D01*
X126816557Y-71268403D01*
X126794601Y-71256667D01*
X126770776Y-71249440D01*
X126746000Y-71247000D01*
X126287057Y-71247000D01*
X126284314Y-71236188D01*
X126046125Y-71125441D01*
X125790907Y-71063289D01*
X125528467Y-71052124D01*
X125268893Y-71092371D01*
X125022158Y-71182486D01*
X124921686Y-71236188D01*
X124918943Y-71247000D01*
X124714000Y-71247000D01*
X124689224Y-71249440D01*
X124665399Y-71256667D01*
X124643443Y-71268403D01*
X124624197Y-71284197D01*
X124608403Y-71303443D01*
X124600408Y-71317204D01*
X123492510Y-73533000D01*
X112607984Y-73533000D01*
X111623917Y-71072833D01*
X111612449Y-71050735D01*
X111596891Y-71031299D01*
X111577840Y-71015271D01*
X111556028Y-71003269D01*
X111532293Y-70995752D01*
X111506000Y-70993000D01*
X109474000Y-70993000D01*
X109449224Y-70995440D01*
X109425399Y-71002667D01*
X109406690Y-71012304D01*
X108390690Y-71647304D01*
X108370973Y-71662505D01*
X108354600Y-71681260D01*
X108342201Y-71702850D01*
X108334252Y-71726443D01*
X108331059Y-71751134D01*
X108332809Y-71776358D01*
X108350832Y-71882000D01*
X103206324Y-71882000D01*
X103125357Y-64262000D01*
X110427004Y-64262000D01*
X115214887Y-70561846D01*
X115231822Y-70580095D01*
X115251992Y-70594690D01*
X115274621Y-70605070D01*
X115298841Y-70610835D01*
X115316000Y-70612000D01*
X126492000Y-70612000D01*
X126516776Y-70609560D01*
X126540601Y-70602333D01*
X126562557Y-70590597D01*
X126581803Y-70574803D01*
X126597597Y-70555557D01*
X126609333Y-70533601D01*
X126615208Y-70515802D01*
X126956283Y-69151500D01*
X134706565Y-69151500D01*
X134706565Y-70548500D01*
X134715883Y-70643106D01*
X134743478Y-70734077D01*
X134788291Y-70817915D01*
X134848599Y-70891401D01*
X134922085Y-70951709D01*
X135005923Y-70996522D01*
X135096894Y-71024117D01*
X135191500Y-71033435D01*
X136588500Y-71033435D01*
X136683106Y-71024117D01*
X136774077Y-70996522D01*
X136857915Y-70951709D01*
X136931401Y-70891401D01*
X136991709Y-70817915D01*
X137036522Y-70734077D01*
X137064117Y-70643106D01*
X137073435Y-70548500D01*
X137073435Y-69733672D01*
X137248900Y-69733672D01*
X137248900Y-69966328D01*
X137294289Y-70194514D01*
X137383323Y-70409461D01*
X137512580Y-70602907D01*
X137677093Y-70767420D01*
X137870539Y-70896677D01*
X138085486Y-70985711D01*
X138313672Y-71031100D01*
X138546328Y-71031100D01*
X138774514Y-70985711D01*
X138989461Y-70896677D01*
X139182907Y-70767420D01*
X139347420Y-70602907D01*
X139476677Y-70409461D01*
X139565711Y-70194514D01*
X139611100Y-69966328D01*
X139611100Y-69733672D01*
X139565711Y-69505486D01*
X139476677Y-69290539D01*
X139383774Y-69151500D01*
X144866565Y-69151500D01*
X144866565Y-70548500D01*
X144875883Y-70643106D01*
X144903478Y-70734077D01*
X144948291Y-70817915D01*
X145008599Y-70891401D01*
X145082085Y-70951709D01*
X145165923Y-70996522D01*
X145256894Y-71024117D01*
X145351500Y-71033435D01*
X146748500Y-71033435D01*
X146843106Y-71024117D01*
X146934077Y-70996522D01*
X147017915Y-70951709D01*
X147091401Y-70891401D01*
X147151709Y-70817915D01*
X147196522Y-70734077D01*
X147224117Y-70643106D01*
X147233435Y-70548500D01*
X147233435Y-69733672D01*
X147408900Y-69733672D01*
X147408900Y-69966328D01*
X147454289Y-70194514D01*
X147543323Y-70409461D01*
X147672580Y-70602907D01*
X147837093Y-70767420D01*
X148030539Y-70896677D01*
X148245486Y-70985711D01*
X148473672Y-71031100D01*
X148706328Y-71031100D01*
X148934514Y-70985711D01*
X149149461Y-70896677D01*
X149342907Y-70767420D01*
X149507420Y-70602907D01*
X149636677Y-70409461D01*
X149725711Y-70194514D01*
X149771100Y-69966328D01*
X149771100Y-69733672D01*
X149725711Y-69505486D01*
X149636677Y-69290539D01*
X149543774Y-69151500D01*
X155026565Y-69151500D01*
X155026565Y-70548500D01*
X155035883Y-70643106D01*
X155063478Y-70734077D01*
X155108291Y-70817915D01*
X155168599Y-70891401D01*
X155242085Y-70951709D01*
X155325923Y-70996522D01*
X155416894Y-71024117D01*
X155511500Y-71033435D01*
X156908500Y-71033435D01*
X157003106Y-71024117D01*
X157094077Y-70996522D01*
X157177915Y-70951709D01*
X157251401Y-70891401D01*
X157311709Y-70817915D01*
X157356522Y-70734077D01*
X157384117Y-70643106D01*
X157393435Y-70548500D01*
X157393435Y-69733672D01*
X157568900Y-69733672D01*
X157568900Y-69966328D01*
X157614289Y-70194514D01*
X157703323Y-70409461D01*
X157832580Y-70602907D01*
X157997093Y-70767420D01*
X158190539Y-70896677D01*
X158405486Y-70985711D01*
X158633672Y-71031100D01*
X158866328Y-71031100D01*
X159094514Y-70985711D01*
X159309461Y-70896677D01*
X159502907Y-70767420D01*
X159667420Y-70602907D01*
X159796677Y-70409461D01*
X159885711Y-70194514D01*
X159931100Y-69966328D01*
X159931100Y-69733672D01*
X160108900Y-69733672D01*
X160108900Y-69966328D01*
X160154289Y-70194514D01*
X160243323Y-70409461D01*
X160372580Y-70602907D01*
X160537093Y-70767420D01*
X160730539Y-70896677D01*
X160945486Y-70985711D01*
X161173672Y-71031100D01*
X161406328Y-71031100D01*
X161634514Y-70985711D01*
X161849461Y-70896677D01*
X162042907Y-70767420D01*
X162207420Y-70602907D01*
X162336677Y-70409461D01*
X162425711Y-70194514D01*
X162471100Y-69966328D01*
X162471100Y-69733672D01*
X162648900Y-69733672D01*
X162648900Y-69966328D01*
X162694289Y-70194514D01*
X162783323Y-70409461D01*
X162912580Y-70602907D01*
X163077093Y-70767420D01*
X163270539Y-70896677D01*
X163485486Y-70985711D01*
X163713672Y-71031100D01*
X163946328Y-71031100D01*
X164174514Y-70985711D01*
X164389461Y-70896677D01*
X164582907Y-70767420D01*
X164747420Y-70602907D01*
X164876677Y-70409461D01*
X164965711Y-70194514D01*
X165011100Y-69966328D01*
X165011100Y-69733672D01*
X164965711Y-69505486D01*
X164876677Y-69290539D01*
X164783774Y-69151500D01*
X170266565Y-69151500D01*
X170266565Y-70548500D01*
X170275883Y-70643106D01*
X170303478Y-70734077D01*
X170348291Y-70817915D01*
X170408599Y-70891401D01*
X170482085Y-70951709D01*
X170565923Y-70996522D01*
X170656894Y-71024117D01*
X170751500Y-71033435D01*
X172148500Y-71033435D01*
X172243106Y-71024117D01*
X172334077Y-70996522D01*
X172417915Y-70951709D01*
X172491401Y-70891401D01*
X172551709Y-70817915D01*
X172596522Y-70734077D01*
X172624117Y-70643106D01*
X172633435Y-70548500D01*
X172633435Y-69733672D01*
X172808900Y-69733672D01*
X172808900Y-69966328D01*
X172854289Y-70194514D01*
X172943323Y-70409461D01*
X173072580Y-70602907D01*
X173237093Y-70767420D01*
X173430539Y-70896677D01*
X173645486Y-70985711D01*
X173873672Y-71031100D01*
X174106328Y-71031100D01*
X174334514Y-70985711D01*
X174549461Y-70896677D01*
X174742907Y-70767420D01*
X174907420Y-70602907D01*
X175036677Y-70409461D01*
X175125711Y-70194514D01*
X175171100Y-69966328D01*
X175171100Y-69733672D01*
X175348900Y-69733672D01*
X175348900Y-69966328D01*
X175394289Y-70194514D01*
X175483323Y-70409461D01*
X175612580Y-70602907D01*
X175777093Y-70767420D01*
X175970539Y-70896677D01*
X176185486Y-70985711D01*
X176413672Y-71031100D01*
X176646328Y-71031100D01*
X176874514Y-70985711D01*
X177089461Y-70896677D01*
X177282907Y-70767420D01*
X177447420Y-70602907D01*
X177576677Y-70409461D01*
X177665711Y-70194514D01*
X177711100Y-69966328D01*
X177711100Y-69733672D01*
X177888900Y-69733672D01*
X177888900Y-69966328D01*
X177934289Y-70194514D01*
X178023323Y-70409461D01*
X178152580Y-70602907D01*
X178317093Y-70767420D01*
X178510539Y-70896677D01*
X178725486Y-70985711D01*
X178953672Y-71031100D01*
X179186328Y-71031100D01*
X179414514Y-70985711D01*
X179629461Y-70896677D01*
X179822907Y-70767420D01*
X179987420Y-70602907D01*
X180116677Y-70409461D01*
X180205711Y-70194514D01*
X180251100Y-69966328D01*
X180251100Y-69733672D01*
X180205711Y-69505486D01*
X180116677Y-69290539D01*
X179987420Y-69097093D01*
X179822907Y-68932580D01*
X179629461Y-68803323D01*
X179414514Y-68714289D01*
X179186328Y-68668900D01*
X178953672Y-68668900D01*
X178725486Y-68714289D01*
X178510539Y-68803323D01*
X178317093Y-68932580D01*
X178152580Y-69097093D01*
X178023323Y-69290539D01*
X177934289Y-69505486D01*
X177888900Y-69733672D01*
X177711100Y-69733672D01*
X177665711Y-69505486D01*
X177576677Y-69290539D01*
X177447420Y-69097093D01*
X177282907Y-68932580D01*
X177089461Y-68803323D01*
X176874514Y-68714289D01*
X176646328Y-68668900D01*
X176413672Y-68668900D01*
X176185486Y-68714289D01*
X175970539Y-68803323D01*
X175777093Y-68932580D01*
X175612580Y-69097093D01*
X175483323Y-69290539D01*
X175394289Y-69505486D01*
X175348900Y-69733672D01*
X175171100Y-69733672D01*
X175125711Y-69505486D01*
X175036677Y-69290539D01*
X174907420Y-69097093D01*
X174742907Y-68932580D01*
X174549461Y-68803323D01*
X174334514Y-68714289D01*
X174106328Y-68668900D01*
X173873672Y-68668900D01*
X173645486Y-68714289D01*
X173430539Y-68803323D01*
X173237093Y-68932580D01*
X173072580Y-69097093D01*
X172943323Y-69290539D01*
X172854289Y-69505486D01*
X172808900Y-69733672D01*
X172633435Y-69733672D01*
X172633435Y-69151500D01*
X172624117Y-69056894D01*
X172596522Y-68965923D01*
X172551709Y-68882085D01*
X172491401Y-68808599D01*
X172417915Y-68748291D01*
X172334077Y-68703478D01*
X172243106Y-68675883D01*
X172148500Y-68666565D01*
X170751500Y-68666565D01*
X170656894Y-68675883D01*
X170565923Y-68703478D01*
X170482085Y-68748291D01*
X170408599Y-68808599D01*
X170348291Y-68882085D01*
X170303478Y-68965923D01*
X170275883Y-69056894D01*
X170266565Y-69151500D01*
X164783774Y-69151500D01*
X164747420Y-69097093D01*
X164582907Y-68932580D01*
X164389461Y-68803323D01*
X164174514Y-68714289D01*
X163946328Y-68668900D01*
X163713672Y-68668900D01*
X163485486Y-68714289D01*
X163270539Y-68803323D01*
X163077093Y-68932580D01*
X162912580Y-69097093D01*
X162783323Y-69290539D01*
X162694289Y-69505486D01*
X162648900Y-69733672D01*
X162471100Y-69733672D01*
X162425711Y-69505486D01*
X162336677Y-69290539D01*
X162207420Y-69097093D01*
X162042907Y-68932580D01*
X161849461Y-68803323D01*
X161634514Y-68714289D01*
X161406328Y-68668900D01*
X161173672Y-68668900D01*
X160945486Y-68714289D01*
X160730539Y-68803323D01*
X160537093Y-68932580D01*
X160372580Y-69097093D01*
X160243323Y-69290539D01*
X160154289Y-69505486D01*
X160108900Y-69733672D01*
X159931100Y-69733672D01*
X159885711Y-69505486D01*
X159796677Y-69290539D01*
X159667420Y-69097093D01*
X159502907Y-68932580D01*
X159309461Y-68803323D01*
X159094514Y-68714289D01*
X158866328Y-68668900D01*
X158633672Y-68668900D01*
X158405486Y-68714289D01*
X158190539Y-68803323D01*
X157997093Y-68932580D01*
X157832580Y-69097093D01*
X157703323Y-69290539D01*
X157614289Y-69505486D01*
X157568900Y-69733672D01*
X157393435Y-69733672D01*
X157393435Y-69151500D01*
X157384117Y-69056894D01*
X157356522Y-68965923D01*
X157311709Y-68882085D01*
X157251401Y-68808599D01*
X157177915Y-68748291D01*
X157094077Y-68703478D01*
X157003106Y-68675883D01*
X156908500Y-68666565D01*
X155511500Y-68666565D01*
X155416894Y-68675883D01*
X155325923Y-68703478D01*
X155242085Y-68748291D01*
X155168599Y-68808599D01*
X155108291Y-68882085D01*
X155063478Y-68965923D01*
X155035883Y-69056894D01*
X155026565Y-69151500D01*
X149543774Y-69151500D01*
X149507420Y-69097093D01*
X149342907Y-68932580D01*
X149149461Y-68803323D01*
X148934514Y-68714289D01*
X148706328Y-68668900D01*
X148473672Y-68668900D01*
X148245486Y-68714289D01*
X148030539Y-68803323D01*
X147837093Y-68932580D01*
X147672580Y-69097093D01*
X147543323Y-69290539D01*
X147454289Y-69505486D01*
X147408900Y-69733672D01*
X147233435Y-69733672D01*
X147233435Y-69151500D01*
X147224117Y-69056894D01*
X147196522Y-68965923D01*
X147151709Y-68882085D01*
X147091401Y-68808599D01*
X147017915Y-68748291D01*
X146934077Y-68703478D01*
X146843106Y-68675883D01*
X146748500Y-68666565D01*
X145351500Y-68666565D01*
X145256894Y-68675883D01*
X145165923Y-68703478D01*
X145082085Y-68748291D01*
X145008599Y-68808599D01*
X144948291Y-68882085D01*
X144903478Y-68965923D01*
X144875883Y-69056894D01*
X144866565Y-69151500D01*
X139383774Y-69151500D01*
X139347420Y-69097093D01*
X139182907Y-68932580D01*
X138989461Y-68803323D01*
X138774514Y-68714289D01*
X138546328Y-68668900D01*
X138313672Y-68668900D01*
X138085486Y-68714289D01*
X137870539Y-68803323D01*
X137677093Y-68932580D01*
X137512580Y-69097093D01*
X137383323Y-69290539D01*
X137294289Y-69505486D01*
X137248900Y-69733672D01*
X137073435Y-69733672D01*
X137073435Y-69151500D01*
X137064117Y-69056894D01*
X137036522Y-68965923D01*
X136991709Y-68882085D01*
X136931401Y-68808599D01*
X136857915Y-68748291D01*
X136774077Y-68703478D01*
X136683106Y-68675883D01*
X136588500Y-68666565D01*
X135191500Y-68666565D01*
X135096894Y-68675883D01*
X135005923Y-68703478D01*
X134922085Y-68748291D01*
X134848599Y-68808599D01*
X134788291Y-68882085D01*
X134743478Y-68965923D01*
X134715883Y-69056894D01*
X134706565Y-69151500D01*
X126956283Y-69151500D01*
X126975497Y-69074647D01*
X128446711Y-68864474D01*
X128470893Y-68858554D01*
X128493456Y-68848030D01*
X128518553Y-68828553D01*
X134196909Y-63150197D01*
X135149408Y-63150197D01*
X135208686Y-63383812D01*
X135446875Y-63494559D01*
X135702093Y-63556711D01*
X135964533Y-63567876D01*
X136224107Y-63527629D01*
X136470842Y-63437514D01*
X136571314Y-63383812D01*
X136630592Y-63150197D01*
X137689408Y-63150197D01*
X137748686Y-63383812D01*
X137986875Y-63494559D01*
X138242093Y-63556711D01*
X138504533Y-63567876D01*
X138764107Y-63527629D01*
X139010842Y-63437514D01*
X139111314Y-63383812D01*
X139170592Y-63150197D01*
X145309408Y-63150197D01*
X145368686Y-63383812D01*
X145606875Y-63494559D01*
X145862093Y-63556711D01*
X146124533Y-63567876D01*
X146384107Y-63527629D01*
X146630842Y-63437514D01*
X146731314Y-63383812D01*
X146790592Y-63150197D01*
X147849408Y-63150197D01*
X147908686Y-63383812D01*
X148146875Y-63494559D01*
X148402093Y-63556711D01*
X148664533Y-63567876D01*
X148924107Y-63527629D01*
X149170842Y-63437514D01*
X149271314Y-63383812D01*
X149330592Y-63150197D01*
X155469408Y-63150197D01*
X155528686Y-63383812D01*
X155766875Y-63494559D01*
X156022093Y-63556711D01*
X156284533Y-63567876D01*
X156544107Y-63527629D01*
X156790842Y-63437514D01*
X156891314Y-63383812D01*
X156950592Y-63150197D01*
X158009408Y-63150197D01*
X158068686Y-63383812D01*
X158306875Y-63494559D01*
X158562093Y-63556711D01*
X158824533Y-63567876D01*
X159084107Y-63527629D01*
X159330842Y-63437514D01*
X159431314Y-63383812D01*
X159490592Y-63150197D01*
X160549408Y-63150197D01*
X160608686Y-63383812D01*
X160846875Y-63494559D01*
X161102093Y-63556711D01*
X161364533Y-63567876D01*
X161624107Y-63527629D01*
X161870842Y-63437514D01*
X161971314Y-63383812D01*
X162030592Y-63150197D01*
X163089408Y-63150197D01*
X163148686Y-63383812D01*
X163386875Y-63494559D01*
X163642093Y-63556711D01*
X163904533Y-63567876D01*
X164164107Y-63527629D01*
X164410842Y-63437514D01*
X164511314Y-63383812D01*
X164570592Y-63150197D01*
X170709408Y-63150197D01*
X170768686Y-63383812D01*
X171006875Y-63494559D01*
X171262093Y-63556711D01*
X171524533Y-63567876D01*
X171784107Y-63527629D01*
X172030842Y-63437514D01*
X172131314Y-63383812D01*
X172190592Y-63150197D01*
X173249408Y-63150197D01*
X173308686Y-63383812D01*
X173546875Y-63494559D01*
X173802093Y-63556711D01*
X174064533Y-63567876D01*
X174324107Y-63527629D01*
X174570842Y-63437514D01*
X174671314Y-63383812D01*
X174730592Y-63150197D01*
X175789408Y-63150197D01*
X175848686Y-63383812D01*
X176086875Y-63494559D01*
X176342093Y-63556711D01*
X176604533Y-63567876D01*
X176864107Y-63527629D01*
X177110842Y-63437514D01*
X177211314Y-63383812D01*
X177270592Y-63150197D01*
X178329408Y-63150197D01*
X178388686Y-63383812D01*
X178626875Y-63494559D01*
X178882093Y-63556711D01*
X179144533Y-63567876D01*
X179404107Y-63527629D01*
X179650842Y-63437514D01*
X179751314Y-63383812D01*
X179810592Y-63150197D01*
X179070000Y-62409605D01*
X178329408Y-63150197D01*
X177270592Y-63150197D01*
X176530000Y-62409605D01*
X175789408Y-63150197D01*
X174730592Y-63150197D01*
X173990000Y-62409605D01*
X173249408Y-63150197D01*
X172190592Y-63150197D01*
X171450000Y-62409605D01*
X170709408Y-63150197D01*
X164570592Y-63150197D01*
X163830000Y-62409605D01*
X163089408Y-63150197D01*
X162030592Y-63150197D01*
X161290000Y-62409605D01*
X160549408Y-63150197D01*
X159490592Y-63150197D01*
X158750000Y-62409605D01*
X158009408Y-63150197D01*
X156950592Y-63150197D01*
X156210000Y-62409605D01*
X155469408Y-63150197D01*
X149330592Y-63150197D01*
X148590000Y-62409605D01*
X147849408Y-63150197D01*
X146790592Y-63150197D01*
X146050000Y-62409605D01*
X145309408Y-63150197D01*
X139170592Y-63150197D01*
X138430000Y-62409605D01*
X137689408Y-63150197D01*
X136630592Y-63150197D01*
X135890000Y-62409605D01*
X135149408Y-63150197D01*
X134196909Y-63150197D01*
X134643368Y-62703738D01*
X134682486Y-62810842D01*
X134736188Y-62911314D01*
X134969803Y-62970592D01*
X135710395Y-62230000D01*
X135696253Y-62215858D01*
X135875858Y-62036253D01*
X135890000Y-62050395D01*
X135904143Y-62036253D01*
X136083748Y-62215858D01*
X136069605Y-62230000D01*
X136810197Y-62970592D01*
X137043812Y-62911314D01*
X137154559Y-62673125D01*
X137161611Y-62644166D01*
X137222486Y-62810842D01*
X137276188Y-62911314D01*
X137509803Y-62970592D01*
X138250395Y-62230000D01*
X138236253Y-62215858D01*
X138415858Y-62036253D01*
X138430000Y-62050395D01*
X138444143Y-62036253D01*
X138623748Y-62215858D01*
X138609605Y-62230000D01*
X139350197Y-62970592D01*
X139583812Y-62911314D01*
X139694559Y-62673125D01*
X139756711Y-62417907D01*
X139767876Y-62155467D01*
X139727629Y-61895893D01*
X139664118Y-61722000D01*
X144815605Y-61722000D01*
X144785441Y-61786875D01*
%TA.AperFunction,Conductor*%
D27*
G36*
X144785441Y-61786875D02*
G01*
X144723289Y-62042093D01*
X144712124Y-62304533D01*
X144752371Y-62564107D01*
X144842486Y-62810842D01*
X144896188Y-62911314D01*
X145129803Y-62970592D01*
X145870395Y-62230000D01*
X145856253Y-62215858D01*
X146035858Y-62036253D01*
X146050000Y-62050395D01*
X146064143Y-62036253D01*
X146243748Y-62215858D01*
X146229605Y-62230000D01*
X146970197Y-62970592D01*
X147203812Y-62911314D01*
X147314559Y-62673125D01*
X147321611Y-62644166D01*
X147382486Y-62810842D01*
X147436188Y-62911314D01*
X147669803Y-62970592D01*
X148410395Y-62230000D01*
X148396253Y-62215858D01*
X148575858Y-62036253D01*
X148590000Y-62050395D01*
X148604143Y-62036253D01*
X148783748Y-62215858D01*
X148769605Y-62230000D01*
X149510197Y-62970592D01*
X149743812Y-62911314D01*
X149854559Y-62673125D01*
X149916711Y-62417907D01*
X149927876Y-62155467D01*
X149887629Y-61895893D01*
X149824118Y-61722000D01*
X154975605Y-61722000D01*
X154945441Y-61786875D01*
X154883289Y-62042093D01*
X154872124Y-62304533D01*
X154912371Y-62564107D01*
X155002486Y-62810842D01*
X155056188Y-62911314D01*
X155289803Y-62970592D01*
X156030395Y-62230000D01*
X156016253Y-62215858D01*
X156195858Y-62036253D01*
X156210000Y-62050395D01*
X156224143Y-62036253D01*
X156403748Y-62215858D01*
X156389605Y-62230000D01*
X157130197Y-62970592D01*
X157363812Y-62911314D01*
X157474559Y-62673125D01*
X157481611Y-62644166D01*
X157542486Y-62810842D01*
X157596188Y-62911314D01*
X157829803Y-62970592D01*
X158570395Y-62230000D01*
X158556253Y-62215858D01*
X158735858Y-62036253D01*
X158750000Y-62050395D01*
X158764143Y-62036253D01*
X158943748Y-62215858D01*
X158929605Y-62230000D01*
X159670197Y-62970592D01*
X159903812Y-62911314D01*
X160014559Y-62673125D01*
X160021611Y-62644166D01*
X160082486Y-62810842D01*
X160136188Y-62911314D01*
X160369803Y-62970592D01*
X161110395Y-62230000D01*
X161096253Y-62215858D01*
X161275858Y-62036253D01*
X161290000Y-62050395D01*
X161304143Y-62036253D01*
X161483748Y-62215858D01*
X161469605Y-62230000D01*
X162210197Y-62970592D01*
X162443812Y-62911314D01*
X162554559Y-62673125D01*
X162561611Y-62644166D01*
X162622486Y-62810842D01*
X162676188Y-62911314D01*
X162909803Y-62970592D01*
X163650395Y-62230000D01*
X163636253Y-62215858D01*
X163815858Y-62036253D01*
X163830000Y-62050395D01*
X163844143Y-62036253D01*
X164023748Y-62215858D01*
X164009605Y-62230000D01*
X164750197Y-62970592D01*
X164983812Y-62911314D01*
X165094559Y-62673125D01*
X165156711Y-62417907D01*
X165167876Y-62155467D01*
X165127629Y-61895893D01*
X165064118Y-61722000D01*
X170215605Y-61722000D01*
X170185441Y-61786875D01*
X170123289Y-62042093D01*
X170112124Y-62304533D01*
X170152371Y-62564107D01*
X170242486Y-62810842D01*
X170296188Y-62911314D01*
X170529803Y-62970592D01*
X171270395Y-62230000D01*
X171256253Y-62215858D01*
X171435858Y-62036253D01*
X171450000Y-62050395D01*
X171464143Y-62036253D01*
X171643748Y-62215858D01*
X171629605Y-62230000D01*
X172370197Y-62970592D01*
X172603812Y-62911314D01*
X172714559Y-62673125D01*
X172721611Y-62644166D01*
X172782486Y-62810842D01*
X172836188Y-62911314D01*
X173069803Y-62970592D01*
X173810395Y-62230000D01*
X173796253Y-62215858D01*
X173975858Y-62036253D01*
X173990000Y-62050395D01*
X174004143Y-62036253D01*
X174183748Y-62215858D01*
X174169605Y-62230000D01*
X174910197Y-62970592D01*
X175143812Y-62911314D01*
X175254559Y-62673125D01*
X175261611Y-62644166D01*
X175322486Y-62810842D01*
X175376188Y-62911314D01*
X175609803Y-62970592D01*
X176350395Y-62230000D01*
X176336253Y-62215858D01*
X176515858Y-62036253D01*
X176530000Y-62050395D01*
X176544143Y-62036253D01*
X176723748Y-62215858D01*
X176709605Y-62230000D01*
X177450197Y-62970592D01*
X177683812Y-62911314D01*
X177794559Y-62673125D01*
X177801611Y-62644166D01*
X177862486Y-62810842D01*
X177916188Y-62911314D01*
X178149803Y-62970592D01*
X178890395Y-62230000D01*
X178876253Y-62215858D01*
X179055858Y-62036253D01*
X179070000Y-62050395D01*
X179084143Y-62036253D01*
X179263748Y-62215858D01*
X179249605Y-62230000D01*
X179990197Y-62970592D01*
X180223812Y-62911314D01*
X180334559Y-62673125D01*
X180341611Y-62644166D01*
X180402486Y-62810842D01*
X180456188Y-62911314D01*
X180689803Y-62970592D01*
X181430395Y-62230000D01*
X181416253Y-62215858D01*
X181595858Y-62036253D01*
X181610000Y-62050395D01*
X181624143Y-62036253D01*
X181803748Y-62215858D01*
X181789605Y-62230000D01*
X181803748Y-62244143D01*
X181624143Y-62423748D01*
X181610000Y-62409605D01*
X180869408Y-63150197D01*
X180928686Y-63383812D01*
X181166875Y-63494559D01*
X181422093Y-63556711D01*
X181684533Y-63567876D01*
X181944107Y-63527629D01*
X182118000Y-63464118D01*
X182118000Y-68782007D01*
X181954514Y-68714289D01*
X181726328Y-68668900D01*
X181493672Y-68668900D01*
X181265486Y-68714289D01*
X181050539Y-68803323D01*
X180857093Y-68932580D01*
X180692580Y-69097093D01*
X180563323Y-69290539D01*
X180474289Y-69505486D01*
X180428900Y-69733672D01*
X180428900Y-69966328D01*
X180474289Y-70194514D01*
X180563323Y-70409461D01*
X180692580Y-70602907D01*
X180857093Y-70767420D01*
X181050539Y-70896677D01*
X181265486Y-70985711D01*
X181493672Y-71031100D01*
X181726328Y-71031100D01*
X181954514Y-70985711D01*
X182118000Y-70917993D01*
X182118000Y-78369894D01*
X181874894Y-78613000D01*
X169227500Y-78613000D01*
X169202724Y-78615440D01*
X169178899Y-78622667D01*
X169156943Y-78634403D01*
X169137697Y-78650197D01*
X168820197Y-78967697D01*
X168804403Y-78986943D01*
X168792667Y-79008899D01*
X168785440Y-79032724D01*
X168783000Y-79057500D01*
X168783000Y-100594894D01*
X165962697Y-103415197D01*
X165946903Y-103434443D01*
X165935167Y-103456399D01*
X165927940Y-103480224D01*
X165925500Y-103505000D01*
X165925500Y-104775000D01*
X165927940Y-104799776D01*
X165935167Y-104823601D01*
X165946903Y-104845557D01*
X165962697Y-104864803D01*
X177060985Y-115963091D01*
X178657250Y-119094227D01*
X178657251Y-122301000D01*
X174264610Y-122301000D01*
X172760161Y-121799517D01*
X172735884Y-121793997D01*
X172720000Y-121793000D01*
X171185106Y-121793000D01*
X157569803Y-108177697D01*
X157550557Y-108161903D01*
X157528601Y-108150167D01*
X157504776Y-108142940D01*
X157480000Y-108140500D01*
X149912606Y-108140500D01*
X148044803Y-106272697D01*
X148025557Y-106256903D01*
X148003601Y-106245167D01*
X147986750Y-106240055D01*
X147986750Y-103514368D01*
X148040126Y-103460992D01*
X148141586Y-103309147D01*
X148211472Y-103140425D01*
X148247100Y-102961311D01*
X148247100Y-102778689D01*
X153060400Y-102778689D01*
X153060400Y-102961311D01*
X153096028Y-103140425D01*
X153165914Y-103309147D01*
X153267374Y-103460992D01*
X153396508Y-103590126D01*
X153548353Y-103691586D01*
X153717075Y-103761472D01*
X153896189Y-103797100D01*
X154078811Y-103797100D01*
X154257925Y-103761472D01*
X154426647Y-103691586D01*
X154578492Y-103590126D01*
X154707626Y-103460992D01*
X154809086Y-103309147D01*
X154878972Y-103140425D01*
X154914600Y-102961311D01*
X154914600Y-102778689D01*
X161950400Y-102778689D01*
X161950400Y-102961311D01*
X161986028Y-103140425D01*
X162055914Y-103309147D01*
X162157374Y-103460992D01*
X162286508Y-103590126D01*
X162438353Y-103691586D01*
X162607075Y-103761472D01*
X162786189Y-103797100D01*
X162968811Y-103797100D01*
X163147925Y-103761472D01*
X163316647Y-103691586D01*
X163468492Y-103590126D01*
X163597626Y-103460992D01*
X163699086Y-103309147D01*
X163768972Y-103140425D01*
X163804600Y-102961311D01*
X163804600Y-102778689D01*
X163768972Y-102599575D01*
X163699086Y-102430853D01*
X163597626Y-102279008D01*
X163468492Y-102149874D01*
X163316647Y-102048414D01*
X163147925Y-101978528D01*
X162968811Y-101942900D01*
X162786189Y-101942900D01*
X162607075Y-101978528D01*
X162438353Y-102048414D01*
X162286508Y-102149874D01*
X162157374Y-102279008D01*
X162055914Y-102430853D01*
X161986028Y-102599575D01*
X161950400Y-102778689D01*
X154914600Y-102778689D01*
X154878972Y-102599575D01*
X154809086Y-102430853D01*
X154707626Y-102279008D01*
X154578492Y-102149874D01*
X154426647Y-102048414D01*
X154257925Y-101978528D01*
X154078811Y-101942900D01*
X153896189Y-101942900D01*
X153717075Y-101978528D01*
X153548353Y-102048414D01*
X153396508Y-102149874D01*
X153267374Y-102279008D01*
X153165914Y-102430853D01*
X153096028Y-102599575D01*
X153060400Y-102778689D01*
X148247100Y-102778689D01*
X148211472Y-102599575D01*
X148141586Y-102430853D01*
X148040126Y-102279008D01*
X147910992Y-102149874D01*
X147759147Y-102048414D01*
X147590425Y-101978528D01*
X147411311Y-101942900D01*
X147228689Y-101942900D01*
X147049575Y-101978528D01*
X146880853Y-102048414D01*
X146729008Y-102149874D01*
X146599874Y-102279008D01*
X146498414Y-102430853D01*
X146428528Y-102599575D01*
X146392900Y-102778689D01*
X146392900Y-102961311D01*
X146428528Y-103140425D01*
X146498414Y-103309147D01*
X146599874Y-103460992D01*
X146653250Y-103514368D01*
X146653251Y-106647235D01*
X146650024Y-106680000D01*
X146662897Y-106810705D01*
X146701023Y-106936388D01*
X146762935Y-107052218D01*
X146762936Y-107052219D01*
X146846256Y-107153745D01*
X146871702Y-107174628D01*
X146875500Y-107178426D01*
X146875500Y-109167394D01*
X144727394Y-111315500D01*
X143562606Y-111315500D01*
X142684500Y-110437394D01*
X142684500Y-95302606D01*
X142927606Y-95059500D01*
X147002500Y-95059500D01*
X147027276Y-95057060D01*
X147051101Y-95049833D01*
X147073057Y-95038097D01*
X147092303Y-95022303D01*
X147908417Y-94206189D01*
X163220400Y-94206189D01*
X163220400Y-94388811D01*
X163256028Y-94567925D01*
X163325914Y-94736647D01*
X163427374Y-94888492D01*
X163556508Y-95017626D01*
X163708353Y-95119086D01*
X163877075Y-95188972D01*
X164056189Y-95224600D01*
X164238811Y-95224600D01*
X164417925Y-95188972D01*
X164586647Y-95119086D01*
X164738492Y-95017626D01*
X164867626Y-94888492D01*
X164969086Y-94736647D01*
X165038972Y-94567925D01*
X165074600Y-94388811D01*
X165074600Y-94206189D01*
X165038972Y-94027075D01*
X164969086Y-93858353D01*
X164867626Y-93706508D01*
X164738492Y-93577374D01*
X164586647Y-93475914D01*
X164417925Y-93406028D01*
X164238811Y-93370400D01*
X164056189Y-93370400D01*
X163877075Y-93406028D01*
X163708353Y-93475914D01*
X163556508Y-93577374D01*
X163427374Y-93706508D01*
X163325914Y-93858353D01*
X163256028Y-94027075D01*
X163220400Y-94206189D01*
X147908417Y-94206189D01*
X149314803Y-92799803D01*
X149330597Y-92780557D01*
X149342333Y-92758601D01*
X149349560Y-92734776D01*
X149352000Y-92710000D01*
X149352000Y-90078689D01*
X162585400Y-90078689D01*
X162585400Y-90261311D01*
X162621028Y-90440425D01*
X162690914Y-90609147D01*
X162792374Y-90760992D01*
X162921508Y-90890126D01*
X163073353Y-90991586D01*
X163242075Y-91061472D01*
X163421189Y-91097100D01*
X163603811Y-91097100D01*
X163782925Y-91061472D01*
X163951647Y-90991586D01*
X164103492Y-90890126D01*
X164232626Y-90760992D01*
X164334086Y-90609147D01*
X164403972Y-90440425D01*
X164439600Y-90261311D01*
X164439600Y-90078689D01*
X164403972Y-89899575D01*
X164334086Y-89730853D01*
X164232626Y-89579008D01*
X164103492Y-89449874D01*
X163951647Y-89348414D01*
X163782925Y-89278528D01*
X163603811Y-89242900D01*
X163421189Y-89242900D01*
X163242075Y-89278528D01*
X163073353Y-89348414D01*
X162921508Y-89449874D01*
X162792374Y-89579008D01*
X162690914Y-89730853D01*
X162621028Y-89899575D01*
X162585400Y-90078689D01*
X149352000Y-90078689D01*
X149352000Y-86095106D01*
X151500106Y-83947000D01*
X157797500Y-83947000D01*
X157822276Y-83944560D01*
X157846101Y-83937333D01*
X157868057Y-83925597D01*
X157887303Y-83909803D01*
X159792303Y-82004803D01*
X159808097Y-81985557D01*
X159819833Y-81963601D01*
X159827060Y-81939776D01*
X159829500Y-81915000D01*
X159829500Y-72390000D01*
X159827060Y-72365224D01*
X159819833Y-72341399D01*
X159808097Y-72319443D01*
X159792303Y-72300197D01*
X159474803Y-71982697D01*
X159455557Y-71966903D01*
X159433601Y-71955167D01*
X159409776Y-71947940D01*
X159385000Y-71945500D01*
X143192500Y-71945500D01*
X143167724Y-71947940D01*
X143143899Y-71955167D01*
X143121943Y-71966903D01*
X143102697Y-71982697D01*
X134530197Y-80555197D01*
X134514403Y-80574443D01*
X134502667Y-80596399D01*
X134495440Y-80620224D01*
X134493000Y-80645000D01*
X134493000Y-84402394D01*
X134249894Y-84645500D01*
X133085106Y-84645500D01*
X132842000Y-84402394D01*
X132842000Y-75819000D01*
X132839560Y-75794224D01*
X132832333Y-75770399D01*
X132820597Y-75748443D01*
X132804803Y-75729197D01*
X130645803Y-73570197D01*
X130626557Y-73554403D01*
X130604601Y-73542667D01*
X130580776Y-73535440D01*
X130556000Y-73533000D01*
X128212800Y-73533000D01*
X128078855Y-73399055D01*
X128057968Y-73373604D01*
X127956442Y-73290284D01*
X127840612Y-73228372D01*
X127714929Y-73190246D01*
X127616978Y-73180599D01*
X127584223Y-73177373D01*
X127551468Y-73180599D01*
X126873000Y-73180599D01*
X126873000Y-72810782D01*
X126929711Y-72577907D01*
X126940876Y-72315467D01*
X126900629Y-72055893D01*
X126873000Y-71980245D01*
X126873000Y-71374000D01*
X126870560Y-71349224D01*
X126863333Y-71325399D01*
X126851597Y-71303443D01*
X126835803Y-71284197D01*
X126816557Y-71268403D01*
X126794601Y-71256667D01*
X126770776Y-71249440D01*
X126746000Y-71247000D01*
X126287057Y-71247000D01*
X126284314Y-71236188D01*
X126046125Y-71125441D01*
X125790907Y-71063289D01*
X125528467Y-71052124D01*
X125268893Y-71092371D01*
X125022158Y-71182486D01*
X124921686Y-71236188D01*
X124918943Y-71247000D01*
X124714000Y-71247000D01*
X124689224Y-71249440D01*
X124665399Y-71256667D01*
X124643443Y-71268403D01*
X124624197Y-71284197D01*
X124608403Y-71303443D01*
X124600408Y-71317204D01*
X123492510Y-73533000D01*
X112607984Y-73533000D01*
X111623917Y-71072833D01*
X111612449Y-71050735D01*
X111596891Y-71031299D01*
X111577840Y-71015271D01*
X111556028Y-71003269D01*
X111532293Y-70995752D01*
X111506000Y-70993000D01*
X109474000Y-70993000D01*
X109449224Y-70995440D01*
X109425399Y-71002667D01*
X109406690Y-71012304D01*
X108390690Y-71647304D01*
X108370973Y-71662505D01*
X108354600Y-71681260D01*
X108342201Y-71702850D01*
X108334252Y-71726443D01*
X108331059Y-71751134D01*
X108332809Y-71776358D01*
X108350832Y-71882000D01*
X103206324Y-71882000D01*
X103125357Y-64262000D01*
X110427004Y-64262000D01*
X115214887Y-70561846D01*
X115231822Y-70580095D01*
X115251992Y-70594690D01*
X115274621Y-70605070D01*
X115298841Y-70610835D01*
X115316000Y-70612000D01*
X126492000Y-70612000D01*
X126516776Y-70609560D01*
X126540601Y-70602333D01*
X126562557Y-70590597D01*
X126581803Y-70574803D01*
X126597597Y-70555557D01*
X126609333Y-70533601D01*
X126615208Y-70515802D01*
X126956283Y-69151500D01*
X134706565Y-69151500D01*
X134706565Y-70548500D01*
X134715883Y-70643106D01*
X134743478Y-70734077D01*
X134788291Y-70817915D01*
X134848599Y-70891401D01*
X134922085Y-70951709D01*
X135005923Y-70996522D01*
X135096894Y-71024117D01*
X135191500Y-71033435D01*
X136588500Y-71033435D01*
X136683106Y-71024117D01*
X136774077Y-70996522D01*
X136857915Y-70951709D01*
X136931401Y-70891401D01*
X136991709Y-70817915D01*
X137036522Y-70734077D01*
X137064117Y-70643106D01*
X137073435Y-70548500D01*
X137073435Y-69733672D01*
X137248900Y-69733672D01*
X137248900Y-69966328D01*
X137294289Y-70194514D01*
X137383323Y-70409461D01*
X137512580Y-70602907D01*
X137677093Y-70767420D01*
X137870539Y-70896677D01*
X138085486Y-70985711D01*
X138313672Y-71031100D01*
X138546328Y-71031100D01*
X138774514Y-70985711D01*
X138989461Y-70896677D01*
X139182907Y-70767420D01*
X139347420Y-70602907D01*
X139476677Y-70409461D01*
X139565711Y-70194514D01*
X139611100Y-69966328D01*
X139611100Y-69733672D01*
X139565711Y-69505486D01*
X139476677Y-69290539D01*
X139383774Y-69151500D01*
X144866565Y-69151500D01*
X144866565Y-70548500D01*
X144875883Y-70643106D01*
X144903478Y-70734077D01*
X144948291Y-70817915D01*
X145008599Y-70891401D01*
X145082085Y-70951709D01*
X145165923Y-70996522D01*
X145256894Y-71024117D01*
X145351500Y-71033435D01*
X146748500Y-71033435D01*
X146843106Y-71024117D01*
X146934077Y-70996522D01*
X147017915Y-70951709D01*
X147091401Y-70891401D01*
X147151709Y-70817915D01*
X147196522Y-70734077D01*
X147224117Y-70643106D01*
X147233435Y-70548500D01*
X147233435Y-69733672D01*
X147408900Y-69733672D01*
X147408900Y-69966328D01*
X147454289Y-70194514D01*
X147543323Y-70409461D01*
X147672580Y-70602907D01*
X147837093Y-70767420D01*
X148030539Y-70896677D01*
X148245486Y-70985711D01*
X148473672Y-71031100D01*
X148706328Y-71031100D01*
X148934514Y-70985711D01*
X149149461Y-70896677D01*
X149342907Y-70767420D01*
X149507420Y-70602907D01*
X149636677Y-70409461D01*
X149725711Y-70194514D01*
X149771100Y-69966328D01*
X149771100Y-69733672D01*
X149725711Y-69505486D01*
X149636677Y-69290539D01*
X149543774Y-69151500D01*
X155026565Y-69151500D01*
X155026565Y-70548500D01*
X155035883Y-70643106D01*
X155063478Y-70734077D01*
X155108291Y-70817915D01*
X155168599Y-70891401D01*
X155242085Y-70951709D01*
X155325923Y-70996522D01*
X155416894Y-71024117D01*
X155511500Y-71033435D01*
X156908500Y-71033435D01*
X157003106Y-71024117D01*
X157094077Y-70996522D01*
X157177915Y-70951709D01*
X157251401Y-70891401D01*
X157311709Y-70817915D01*
X157356522Y-70734077D01*
X157384117Y-70643106D01*
X157393435Y-70548500D01*
X157393435Y-69733672D01*
X157568900Y-69733672D01*
X157568900Y-69966328D01*
X157614289Y-70194514D01*
X157703323Y-70409461D01*
X157832580Y-70602907D01*
X157997093Y-70767420D01*
X158190539Y-70896677D01*
X158405486Y-70985711D01*
X158633672Y-71031100D01*
X158866328Y-71031100D01*
X159094514Y-70985711D01*
X159309461Y-70896677D01*
X159502907Y-70767420D01*
X159667420Y-70602907D01*
X159796677Y-70409461D01*
X159885711Y-70194514D01*
X159931100Y-69966328D01*
X159931100Y-69733672D01*
X160108900Y-69733672D01*
X160108900Y-69966328D01*
X160154289Y-70194514D01*
X160243323Y-70409461D01*
X160372580Y-70602907D01*
X160537093Y-70767420D01*
X160730539Y-70896677D01*
X160945486Y-70985711D01*
X161173672Y-71031100D01*
X161406328Y-71031100D01*
X161634514Y-70985711D01*
X161849461Y-70896677D01*
X162042907Y-70767420D01*
X162207420Y-70602907D01*
X162336677Y-70409461D01*
X162425711Y-70194514D01*
X162471100Y-69966328D01*
X162471100Y-69733672D01*
X162648900Y-69733672D01*
X162648900Y-69966328D01*
X162694289Y-70194514D01*
X162783323Y-70409461D01*
X162912580Y-70602907D01*
X163077093Y-70767420D01*
X163270539Y-70896677D01*
X163485486Y-70985711D01*
X163713672Y-71031100D01*
X163946328Y-71031100D01*
X164174514Y-70985711D01*
X164389461Y-70896677D01*
X164582907Y-70767420D01*
X164747420Y-70602907D01*
X164876677Y-70409461D01*
X164965711Y-70194514D01*
X165011100Y-69966328D01*
X165011100Y-69733672D01*
X164965711Y-69505486D01*
X164876677Y-69290539D01*
X164783774Y-69151500D01*
X170266565Y-69151500D01*
X170266565Y-70548500D01*
X170275883Y-70643106D01*
X170303478Y-70734077D01*
X170348291Y-70817915D01*
X170408599Y-70891401D01*
X170482085Y-70951709D01*
X170565923Y-70996522D01*
X170656894Y-71024117D01*
X170751500Y-71033435D01*
X172148500Y-71033435D01*
X172243106Y-71024117D01*
X172334077Y-70996522D01*
X172417915Y-70951709D01*
X172491401Y-70891401D01*
X172551709Y-70817915D01*
X172596522Y-70734077D01*
X172624117Y-70643106D01*
X172633435Y-70548500D01*
X172633435Y-69733672D01*
X172808900Y-69733672D01*
X172808900Y-69966328D01*
X172854289Y-70194514D01*
X172943323Y-70409461D01*
X173072580Y-70602907D01*
X173237093Y-70767420D01*
X173430539Y-70896677D01*
X173645486Y-70985711D01*
X173873672Y-71031100D01*
X174106328Y-71031100D01*
X174334514Y-70985711D01*
X174549461Y-70896677D01*
X174742907Y-70767420D01*
X174907420Y-70602907D01*
X175036677Y-70409461D01*
X175125711Y-70194514D01*
X175171100Y-69966328D01*
X175171100Y-69733672D01*
X175348900Y-69733672D01*
X175348900Y-69966328D01*
X175394289Y-70194514D01*
X175483323Y-70409461D01*
X175612580Y-70602907D01*
X175777093Y-70767420D01*
X175970539Y-70896677D01*
X176185486Y-70985711D01*
X176413672Y-71031100D01*
X176646328Y-71031100D01*
X176874514Y-70985711D01*
X177089461Y-70896677D01*
X177282907Y-70767420D01*
X177447420Y-70602907D01*
X177576677Y-70409461D01*
X177665711Y-70194514D01*
X177711100Y-69966328D01*
X177711100Y-69733672D01*
X177888900Y-69733672D01*
X177888900Y-69966328D01*
X177934289Y-70194514D01*
X178023323Y-70409461D01*
X178152580Y-70602907D01*
X178317093Y-70767420D01*
X178510539Y-70896677D01*
X178725486Y-70985711D01*
X178953672Y-71031100D01*
X179186328Y-71031100D01*
X179414514Y-70985711D01*
X179629461Y-70896677D01*
X179822907Y-70767420D01*
X179987420Y-70602907D01*
X180116677Y-70409461D01*
X180205711Y-70194514D01*
X180251100Y-69966328D01*
X180251100Y-69733672D01*
X180205711Y-69505486D01*
X180116677Y-69290539D01*
X179987420Y-69097093D01*
X179822907Y-68932580D01*
X179629461Y-68803323D01*
X179414514Y-68714289D01*
X179186328Y-68668900D01*
X178953672Y-68668900D01*
X178725486Y-68714289D01*
X178510539Y-68803323D01*
X178317093Y-68932580D01*
X178152580Y-69097093D01*
X178023323Y-69290539D01*
X177934289Y-69505486D01*
X177888900Y-69733672D01*
X177711100Y-69733672D01*
X177665711Y-69505486D01*
X177576677Y-69290539D01*
X177447420Y-69097093D01*
X177282907Y-68932580D01*
X177089461Y-68803323D01*
X176874514Y-68714289D01*
X176646328Y-68668900D01*
X176413672Y-68668900D01*
X176185486Y-68714289D01*
X175970539Y-68803323D01*
X175777093Y-68932580D01*
X175612580Y-69097093D01*
X175483323Y-69290539D01*
X175394289Y-69505486D01*
X175348900Y-69733672D01*
X175171100Y-69733672D01*
X175125711Y-69505486D01*
X175036677Y-69290539D01*
X174907420Y-69097093D01*
X174742907Y-68932580D01*
X174549461Y-68803323D01*
X174334514Y-68714289D01*
X174106328Y-68668900D01*
X173873672Y-68668900D01*
X173645486Y-68714289D01*
X173430539Y-68803323D01*
X173237093Y-68932580D01*
X173072580Y-69097093D01*
X172943323Y-69290539D01*
X172854289Y-69505486D01*
X172808900Y-69733672D01*
X172633435Y-69733672D01*
X172633435Y-69151500D01*
X172624117Y-69056894D01*
X172596522Y-68965923D01*
X172551709Y-68882085D01*
X172491401Y-68808599D01*
X172417915Y-68748291D01*
X172334077Y-68703478D01*
X172243106Y-68675883D01*
X172148500Y-68666565D01*
X170751500Y-68666565D01*
X170656894Y-68675883D01*
X170565923Y-68703478D01*
X170482085Y-68748291D01*
X170408599Y-68808599D01*
X170348291Y-68882085D01*
X170303478Y-68965923D01*
X170275883Y-69056894D01*
X170266565Y-69151500D01*
X164783774Y-69151500D01*
X164747420Y-69097093D01*
X164582907Y-68932580D01*
X164389461Y-68803323D01*
X164174514Y-68714289D01*
X163946328Y-68668900D01*
X163713672Y-68668900D01*
X163485486Y-68714289D01*
X163270539Y-68803323D01*
X163077093Y-68932580D01*
X162912580Y-69097093D01*
X162783323Y-69290539D01*
X162694289Y-69505486D01*
X162648900Y-69733672D01*
X162471100Y-69733672D01*
X162425711Y-69505486D01*
X162336677Y-69290539D01*
X162207420Y-69097093D01*
X162042907Y-68932580D01*
X161849461Y-68803323D01*
X161634514Y-68714289D01*
X161406328Y-68668900D01*
X161173672Y-68668900D01*
X160945486Y-68714289D01*
X160730539Y-68803323D01*
X160537093Y-68932580D01*
X160372580Y-69097093D01*
X160243323Y-69290539D01*
X160154289Y-69505486D01*
X160108900Y-69733672D01*
X159931100Y-69733672D01*
X159885711Y-69505486D01*
X159796677Y-69290539D01*
X159667420Y-69097093D01*
X159502907Y-68932580D01*
X159309461Y-68803323D01*
X159094514Y-68714289D01*
X158866328Y-68668900D01*
X158633672Y-68668900D01*
X158405486Y-68714289D01*
X158190539Y-68803323D01*
X157997093Y-68932580D01*
X157832580Y-69097093D01*
X157703323Y-69290539D01*
X157614289Y-69505486D01*
X157568900Y-69733672D01*
X157393435Y-69733672D01*
X157393435Y-69151500D01*
X157384117Y-69056894D01*
X157356522Y-68965923D01*
X157311709Y-68882085D01*
X157251401Y-68808599D01*
X157177915Y-68748291D01*
X157094077Y-68703478D01*
X157003106Y-68675883D01*
X156908500Y-68666565D01*
X155511500Y-68666565D01*
X155416894Y-68675883D01*
X155325923Y-68703478D01*
X155242085Y-68748291D01*
X155168599Y-68808599D01*
X155108291Y-68882085D01*
X155063478Y-68965923D01*
X155035883Y-69056894D01*
X155026565Y-69151500D01*
X149543774Y-69151500D01*
X149507420Y-69097093D01*
X149342907Y-68932580D01*
X149149461Y-68803323D01*
X148934514Y-68714289D01*
X148706328Y-68668900D01*
X148473672Y-68668900D01*
X148245486Y-68714289D01*
X148030539Y-68803323D01*
X147837093Y-68932580D01*
X147672580Y-69097093D01*
X147543323Y-69290539D01*
X147454289Y-69505486D01*
X147408900Y-69733672D01*
X147233435Y-69733672D01*
X147233435Y-69151500D01*
X147224117Y-69056894D01*
X147196522Y-68965923D01*
X147151709Y-68882085D01*
X147091401Y-68808599D01*
X147017915Y-68748291D01*
X146934077Y-68703478D01*
X146843106Y-68675883D01*
X146748500Y-68666565D01*
X145351500Y-68666565D01*
X145256894Y-68675883D01*
X145165923Y-68703478D01*
X145082085Y-68748291D01*
X145008599Y-68808599D01*
X144948291Y-68882085D01*
X144903478Y-68965923D01*
X144875883Y-69056894D01*
X144866565Y-69151500D01*
X139383774Y-69151500D01*
X139347420Y-69097093D01*
X139182907Y-68932580D01*
X138989461Y-68803323D01*
X138774514Y-68714289D01*
X138546328Y-68668900D01*
X138313672Y-68668900D01*
X138085486Y-68714289D01*
X137870539Y-68803323D01*
X137677093Y-68932580D01*
X137512580Y-69097093D01*
X137383323Y-69290539D01*
X137294289Y-69505486D01*
X137248900Y-69733672D01*
X137073435Y-69733672D01*
X137073435Y-69151500D01*
X137064117Y-69056894D01*
X137036522Y-68965923D01*
X136991709Y-68882085D01*
X136931401Y-68808599D01*
X136857915Y-68748291D01*
X136774077Y-68703478D01*
X136683106Y-68675883D01*
X136588500Y-68666565D01*
X135191500Y-68666565D01*
X135096894Y-68675883D01*
X135005923Y-68703478D01*
X134922085Y-68748291D01*
X134848599Y-68808599D01*
X134788291Y-68882085D01*
X134743478Y-68965923D01*
X134715883Y-69056894D01*
X134706565Y-69151500D01*
X126956283Y-69151500D01*
X126975497Y-69074647D01*
X128446711Y-68864474D01*
X128470893Y-68858554D01*
X128493456Y-68848030D01*
X128518553Y-68828553D01*
X134196909Y-63150197D01*
X135149408Y-63150197D01*
X135208686Y-63383812D01*
X135446875Y-63494559D01*
X135702093Y-63556711D01*
X135964533Y-63567876D01*
X136224107Y-63527629D01*
X136470842Y-63437514D01*
X136571314Y-63383812D01*
X136630592Y-63150197D01*
X137689408Y-63150197D01*
X137748686Y-63383812D01*
X137986875Y-63494559D01*
X138242093Y-63556711D01*
X138504533Y-63567876D01*
X138764107Y-63527629D01*
X139010842Y-63437514D01*
X139111314Y-63383812D01*
X139170592Y-63150197D01*
X145309408Y-63150197D01*
X145368686Y-63383812D01*
X145606875Y-63494559D01*
X145862093Y-63556711D01*
X146124533Y-63567876D01*
X146384107Y-63527629D01*
X146630842Y-63437514D01*
X146731314Y-63383812D01*
X146790592Y-63150197D01*
X147849408Y-63150197D01*
X147908686Y-63383812D01*
X148146875Y-63494559D01*
X148402093Y-63556711D01*
X148664533Y-63567876D01*
X148924107Y-63527629D01*
X149170842Y-63437514D01*
X149271314Y-63383812D01*
X149330592Y-63150197D01*
X155469408Y-63150197D01*
X155528686Y-63383812D01*
X155766875Y-63494559D01*
X156022093Y-63556711D01*
X156284533Y-63567876D01*
X156544107Y-63527629D01*
X156790842Y-63437514D01*
X156891314Y-63383812D01*
X156950592Y-63150197D01*
X158009408Y-63150197D01*
X158068686Y-63383812D01*
X158306875Y-63494559D01*
X158562093Y-63556711D01*
X158824533Y-63567876D01*
X159084107Y-63527629D01*
X159330842Y-63437514D01*
X159431314Y-63383812D01*
X159490592Y-63150197D01*
X160549408Y-63150197D01*
X160608686Y-63383812D01*
X160846875Y-63494559D01*
X161102093Y-63556711D01*
X161364533Y-63567876D01*
X161624107Y-63527629D01*
X161870842Y-63437514D01*
X161971314Y-63383812D01*
X162030592Y-63150197D01*
X163089408Y-63150197D01*
X163148686Y-63383812D01*
X163386875Y-63494559D01*
X163642093Y-63556711D01*
X163904533Y-63567876D01*
X164164107Y-63527629D01*
X164410842Y-63437514D01*
X164511314Y-63383812D01*
X164570592Y-63150197D01*
X170709408Y-63150197D01*
X170768686Y-63383812D01*
X171006875Y-63494559D01*
X171262093Y-63556711D01*
X171524533Y-63567876D01*
X171784107Y-63527629D01*
X172030842Y-63437514D01*
X172131314Y-63383812D01*
X172190592Y-63150197D01*
X173249408Y-63150197D01*
X173308686Y-63383812D01*
X173546875Y-63494559D01*
X173802093Y-63556711D01*
X174064533Y-63567876D01*
X174324107Y-63527629D01*
X174570842Y-63437514D01*
X174671314Y-63383812D01*
X174730592Y-63150197D01*
X175789408Y-63150197D01*
X175848686Y-63383812D01*
X176086875Y-63494559D01*
X176342093Y-63556711D01*
X176604533Y-63567876D01*
X176864107Y-63527629D01*
X177110842Y-63437514D01*
X177211314Y-63383812D01*
X177270592Y-63150197D01*
X178329408Y-63150197D01*
X178388686Y-63383812D01*
X178626875Y-63494559D01*
X178882093Y-63556711D01*
X179144533Y-63567876D01*
X179404107Y-63527629D01*
X179650842Y-63437514D01*
X179751314Y-63383812D01*
X179810592Y-63150197D01*
X179070000Y-62409605D01*
X178329408Y-63150197D01*
X177270592Y-63150197D01*
X176530000Y-62409605D01*
X175789408Y-63150197D01*
X174730592Y-63150197D01*
X173990000Y-62409605D01*
X173249408Y-63150197D01*
X172190592Y-63150197D01*
X171450000Y-62409605D01*
X170709408Y-63150197D01*
X164570592Y-63150197D01*
X163830000Y-62409605D01*
X163089408Y-63150197D01*
X162030592Y-63150197D01*
X161290000Y-62409605D01*
X160549408Y-63150197D01*
X159490592Y-63150197D01*
X158750000Y-62409605D01*
X158009408Y-63150197D01*
X156950592Y-63150197D01*
X156210000Y-62409605D01*
X155469408Y-63150197D01*
X149330592Y-63150197D01*
X148590000Y-62409605D01*
X147849408Y-63150197D01*
X146790592Y-63150197D01*
X146050000Y-62409605D01*
X145309408Y-63150197D01*
X139170592Y-63150197D01*
X138430000Y-62409605D01*
X137689408Y-63150197D01*
X136630592Y-63150197D01*
X135890000Y-62409605D01*
X135149408Y-63150197D01*
X134196909Y-63150197D01*
X134643368Y-62703738D01*
X134682486Y-62810842D01*
X134736188Y-62911314D01*
X134969803Y-62970592D01*
X135710395Y-62230000D01*
X135696253Y-62215858D01*
X135875858Y-62036253D01*
X135890000Y-62050395D01*
X135904143Y-62036253D01*
X136083748Y-62215858D01*
X136069605Y-62230000D01*
X136810197Y-62970592D01*
X137043812Y-62911314D01*
X137154559Y-62673125D01*
X137161611Y-62644166D01*
X137222486Y-62810842D01*
X137276188Y-62911314D01*
X137509803Y-62970592D01*
X138250395Y-62230000D01*
X138236253Y-62215858D01*
X138415858Y-62036253D01*
X138430000Y-62050395D01*
X138444143Y-62036253D01*
X138623748Y-62215858D01*
X138609605Y-62230000D01*
X139350197Y-62970592D01*
X139583812Y-62911314D01*
X139694559Y-62673125D01*
X139756711Y-62417907D01*
X139767876Y-62155467D01*
X139727629Y-61895893D01*
X139664118Y-61722000D01*
X144815605Y-61722000D01*
X144785441Y-61786875D01*
G37*
%TD.AperFunction*%
%TD*%
D22*
%TO.N,GND*%
X203561991Y-60401822D02*
X203910191Y-60506949D01*
X204231342Y-60677709D01*
X204513208Y-60907593D01*
X204745054Y-61187847D01*
X204918050Y-61507796D01*
X205025607Y-61855257D01*
X205066901Y-62248146D01*
X205066901Y-85598000D01*
X193675000Y-85598000D01*
X193650224Y-85600440D01*
X193626399Y-85607667D01*
X193604443Y-85619403D01*
X193585197Y-85635197D01*
X192346252Y-86874142D01*
X192326253Y-86854143D01*
X192340395Y-86840000D01*
X191170776Y-85670381D01*
X190875688Y-85802317D01*
X190704841Y-86143045D01*
X190603750Y-86510557D01*
X190576299Y-86890729D01*
X190623543Y-87268951D01*
X190743667Y-87630690D01*
X190875688Y-87877683D01*
X191170774Y-88009618D01*
X191055759Y-88124633D01*
X191075760Y-88144634D01*
X191045197Y-88175197D01*
X191029403Y-88194443D01*
X191017667Y-88216399D01*
X191010440Y-88240224D01*
X191008000Y-88265000D01*
X191008000Y-100965000D01*
X191010440Y-100989776D01*
X191017667Y-101013601D01*
X191029403Y-101035557D01*
X191045197Y-101054803D01*
X191075760Y-101085366D01*
X191055759Y-101105367D01*
X191170774Y-101220382D01*
X190875688Y-101352317D01*
X190704841Y-101693045D01*
X190603750Y-102060557D01*
X190576299Y-102440729D01*
X190623543Y-102818951D01*
X190743667Y-103180690D01*
X190875688Y-103427683D01*
X191170776Y-103559619D01*
X192340395Y-102390000D01*
X192326253Y-102375858D01*
X192346252Y-102355858D01*
X193585197Y-103594803D01*
X193604443Y-103610597D01*
X193626399Y-103622333D01*
X193650224Y-103629560D01*
X193675000Y-103632000D01*
X205066900Y-103632000D01*
X205066900Y-124427075D01*
X205028178Y-124821990D01*
X204923050Y-125170192D01*
X204752293Y-125491341D01*
X204522407Y-125773208D01*
X204242153Y-126005054D01*
X203922204Y-126178050D01*
X203574744Y-126285607D01*
X203181864Y-126326900D01*
X201810352Y-126326900D01*
X202493208Y-126124452D01*
X203161670Y-125772555D01*
X203202088Y-125745548D01*
X203562276Y-125255881D01*
X201041000Y-122734605D01*
X198519724Y-125255881D01*
X198879912Y-125745548D01*
X199543882Y-126105849D01*
X200256379Y-126326900D01*
X191549059Y-126326900D01*
X191516000Y-126323644D01*
X191482941Y-126326900D01*
X191384049Y-126336640D01*
X191257170Y-126375129D01*
X191140237Y-126437631D01*
X191037744Y-126521744D01*
X190953631Y-126624237D01*
X190891129Y-126741170D01*
X190852640Y-126868049D01*
X190839644Y-127000000D01*
X190842901Y-127033069D01*
X190842900Y-133946900D01*
X183515000Y-133946900D01*
X183515000Y-132026953D01*
X183585708Y-132382426D01*
X183729507Y-132729587D01*
X183938270Y-133042024D01*
X184203976Y-133307730D01*
X184516413Y-133516493D01*
X184863574Y-133660292D01*
X185232118Y-133733600D01*
X185607882Y-133733600D01*
X185976426Y-133660292D01*
X186323587Y-133516493D01*
X186636024Y-133307730D01*
X186901730Y-133042024D01*
X187110493Y-132729587D01*
X187254292Y-132382426D01*
X187327600Y-132013882D01*
X187327600Y-131638118D01*
X187254292Y-131269574D01*
X187110493Y-130922413D01*
X186901730Y-130609976D01*
X186636024Y-130344270D01*
X186323587Y-130135507D01*
X185976426Y-129991708D01*
X185607882Y-129918400D01*
X185232118Y-129918400D01*
X184863574Y-129991708D01*
X184516413Y-130135507D01*
X184203976Y-130344270D01*
X183938270Y-130609976D01*
X183729507Y-130922413D01*
X183585708Y-131269574D01*
X183515000Y-131625047D01*
X183515000Y-122936000D01*
X183512560Y-122911224D01*
X183505333Y-122887399D01*
X183493597Y-122865443D01*
X183477803Y-122846197D01*
X183458557Y-122830403D01*
X183444796Y-122822408D01*
X182861371Y-122530695D01*
X197187520Y-122530695D01*
X197256822Y-123282938D01*
X197471548Y-124007208D01*
X197823445Y-124675670D01*
X197850452Y-124716088D01*
X198340119Y-125076276D01*
X200861395Y-122555000D01*
X201220605Y-122555000D01*
X203741881Y-125076276D01*
X204231548Y-124716088D01*
X204591849Y-124052118D01*
X204815694Y-123330615D01*
X204894480Y-122579305D01*
X204825178Y-121827062D01*
X204610452Y-121102792D01*
X204258555Y-120434330D01*
X204231548Y-120393912D01*
X203741881Y-120033724D01*
X201220605Y-122555000D01*
X200861395Y-122555000D01*
X198340119Y-120033724D01*
X197850452Y-120393912D01*
X197490151Y-121057882D01*
X197266306Y-121779385D01*
X197187520Y-122530695D01*
X182861371Y-122530695D01*
X182453745Y-122326882D01*
X180475534Y-119854119D01*
X198519724Y-119854119D01*
X201041000Y-122375395D01*
X203562276Y-119854119D01*
X203202088Y-119364452D01*
X202538118Y-119004151D01*
X201816615Y-118780306D01*
X201065305Y-118701520D01*
X200313062Y-118770822D01*
X199588792Y-118985548D01*
X198920330Y-119337445D01*
X198879912Y-119364452D01*
X198519724Y-119854119D01*
X180475534Y-119854119D01*
X180467000Y-119843452D01*
X180467000Y-116332000D01*
X180464560Y-116307224D01*
X180457333Y-116283399D01*
X180445597Y-116261443D01*
X180428705Y-116241113D01*
X172529500Y-108531489D01*
X172529500Y-108002606D01*
X172772606Y-107759500D01*
X179387500Y-107759500D01*
X179412276Y-107757060D01*
X179436101Y-107749833D01*
X179458057Y-107738097D01*
X179477303Y-107722303D01*
X179794803Y-107404803D01*
X179810597Y-107385557D01*
X179822333Y-107363601D01*
X179829560Y-107339776D01*
X179832000Y-107315000D01*
X179832000Y-106045000D01*
X179829560Y-106020224D01*
X179822333Y-105996399D01*
X179810597Y-105974443D01*
X179794803Y-105955197D01*
X179477303Y-105637697D01*
X179458057Y-105621903D01*
X179436101Y-105610167D01*
X179412276Y-105602940D01*
X179387500Y-105600500D01*
X168010106Y-105600500D01*
X166814500Y-104404894D01*
X166814500Y-103875106D01*
X166950382Y-103739224D01*
X191350381Y-103739224D01*
X191482317Y-104034312D01*
X191823045Y-104205159D01*
X192190557Y-104306250D01*
X192570729Y-104333701D01*
X192948951Y-104286457D01*
X193310690Y-104166333D01*
X193557683Y-104034312D01*
X193689619Y-103739224D01*
X192520000Y-102569605D01*
X191350381Y-103739224D01*
X166950382Y-103739224D01*
X167408854Y-103280752D01*
X169627651Y-101378926D01*
X169644874Y-101360948D01*
X169658260Y-101339957D01*
X169667293Y-101316757D01*
X169672000Y-101282500D01*
X169672000Y-92568901D01*
X185257400Y-92568901D01*
X185257400Y-92851099D01*
X185312454Y-93127874D01*
X185420446Y-93388591D01*
X185577227Y-93623229D01*
X185776771Y-93822773D01*
X186011409Y-93979554D01*
X186012486Y-93980000D01*
X186011409Y-93980446D01*
X185776771Y-94137227D01*
X185577227Y-94336771D01*
X185420446Y-94571409D01*
X185312454Y-94832126D01*
X185257400Y-95108901D01*
X185257400Y-95391099D01*
X185312454Y-95667874D01*
X185420446Y-95928591D01*
X185577227Y-96163229D01*
X185776771Y-96362773D01*
X186011409Y-96519554D01*
X186012486Y-96520000D01*
X186011409Y-96520446D01*
X185776771Y-96677227D01*
X185577227Y-96876771D01*
X185420446Y-97111409D01*
X185312454Y-97372126D01*
X185257400Y-97648901D01*
X185257400Y-97931099D01*
X185312454Y-98207874D01*
X185420446Y-98468591D01*
X185577227Y-98703229D01*
X185776771Y-98902773D01*
X186011409Y-99059554D01*
X186272126Y-99167546D01*
X186548901Y-99222600D01*
X186831099Y-99222600D01*
X187107874Y-99167546D01*
X187368591Y-99059554D01*
X187603229Y-98902773D01*
X187795065Y-98710937D01*
X187795065Y-100010000D01*
X187804383Y-100104606D01*
X187831978Y-100195577D01*
X187876791Y-100279415D01*
X187937099Y-100352901D01*
X188010585Y-100413209D01*
X188094423Y-100458022D01*
X188185394Y-100485617D01*
X188280000Y-100494935D01*
X190180000Y-100494935D01*
X190274606Y-100485617D01*
X190365577Y-100458022D01*
X190449415Y-100413209D01*
X190522901Y-100352901D01*
X190583209Y-100279415D01*
X190628022Y-100195577D01*
X190655617Y-100104606D01*
X190664935Y-100010000D01*
X190664935Y-98110000D01*
X190655617Y-98015394D01*
X190628022Y-97924423D01*
X190583209Y-97840585D01*
X190522901Y-97767099D01*
X190449415Y-97706791D01*
X190365577Y-97661978D01*
X190274606Y-97634383D01*
X190180000Y-97625065D01*
X190150937Y-97625065D01*
X190342773Y-97433229D01*
X190499554Y-97198591D01*
X190607546Y-96937874D01*
X190662600Y-96661099D01*
X190662600Y-96378901D01*
X190607546Y-96102126D01*
X190499554Y-95841409D01*
X190342773Y-95606771D01*
X190143229Y-95407227D01*
X189908591Y-95250446D01*
X189907514Y-95250000D01*
X189908591Y-95249554D01*
X190143229Y-95092773D01*
X190342773Y-94893229D01*
X190499554Y-94658591D01*
X190607546Y-94397874D01*
X190662600Y-94121099D01*
X190662600Y-93838901D01*
X190607546Y-93562126D01*
X190499554Y-93301409D01*
X190342773Y-93066771D01*
X190143229Y-92867227D01*
X189908591Y-92710446D01*
X189907514Y-92710000D01*
X189908591Y-92709554D01*
X190143229Y-92552773D01*
X190342773Y-92353229D01*
X190499554Y-92118591D01*
X190607546Y-91857874D01*
X190662600Y-91581099D01*
X190662600Y-91298901D01*
X190607546Y-91022126D01*
X190499554Y-90761409D01*
X190342773Y-90526771D01*
X190143229Y-90327227D01*
X189908591Y-90170446D01*
X189647874Y-90062454D01*
X189371099Y-90007400D01*
X189088901Y-90007400D01*
X188812126Y-90062454D01*
X188551409Y-90170446D01*
X188316771Y-90327227D01*
X188265614Y-90378384D01*
X188281359Y-90105427D01*
X188238184Y-89796209D01*
X188135513Y-89501356D01*
X188049042Y-89339579D01*
X187789752Y-89249853D01*
X186869605Y-90170000D01*
X186883748Y-90184143D01*
X186704143Y-90363748D01*
X186690000Y-90349605D01*
X185769853Y-91269752D01*
X185859579Y-91529042D01*
X185870741Y-91534438D01*
X185776771Y-91597227D01*
X185577227Y-91796771D01*
X185420446Y-92031409D01*
X185312454Y-92292126D01*
X185257400Y-92568901D01*
X169672000Y-92568901D01*
X169672000Y-90234573D01*
X185098641Y-90234573D01*
X185141816Y-90543791D01*
X185244487Y-90838644D01*
X185330958Y-91000421D01*
X185590248Y-91090147D01*
X186510395Y-90170000D01*
X185590248Y-89249853D01*
X185330958Y-89339579D01*
X185195065Y-89620671D01*
X185116621Y-89922873D01*
X185098641Y-90234573D01*
X169672000Y-90234573D01*
X169672000Y-88684612D01*
X176618900Y-88684612D01*
X176618900Y-88917268D01*
X176664289Y-89145454D01*
X176753323Y-89360401D01*
X176882580Y-89553847D01*
X177047093Y-89718360D01*
X177240539Y-89847617D01*
X177455486Y-89936651D01*
X177683672Y-89982040D01*
X177916328Y-89982040D01*
X178144514Y-89936651D01*
X178359461Y-89847617D01*
X178552907Y-89718360D01*
X178717420Y-89553847D01*
X178846677Y-89360401D01*
X178935711Y-89145454D01*
X178950670Y-89070248D01*
X185769853Y-89070248D01*
X186690000Y-89990395D01*
X187610147Y-89070248D01*
X187520421Y-88810958D01*
X187239329Y-88675065D01*
X186937127Y-88596621D01*
X186625427Y-88578641D01*
X186316209Y-88621816D01*
X186021356Y-88724487D01*
X185859579Y-88810958D01*
X185769853Y-89070248D01*
X178950670Y-89070248D01*
X178981100Y-88917268D01*
X178981100Y-88684612D01*
X178935711Y-88456426D01*
X178846677Y-88241479D01*
X178717420Y-88048033D01*
X178552907Y-87883520D01*
X178359461Y-87754263D01*
X178144514Y-87665229D01*
X177916328Y-87619840D01*
X177683672Y-87619840D01*
X177455486Y-87665229D01*
X177240539Y-87754263D01*
X177047093Y-87883520D01*
X176882580Y-88048033D01*
X176753323Y-88241479D01*
X176664289Y-88456426D01*
X176618900Y-88684612D01*
X169672000Y-88684612D01*
X169672000Y-85490776D01*
X191350381Y-85490776D01*
X192520000Y-86660395D01*
X193689619Y-85490776D01*
X193557683Y-85195688D01*
X193216955Y-85024841D01*
X192849443Y-84923750D01*
X192469271Y-84896299D01*
X192091049Y-84943543D01*
X191729310Y-85063667D01*
X191482317Y-85195688D01*
X191350381Y-85490776D01*
X169672000Y-85490776D01*
X169672000Y-83802732D01*
X176618900Y-83802732D01*
X176618900Y-84035388D01*
X176664289Y-84263574D01*
X176753323Y-84478521D01*
X176882580Y-84671967D01*
X177047093Y-84836480D01*
X177240539Y-84965737D01*
X177455486Y-85054771D01*
X177683672Y-85100160D01*
X177916328Y-85100160D01*
X178144514Y-85054771D01*
X178359461Y-84965737D01*
X178552907Y-84836480D01*
X178717420Y-84671967D01*
X178846677Y-84478521D01*
X178935711Y-84263574D01*
X178981100Y-84035388D01*
X178981100Y-83802732D01*
X178935711Y-83574546D01*
X178846677Y-83359599D01*
X178717420Y-83166153D01*
X178552907Y-83001640D01*
X178359461Y-82872383D01*
X178144514Y-82783349D01*
X177916328Y-82737960D01*
X177683672Y-82737960D01*
X177455486Y-82783349D01*
X177240539Y-82872383D01*
X177047093Y-83001640D01*
X176882580Y-83166153D01*
X176753323Y-83359599D01*
X176664289Y-83574546D01*
X176618900Y-83802732D01*
X169672000Y-83802732D01*
X169672000Y-79745106D01*
X169915106Y-79502000D01*
X182562500Y-79502000D01*
X182587276Y-79499560D01*
X182611101Y-79492333D01*
X182633057Y-79480597D01*
X182652303Y-79464803D01*
X182969803Y-79147303D01*
X182985597Y-79128057D01*
X182997333Y-79106101D01*
X183004560Y-79082276D01*
X183007000Y-79057500D01*
X183007000Y-68740881D01*
X198519724Y-68740881D01*
X198879912Y-69230548D01*
X199543882Y-69590849D01*
X200265385Y-69814694D01*
X201016695Y-69893480D01*
X201768938Y-69824178D01*
X202493208Y-69609452D01*
X203161670Y-69257555D01*
X203202088Y-69230548D01*
X203562276Y-68740881D01*
X201041000Y-66219605D01*
X198519724Y-68740881D01*
X183007000Y-68740881D01*
X183007000Y-66015695D01*
X197187520Y-66015695D01*
X197256822Y-66767938D01*
X197471548Y-67492208D01*
X197823445Y-68160670D01*
X197850452Y-68201088D01*
X198340119Y-68561276D01*
X200861395Y-66040000D01*
X201220605Y-66040000D01*
X203741881Y-68561276D01*
X204231548Y-68201088D01*
X204591849Y-67537118D01*
X204815694Y-66815615D01*
X204894480Y-66064305D01*
X204825178Y-65312062D01*
X204610452Y-64587792D01*
X204258555Y-63919330D01*
X204231548Y-63878912D01*
X203741881Y-63518724D01*
X201220605Y-66040000D01*
X200861395Y-66040000D01*
X198340119Y-63518724D01*
X197850452Y-63878912D01*
X197490151Y-64542882D01*
X197266306Y-65264385D01*
X197187520Y-66015695D01*
X183007000Y-66015695D01*
X183007000Y-63339119D01*
X198519724Y-63339119D01*
X201041000Y-65860395D01*
X203562276Y-63339119D01*
X203202088Y-62849452D01*
X202538118Y-62489151D01*
X201816615Y-62265306D01*
X201065305Y-62186520D01*
X200313062Y-62255822D01*
X199588792Y-62470548D01*
X198920330Y-62822445D01*
X198879912Y-62849452D01*
X198519724Y-63339119D01*
X183007000Y-63339119D01*
X183007000Y-61277500D01*
X183004560Y-61252724D01*
X182997333Y-61228899D01*
X182985597Y-61206943D01*
X182969803Y-61187697D01*
X182652303Y-60870197D01*
X182633057Y-60854403D01*
X182611101Y-60842667D01*
X182587276Y-60835440D01*
X182562500Y-60833000D01*
X135255000Y-60833000D01*
X135230224Y-60835440D01*
X135206399Y-60842667D01*
X135184443Y-60854403D01*
X135166876Y-60868550D01*
X128190077Y-67591648D01*
X127455857Y-68081127D01*
X126476366Y-68326000D01*
X124587000Y-68326000D01*
X124562224Y-68328440D01*
X124538399Y-68335667D01*
X124516443Y-68347403D01*
X124497197Y-68363197D01*
X124475507Y-68392186D01*
X123749608Y-69723000D01*
X115887500Y-69723000D01*
X111353600Y-63677800D01*
X111336782Y-63659443D01*
X111316706Y-63644720D01*
X111294143Y-63634196D01*
X111269961Y-63628276D01*
X111252000Y-63627000D01*
X104260836Y-63627000D01*
X104237592Y-63614576D01*
X104002984Y-63543408D01*
X103820143Y-63525400D01*
X103759000Y-63519378D01*
X103697857Y-63525400D01*
X98575707Y-63525400D01*
X98552000Y-63523065D01*
X97028000Y-63523065D01*
X97004293Y-63525400D01*
X96966857Y-63525400D01*
X96784016Y-63543408D01*
X96549408Y-63614576D01*
X96526164Y-63627000D01*
X96266000Y-63627000D01*
X96241224Y-63629440D01*
X96217399Y-63636667D01*
X96195443Y-63648403D01*
X96176197Y-63664197D01*
X96160403Y-63683443D01*
X96152408Y-63697204D01*
X95898408Y-64205204D01*
X95889510Y-64228456D01*
X95885000Y-64262000D01*
X95885000Y-64268164D01*
X95872576Y-64291408D01*
X95801408Y-64526016D01*
X95777378Y-64770000D01*
X95801408Y-65013984D01*
X95872576Y-65248592D01*
X95885000Y-65271836D01*
X95885000Y-65786000D01*
X95887440Y-65810776D01*
X95894667Y-65834601D01*
X95906403Y-65856557D01*
X95922197Y-65875803D01*
X96430197Y-66383803D01*
X96449443Y-66399597D01*
X96471399Y-66411333D01*
X96495224Y-66418560D01*
X96520000Y-66421000D01*
X96918870Y-66421000D01*
X96823256Y-66516614D01*
X96687050Y-66720461D01*
X96593229Y-66946964D01*
X96545400Y-67187418D01*
X96545400Y-67432582D01*
X96593229Y-67673036D01*
X96687050Y-67899539D01*
X96823256Y-68103386D01*
X96996614Y-68276744D01*
X97200461Y-68412950D01*
X97426964Y-68506771D01*
X97667418Y-68554600D01*
X97912582Y-68554600D01*
X98153036Y-68506771D01*
X98379539Y-68412950D01*
X98583386Y-68276744D01*
X98756744Y-68103386D01*
X98892950Y-67899539D01*
X98986771Y-67673036D01*
X99034600Y-67432582D01*
X99034600Y-67187418D01*
X98986771Y-66946964D01*
X98892950Y-66720461D01*
X98756744Y-66516614D01*
X98661130Y-66421000D01*
X99458870Y-66421000D01*
X99363256Y-66516614D01*
X99227050Y-66720461D01*
X99133229Y-66946964D01*
X99085400Y-67187418D01*
X99085400Y-67432582D01*
X99133229Y-67673036D01*
X99227050Y-67899539D01*
X99363256Y-68103386D01*
X99536614Y-68276744D01*
X99740461Y-68412950D01*
X99966964Y-68506771D01*
X100207418Y-68554600D01*
X100452582Y-68554600D01*
X100693036Y-68506771D01*
X100919539Y-68412950D01*
X101123386Y-68276744D01*
X101296744Y-68103386D01*
X101432950Y-67899539D01*
X101526771Y-67673036D01*
X101574600Y-67432582D01*
X101574600Y-67187418D01*
X101526771Y-66946964D01*
X101432950Y-66720461D01*
X101296744Y-66516614D01*
X101201130Y-66421000D01*
X102040032Y-66421000D01*
X102489000Y-67094452D01*
X102489000Y-72390000D01*
X102491440Y-72414776D01*
X102498667Y-72438601D01*
X102510403Y-72460557D01*
X102526197Y-72479803D01*
X102545443Y-72495597D01*
X102567399Y-72507333D01*
X102591224Y-72514560D01*
X102616000Y-72517000D01*
X104601479Y-72517000D01*
X106172000Y-73845903D01*
X106172000Y-113605820D01*
X103077738Y-116205000D01*
X98552000Y-116205000D01*
X98527224Y-116207440D01*
X98503399Y-116214667D01*
X98481443Y-116226403D01*
X98462197Y-116242197D01*
X98446403Y-116261443D01*
X98434667Y-116283399D01*
X98427440Y-116307224D01*
X98425000Y-116332000D01*
X98425000Y-122434165D01*
X98412576Y-122457409D01*
X98341408Y-122692017D01*
X98323400Y-122874858D01*
X98323400Y-122874867D01*
X98317379Y-122936000D01*
X98323400Y-122997133D01*
X98323401Y-126176857D01*
X98317379Y-126238000D01*
X98341409Y-126481984D01*
X98412577Y-126716592D01*
X98425000Y-126739834D01*
X98425000Y-131318000D01*
X98427440Y-131342776D01*
X98434667Y-131366601D01*
X98446403Y-131388557D01*
X98462197Y-131407803D01*
X98481443Y-131423597D01*
X98503399Y-131435333D01*
X98527224Y-131442560D01*
X98551619Y-131444999D01*
X183007000Y-131698619D01*
X183007000Y-133946900D01*
X91986100Y-133946900D01*
X91986100Y-131638118D01*
X94612400Y-131638118D01*
X94612400Y-132013882D01*
X94685708Y-132382426D01*
X94829507Y-132729587D01*
X95038270Y-133042024D01*
X95303976Y-133307730D01*
X95616413Y-133516493D01*
X95963574Y-133660292D01*
X96332118Y-133733600D01*
X96707882Y-133733600D01*
X97076426Y-133660292D01*
X97423587Y-133516493D01*
X97736024Y-133307730D01*
X98001730Y-133042024D01*
X98210493Y-132729587D01*
X98354292Y-132382426D01*
X98427600Y-132013882D01*
X98427600Y-131638118D01*
X98354292Y-131269574D01*
X98210493Y-130922413D01*
X98001730Y-130609976D01*
X97736024Y-130344270D01*
X97423587Y-130135507D01*
X97076426Y-129991708D01*
X96707882Y-129918400D01*
X96332118Y-129918400D01*
X95963574Y-129991708D01*
X95616413Y-130135507D01*
X95303976Y-130344270D01*
X95038270Y-130609976D01*
X94829507Y-130922413D01*
X94685708Y-131269574D01*
X94612400Y-131638118D01*
X91986100Y-131638118D01*
X91986100Y-113995565D01*
X97004040Y-113995565D01*
X97071020Y-114235656D01*
X97320048Y-114352756D01*
X97587135Y-114419023D01*
X97862017Y-114431910D01*
X98134133Y-114390922D01*
X98393023Y-114297636D01*
X98508980Y-114235656D01*
X98575960Y-113995565D01*
X99544040Y-113995565D01*
X99611020Y-114235656D01*
X99860048Y-114352756D01*
X100127135Y-114419023D01*
X100402017Y-114431910D01*
X100674133Y-114390922D01*
X100933023Y-114297636D01*
X101048980Y-114235656D01*
X101115960Y-113995565D01*
X100330000Y-113209605D01*
X99544040Y-113995565D01*
X98575960Y-113995565D01*
X97790000Y-113209605D01*
X97004040Y-113995565D01*
X91986100Y-113995565D01*
X91986100Y-113102017D01*
X96388090Y-113102017D01*
X96429078Y-113374133D01*
X96522364Y-113633023D01*
X96584344Y-113748980D01*
X96824435Y-113815960D01*
X97610395Y-113030000D01*
X97969605Y-113030000D01*
X98755565Y-113815960D01*
X98995656Y-113748980D01*
X99057079Y-113618356D01*
X99062364Y-113633023D01*
X99124344Y-113748980D01*
X99364435Y-113815960D01*
X100150395Y-113030000D01*
X100509605Y-113030000D01*
X101295565Y-113815960D01*
X101535656Y-113748980D01*
X101652756Y-113499952D01*
X101719023Y-113232865D01*
X101731910Y-112957983D01*
X101690922Y-112685867D01*
X101597636Y-112426977D01*
X101535656Y-112311020D01*
X101295565Y-112244040D01*
X100509605Y-113030000D01*
X100150395Y-113030000D01*
X99364435Y-112244040D01*
X99124344Y-112311020D01*
X99062921Y-112441644D01*
X99057636Y-112426977D01*
X98995656Y-112311020D01*
X98755565Y-112244040D01*
X97969605Y-113030000D01*
X97610395Y-113030000D01*
X96824435Y-112244040D01*
X96584344Y-112311020D01*
X96467244Y-112560048D01*
X96400977Y-112827135D01*
X96388090Y-113102017D01*
X91986100Y-113102017D01*
X91986100Y-110367418D01*
X96545400Y-110367418D01*
X96545400Y-110612582D01*
X96593229Y-110853036D01*
X96687050Y-111079539D01*
X96823256Y-111283386D01*
X96996614Y-111456744D01*
X97200461Y-111592950D01*
X97412915Y-111680952D01*
X97186977Y-111762364D01*
X97071020Y-111824344D01*
X97004040Y-112064435D01*
X97790000Y-112850395D01*
X98575960Y-112064435D01*
X98508980Y-111824344D01*
X98259952Y-111707244D01*
X98162176Y-111682985D01*
X98379539Y-111592950D01*
X98583386Y-111456744D01*
X98756744Y-111283386D01*
X98892950Y-111079539D01*
X98986771Y-110853036D01*
X99034600Y-110612582D01*
X99034600Y-110367418D01*
X99085400Y-110367418D01*
X99085400Y-110612582D01*
X99133229Y-110853036D01*
X99227050Y-111079539D01*
X99363256Y-111283386D01*
X99536614Y-111456744D01*
X99740461Y-111592950D01*
X99952915Y-111680952D01*
X99726977Y-111762364D01*
X99611020Y-111824344D01*
X99544040Y-112064435D01*
X100330000Y-112850395D01*
X101115960Y-112064435D01*
X101048980Y-111824344D01*
X100799952Y-111707244D01*
X100702176Y-111682985D01*
X100919539Y-111592950D01*
X101123386Y-111456744D01*
X101296744Y-111283386D01*
X101432950Y-111079539D01*
X101526771Y-110853036D01*
X101574600Y-110612582D01*
X101574600Y-110367418D01*
X101526771Y-110126964D01*
X101432950Y-109900461D01*
X101296744Y-109696614D01*
X101123386Y-109523256D01*
X100919539Y-109387050D01*
X100693036Y-109293229D01*
X100452582Y-109245400D01*
X100207418Y-109245400D01*
X99966964Y-109293229D01*
X99740461Y-109387050D01*
X99536614Y-109523256D01*
X99363256Y-109696614D01*
X99227050Y-109900461D01*
X99133229Y-110126964D01*
X99085400Y-110367418D01*
X99034600Y-110367418D01*
X98986771Y-110126964D01*
X98892950Y-109900461D01*
X98756744Y-109696614D01*
X98583386Y-109523256D01*
X98379539Y-109387050D01*
X98153036Y-109293229D01*
X97912582Y-109245400D01*
X97667418Y-109245400D01*
X97426964Y-109293229D01*
X97200461Y-109387050D01*
X96996614Y-109523256D01*
X96823256Y-109696614D01*
X96687050Y-109900461D01*
X96593229Y-110126964D01*
X96545400Y-110367418D01*
X91986100Y-110367418D01*
X91986100Y-107827418D01*
X96545400Y-107827418D01*
X96545400Y-108072582D01*
X96593229Y-108313036D01*
X96687050Y-108539539D01*
X96823256Y-108743386D01*
X96996614Y-108916744D01*
X97200461Y-109052950D01*
X97426964Y-109146771D01*
X97667418Y-109194600D01*
X97912582Y-109194600D01*
X98153036Y-109146771D01*
X98379539Y-109052950D01*
X98583386Y-108916744D01*
X98756744Y-108743386D01*
X98892950Y-108539539D01*
X98986771Y-108313036D01*
X99034600Y-108072582D01*
X99034600Y-107827418D01*
X99085400Y-107827418D01*
X99085400Y-108072582D01*
X99133229Y-108313036D01*
X99227050Y-108539539D01*
X99363256Y-108743386D01*
X99536614Y-108916744D01*
X99740461Y-109052950D01*
X99966964Y-109146771D01*
X100207418Y-109194600D01*
X100452582Y-109194600D01*
X100693036Y-109146771D01*
X100919539Y-109052950D01*
X101123386Y-108916744D01*
X101296744Y-108743386D01*
X101432950Y-108539539D01*
X101526771Y-108313036D01*
X101574600Y-108072582D01*
X101574600Y-107827418D01*
X101526771Y-107586964D01*
X101432950Y-107360461D01*
X101296744Y-107156614D01*
X101123386Y-106983256D01*
X100919539Y-106847050D01*
X100693036Y-106753229D01*
X100452582Y-106705400D01*
X100207418Y-106705400D01*
X99966964Y-106753229D01*
X99740461Y-106847050D01*
X99536614Y-106983256D01*
X99363256Y-107156614D01*
X99227050Y-107360461D01*
X99133229Y-107586964D01*
X99085400Y-107827418D01*
X99034600Y-107827418D01*
X98986771Y-107586964D01*
X98892950Y-107360461D01*
X98756744Y-107156614D01*
X98583386Y-106983256D01*
X98379539Y-106847050D01*
X98153036Y-106753229D01*
X97912582Y-106705400D01*
X97667418Y-106705400D01*
X97426964Y-106753229D01*
X97200461Y-106847050D01*
X96996614Y-106983256D01*
X96823256Y-107156614D01*
X96687050Y-107360461D01*
X96593229Y-107586964D01*
X96545400Y-107827418D01*
X91986100Y-107827418D01*
X91986100Y-105287418D01*
X96545400Y-105287418D01*
X96545400Y-105532582D01*
X96593229Y-105773036D01*
X96687050Y-105999539D01*
X96823256Y-106203386D01*
X96996614Y-106376744D01*
X97200461Y-106512950D01*
X97426964Y-106606771D01*
X97667418Y-106654600D01*
X97912582Y-106654600D01*
X98153036Y-106606771D01*
X98379539Y-106512950D01*
X98583386Y-106376744D01*
X98756744Y-106203386D01*
X98892950Y-105999539D01*
X98986771Y-105773036D01*
X99034600Y-105532582D01*
X99034600Y-105287418D01*
X99085400Y-105287418D01*
X99085400Y-105532582D01*
X99133229Y-105773036D01*
X99227050Y-105999539D01*
X99363256Y-106203386D01*
X99536614Y-106376744D01*
X99740461Y-106512950D01*
X99966964Y-106606771D01*
X100207418Y-106654600D01*
X100452582Y-106654600D01*
X100693036Y-106606771D01*
X100919539Y-106512950D01*
X101123386Y-106376744D01*
X101296744Y-106203386D01*
X101432950Y-105999539D01*
X101526771Y-105773036D01*
X101574600Y-105532582D01*
X101574600Y-105287418D01*
X101526771Y-105046964D01*
X101432950Y-104820461D01*
X101296744Y-104616614D01*
X101123386Y-104443256D01*
X100919539Y-104307050D01*
X100693036Y-104213229D01*
X100452582Y-104165400D01*
X100207418Y-104165400D01*
X99966964Y-104213229D01*
X99740461Y-104307050D01*
X99536614Y-104443256D01*
X99363256Y-104616614D01*
X99227050Y-104820461D01*
X99133229Y-105046964D01*
X99085400Y-105287418D01*
X99034600Y-105287418D01*
X98986771Y-105046964D01*
X98892950Y-104820461D01*
X98756744Y-104616614D01*
X98583386Y-104443256D01*
X98379539Y-104307050D01*
X98153036Y-104213229D01*
X97912582Y-104165400D01*
X97667418Y-104165400D01*
X97426964Y-104213229D01*
X97200461Y-104307050D01*
X96996614Y-104443256D01*
X96823256Y-104616614D01*
X96687050Y-104820461D01*
X96593229Y-105046964D01*
X96545400Y-105287418D01*
X91986100Y-105287418D01*
X91986100Y-102747418D01*
X96545400Y-102747418D01*
X96545400Y-102992582D01*
X96593229Y-103233036D01*
X96687050Y-103459539D01*
X96823256Y-103663386D01*
X96996614Y-103836744D01*
X97200461Y-103972950D01*
X97426964Y-104066771D01*
X97667418Y-104114600D01*
X97912582Y-104114600D01*
X98153036Y-104066771D01*
X98379539Y-103972950D01*
X98583386Y-103836744D01*
X98756744Y-103663386D01*
X98892950Y-103459539D01*
X98986771Y-103233036D01*
X99034600Y-102992582D01*
X99034600Y-102747418D01*
X99085400Y-102747418D01*
X99085400Y-102992582D01*
X99133229Y-103233036D01*
X99227050Y-103459539D01*
X99363256Y-103663386D01*
X99536614Y-103836744D01*
X99740461Y-103972950D01*
X99966964Y-104066771D01*
X100207418Y-104114600D01*
X100452582Y-104114600D01*
X100693036Y-104066771D01*
X100919539Y-103972950D01*
X101123386Y-103836744D01*
X101296744Y-103663386D01*
X101432950Y-103459539D01*
X101526771Y-103233036D01*
X101574600Y-102992582D01*
X101574600Y-102747418D01*
X101526771Y-102506964D01*
X101432950Y-102280461D01*
X101296744Y-102076614D01*
X101123386Y-101903256D01*
X100919539Y-101767050D01*
X100693036Y-101673229D01*
X100452582Y-101625400D01*
X100207418Y-101625400D01*
X99966964Y-101673229D01*
X99740461Y-101767050D01*
X99536614Y-101903256D01*
X99363256Y-102076614D01*
X99227050Y-102280461D01*
X99133229Y-102506964D01*
X99085400Y-102747418D01*
X99034600Y-102747418D01*
X98986771Y-102506964D01*
X98892950Y-102280461D01*
X98756744Y-102076614D01*
X98583386Y-101903256D01*
X98379539Y-101767050D01*
X98153036Y-101673229D01*
X97912582Y-101625400D01*
X97667418Y-101625400D01*
X97426964Y-101673229D01*
X97200461Y-101767050D01*
X96996614Y-101903256D01*
X96823256Y-102076614D01*
X96687050Y-102280461D01*
X96593229Y-102506964D01*
X96545400Y-102747418D01*
X91986100Y-102747418D01*
X91986100Y-100207418D01*
X96545400Y-100207418D01*
X96545400Y-100452582D01*
X96593229Y-100693036D01*
X96687050Y-100919539D01*
X96823256Y-101123386D01*
X96996614Y-101296744D01*
X97200461Y-101432950D01*
X97426964Y-101526771D01*
X97667418Y-101574600D01*
X97912582Y-101574600D01*
X98153036Y-101526771D01*
X98379539Y-101432950D01*
X98583386Y-101296744D01*
X98756744Y-101123386D01*
X98892950Y-100919539D01*
X98986771Y-100693036D01*
X99034600Y-100452582D01*
X99034600Y-100207418D01*
X99085400Y-100207418D01*
X99085400Y-100452582D01*
X99133229Y-100693036D01*
X99227050Y-100919539D01*
X99363256Y-101123386D01*
X99536614Y-101296744D01*
X99740461Y-101432950D01*
X99966964Y-101526771D01*
X100207418Y-101574600D01*
X100452582Y-101574600D01*
X100693036Y-101526771D01*
X100919539Y-101432950D01*
X101123386Y-101296744D01*
X101296744Y-101123386D01*
X101432950Y-100919539D01*
X101526771Y-100693036D01*
X101574600Y-100452582D01*
X101574600Y-100207418D01*
X101526771Y-99966964D01*
X101432950Y-99740461D01*
X101296744Y-99536614D01*
X101123386Y-99363256D01*
X100919539Y-99227050D01*
X100693036Y-99133229D01*
X100452582Y-99085400D01*
X100207418Y-99085400D01*
X99966964Y-99133229D01*
X99740461Y-99227050D01*
X99536614Y-99363256D01*
X99363256Y-99536614D01*
X99227050Y-99740461D01*
X99133229Y-99966964D01*
X99085400Y-100207418D01*
X99034600Y-100207418D01*
X98986771Y-99966964D01*
X98892950Y-99740461D01*
X98756744Y-99536614D01*
X98583386Y-99363256D01*
X98379539Y-99227050D01*
X98153036Y-99133229D01*
X97912582Y-99085400D01*
X97667418Y-99085400D01*
X97426964Y-99133229D01*
X97200461Y-99227050D01*
X96996614Y-99363256D01*
X96823256Y-99536614D01*
X96687050Y-99740461D01*
X96593229Y-99966964D01*
X96545400Y-100207418D01*
X91986100Y-100207418D01*
X91986100Y-97667418D01*
X96545400Y-97667418D01*
X96545400Y-97912582D01*
X96593229Y-98153036D01*
X96687050Y-98379539D01*
X96823256Y-98583386D01*
X96996614Y-98756744D01*
X97200461Y-98892950D01*
X97426964Y-98986771D01*
X97667418Y-99034600D01*
X97912582Y-99034600D01*
X98153036Y-98986771D01*
X98379539Y-98892950D01*
X98583386Y-98756744D01*
X98756744Y-98583386D01*
X98892950Y-98379539D01*
X98986771Y-98153036D01*
X99034600Y-97912582D01*
X99034600Y-97667418D01*
X99085400Y-97667418D01*
X99085400Y-97912582D01*
X99133229Y-98153036D01*
X99227050Y-98379539D01*
X99363256Y-98583386D01*
X99536614Y-98756744D01*
X99740461Y-98892950D01*
X99966964Y-98986771D01*
X100207418Y-99034600D01*
X100452582Y-99034600D01*
X100693036Y-98986771D01*
X100919539Y-98892950D01*
X101123386Y-98756744D01*
X101296744Y-98583386D01*
X101432950Y-98379539D01*
X101526771Y-98153036D01*
X101574600Y-97912582D01*
X101574600Y-97667418D01*
X101526771Y-97426964D01*
X101432950Y-97200461D01*
X101296744Y-96996614D01*
X101123386Y-96823256D01*
X100919539Y-96687050D01*
X100693036Y-96593229D01*
X100452582Y-96545400D01*
X100207418Y-96545400D01*
X99966964Y-96593229D01*
X99740461Y-96687050D01*
X99536614Y-96823256D01*
X99363256Y-96996614D01*
X99227050Y-97200461D01*
X99133229Y-97426964D01*
X99085400Y-97667418D01*
X99034600Y-97667418D01*
X98986771Y-97426964D01*
X98892950Y-97200461D01*
X98756744Y-96996614D01*
X98583386Y-96823256D01*
X98379539Y-96687050D01*
X98153036Y-96593229D01*
X97912582Y-96545400D01*
X97667418Y-96545400D01*
X97426964Y-96593229D01*
X97200461Y-96687050D01*
X96996614Y-96823256D01*
X96823256Y-96996614D01*
X96687050Y-97200461D01*
X96593229Y-97426964D01*
X96545400Y-97667418D01*
X91986100Y-97667418D01*
X91986100Y-95127418D01*
X96545400Y-95127418D01*
X96545400Y-95372582D01*
X96593229Y-95613036D01*
X96687050Y-95839539D01*
X96823256Y-96043386D01*
X96996614Y-96216744D01*
X97200461Y-96352950D01*
X97426964Y-96446771D01*
X97667418Y-96494600D01*
X97912582Y-96494600D01*
X98153036Y-96446771D01*
X98379539Y-96352950D01*
X98583386Y-96216744D01*
X98756744Y-96043386D01*
X98892950Y-95839539D01*
X98986771Y-95613036D01*
X99034600Y-95372582D01*
X99034600Y-95127418D01*
X99085400Y-95127418D01*
X99085400Y-95372582D01*
X99133229Y-95613036D01*
X99227050Y-95839539D01*
X99363256Y-96043386D01*
X99536614Y-96216744D01*
X99740461Y-96352950D01*
X99966964Y-96446771D01*
X100207418Y-96494600D01*
X100452582Y-96494600D01*
X100693036Y-96446771D01*
X100919539Y-96352950D01*
X101123386Y-96216744D01*
X101296744Y-96043386D01*
X101432950Y-95839539D01*
X101526771Y-95613036D01*
X101574600Y-95372582D01*
X101574600Y-95127418D01*
X101526771Y-94886964D01*
X101432950Y-94660461D01*
X101296744Y-94456614D01*
X101123386Y-94283256D01*
X100919539Y-94147050D01*
X100693036Y-94053229D01*
X100452582Y-94005400D01*
X100207418Y-94005400D01*
X99966964Y-94053229D01*
X99740461Y-94147050D01*
X99536614Y-94283256D01*
X99363256Y-94456614D01*
X99227050Y-94660461D01*
X99133229Y-94886964D01*
X99085400Y-95127418D01*
X99034600Y-95127418D01*
X98986771Y-94886964D01*
X98892950Y-94660461D01*
X98756744Y-94456614D01*
X98583386Y-94283256D01*
X98379539Y-94147050D01*
X98153036Y-94053229D01*
X97912582Y-94005400D01*
X97667418Y-94005400D01*
X97426964Y-94053229D01*
X97200461Y-94147050D01*
X96996614Y-94283256D01*
X96823256Y-94456614D01*
X96687050Y-94660461D01*
X96593229Y-94886964D01*
X96545400Y-95127418D01*
X91986100Y-95127418D01*
X91986100Y-92587418D01*
X96545400Y-92587418D01*
X96545400Y-92832582D01*
X96593229Y-93073036D01*
X96687050Y-93299539D01*
X96823256Y-93503386D01*
X96996614Y-93676744D01*
X97200461Y-93812950D01*
X97426964Y-93906771D01*
X97667418Y-93954600D01*
X97912582Y-93954600D01*
X98153036Y-93906771D01*
X98379539Y-93812950D01*
X98583386Y-93676744D01*
X98756744Y-93503386D01*
X98892950Y-93299539D01*
X98986771Y-93073036D01*
X99034600Y-92832582D01*
X99034600Y-92587418D01*
X99085400Y-92587418D01*
X99085400Y-92832582D01*
X99133229Y-93073036D01*
X99227050Y-93299539D01*
X99363256Y-93503386D01*
X99536614Y-93676744D01*
X99740461Y-93812950D01*
X99966964Y-93906771D01*
X100207418Y-93954600D01*
X100452582Y-93954600D01*
X100693036Y-93906771D01*
X100919539Y-93812950D01*
X101123386Y-93676744D01*
X101296744Y-93503386D01*
X101432950Y-93299539D01*
X101526771Y-93073036D01*
X101574600Y-92832582D01*
X101574600Y-92587418D01*
X101526771Y-92346964D01*
X101432950Y-92120461D01*
X101296744Y-91916614D01*
X101123386Y-91743256D01*
X100919539Y-91607050D01*
X100693036Y-91513229D01*
X100452582Y-91465400D01*
X100207418Y-91465400D01*
X99966964Y-91513229D01*
X99740461Y-91607050D01*
X99536614Y-91743256D01*
X99363256Y-91916614D01*
X99227050Y-92120461D01*
X99133229Y-92346964D01*
X99085400Y-92587418D01*
X99034600Y-92587418D01*
X98986771Y-92346964D01*
X98892950Y-92120461D01*
X98756744Y-91916614D01*
X98583386Y-91743256D01*
X98379539Y-91607050D01*
X98153036Y-91513229D01*
X97912582Y-91465400D01*
X97667418Y-91465400D01*
X97426964Y-91513229D01*
X97200461Y-91607050D01*
X96996614Y-91743256D01*
X96823256Y-91916614D01*
X96687050Y-92120461D01*
X96593229Y-92346964D01*
X96545400Y-92587418D01*
X91986100Y-92587418D01*
X91986100Y-90047418D01*
X96545400Y-90047418D01*
X96545400Y-90292582D01*
X96593229Y-90533036D01*
X96687050Y-90759539D01*
X96823256Y-90963386D01*
X96996614Y-91136744D01*
X97200461Y-91272950D01*
X97426964Y-91366771D01*
X97667418Y-91414600D01*
X97912582Y-91414600D01*
X98153036Y-91366771D01*
X98379539Y-91272950D01*
X98583386Y-91136744D01*
X98756744Y-90963386D01*
X98892950Y-90759539D01*
X98986771Y-90533036D01*
X99034600Y-90292582D01*
X99034600Y-90047418D01*
X99085400Y-90047418D01*
X99085400Y-90292582D01*
X99133229Y-90533036D01*
X99227050Y-90759539D01*
X99363256Y-90963386D01*
X99536614Y-91136744D01*
X99740461Y-91272950D01*
X99966964Y-91366771D01*
X100207418Y-91414600D01*
X100452582Y-91414600D01*
X100693036Y-91366771D01*
X100919539Y-91272950D01*
X101123386Y-91136744D01*
X101296744Y-90963386D01*
X101432950Y-90759539D01*
X101526771Y-90533036D01*
X101574600Y-90292582D01*
X101574600Y-90047418D01*
X101526771Y-89806964D01*
X101432950Y-89580461D01*
X101296744Y-89376614D01*
X101123386Y-89203256D01*
X100919539Y-89067050D01*
X100693036Y-88973229D01*
X100452582Y-88925400D01*
X100207418Y-88925400D01*
X99966964Y-88973229D01*
X99740461Y-89067050D01*
X99536614Y-89203256D01*
X99363256Y-89376614D01*
X99227050Y-89580461D01*
X99133229Y-89806964D01*
X99085400Y-90047418D01*
X99034600Y-90047418D01*
X98986771Y-89806964D01*
X98892950Y-89580461D01*
X98756744Y-89376614D01*
X98583386Y-89203256D01*
X98379539Y-89067050D01*
X98153036Y-88973229D01*
X97912582Y-88925400D01*
X97667418Y-88925400D01*
X97426964Y-88973229D01*
X97200461Y-89067050D01*
X96996614Y-89203256D01*
X96823256Y-89376614D01*
X96687050Y-89580461D01*
X96593229Y-89806964D01*
X96545400Y-90047418D01*
X91986100Y-90047418D01*
X91986100Y-87507418D01*
X96545400Y-87507418D01*
X96545400Y-87752582D01*
X96593229Y-87993036D01*
X96687050Y-88219539D01*
X96823256Y-88423386D01*
X96996614Y-88596744D01*
X97200461Y-88732950D01*
X97426964Y-88826771D01*
X97667418Y-88874600D01*
X97912582Y-88874600D01*
X98153036Y-88826771D01*
X98379539Y-88732950D01*
X98583386Y-88596744D01*
X98756744Y-88423386D01*
X98892950Y-88219539D01*
X98986771Y-87993036D01*
X99034600Y-87752582D01*
X99034600Y-87507418D01*
X99085400Y-87507418D01*
X99085400Y-87752582D01*
X99133229Y-87993036D01*
X99227050Y-88219539D01*
X99363256Y-88423386D01*
X99536614Y-88596744D01*
X99740461Y-88732950D01*
X99966964Y-88826771D01*
X100207418Y-88874600D01*
X100452582Y-88874600D01*
X100693036Y-88826771D01*
X100919539Y-88732950D01*
X101123386Y-88596744D01*
X101296744Y-88423386D01*
X101432950Y-88219539D01*
X101526771Y-87993036D01*
X101574600Y-87752582D01*
X101574600Y-87507418D01*
X101526771Y-87266964D01*
X101432950Y-87040461D01*
X101296744Y-86836614D01*
X101123386Y-86663256D01*
X100919539Y-86527050D01*
X100693036Y-86433229D01*
X100452582Y-86385400D01*
X100207418Y-86385400D01*
X99966964Y-86433229D01*
X99740461Y-86527050D01*
X99536614Y-86663256D01*
X99363256Y-86836614D01*
X99227050Y-87040461D01*
X99133229Y-87266964D01*
X99085400Y-87507418D01*
X99034600Y-87507418D01*
X98986771Y-87266964D01*
X98892950Y-87040461D01*
X98756744Y-86836614D01*
X98583386Y-86663256D01*
X98379539Y-86527050D01*
X98153036Y-86433229D01*
X97912582Y-86385400D01*
X97667418Y-86385400D01*
X97426964Y-86433229D01*
X97200461Y-86527050D01*
X96996614Y-86663256D01*
X96823256Y-86836614D01*
X96687050Y-87040461D01*
X96593229Y-87266964D01*
X96545400Y-87507418D01*
X91986100Y-87507418D01*
X91986100Y-84967418D01*
X96545400Y-84967418D01*
X96545400Y-85212582D01*
X96593229Y-85453036D01*
X96687050Y-85679539D01*
X96823256Y-85883386D01*
X96996614Y-86056744D01*
X97200461Y-86192950D01*
X97426964Y-86286771D01*
X97667418Y-86334600D01*
X97912582Y-86334600D01*
X98153036Y-86286771D01*
X98379539Y-86192950D01*
X98583386Y-86056744D01*
X98756744Y-85883386D01*
X98892950Y-85679539D01*
X98986771Y-85453036D01*
X99034600Y-85212582D01*
X99034600Y-84967418D01*
X99085400Y-84967418D01*
X99085400Y-85212582D01*
X99133229Y-85453036D01*
X99227050Y-85679539D01*
X99363256Y-85883386D01*
X99536614Y-86056744D01*
X99740461Y-86192950D01*
X99966964Y-86286771D01*
X100207418Y-86334600D01*
X100452582Y-86334600D01*
X100693036Y-86286771D01*
X100919539Y-86192950D01*
X101123386Y-86056744D01*
X101296744Y-85883386D01*
X101432950Y-85679539D01*
X101526771Y-85453036D01*
X101574600Y-85212582D01*
X101574600Y-84967418D01*
X101526771Y-84726964D01*
X101432950Y-84500461D01*
X101296744Y-84296614D01*
X101123386Y-84123256D01*
X100919539Y-83987050D01*
X100693036Y-83893229D01*
X100452582Y-83845400D01*
X100207418Y-83845400D01*
X99966964Y-83893229D01*
X99740461Y-83987050D01*
X99536614Y-84123256D01*
X99363256Y-84296614D01*
X99227050Y-84500461D01*
X99133229Y-84726964D01*
X99085400Y-84967418D01*
X99034600Y-84967418D01*
X98986771Y-84726964D01*
X98892950Y-84500461D01*
X98756744Y-84296614D01*
X98583386Y-84123256D01*
X98379539Y-83987050D01*
X98153036Y-83893229D01*
X97912582Y-83845400D01*
X97667418Y-83845400D01*
X97426964Y-83893229D01*
X97200461Y-83987050D01*
X96996614Y-84123256D01*
X96823256Y-84296614D01*
X96687050Y-84500461D01*
X96593229Y-84726964D01*
X96545400Y-84967418D01*
X91986100Y-84967418D01*
X91986100Y-82427418D01*
X96545400Y-82427418D01*
X96545400Y-82672582D01*
X96593229Y-82913036D01*
X96687050Y-83139539D01*
X96823256Y-83343386D01*
X96996614Y-83516744D01*
X97200461Y-83652950D01*
X97426964Y-83746771D01*
X97667418Y-83794600D01*
X97912582Y-83794600D01*
X98153036Y-83746771D01*
X98379539Y-83652950D01*
X98583386Y-83516744D01*
X98756744Y-83343386D01*
X98892950Y-83139539D01*
X98986771Y-82913036D01*
X99034600Y-82672582D01*
X99034600Y-82427418D01*
X99085400Y-82427418D01*
X99085400Y-82672582D01*
X99133229Y-82913036D01*
X99227050Y-83139539D01*
X99363256Y-83343386D01*
X99536614Y-83516744D01*
X99740461Y-83652950D01*
X99966964Y-83746771D01*
X100207418Y-83794600D01*
X100452582Y-83794600D01*
X100693036Y-83746771D01*
X100919539Y-83652950D01*
X101123386Y-83516744D01*
X101296744Y-83343386D01*
X101432950Y-83139539D01*
X101526771Y-82913036D01*
X101574600Y-82672582D01*
X101574600Y-82427418D01*
X101526771Y-82186964D01*
X101432950Y-81960461D01*
X101296744Y-81756614D01*
X101123386Y-81583256D01*
X100919539Y-81447050D01*
X100693036Y-81353229D01*
X100452582Y-81305400D01*
X100207418Y-81305400D01*
X99966964Y-81353229D01*
X99740461Y-81447050D01*
X99536614Y-81583256D01*
X99363256Y-81756614D01*
X99227050Y-81960461D01*
X99133229Y-82186964D01*
X99085400Y-82427418D01*
X99034600Y-82427418D01*
X98986771Y-82186964D01*
X98892950Y-81960461D01*
X98756744Y-81756614D01*
X98583386Y-81583256D01*
X98379539Y-81447050D01*
X98153036Y-81353229D01*
X97912582Y-81305400D01*
X97667418Y-81305400D01*
X97426964Y-81353229D01*
X97200461Y-81447050D01*
X96996614Y-81583256D01*
X96823256Y-81756614D01*
X96687050Y-81960461D01*
X96593229Y-82186964D01*
X96545400Y-82427418D01*
X91986100Y-82427418D01*
X91986100Y-79887418D01*
X96545400Y-79887418D01*
X96545400Y-80132582D01*
X96593229Y-80373036D01*
X96687050Y-80599539D01*
X96823256Y-80803386D01*
X96996614Y-80976744D01*
X97200461Y-81112950D01*
X97426964Y-81206771D01*
X97667418Y-81254600D01*
X97912582Y-81254600D01*
X98153036Y-81206771D01*
X98379539Y-81112950D01*
X98583386Y-80976744D01*
X98756744Y-80803386D01*
X98892950Y-80599539D01*
X98986771Y-80373036D01*
X99034600Y-80132582D01*
X99034600Y-79887418D01*
X99085400Y-79887418D01*
X99085400Y-80132582D01*
X99133229Y-80373036D01*
X99227050Y-80599539D01*
X99363256Y-80803386D01*
X99536614Y-80976744D01*
X99740461Y-81112950D01*
X99966964Y-81206771D01*
X100207418Y-81254600D01*
X100452582Y-81254600D01*
X100693036Y-81206771D01*
X100919539Y-81112950D01*
X101123386Y-80976744D01*
X101296744Y-80803386D01*
X101432950Y-80599539D01*
X101526771Y-80373036D01*
X101574600Y-80132582D01*
X101574600Y-79887418D01*
X101526771Y-79646964D01*
X101432950Y-79420461D01*
X101296744Y-79216614D01*
X101123386Y-79043256D01*
X100919539Y-78907050D01*
X100693036Y-78813229D01*
X100452582Y-78765400D01*
X100207418Y-78765400D01*
X99966964Y-78813229D01*
X99740461Y-78907050D01*
X99536614Y-79043256D01*
X99363256Y-79216614D01*
X99227050Y-79420461D01*
X99133229Y-79646964D01*
X99085400Y-79887418D01*
X99034600Y-79887418D01*
X98986771Y-79646964D01*
X98892950Y-79420461D01*
X98756744Y-79216614D01*
X98583386Y-79043256D01*
X98379539Y-78907050D01*
X98153036Y-78813229D01*
X97912582Y-78765400D01*
X97667418Y-78765400D01*
X97426964Y-78813229D01*
X97200461Y-78907050D01*
X96996614Y-79043256D01*
X96823256Y-79216614D01*
X96687050Y-79420461D01*
X96593229Y-79646964D01*
X96545400Y-79887418D01*
X91986100Y-79887418D01*
X91986100Y-77347418D01*
X96545400Y-77347418D01*
X96545400Y-77592582D01*
X96593229Y-77833036D01*
X96687050Y-78059539D01*
X96823256Y-78263386D01*
X96996614Y-78436744D01*
X97200461Y-78572950D01*
X97426964Y-78666771D01*
X97667418Y-78714600D01*
X97912582Y-78714600D01*
X98153036Y-78666771D01*
X98379539Y-78572950D01*
X98583386Y-78436744D01*
X98756744Y-78263386D01*
X98892950Y-78059539D01*
X98986771Y-77833036D01*
X99034600Y-77592582D01*
X99034600Y-77347418D01*
X99085400Y-77347418D01*
X99085400Y-77592582D01*
X99133229Y-77833036D01*
X99227050Y-78059539D01*
X99363256Y-78263386D01*
X99536614Y-78436744D01*
X99740461Y-78572950D01*
X99966964Y-78666771D01*
X100207418Y-78714600D01*
X100452582Y-78714600D01*
X100693036Y-78666771D01*
X100919539Y-78572950D01*
X101123386Y-78436744D01*
X101296744Y-78263386D01*
X101432950Y-78059539D01*
X101526771Y-77833036D01*
X101574600Y-77592582D01*
X101574600Y-77347418D01*
X101526771Y-77106964D01*
X101432950Y-76880461D01*
X101296744Y-76676614D01*
X101123386Y-76503256D01*
X100919539Y-76367050D01*
X100693036Y-76273229D01*
X100452582Y-76225400D01*
X100207418Y-76225400D01*
X99966964Y-76273229D01*
X99740461Y-76367050D01*
X99536614Y-76503256D01*
X99363256Y-76676614D01*
X99227050Y-76880461D01*
X99133229Y-77106964D01*
X99085400Y-77347418D01*
X99034600Y-77347418D01*
X98986771Y-77106964D01*
X98892950Y-76880461D01*
X98756744Y-76676614D01*
X98583386Y-76503256D01*
X98379539Y-76367050D01*
X98153036Y-76273229D01*
X97912582Y-76225400D01*
X97667418Y-76225400D01*
X97426964Y-76273229D01*
X97200461Y-76367050D01*
X96996614Y-76503256D01*
X96823256Y-76676614D01*
X96687050Y-76880461D01*
X96593229Y-77106964D01*
X96545400Y-77347418D01*
X91986100Y-77347418D01*
X91986100Y-74807418D01*
X96545400Y-74807418D01*
X96545400Y-75052582D01*
X96593229Y-75293036D01*
X96687050Y-75519539D01*
X96823256Y-75723386D01*
X96996614Y-75896744D01*
X97200461Y-76032950D01*
X97426964Y-76126771D01*
X97667418Y-76174600D01*
X97912582Y-76174600D01*
X98153036Y-76126771D01*
X98379539Y-76032950D01*
X98583386Y-75896744D01*
X98756744Y-75723386D01*
X98892950Y-75519539D01*
X98986771Y-75293036D01*
X99034600Y-75052582D01*
X99034600Y-74807418D01*
X99085400Y-74807418D01*
X99085400Y-75052582D01*
X99133229Y-75293036D01*
X99227050Y-75519539D01*
X99363256Y-75723386D01*
X99536614Y-75896744D01*
X99740461Y-76032950D01*
X99966964Y-76126771D01*
X100207418Y-76174600D01*
X100452582Y-76174600D01*
X100693036Y-76126771D01*
X100919539Y-76032950D01*
X101123386Y-75896744D01*
X101296744Y-75723386D01*
X101432950Y-75519539D01*
X101526771Y-75293036D01*
X101574600Y-75052582D01*
X101574600Y-74807418D01*
X101526771Y-74566964D01*
X101432950Y-74340461D01*
X101296744Y-74136614D01*
X101123386Y-73963256D01*
X100919539Y-73827050D01*
X100693036Y-73733229D01*
X100452582Y-73685400D01*
X100207418Y-73685400D01*
X99966964Y-73733229D01*
X99740461Y-73827050D01*
X99536614Y-73963256D01*
X99363256Y-74136614D01*
X99227050Y-74340461D01*
X99133229Y-74566964D01*
X99085400Y-74807418D01*
X99034600Y-74807418D01*
X98986771Y-74566964D01*
X98892950Y-74340461D01*
X98756744Y-74136614D01*
X98583386Y-73963256D01*
X98379539Y-73827050D01*
X98153036Y-73733229D01*
X97912582Y-73685400D01*
X97667418Y-73685400D01*
X97426964Y-73733229D01*
X97200461Y-73827050D01*
X96996614Y-73963256D01*
X96823256Y-74136614D01*
X96687050Y-74340461D01*
X96593229Y-74566964D01*
X96545400Y-74807418D01*
X91986100Y-74807418D01*
X91986100Y-72267418D01*
X96545400Y-72267418D01*
X96545400Y-72512582D01*
X96593229Y-72753036D01*
X96687050Y-72979539D01*
X96823256Y-73183386D01*
X96996614Y-73356744D01*
X97200461Y-73492950D01*
X97426964Y-73586771D01*
X97667418Y-73634600D01*
X97912582Y-73634600D01*
X98153036Y-73586771D01*
X98379539Y-73492950D01*
X98583386Y-73356744D01*
X98756744Y-73183386D01*
X98892950Y-72979539D01*
X98986771Y-72753036D01*
X99034600Y-72512582D01*
X99034600Y-72267418D01*
X99085400Y-72267418D01*
X99085400Y-72512582D01*
X99133229Y-72753036D01*
X99227050Y-72979539D01*
X99363256Y-73183386D01*
X99536614Y-73356744D01*
X99740461Y-73492950D01*
X99966964Y-73586771D01*
X100207418Y-73634600D01*
X100452582Y-73634600D01*
X100693036Y-73586771D01*
X100919539Y-73492950D01*
X101123386Y-73356744D01*
X101296744Y-73183386D01*
X101432950Y-72979539D01*
X101526771Y-72753036D01*
X101574600Y-72512582D01*
X101574600Y-72267418D01*
X101526771Y-72026964D01*
X101432950Y-71800461D01*
X101296744Y-71596614D01*
X101123386Y-71423256D01*
X100919539Y-71287050D01*
X100693036Y-71193229D01*
X100452582Y-71145400D01*
X100207418Y-71145400D01*
X99966964Y-71193229D01*
X99740461Y-71287050D01*
X99536614Y-71423256D01*
X99363256Y-71596614D01*
X99227050Y-71800461D01*
X99133229Y-72026964D01*
X99085400Y-72267418D01*
X99034600Y-72267418D01*
X98986771Y-72026964D01*
X98892950Y-71800461D01*
X98756744Y-71596614D01*
X98583386Y-71423256D01*
X98379539Y-71287050D01*
X98153036Y-71193229D01*
X97912582Y-71145400D01*
X97667418Y-71145400D01*
X97426964Y-71193229D01*
X97200461Y-71287050D01*
X96996614Y-71423256D01*
X96823256Y-71596614D01*
X96687050Y-71800461D01*
X96593229Y-72026964D01*
X96545400Y-72267418D01*
X91986100Y-72267418D01*
X91986100Y-69727418D01*
X96545400Y-69727418D01*
X96545400Y-69972582D01*
X96593229Y-70213036D01*
X96687050Y-70439539D01*
X96823256Y-70643386D01*
X96996614Y-70816744D01*
X97200461Y-70952950D01*
X97426964Y-71046771D01*
X97667418Y-71094600D01*
X97912582Y-71094600D01*
X98153036Y-71046771D01*
X98379539Y-70952950D01*
X98583386Y-70816744D01*
X98756744Y-70643386D01*
X98892950Y-70439539D01*
X98986771Y-70213036D01*
X99034600Y-69972582D01*
X99034600Y-69727418D01*
X99085400Y-69727418D01*
X99085400Y-69972582D01*
X99133229Y-70213036D01*
X99227050Y-70439539D01*
X99363256Y-70643386D01*
X99536614Y-70816744D01*
X99740461Y-70952950D01*
X99966964Y-71046771D01*
X100207418Y-71094600D01*
X100452582Y-71094600D01*
X100693036Y-71046771D01*
X100919539Y-70952950D01*
X101123386Y-70816744D01*
X101296744Y-70643386D01*
X101432950Y-70439539D01*
X101526771Y-70213036D01*
X101574600Y-69972582D01*
X101574600Y-69727418D01*
X101526771Y-69486964D01*
X101432950Y-69260461D01*
X101296744Y-69056614D01*
X101123386Y-68883256D01*
X100919539Y-68747050D01*
X100693036Y-68653229D01*
X100452582Y-68605400D01*
X100207418Y-68605400D01*
X99966964Y-68653229D01*
X99740461Y-68747050D01*
X99536614Y-68883256D01*
X99363256Y-69056614D01*
X99227050Y-69260461D01*
X99133229Y-69486964D01*
X99085400Y-69727418D01*
X99034600Y-69727418D01*
X98986771Y-69486964D01*
X98892950Y-69260461D01*
X98756744Y-69056614D01*
X98583386Y-68883256D01*
X98379539Y-68747050D01*
X98153036Y-68653229D01*
X97912582Y-68605400D01*
X97667418Y-68605400D01*
X97426964Y-68653229D01*
X97200461Y-68747050D01*
X96996614Y-68883256D01*
X96823256Y-69056614D01*
X96687050Y-69260461D01*
X96593229Y-69486964D01*
X96545400Y-69727418D01*
X91986100Y-69727418D01*
X91986100Y-62262925D01*
X92024822Y-61868009D01*
X92129949Y-61519809D01*
X92300709Y-61198658D01*
X92530593Y-60916792D01*
X92810847Y-60684946D01*
X93130796Y-60511950D01*
X93478257Y-60404393D01*
X93869928Y-60363227D01*
X203167066Y-60363099D01*
X203561991Y-60401822D01*
%TA.AperFunction,Conductor*%
D27*
G36*
X203561991Y-60401822D02*
G01*
X203910191Y-60506949D01*
X204231342Y-60677709D01*
X204513208Y-60907593D01*
X204745054Y-61187847D01*
X204918050Y-61507796D01*
X205025607Y-61855257D01*
X205066901Y-62248146D01*
X205066901Y-85598000D01*
X193675000Y-85598000D01*
X193650224Y-85600440D01*
X193626399Y-85607667D01*
X193604443Y-85619403D01*
X193585197Y-85635197D01*
X192346252Y-86874142D01*
X192326253Y-86854143D01*
X192340395Y-86840000D01*
X191170776Y-85670381D01*
X190875688Y-85802317D01*
X190704841Y-86143045D01*
X190603750Y-86510557D01*
X190576299Y-86890729D01*
X190623543Y-87268951D01*
X190743667Y-87630690D01*
X190875688Y-87877683D01*
X191170774Y-88009618D01*
X191055759Y-88124633D01*
X191075760Y-88144634D01*
X191045197Y-88175197D01*
X191029403Y-88194443D01*
X191017667Y-88216399D01*
X191010440Y-88240224D01*
X191008000Y-88265000D01*
X191008000Y-100965000D01*
X191010440Y-100989776D01*
X191017667Y-101013601D01*
X191029403Y-101035557D01*
X191045197Y-101054803D01*
X191075760Y-101085366D01*
X191055759Y-101105367D01*
X191170774Y-101220382D01*
X190875688Y-101352317D01*
X190704841Y-101693045D01*
X190603750Y-102060557D01*
X190576299Y-102440729D01*
X190623543Y-102818951D01*
X190743667Y-103180690D01*
X190875688Y-103427683D01*
X191170776Y-103559619D01*
X192340395Y-102390000D01*
X192326253Y-102375858D01*
X192346252Y-102355858D01*
X193585197Y-103594803D01*
X193604443Y-103610597D01*
X193626399Y-103622333D01*
X193650224Y-103629560D01*
X193675000Y-103632000D01*
X205066900Y-103632000D01*
X205066900Y-124427075D01*
X205028178Y-124821990D01*
X204923050Y-125170192D01*
X204752293Y-125491341D01*
X204522407Y-125773208D01*
X204242153Y-126005054D01*
X203922204Y-126178050D01*
X203574744Y-126285607D01*
X203181864Y-126326900D01*
X201810352Y-126326900D01*
X202493208Y-126124452D01*
X203161670Y-125772555D01*
X203202088Y-125745548D01*
X203562276Y-125255881D01*
X201041000Y-122734605D01*
X198519724Y-125255881D01*
X198879912Y-125745548D01*
X199543882Y-126105849D01*
X200256379Y-126326900D01*
X191549059Y-126326900D01*
X191516000Y-126323644D01*
X191482941Y-126326900D01*
X191384049Y-126336640D01*
X191257170Y-126375129D01*
X191140237Y-126437631D01*
X191037744Y-126521744D01*
X190953631Y-126624237D01*
X190891129Y-126741170D01*
X190852640Y-126868049D01*
X190839644Y-127000000D01*
X190842901Y-127033069D01*
X190842900Y-133946900D01*
X183515000Y-133946900D01*
X183515000Y-132026953D01*
X183585708Y-132382426D01*
X183729507Y-132729587D01*
X183938270Y-133042024D01*
X184203976Y-133307730D01*
X184516413Y-133516493D01*
X184863574Y-133660292D01*
X185232118Y-133733600D01*
X185607882Y-133733600D01*
X185976426Y-133660292D01*
X186323587Y-133516493D01*
X186636024Y-133307730D01*
X186901730Y-133042024D01*
X187110493Y-132729587D01*
X187254292Y-132382426D01*
X187327600Y-132013882D01*
X187327600Y-131638118D01*
X187254292Y-131269574D01*
X187110493Y-130922413D01*
X186901730Y-130609976D01*
X186636024Y-130344270D01*
X186323587Y-130135507D01*
X185976426Y-129991708D01*
X185607882Y-129918400D01*
X185232118Y-129918400D01*
X184863574Y-129991708D01*
X184516413Y-130135507D01*
X184203976Y-130344270D01*
X183938270Y-130609976D01*
X183729507Y-130922413D01*
X183585708Y-131269574D01*
X183515000Y-131625047D01*
X183515000Y-122936000D01*
X183512560Y-122911224D01*
X183505333Y-122887399D01*
X183493597Y-122865443D01*
X183477803Y-122846197D01*
X183458557Y-122830403D01*
X183444796Y-122822408D01*
X182861371Y-122530695D01*
X197187520Y-122530695D01*
X197256822Y-123282938D01*
X197471548Y-124007208D01*
X197823445Y-124675670D01*
X197850452Y-124716088D01*
X198340119Y-125076276D01*
X200861395Y-122555000D01*
X201220605Y-122555000D01*
X203741881Y-125076276D01*
X204231548Y-124716088D01*
X204591849Y-124052118D01*
X204815694Y-123330615D01*
X204894480Y-122579305D01*
X204825178Y-121827062D01*
X204610452Y-121102792D01*
X204258555Y-120434330D01*
X204231548Y-120393912D01*
X203741881Y-120033724D01*
X201220605Y-122555000D01*
X200861395Y-122555000D01*
X198340119Y-120033724D01*
X197850452Y-120393912D01*
X197490151Y-121057882D01*
X197266306Y-121779385D01*
X197187520Y-122530695D01*
X182861371Y-122530695D01*
X182453745Y-122326882D01*
X180475534Y-119854119D01*
X198519724Y-119854119D01*
X201041000Y-122375395D01*
X203562276Y-119854119D01*
X203202088Y-119364452D01*
X202538118Y-119004151D01*
X201816615Y-118780306D01*
X201065305Y-118701520D01*
X200313062Y-118770822D01*
X199588792Y-118985548D01*
X198920330Y-119337445D01*
X198879912Y-119364452D01*
X198519724Y-119854119D01*
X180475534Y-119854119D01*
X180467000Y-119843452D01*
X180467000Y-116332000D01*
X180464560Y-116307224D01*
X180457333Y-116283399D01*
X180445597Y-116261443D01*
X180428705Y-116241113D01*
X172529500Y-108531489D01*
X172529500Y-108002606D01*
X172772606Y-107759500D01*
X179387500Y-107759500D01*
X179412276Y-107757060D01*
X179436101Y-107749833D01*
X179458057Y-107738097D01*
X179477303Y-107722303D01*
X179794803Y-107404803D01*
X179810597Y-107385557D01*
X179822333Y-107363601D01*
X179829560Y-107339776D01*
X179832000Y-107315000D01*
X179832000Y-106045000D01*
X179829560Y-106020224D01*
X179822333Y-105996399D01*
X179810597Y-105974443D01*
X179794803Y-105955197D01*
X179477303Y-105637697D01*
X179458057Y-105621903D01*
X179436101Y-105610167D01*
X179412276Y-105602940D01*
X179387500Y-105600500D01*
X168010106Y-105600500D01*
X166814500Y-104404894D01*
X166814500Y-103875106D01*
X166950382Y-103739224D01*
X191350381Y-103739224D01*
X191482317Y-104034312D01*
X191823045Y-104205159D01*
X192190557Y-104306250D01*
X192570729Y-104333701D01*
X192948951Y-104286457D01*
X193310690Y-104166333D01*
X193557683Y-104034312D01*
X193689619Y-103739224D01*
X192520000Y-102569605D01*
X191350381Y-103739224D01*
X166950382Y-103739224D01*
X167408854Y-103280752D01*
X169627651Y-101378926D01*
X169644874Y-101360948D01*
X169658260Y-101339957D01*
X169667293Y-101316757D01*
X169672000Y-101282500D01*
X169672000Y-92568901D01*
X185257400Y-92568901D01*
X185257400Y-92851099D01*
X185312454Y-93127874D01*
X185420446Y-93388591D01*
X185577227Y-93623229D01*
X185776771Y-93822773D01*
X186011409Y-93979554D01*
X186012486Y-93980000D01*
X186011409Y-93980446D01*
X185776771Y-94137227D01*
X185577227Y-94336771D01*
X185420446Y-94571409D01*
X185312454Y-94832126D01*
X185257400Y-95108901D01*
X185257400Y-95391099D01*
X185312454Y-95667874D01*
X185420446Y-95928591D01*
X185577227Y-96163229D01*
X185776771Y-96362773D01*
X186011409Y-96519554D01*
X186012486Y-96520000D01*
X186011409Y-96520446D01*
X185776771Y-96677227D01*
X185577227Y-96876771D01*
X185420446Y-97111409D01*
X185312454Y-97372126D01*
X185257400Y-97648901D01*
X185257400Y-97931099D01*
X185312454Y-98207874D01*
X185420446Y-98468591D01*
X185577227Y-98703229D01*
X185776771Y-98902773D01*
X186011409Y-99059554D01*
X186272126Y-99167546D01*
X186548901Y-99222600D01*
X186831099Y-99222600D01*
X187107874Y-99167546D01*
X187368591Y-99059554D01*
X187603229Y-98902773D01*
X187795065Y-98710937D01*
X187795065Y-100010000D01*
X187804383Y-100104606D01*
X187831978Y-100195577D01*
X187876791Y-100279415D01*
X187937099Y-100352901D01*
X188010585Y-100413209D01*
X188094423Y-100458022D01*
X188185394Y-100485617D01*
X188280000Y-100494935D01*
X190180000Y-100494935D01*
X190274606Y-100485617D01*
X190365577Y-100458022D01*
X190449415Y-100413209D01*
X190522901Y-100352901D01*
X190583209Y-100279415D01*
X190628022Y-100195577D01*
X190655617Y-100104606D01*
X190664935Y-100010000D01*
X190664935Y-98110000D01*
X190655617Y-98015394D01*
X190628022Y-97924423D01*
X190583209Y-97840585D01*
X190522901Y-97767099D01*
X190449415Y-97706791D01*
X190365577Y-97661978D01*
X190274606Y-97634383D01*
X190180000Y-97625065D01*
X190150937Y-97625065D01*
X190342773Y-97433229D01*
X190499554Y-97198591D01*
X190607546Y-96937874D01*
X190662600Y-96661099D01*
X190662600Y-96378901D01*
X190607546Y-96102126D01*
X190499554Y-95841409D01*
X190342773Y-95606771D01*
X190143229Y-95407227D01*
X189908591Y-95250446D01*
X189907514Y-95250000D01*
X189908591Y-95249554D01*
X190143229Y-95092773D01*
X190342773Y-94893229D01*
X190499554Y-94658591D01*
X190607546Y-94397874D01*
X190662600Y-94121099D01*
X190662600Y-93838901D01*
X190607546Y-93562126D01*
X190499554Y-93301409D01*
X190342773Y-93066771D01*
X190143229Y-92867227D01*
X189908591Y-92710446D01*
X189907514Y-92710000D01*
X189908591Y-92709554D01*
X190143229Y-92552773D01*
X190342773Y-92353229D01*
X190499554Y-92118591D01*
X190607546Y-91857874D01*
X190662600Y-91581099D01*
X190662600Y-91298901D01*
X190607546Y-91022126D01*
X190499554Y-90761409D01*
X190342773Y-90526771D01*
X190143229Y-90327227D01*
X189908591Y-90170446D01*
X189647874Y-90062454D01*
X189371099Y-90007400D01*
X189088901Y-90007400D01*
X188812126Y-90062454D01*
X188551409Y-90170446D01*
X188316771Y-90327227D01*
X188265614Y-90378384D01*
X188281359Y-90105427D01*
X188238184Y-89796209D01*
X188135513Y-89501356D01*
X188049042Y-89339579D01*
X187789752Y-89249853D01*
X186869605Y-90170000D01*
X186883748Y-90184143D01*
X186704143Y-90363748D01*
X186690000Y-90349605D01*
X185769853Y-91269752D01*
X185859579Y-91529042D01*
X185870741Y-91534438D01*
X185776771Y-91597227D01*
X185577227Y-91796771D01*
X185420446Y-92031409D01*
X185312454Y-92292126D01*
X185257400Y-92568901D01*
X169672000Y-92568901D01*
X169672000Y-90234573D01*
X185098641Y-90234573D01*
X185141816Y-90543791D01*
X185244487Y-90838644D01*
X185330958Y-91000421D01*
X185590248Y-91090147D01*
X186510395Y-90170000D01*
X185590248Y-89249853D01*
X185330958Y-89339579D01*
X185195065Y-89620671D01*
X185116621Y-89922873D01*
X185098641Y-90234573D01*
X169672000Y-90234573D01*
X169672000Y-88684612D01*
X176618900Y-88684612D01*
X176618900Y-88917268D01*
X176664289Y-89145454D01*
X176753323Y-89360401D01*
X176882580Y-89553847D01*
X177047093Y-89718360D01*
X177240539Y-89847617D01*
X177455486Y-89936651D01*
X177683672Y-89982040D01*
X177916328Y-89982040D01*
X178144514Y-89936651D01*
X178359461Y-89847617D01*
X178552907Y-89718360D01*
X178717420Y-89553847D01*
X178846677Y-89360401D01*
X178935711Y-89145454D01*
X178950670Y-89070248D01*
X185769853Y-89070248D01*
X186690000Y-89990395D01*
X187610147Y-89070248D01*
X187520421Y-88810958D01*
X187239329Y-88675065D01*
X186937127Y-88596621D01*
X186625427Y-88578641D01*
X186316209Y-88621816D01*
X186021356Y-88724487D01*
X185859579Y-88810958D01*
X185769853Y-89070248D01*
X178950670Y-89070248D01*
X178981100Y-88917268D01*
X178981100Y-88684612D01*
X178935711Y-88456426D01*
X178846677Y-88241479D01*
X178717420Y-88048033D01*
X178552907Y-87883520D01*
X178359461Y-87754263D01*
X178144514Y-87665229D01*
X177916328Y-87619840D01*
X177683672Y-87619840D01*
X177455486Y-87665229D01*
X177240539Y-87754263D01*
X177047093Y-87883520D01*
X176882580Y-88048033D01*
X176753323Y-88241479D01*
X176664289Y-88456426D01*
X176618900Y-88684612D01*
X169672000Y-88684612D01*
X169672000Y-85490776D01*
X191350381Y-85490776D01*
X192520000Y-86660395D01*
X193689619Y-85490776D01*
X193557683Y-85195688D01*
X193216955Y-85024841D01*
X192849443Y-84923750D01*
X192469271Y-84896299D01*
X192091049Y-84943543D01*
X191729310Y-85063667D01*
X191482317Y-85195688D01*
X191350381Y-85490776D01*
X169672000Y-85490776D01*
X169672000Y-83802732D01*
X176618900Y-83802732D01*
X176618900Y-84035388D01*
X176664289Y-84263574D01*
X176753323Y-84478521D01*
X176882580Y-84671967D01*
X177047093Y-84836480D01*
X177240539Y-84965737D01*
X177455486Y-85054771D01*
X177683672Y-85100160D01*
X177916328Y-85100160D01*
X178144514Y-85054771D01*
X178359461Y-84965737D01*
X178552907Y-84836480D01*
X178717420Y-84671967D01*
X178846677Y-84478521D01*
X178935711Y-84263574D01*
X178981100Y-84035388D01*
X178981100Y-83802732D01*
X178935711Y-83574546D01*
X178846677Y-83359599D01*
X178717420Y-83166153D01*
X178552907Y-83001640D01*
X178359461Y-82872383D01*
X178144514Y-82783349D01*
X177916328Y-82737960D01*
X177683672Y-82737960D01*
X177455486Y-82783349D01*
X177240539Y-82872383D01*
X177047093Y-83001640D01*
X176882580Y-83166153D01*
X176753323Y-83359599D01*
X176664289Y-83574546D01*
X176618900Y-83802732D01*
X169672000Y-83802732D01*
X169672000Y-79745106D01*
X169915106Y-79502000D01*
X182562500Y-79502000D01*
X182587276Y-79499560D01*
X182611101Y-79492333D01*
X182633057Y-79480597D01*
X182652303Y-79464803D01*
X182969803Y-79147303D01*
X182985597Y-79128057D01*
X182997333Y-79106101D01*
X183004560Y-79082276D01*
X183007000Y-79057500D01*
X183007000Y-68740881D01*
X198519724Y-68740881D01*
X198879912Y-69230548D01*
X199543882Y-69590849D01*
X200265385Y-69814694D01*
X201016695Y-69893480D01*
X201768938Y-69824178D01*
X202493208Y-69609452D01*
X203161670Y-69257555D01*
X203202088Y-69230548D01*
X203562276Y-68740881D01*
X201041000Y-66219605D01*
X198519724Y-68740881D01*
X183007000Y-68740881D01*
X183007000Y-66015695D01*
X197187520Y-66015695D01*
X197256822Y-66767938D01*
X197471548Y-67492208D01*
X197823445Y-68160670D01*
X197850452Y-68201088D01*
X198340119Y-68561276D01*
X200861395Y-66040000D01*
X201220605Y-66040000D01*
X203741881Y-68561276D01*
X204231548Y-68201088D01*
X204591849Y-67537118D01*
X204815694Y-66815615D01*
X204894480Y-66064305D01*
X204825178Y-65312062D01*
X204610452Y-64587792D01*
X204258555Y-63919330D01*
X204231548Y-63878912D01*
X203741881Y-63518724D01*
X201220605Y-66040000D01*
X200861395Y-66040000D01*
X198340119Y-63518724D01*
X197850452Y-63878912D01*
X197490151Y-64542882D01*
X197266306Y-65264385D01*
X197187520Y-66015695D01*
X183007000Y-66015695D01*
X183007000Y-63339119D01*
X198519724Y-63339119D01*
X201041000Y-65860395D01*
X203562276Y-63339119D01*
X203202088Y-62849452D01*
X202538118Y-62489151D01*
X201816615Y-62265306D01*
X201065305Y-62186520D01*
X200313062Y-62255822D01*
X199588792Y-62470548D01*
X198920330Y-62822445D01*
X198879912Y-62849452D01*
X198519724Y-63339119D01*
X183007000Y-63339119D01*
X183007000Y-61277500D01*
X183004560Y-61252724D01*
X182997333Y-61228899D01*
X182985597Y-61206943D01*
X182969803Y-61187697D01*
X182652303Y-60870197D01*
X182633057Y-60854403D01*
X182611101Y-60842667D01*
X182587276Y-60835440D01*
X182562500Y-60833000D01*
X135255000Y-60833000D01*
X135230224Y-60835440D01*
X135206399Y-60842667D01*
X135184443Y-60854403D01*
X135166876Y-60868550D01*
X128190077Y-67591648D01*
X127455857Y-68081127D01*
X126476366Y-68326000D01*
X124587000Y-68326000D01*
X124562224Y-68328440D01*
X124538399Y-68335667D01*
X124516443Y-68347403D01*
X124497197Y-68363197D01*
X124475507Y-68392186D01*
X123749608Y-69723000D01*
X115887500Y-69723000D01*
X111353600Y-63677800D01*
X111336782Y-63659443D01*
X111316706Y-63644720D01*
X111294143Y-63634196D01*
X111269961Y-63628276D01*
X111252000Y-63627000D01*
X104260836Y-63627000D01*
X104237592Y-63614576D01*
X104002984Y-63543408D01*
X103820143Y-63525400D01*
X103759000Y-63519378D01*
X103697857Y-63525400D01*
X98575707Y-63525400D01*
X98552000Y-63523065D01*
X97028000Y-63523065D01*
X97004293Y-63525400D01*
X96966857Y-63525400D01*
X96784016Y-63543408D01*
X96549408Y-63614576D01*
X96526164Y-63627000D01*
X96266000Y-63627000D01*
X96241224Y-63629440D01*
X96217399Y-63636667D01*
X96195443Y-63648403D01*
X96176197Y-63664197D01*
X96160403Y-63683443D01*
X96152408Y-63697204D01*
X95898408Y-64205204D01*
X95889510Y-64228456D01*
X95885000Y-64262000D01*
X95885000Y-64268164D01*
X95872576Y-64291408D01*
X95801408Y-64526016D01*
X95777378Y-64770000D01*
X95801408Y-65013984D01*
X95872576Y-65248592D01*
X95885000Y-65271836D01*
X95885000Y-65786000D01*
X95887440Y-65810776D01*
X95894667Y-65834601D01*
X95906403Y-65856557D01*
X95922197Y-65875803D01*
X96430197Y-66383803D01*
X96449443Y-66399597D01*
X96471399Y-66411333D01*
X96495224Y-66418560D01*
X96520000Y-66421000D01*
X96918870Y-66421000D01*
X96823256Y-66516614D01*
X96687050Y-66720461D01*
X96593229Y-66946964D01*
X96545400Y-67187418D01*
X96545400Y-67432582D01*
X96593229Y-67673036D01*
X96687050Y-67899539D01*
X96823256Y-68103386D01*
X96996614Y-68276744D01*
X97200461Y-68412950D01*
X97426964Y-68506771D01*
X97667418Y-68554600D01*
X97912582Y-68554600D01*
X98153036Y-68506771D01*
X98379539Y-68412950D01*
X98583386Y-68276744D01*
X98756744Y-68103386D01*
X98892950Y-67899539D01*
X98986771Y-67673036D01*
X99034600Y-67432582D01*
X99034600Y-67187418D01*
X98986771Y-66946964D01*
X98892950Y-66720461D01*
X98756744Y-66516614D01*
X98661130Y-66421000D01*
X99458870Y-66421000D01*
X99363256Y-66516614D01*
X99227050Y-66720461D01*
X99133229Y-66946964D01*
X99085400Y-67187418D01*
X99085400Y-67432582D01*
X99133229Y-67673036D01*
X99227050Y-67899539D01*
X99363256Y-68103386D01*
X99536614Y-68276744D01*
X99740461Y-68412950D01*
X99966964Y-68506771D01*
X100207418Y-68554600D01*
X100452582Y-68554600D01*
X100693036Y-68506771D01*
X100919539Y-68412950D01*
X101123386Y-68276744D01*
X101296744Y-68103386D01*
X101432950Y-67899539D01*
X101526771Y-67673036D01*
X101574600Y-67432582D01*
X101574600Y-67187418D01*
X101526771Y-66946964D01*
X101432950Y-66720461D01*
X101296744Y-66516614D01*
X101201130Y-66421000D01*
X102040032Y-66421000D01*
X102489000Y-67094452D01*
X102489000Y-72390000D01*
X102491440Y-72414776D01*
X102498667Y-72438601D01*
X102510403Y-72460557D01*
X102526197Y-72479803D01*
X102545443Y-72495597D01*
X102567399Y-72507333D01*
X102591224Y-72514560D01*
X102616000Y-72517000D01*
X104601479Y-72517000D01*
X106172000Y-73845903D01*
X106172000Y-113605820D01*
X103077738Y-116205000D01*
X98552000Y-116205000D01*
X98527224Y-116207440D01*
X98503399Y-116214667D01*
X98481443Y-116226403D01*
X98462197Y-116242197D01*
X98446403Y-116261443D01*
X98434667Y-116283399D01*
X98427440Y-116307224D01*
X98425000Y-116332000D01*
X98425000Y-122434165D01*
X98412576Y-122457409D01*
X98341408Y-122692017D01*
X98323400Y-122874858D01*
X98323400Y-122874867D01*
X98317379Y-122936000D01*
X98323400Y-122997133D01*
X98323401Y-126176857D01*
X98317379Y-126238000D01*
X98341409Y-126481984D01*
X98412577Y-126716592D01*
X98425000Y-126739834D01*
X98425000Y-131318000D01*
X98427440Y-131342776D01*
X98434667Y-131366601D01*
X98446403Y-131388557D01*
X98462197Y-131407803D01*
X98481443Y-131423597D01*
X98503399Y-131435333D01*
X98527224Y-131442560D01*
X98551619Y-131444999D01*
X183007000Y-131698619D01*
X183007000Y-133946900D01*
X91986100Y-133946900D01*
X91986100Y-131638118D01*
X94612400Y-131638118D01*
X94612400Y-132013882D01*
X94685708Y-132382426D01*
X94829507Y-132729587D01*
X95038270Y-133042024D01*
X95303976Y-133307730D01*
X95616413Y-133516493D01*
X95963574Y-133660292D01*
X96332118Y-133733600D01*
X96707882Y-133733600D01*
X97076426Y-133660292D01*
X97423587Y-133516493D01*
X97736024Y-133307730D01*
X98001730Y-133042024D01*
X98210493Y-132729587D01*
X98354292Y-132382426D01*
X98427600Y-132013882D01*
X98427600Y-131638118D01*
X98354292Y-131269574D01*
X98210493Y-130922413D01*
X98001730Y-130609976D01*
X97736024Y-130344270D01*
X97423587Y-130135507D01*
X97076426Y-129991708D01*
X96707882Y-129918400D01*
X96332118Y-129918400D01*
X95963574Y-129991708D01*
X95616413Y-130135507D01*
X95303976Y-130344270D01*
X95038270Y-130609976D01*
X94829507Y-130922413D01*
X94685708Y-131269574D01*
X94612400Y-131638118D01*
X91986100Y-131638118D01*
X91986100Y-113995565D01*
X97004040Y-113995565D01*
X97071020Y-114235656D01*
X97320048Y-114352756D01*
X97587135Y-114419023D01*
X97862017Y-114431910D01*
X98134133Y-114390922D01*
X98393023Y-114297636D01*
X98508980Y-114235656D01*
X98575960Y-113995565D01*
X99544040Y-113995565D01*
X99611020Y-114235656D01*
X99860048Y-114352756D01*
X100127135Y-114419023D01*
X100402017Y-114431910D01*
X100674133Y-114390922D01*
X100933023Y-114297636D01*
X101048980Y-114235656D01*
X101115960Y-113995565D01*
X100330000Y-113209605D01*
X99544040Y-113995565D01*
X98575960Y-113995565D01*
X97790000Y-113209605D01*
X97004040Y-113995565D01*
X91986100Y-113995565D01*
X91986100Y-113102017D01*
X96388090Y-113102017D01*
X96429078Y-113374133D01*
X96522364Y-113633023D01*
X96584344Y-113748980D01*
X96824435Y-113815960D01*
X97610395Y-113030000D01*
X97969605Y-113030000D01*
X98755565Y-113815960D01*
X98995656Y-113748980D01*
X99057079Y-113618356D01*
X99062364Y-113633023D01*
X99124344Y-113748980D01*
X99364435Y-113815960D01*
X100150395Y-113030000D01*
X100509605Y-113030000D01*
X101295565Y-113815960D01*
X101535656Y-113748980D01*
X101652756Y-113499952D01*
X101719023Y-113232865D01*
X101731910Y-112957983D01*
X101690922Y-112685867D01*
X101597636Y-112426977D01*
X101535656Y-112311020D01*
X101295565Y-112244040D01*
X100509605Y-113030000D01*
X100150395Y-113030000D01*
X99364435Y-112244040D01*
X99124344Y-112311020D01*
X99062921Y-112441644D01*
X99057636Y-112426977D01*
X98995656Y-112311020D01*
X98755565Y-112244040D01*
X97969605Y-113030000D01*
X97610395Y-113030000D01*
X96824435Y-112244040D01*
X96584344Y-112311020D01*
X96467244Y-112560048D01*
X96400977Y-112827135D01*
X96388090Y-113102017D01*
X91986100Y-113102017D01*
X91986100Y-110367418D01*
X96545400Y-110367418D01*
X96545400Y-110612582D01*
X96593229Y-110853036D01*
X96687050Y-111079539D01*
X96823256Y-111283386D01*
X96996614Y-111456744D01*
X97200461Y-111592950D01*
X97412915Y-111680952D01*
X97186977Y-111762364D01*
X97071020Y-111824344D01*
X97004040Y-112064435D01*
X97790000Y-112850395D01*
X98575960Y-112064435D01*
X98508980Y-111824344D01*
X98259952Y-111707244D01*
X98162176Y-111682985D01*
X98379539Y-111592950D01*
X98583386Y-111456744D01*
X98756744Y-111283386D01*
X98892950Y-111079539D01*
X98986771Y-110853036D01*
X99034600Y-110612582D01*
X99034600Y-110367418D01*
X99085400Y-110367418D01*
X99085400Y-110612582D01*
X99133229Y-110853036D01*
X99227050Y-111079539D01*
X99363256Y-111283386D01*
X99536614Y-111456744D01*
X99740461Y-111592950D01*
X99952915Y-111680952D01*
X99726977Y-111762364D01*
X99611020Y-111824344D01*
X99544040Y-112064435D01*
X100330000Y-112850395D01*
X101115960Y-112064435D01*
X101048980Y-111824344D01*
X100799952Y-111707244D01*
X100702176Y-111682985D01*
X100919539Y-111592950D01*
X101123386Y-111456744D01*
X101296744Y-111283386D01*
X101432950Y-111079539D01*
X101526771Y-110853036D01*
X101574600Y-110612582D01*
X101574600Y-110367418D01*
X101526771Y-110126964D01*
X101432950Y-109900461D01*
X101296744Y-109696614D01*
X101123386Y-109523256D01*
X100919539Y-109387050D01*
X100693036Y-109293229D01*
X100452582Y-109245400D01*
X100207418Y-109245400D01*
X99966964Y-109293229D01*
X99740461Y-109387050D01*
X99536614Y-109523256D01*
X99363256Y-109696614D01*
X99227050Y-109900461D01*
X99133229Y-110126964D01*
X99085400Y-110367418D01*
X99034600Y-110367418D01*
X98986771Y-110126964D01*
X98892950Y-109900461D01*
X98756744Y-109696614D01*
X98583386Y-109523256D01*
X98379539Y-109387050D01*
X98153036Y-109293229D01*
X97912582Y-109245400D01*
X97667418Y-109245400D01*
X97426964Y-109293229D01*
X97200461Y-109387050D01*
X96996614Y-109523256D01*
X96823256Y-109696614D01*
X96687050Y-109900461D01*
X96593229Y-110126964D01*
X96545400Y-110367418D01*
X91986100Y-110367418D01*
X91986100Y-107827418D01*
X96545400Y-107827418D01*
X96545400Y-108072582D01*
X96593229Y-108313036D01*
X96687050Y-108539539D01*
X96823256Y-108743386D01*
X96996614Y-108916744D01*
X97200461Y-109052950D01*
X97426964Y-109146771D01*
X97667418Y-109194600D01*
X97912582Y-109194600D01*
X98153036Y-109146771D01*
X98379539Y-109052950D01*
X98583386Y-108916744D01*
X98756744Y-108743386D01*
X98892950Y-108539539D01*
X98986771Y-108313036D01*
X99034600Y-108072582D01*
X99034600Y-107827418D01*
X99085400Y-107827418D01*
X99085400Y-108072582D01*
X99133229Y-108313036D01*
X99227050Y-108539539D01*
X99363256Y-108743386D01*
X99536614Y-108916744D01*
X99740461Y-109052950D01*
X99966964Y-109146771D01*
X100207418Y-109194600D01*
X100452582Y-109194600D01*
X100693036Y-109146771D01*
X100919539Y-109052950D01*
X101123386Y-108916744D01*
X101296744Y-108743386D01*
X101432950Y-108539539D01*
X101526771Y-108313036D01*
X101574600Y-108072582D01*
X101574600Y-107827418D01*
X101526771Y-107586964D01*
X101432950Y-107360461D01*
X101296744Y-107156614D01*
X101123386Y-106983256D01*
X100919539Y-106847050D01*
X100693036Y-106753229D01*
X100452582Y-106705400D01*
X100207418Y-106705400D01*
X99966964Y-106753229D01*
X99740461Y-106847050D01*
X99536614Y-106983256D01*
X99363256Y-107156614D01*
X99227050Y-107360461D01*
X99133229Y-107586964D01*
X99085400Y-107827418D01*
X99034600Y-107827418D01*
X98986771Y-107586964D01*
X98892950Y-107360461D01*
X98756744Y-107156614D01*
X98583386Y-106983256D01*
X98379539Y-106847050D01*
X98153036Y-106753229D01*
X97912582Y-106705400D01*
X97667418Y-106705400D01*
X97426964Y-106753229D01*
X97200461Y-106847050D01*
X96996614Y-106983256D01*
X96823256Y-107156614D01*
X96687050Y-107360461D01*
X96593229Y-107586964D01*
X96545400Y-107827418D01*
X91986100Y-107827418D01*
X91986100Y-105287418D01*
X96545400Y-105287418D01*
X96545400Y-105532582D01*
X96593229Y-105773036D01*
X96687050Y-105999539D01*
X96823256Y-106203386D01*
X96996614Y-106376744D01*
X97200461Y-106512950D01*
X97426964Y-106606771D01*
X97667418Y-106654600D01*
X97912582Y-106654600D01*
X98153036Y-106606771D01*
X98379539Y-106512950D01*
X98583386Y-106376744D01*
X98756744Y-106203386D01*
X98892950Y-105999539D01*
X98986771Y-105773036D01*
X99034600Y-105532582D01*
X99034600Y-105287418D01*
X99085400Y-105287418D01*
X99085400Y-105532582D01*
X99133229Y-105773036D01*
X99227050Y-105999539D01*
X99363256Y-106203386D01*
X99536614Y-106376744D01*
X99740461Y-106512950D01*
X99966964Y-106606771D01*
X100207418Y-106654600D01*
X100452582Y-106654600D01*
X100693036Y-106606771D01*
X100919539Y-106512950D01*
X101123386Y-106376744D01*
X101296744Y-106203386D01*
X101432950Y-105999539D01*
X101526771Y-105773036D01*
X101574600Y-105532582D01*
X101574600Y-105287418D01*
X101526771Y-105046964D01*
X101432950Y-104820461D01*
X101296744Y-104616614D01*
X101123386Y-104443256D01*
X100919539Y-104307050D01*
X100693036Y-104213229D01*
X100452582Y-104165400D01*
X100207418Y-104165400D01*
X99966964Y-104213229D01*
X99740461Y-104307050D01*
X99536614Y-104443256D01*
X99363256Y-104616614D01*
X99227050Y-104820461D01*
X99133229Y-105046964D01*
X99085400Y-105287418D01*
X99034600Y-105287418D01*
X98986771Y-105046964D01*
X98892950Y-104820461D01*
X98756744Y-104616614D01*
X98583386Y-104443256D01*
X98379539Y-104307050D01*
X98153036Y-104213229D01*
X97912582Y-104165400D01*
X97667418Y-104165400D01*
X97426964Y-104213229D01*
X97200461Y-104307050D01*
X96996614Y-104443256D01*
X96823256Y-104616614D01*
X96687050Y-104820461D01*
X96593229Y-105046964D01*
X96545400Y-105287418D01*
X91986100Y-105287418D01*
X91986100Y-102747418D01*
X96545400Y-102747418D01*
X96545400Y-102992582D01*
X96593229Y-103233036D01*
X96687050Y-103459539D01*
X96823256Y-103663386D01*
X96996614Y-103836744D01*
X97200461Y-103972950D01*
X97426964Y-104066771D01*
X97667418Y-104114600D01*
X97912582Y-104114600D01*
X98153036Y-104066771D01*
X98379539Y-103972950D01*
X98583386Y-103836744D01*
X98756744Y-103663386D01*
X98892950Y-103459539D01*
X98986771Y-103233036D01*
X99034600Y-102992582D01*
X99034600Y-102747418D01*
X99085400Y-102747418D01*
X99085400Y-102992582D01*
X99133229Y-103233036D01*
X99227050Y-103459539D01*
X99363256Y-103663386D01*
X99536614Y-103836744D01*
X99740461Y-103972950D01*
X99966964Y-104066771D01*
X100207418Y-104114600D01*
X100452582Y-104114600D01*
X100693036Y-104066771D01*
X100919539Y-103972950D01*
X101123386Y-103836744D01*
X101296744Y-103663386D01*
X101432950Y-103459539D01*
X101526771Y-103233036D01*
X101574600Y-102992582D01*
X101574600Y-102747418D01*
X101526771Y-102506964D01*
X101432950Y-102280461D01*
X101296744Y-102076614D01*
X101123386Y-101903256D01*
X100919539Y-101767050D01*
X100693036Y-101673229D01*
X100452582Y-101625400D01*
X100207418Y-101625400D01*
X99966964Y-101673229D01*
X99740461Y-101767050D01*
X99536614Y-101903256D01*
X99363256Y-102076614D01*
X99227050Y-102280461D01*
X99133229Y-102506964D01*
X99085400Y-102747418D01*
X99034600Y-102747418D01*
X98986771Y-102506964D01*
X98892950Y-102280461D01*
X98756744Y-102076614D01*
X98583386Y-101903256D01*
X98379539Y-101767050D01*
X98153036Y-101673229D01*
X97912582Y-101625400D01*
X97667418Y-101625400D01*
X97426964Y-101673229D01*
X97200461Y-101767050D01*
X96996614Y-101903256D01*
X96823256Y-102076614D01*
X96687050Y-102280461D01*
X96593229Y-102506964D01*
X96545400Y-102747418D01*
X91986100Y-102747418D01*
X91986100Y-100207418D01*
X96545400Y-100207418D01*
X96545400Y-100452582D01*
X96593229Y-100693036D01*
X96687050Y-100919539D01*
X96823256Y-101123386D01*
X96996614Y-101296744D01*
X97200461Y-101432950D01*
X97426964Y-101526771D01*
X97667418Y-101574600D01*
X97912582Y-101574600D01*
X98153036Y-101526771D01*
X98379539Y-101432950D01*
X98583386Y-101296744D01*
X98756744Y-101123386D01*
X98892950Y-100919539D01*
X98986771Y-100693036D01*
X99034600Y-100452582D01*
X99034600Y-100207418D01*
X99085400Y-100207418D01*
X99085400Y-100452582D01*
X99133229Y-100693036D01*
X99227050Y-100919539D01*
X99363256Y-101123386D01*
X99536614Y-101296744D01*
X99740461Y-101432950D01*
X99966964Y-101526771D01*
X100207418Y-101574600D01*
X100452582Y-101574600D01*
X100693036Y-101526771D01*
X100919539Y-101432950D01*
X101123386Y-101296744D01*
X101296744Y-101123386D01*
X101432950Y-100919539D01*
X101526771Y-100693036D01*
X101574600Y-100452582D01*
X101574600Y-100207418D01*
X101526771Y-99966964D01*
X101432950Y-99740461D01*
X101296744Y-99536614D01*
X101123386Y-99363256D01*
X100919539Y-99227050D01*
X100693036Y-99133229D01*
X100452582Y-99085400D01*
X100207418Y-99085400D01*
X99966964Y-99133229D01*
X99740461Y-99227050D01*
X99536614Y-99363256D01*
X99363256Y-99536614D01*
X99227050Y-99740461D01*
X99133229Y-99966964D01*
X99085400Y-100207418D01*
X99034600Y-100207418D01*
X98986771Y-99966964D01*
X98892950Y-99740461D01*
X98756744Y-99536614D01*
X98583386Y-99363256D01*
X98379539Y-99227050D01*
X98153036Y-99133229D01*
X97912582Y-99085400D01*
X97667418Y-99085400D01*
X97426964Y-99133229D01*
X97200461Y-99227050D01*
X96996614Y-99363256D01*
X96823256Y-99536614D01*
X96687050Y-99740461D01*
X96593229Y-99966964D01*
X96545400Y-100207418D01*
X91986100Y-100207418D01*
X91986100Y-97667418D01*
X96545400Y-97667418D01*
X96545400Y-97912582D01*
X96593229Y-98153036D01*
X96687050Y-98379539D01*
X96823256Y-98583386D01*
X96996614Y-98756744D01*
X97200461Y-98892950D01*
X97426964Y-98986771D01*
X97667418Y-99034600D01*
X97912582Y-99034600D01*
X98153036Y-98986771D01*
X98379539Y-98892950D01*
X98583386Y-98756744D01*
X98756744Y-98583386D01*
X98892950Y-98379539D01*
X98986771Y-98153036D01*
X99034600Y-97912582D01*
X99034600Y-97667418D01*
X99085400Y-97667418D01*
X99085400Y-97912582D01*
X99133229Y-98153036D01*
X99227050Y-98379539D01*
X99363256Y-98583386D01*
X99536614Y-98756744D01*
X99740461Y-98892950D01*
X99966964Y-98986771D01*
X100207418Y-99034600D01*
X100452582Y-99034600D01*
X100693036Y-98986771D01*
X100919539Y-98892950D01*
X101123386Y-98756744D01*
X101296744Y-98583386D01*
X101432950Y-98379539D01*
X101526771Y-98153036D01*
X101574600Y-97912582D01*
X101574600Y-97667418D01*
X101526771Y-97426964D01*
X101432950Y-97200461D01*
X101296744Y-96996614D01*
X101123386Y-96823256D01*
X100919539Y-96687050D01*
X100693036Y-96593229D01*
X100452582Y-96545400D01*
X100207418Y-96545400D01*
X99966964Y-96593229D01*
X99740461Y-96687050D01*
X99536614Y-96823256D01*
X99363256Y-96996614D01*
X99227050Y-97200461D01*
X99133229Y-97426964D01*
X99085400Y-97667418D01*
X99034600Y-97667418D01*
X98986771Y-97426964D01*
X98892950Y-97200461D01*
X98756744Y-96996614D01*
X98583386Y-96823256D01*
X98379539Y-96687050D01*
X98153036Y-96593229D01*
X97912582Y-96545400D01*
X97667418Y-96545400D01*
X97426964Y-96593229D01*
X97200461Y-96687050D01*
X96996614Y-96823256D01*
X96823256Y-96996614D01*
X96687050Y-97200461D01*
X96593229Y-97426964D01*
X96545400Y-97667418D01*
X91986100Y-97667418D01*
X91986100Y-95127418D01*
X96545400Y-95127418D01*
X96545400Y-95372582D01*
X96593229Y-95613036D01*
X96687050Y-95839539D01*
X96823256Y-96043386D01*
X96996614Y-96216744D01*
X97200461Y-96352950D01*
X97426964Y-96446771D01*
X97667418Y-96494600D01*
X97912582Y-96494600D01*
X98153036Y-96446771D01*
X98379539Y-96352950D01*
X98583386Y-96216744D01*
X98756744Y-96043386D01*
X98892950Y-95839539D01*
X98986771Y-95613036D01*
X99034600Y-95372582D01*
X99034600Y-95127418D01*
X99085400Y-95127418D01*
X99085400Y-95372582D01*
X99133229Y-95613036D01*
X99227050Y-95839539D01*
X99363256Y-96043386D01*
X99536614Y-96216744D01*
X99740461Y-96352950D01*
X99966964Y-96446771D01*
X100207418Y-96494600D01*
X100452582Y-96494600D01*
X100693036Y-96446771D01*
X100919539Y-96352950D01*
X101123386Y-96216744D01*
X101296744Y-96043386D01*
X101432950Y-95839539D01*
X101526771Y-95613036D01*
X101574600Y-95372582D01*
X101574600Y-95127418D01*
X101526771Y-94886964D01*
X101432950Y-94660461D01*
X101296744Y-94456614D01*
X101123386Y-94283256D01*
X100919539Y-94147050D01*
X100693036Y-94053229D01*
X100452582Y-94005400D01*
X100207418Y-94005400D01*
X99966964Y-94053229D01*
X99740461Y-94147050D01*
X99536614Y-94283256D01*
X99363256Y-94456614D01*
X99227050Y-94660461D01*
X99133229Y-94886964D01*
X99085400Y-95127418D01*
X99034600Y-95127418D01*
X98986771Y-94886964D01*
X98892950Y-94660461D01*
X98756744Y-94456614D01*
X98583386Y-94283256D01*
X98379539Y-94147050D01*
X98153036Y-94053229D01*
X97912582Y-94005400D01*
X97667418Y-94005400D01*
X97426964Y-94053229D01*
X97200461Y-94147050D01*
X96996614Y-94283256D01*
X96823256Y-94456614D01*
X96687050Y-94660461D01*
X96593229Y-94886964D01*
X96545400Y-95127418D01*
X91986100Y-95127418D01*
X91986100Y-92587418D01*
X96545400Y-92587418D01*
X96545400Y-92832582D01*
X96593229Y-93073036D01*
X96687050Y-93299539D01*
X96823256Y-93503386D01*
X96996614Y-93676744D01*
X97200461Y-93812950D01*
X97426964Y-93906771D01*
X97667418Y-93954600D01*
X97912582Y-93954600D01*
X98153036Y-93906771D01*
X98379539Y-93812950D01*
X98583386Y-93676744D01*
X98756744Y-93503386D01*
X98892950Y-93299539D01*
X98986771Y-93073036D01*
X99034600Y-92832582D01*
X99034600Y-92587418D01*
X99085400Y-92587418D01*
X99085400Y-92832582D01*
X99133229Y-93073036D01*
X99227050Y-93299539D01*
X99363256Y-93503386D01*
X99536614Y-93676744D01*
X99740461Y-93812950D01*
X99966964Y-93906771D01*
X100207418Y-93954600D01*
X100452582Y-93954600D01*
X100693036Y-93906771D01*
X100919539Y-93812950D01*
X101123386Y-93676744D01*
X101296744Y-93503386D01*
X101432950Y-93299539D01*
X101526771Y-93073036D01*
X101574600Y-92832582D01*
X101574600Y-92587418D01*
X101526771Y-92346964D01*
X101432950Y-92120461D01*
X101296744Y-91916614D01*
X101123386Y-91743256D01*
X100919539Y-91607050D01*
X100693036Y-91513229D01*
X100452582Y-91465400D01*
X100207418Y-91465400D01*
X99966964Y-91513229D01*
X99740461Y-91607050D01*
X99536614Y-91743256D01*
X99363256Y-91916614D01*
X99227050Y-92120461D01*
X99133229Y-92346964D01*
X99085400Y-92587418D01*
X99034600Y-92587418D01*
X98986771Y-92346964D01*
X98892950Y-92120461D01*
X98756744Y-91916614D01*
X98583386Y-91743256D01*
X98379539Y-91607050D01*
X98153036Y-91513229D01*
X97912582Y-91465400D01*
X97667418Y-91465400D01*
X97426964Y-91513229D01*
X97200461Y-91607050D01*
X96996614Y-91743256D01*
X96823256Y-91916614D01*
X96687050Y-92120461D01*
X96593229Y-92346964D01*
X96545400Y-92587418D01*
X91986100Y-92587418D01*
X91986100Y-90047418D01*
X96545400Y-90047418D01*
X96545400Y-90292582D01*
X96593229Y-90533036D01*
X96687050Y-90759539D01*
X96823256Y-90963386D01*
X96996614Y-91136744D01*
X97200461Y-91272950D01*
X97426964Y-91366771D01*
X97667418Y-91414600D01*
X97912582Y-91414600D01*
X98153036Y-91366771D01*
X98379539Y-91272950D01*
X98583386Y-91136744D01*
X98756744Y-90963386D01*
X98892950Y-90759539D01*
X98986771Y-90533036D01*
X99034600Y-90292582D01*
X99034600Y-90047418D01*
X99085400Y-90047418D01*
X99085400Y-90292582D01*
X99133229Y-90533036D01*
X99227050Y-90759539D01*
X99363256Y-90963386D01*
X99536614Y-91136744D01*
X99740461Y-91272950D01*
X99966964Y-91366771D01*
X100207418Y-91414600D01*
X100452582Y-91414600D01*
X100693036Y-91366771D01*
X100919539Y-91272950D01*
X101123386Y-91136744D01*
X101296744Y-90963386D01*
X101432950Y-90759539D01*
X101526771Y-90533036D01*
X101574600Y-90292582D01*
X101574600Y-90047418D01*
X101526771Y-89806964D01*
X101432950Y-89580461D01*
X101296744Y-89376614D01*
X101123386Y-89203256D01*
X100919539Y-89067050D01*
X100693036Y-88973229D01*
X100452582Y-88925400D01*
X100207418Y-88925400D01*
X99966964Y-88973229D01*
X99740461Y-89067050D01*
X99536614Y-89203256D01*
X99363256Y-89376614D01*
X99227050Y-89580461D01*
X99133229Y-89806964D01*
X99085400Y-90047418D01*
X99034600Y-90047418D01*
X98986771Y-89806964D01*
X98892950Y-89580461D01*
X98756744Y-89376614D01*
X98583386Y-89203256D01*
X98379539Y-89067050D01*
X98153036Y-88973229D01*
X97912582Y-88925400D01*
X97667418Y-88925400D01*
X97426964Y-88973229D01*
X97200461Y-89067050D01*
X96996614Y-89203256D01*
X96823256Y-89376614D01*
X96687050Y-89580461D01*
X96593229Y-89806964D01*
X96545400Y-90047418D01*
X91986100Y-90047418D01*
X91986100Y-87507418D01*
X96545400Y-87507418D01*
X96545400Y-87752582D01*
X96593229Y-87993036D01*
X96687050Y-88219539D01*
X96823256Y-88423386D01*
X96996614Y-88596744D01*
X97200461Y-88732950D01*
X97426964Y-88826771D01*
X97667418Y-88874600D01*
X97912582Y-88874600D01*
X98153036Y-88826771D01*
X98379539Y-88732950D01*
X98583386Y-88596744D01*
X98756744Y-88423386D01*
X98892950Y-88219539D01*
X98986771Y-87993036D01*
X99034600Y-87752582D01*
X99034600Y-87507418D01*
X99085400Y-87507418D01*
X99085400Y-87752582D01*
X99133229Y-87993036D01*
X99227050Y-88219539D01*
X99363256Y-88423386D01*
X99536614Y-88596744D01*
X99740461Y-88732950D01*
X99966964Y-88826771D01*
X100207418Y-88874600D01*
X100452582Y-88874600D01*
X100693036Y-88826771D01*
X100919539Y-88732950D01*
X101123386Y-88596744D01*
X101296744Y-88423386D01*
X101432950Y-88219539D01*
X101526771Y-87993036D01*
X101574600Y-87752582D01*
X101574600Y-87507418D01*
X101526771Y-87266964D01*
X101432950Y-87040461D01*
X101296744Y-86836614D01*
X101123386Y-86663256D01*
X100919539Y-86527050D01*
X100693036Y-86433229D01*
X100452582Y-86385400D01*
X100207418Y-86385400D01*
X99966964Y-86433229D01*
X99740461Y-86527050D01*
X99536614Y-86663256D01*
X99363256Y-86836614D01*
X99227050Y-87040461D01*
X99133229Y-87266964D01*
X99085400Y-87507418D01*
X99034600Y-87507418D01*
X98986771Y-87266964D01*
X98892950Y-87040461D01*
X98756744Y-86836614D01*
X98583386Y-86663256D01*
X98379539Y-86527050D01*
X98153036Y-86433229D01*
X97912582Y-86385400D01*
X97667418Y-86385400D01*
X97426964Y-86433229D01*
X97200461Y-86527050D01*
X96996614Y-86663256D01*
X96823256Y-86836614D01*
X96687050Y-87040461D01*
X96593229Y-87266964D01*
X96545400Y-87507418D01*
X91986100Y-87507418D01*
X91986100Y-84967418D01*
X96545400Y-84967418D01*
X96545400Y-85212582D01*
X96593229Y-85453036D01*
X96687050Y-85679539D01*
X96823256Y-85883386D01*
X96996614Y-86056744D01*
X97200461Y-86192950D01*
X97426964Y-86286771D01*
X97667418Y-86334600D01*
X97912582Y-86334600D01*
X98153036Y-86286771D01*
X98379539Y-86192950D01*
X98583386Y-86056744D01*
X98756744Y-85883386D01*
X98892950Y-85679539D01*
X98986771Y-85453036D01*
X99034600Y-85212582D01*
X99034600Y-84967418D01*
X99085400Y-84967418D01*
X99085400Y-85212582D01*
X99133229Y-85453036D01*
X99227050Y-85679539D01*
X99363256Y-85883386D01*
X99536614Y-86056744D01*
X99740461Y-86192950D01*
X99966964Y-86286771D01*
X100207418Y-86334600D01*
X100452582Y-86334600D01*
X100693036Y-86286771D01*
X100919539Y-86192950D01*
X101123386Y-86056744D01*
X101296744Y-85883386D01*
X101432950Y-85679539D01*
X101526771Y-85453036D01*
X101574600Y-85212582D01*
X101574600Y-84967418D01*
X101526771Y-84726964D01*
X101432950Y-84500461D01*
X101296744Y-84296614D01*
X101123386Y-84123256D01*
X100919539Y-83987050D01*
X100693036Y-83893229D01*
X100452582Y-83845400D01*
X100207418Y-83845400D01*
X99966964Y-83893229D01*
X99740461Y-83987050D01*
X99536614Y-84123256D01*
X99363256Y-84296614D01*
X99227050Y-84500461D01*
X99133229Y-84726964D01*
X99085400Y-84967418D01*
X99034600Y-84967418D01*
X98986771Y-84726964D01*
X98892950Y-84500461D01*
X98756744Y-84296614D01*
X98583386Y-84123256D01*
X98379539Y-83987050D01*
X98153036Y-83893229D01*
X97912582Y-83845400D01*
X97667418Y-83845400D01*
X97426964Y-83893229D01*
X97200461Y-83987050D01*
X96996614Y-84123256D01*
X96823256Y-84296614D01*
X96687050Y-84500461D01*
X96593229Y-84726964D01*
X96545400Y-84967418D01*
X91986100Y-84967418D01*
X91986100Y-82427418D01*
X96545400Y-82427418D01*
X96545400Y-82672582D01*
X96593229Y-82913036D01*
X96687050Y-83139539D01*
X96823256Y-83343386D01*
X96996614Y-83516744D01*
X97200461Y-83652950D01*
X97426964Y-83746771D01*
X97667418Y-83794600D01*
X97912582Y-83794600D01*
X98153036Y-83746771D01*
X98379539Y-83652950D01*
X98583386Y-83516744D01*
X98756744Y-83343386D01*
X98892950Y-83139539D01*
X98986771Y-82913036D01*
X99034600Y-82672582D01*
X99034600Y-82427418D01*
X99085400Y-82427418D01*
X99085400Y-82672582D01*
X99133229Y-82913036D01*
X99227050Y-83139539D01*
X99363256Y-83343386D01*
X99536614Y-83516744D01*
X99740461Y-83652950D01*
X99966964Y-83746771D01*
X100207418Y-83794600D01*
X100452582Y-83794600D01*
X100693036Y-83746771D01*
X100919539Y-83652950D01*
X101123386Y-83516744D01*
X101296744Y-83343386D01*
X101432950Y-83139539D01*
X101526771Y-82913036D01*
X101574600Y-82672582D01*
X101574600Y-82427418D01*
X101526771Y-82186964D01*
X101432950Y-81960461D01*
X101296744Y-81756614D01*
X101123386Y-81583256D01*
X100919539Y-81447050D01*
X100693036Y-81353229D01*
X100452582Y-81305400D01*
X100207418Y-81305400D01*
X99966964Y-81353229D01*
X99740461Y-81447050D01*
X99536614Y-81583256D01*
X99363256Y-81756614D01*
X99227050Y-81960461D01*
X99133229Y-82186964D01*
X99085400Y-82427418D01*
X99034600Y-82427418D01*
X98986771Y-82186964D01*
X98892950Y-81960461D01*
X98756744Y-81756614D01*
X98583386Y-81583256D01*
X98379539Y-81447050D01*
X98153036Y-81353229D01*
X97912582Y-81305400D01*
X97667418Y-81305400D01*
X97426964Y-81353229D01*
X97200461Y-81447050D01*
X96996614Y-81583256D01*
X96823256Y-81756614D01*
X96687050Y-81960461D01*
X96593229Y-82186964D01*
X96545400Y-82427418D01*
X91986100Y-82427418D01*
X91986100Y-79887418D01*
X96545400Y-79887418D01*
X96545400Y-80132582D01*
X96593229Y-80373036D01*
X96687050Y-80599539D01*
X96823256Y-80803386D01*
X96996614Y-80976744D01*
X97200461Y-81112950D01*
X97426964Y-81206771D01*
X97667418Y-81254600D01*
X97912582Y-81254600D01*
X98153036Y-81206771D01*
X98379539Y-81112950D01*
X98583386Y-80976744D01*
X98756744Y-80803386D01*
X98892950Y-80599539D01*
X98986771Y-80373036D01*
X99034600Y-80132582D01*
X99034600Y-79887418D01*
X99085400Y-79887418D01*
X99085400Y-80132582D01*
X99133229Y-80373036D01*
X99227050Y-80599539D01*
X99363256Y-80803386D01*
X99536614Y-80976744D01*
X99740461Y-81112950D01*
X99966964Y-81206771D01*
X100207418Y-81254600D01*
X100452582Y-81254600D01*
X100693036Y-81206771D01*
X100919539Y-81112950D01*
X101123386Y-80976744D01*
X101296744Y-80803386D01*
X101432950Y-80599539D01*
X101526771Y-80373036D01*
X101574600Y-80132582D01*
X101574600Y-79887418D01*
X101526771Y-79646964D01*
X101432950Y-79420461D01*
X101296744Y-79216614D01*
X101123386Y-79043256D01*
X100919539Y-78907050D01*
X100693036Y-78813229D01*
X100452582Y-78765400D01*
X100207418Y-78765400D01*
X99966964Y-78813229D01*
X99740461Y-78907050D01*
X99536614Y-79043256D01*
X99363256Y-79216614D01*
X99227050Y-79420461D01*
X99133229Y-79646964D01*
X99085400Y-79887418D01*
X99034600Y-79887418D01*
X98986771Y-79646964D01*
X98892950Y-79420461D01*
X98756744Y-79216614D01*
X98583386Y-79043256D01*
X98379539Y-78907050D01*
X98153036Y-78813229D01*
X97912582Y-78765400D01*
X97667418Y-78765400D01*
X97426964Y-78813229D01*
X97200461Y-78907050D01*
X96996614Y-79043256D01*
X96823256Y-79216614D01*
X96687050Y-79420461D01*
X96593229Y-79646964D01*
X96545400Y-79887418D01*
X91986100Y-79887418D01*
X91986100Y-77347418D01*
X96545400Y-77347418D01*
X96545400Y-77592582D01*
X96593229Y-77833036D01*
X96687050Y-78059539D01*
X96823256Y-78263386D01*
X96996614Y-78436744D01*
X97200461Y-78572950D01*
X97426964Y-78666771D01*
X97667418Y-78714600D01*
X97912582Y-78714600D01*
X98153036Y-78666771D01*
X98379539Y-78572950D01*
X98583386Y-78436744D01*
X98756744Y-78263386D01*
X98892950Y-78059539D01*
X98986771Y-77833036D01*
X99034600Y-77592582D01*
X99034600Y-77347418D01*
X99085400Y-77347418D01*
X99085400Y-77592582D01*
X99133229Y-77833036D01*
X99227050Y-78059539D01*
X99363256Y-78263386D01*
X99536614Y-78436744D01*
X99740461Y-78572950D01*
X99966964Y-78666771D01*
X100207418Y-78714600D01*
X100452582Y-78714600D01*
X100693036Y-78666771D01*
X100919539Y-78572950D01*
X101123386Y-78436744D01*
X101296744Y-78263386D01*
X101432950Y-78059539D01*
X101526771Y-77833036D01*
X101574600Y-77592582D01*
X101574600Y-77347418D01*
X101526771Y-77106964D01*
X101432950Y-76880461D01*
X101296744Y-76676614D01*
X101123386Y-76503256D01*
X100919539Y-76367050D01*
X100693036Y-76273229D01*
X100452582Y-76225400D01*
X100207418Y-76225400D01*
X99966964Y-76273229D01*
X99740461Y-76367050D01*
X99536614Y-76503256D01*
X99363256Y-76676614D01*
X99227050Y-76880461D01*
X99133229Y-77106964D01*
X99085400Y-77347418D01*
X99034600Y-77347418D01*
X98986771Y-77106964D01*
X98892950Y-76880461D01*
X98756744Y-76676614D01*
X98583386Y-76503256D01*
X98379539Y-76367050D01*
X98153036Y-76273229D01*
X97912582Y-76225400D01*
X97667418Y-76225400D01*
X97426964Y-76273229D01*
X97200461Y-76367050D01*
X96996614Y-76503256D01*
X96823256Y-76676614D01*
X96687050Y-76880461D01*
X96593229Y-77106964D01*
X96545400Y-77347418D01*
X91986100Y-77347418D01*
X91986100Y-74807418D01*
X96545400Y-74807418D01*
X96545400Y-75052582D01*
X96593229Y-75293036D01*
X96687050Y-75519539D01*
X96823256Y-75723386D01*
X96996614Y-75896744D01*
X97200461Y-76032950D01*
X97426964Y-76126771D01*
X97667418Y-76174600D01*
X97912582Y-76174600D01*
X98153036Y-76126771D01*
X98379539Y-76032950D01*
X98583386Y-75896744D01*
X98756744Y-75723386D01*
X98892950Y-75519539D01*
X98986771Y-75293036D01*
X99034600Y-75052582D01*
X99034600Y-74807418D01*
X99085400Y-74807418D01*
X99085400Y-75052582D01*
X99133229Y-75293036D01*
X99227050Y-75519539D01*
X99363256Y-75723386D01*
X99536614Y-75896744D01*
X99740461Y-76032950D01*
X99966964Y-76126771D01*
X100207418Y-76174600D01*
X100452582Y-76174600D01*
X100693036Y-76126771D01*
X100919539Y-76032950D01*
X101123386Y-75896744D01*
X101296744Y-75723386D01*
X101432950Y-75519539D01*
X101526771Y-75293036D01*
X101574600Y-75052582D01*
X101574600Y-74807418D01*
X101526771Y-74566964D01*
X101432950Y-74340461D01*
X101296744Y-74136614D01*
X101123386Y-73963256D01*
X100919539Y-73827050D01*
X100693036Y-73733229D01*
X100452582Y-73685400D01*
X100207418Y-73685400D01*
X99966964Y-73733229D01*
X99740461Y-73827050D01*
X99536614Y-73963256D01*
X99363256Y-74136614D01*
X99227050Y-74340461D01*
X99133229Y-74566964D01*
X99085400Y-74807418D01*
X99034600Y-74807418D01*
X98986771Y-74566964D01*
X98892950Y-74340461D01*
X98756744Y-74136614D01*
X98583386Y-73963256D01*
X98379539Y-73827050D01*
X98153036Y-73733229D01*
X97912582Y-73685400D01*
X97667418Y-73685400D01*
X97426964Y-73733229D01*
X97200461Y-73827050D01*
X96996614Y-73963256D01*
X96823256Y-74136614D01*
X96687050Y-74340461D01*
X96593229Y-74566964D01*
X96545400Y-74807418D01*
X91986100Y-74807418D01*
X91986100Y-72267418D01*
X96545400Y-72267418D01*
X96545400Y-72512582D01*
X96593229Y-72753036D01*
X96687050Y-72979539D01*
X96823256Y-73183386D01*
X96996614Y-73356744D01*
X97200461Y-73492950D01*
X97426964Y-73586771D01*
X97667418Y-73634600D01*
X97912582Y-73634600D01*
X98153036Y-73586771D01*
X98379539Y-73492950D01*
X98583386Y-73356744D01*
X98756744Y-73183386D01*
X98892950Y-72979539D01*
X98986771Y-72753036D01*
X99034600Y-72512582D01*
X99034600Y-72267418D01*
X99085400Y-72267418D01*
X99085400Y-72512582D01*
X99133229Y-72753036D01*
X99227050Y-72979539D01*
X99363256Y-73183386D01*
X99536614Y-73356744D01*
X99740461Y-73492950D01*
X99966964Y-73586771D01*
X100207418Y-73634600D01*
X100452582Y-73634600D01*
X100693036Y-73586771D01*
X100919539Y-73492950D01*
X101123386Y-73356744D01*
X101296744Y-73183386D01*
X101432950Y-72979539D01*
X101526771Y-72753036D01*
X101574600Y-72512582D01*
X101574600Y-72267418D01*
X101526771Y-72026964D01*
X101432950Y-71800461D01*
X101296744Y-71596614D01*
X101123386Y-71423256D01*
X100919539Y-71287050D01*
X100693036Y-71193229D01*
X100452582Y-71145400D01*
X100207418Y-71145400D01*
X99966964Y-71193229D01*
X99740461Y-71287050D01*
X99536614Y-71423256D01*
X99363256Y-71596614D01*
X99227050Y-71800461D01*
X99133229Y-72026964D01*
X99085400Y-72267418D01*
X99034600Y-72267418D01*
X98986771Y-72026964D01*
X98892950Y-71800461D01*
X98756744Y-71596614D01*
X98583386Y-71423256D01*
X98379539Y-71287050D01*
X98153036Y-71193229D01*
X97912582Y-71145400D01*
X97667418Y-71145400D01*
X97426964Y-71193229D01*
X97200461Y-71287050D01*
X96996614Y-71423256D01*
X96823256Y-71596614D01*
X96687050Y-71800461D01*
X96593229Y-72026964D01*
X96545400Y-72267418D01*
X91986100Y-72267418D01*
X91986100Y-69727418D01*
X96545400Y-69727418D01*
X96545400Y-69972582D01*
X96593229Y-70213036D01*
X96687050Y-70439539D01*
X96823256Y-70643386D01*
X96996614Y-70816744D01*
X97200461Y-70952950D01*
X97426964Y-71046771D01*
X97667418Y-71094600D01*
X97912582Y-71094600D01*
X98153036Y-71046771D01*
X98379539Y-70952950D01*
X98583386Y-70816744D01*
X98756744Y-70643386D01*
X98892950Y-70439539D01*
X98986771Y-70213036D01*
X99034600Y-69972582D01*
X99034600Y-69727418D01*
X99085400Y-69727418D01*
X99085400Y-69972582D01*
X99133229Y-70213036D01*
X99227050Y-70439539D01*
X99363256Y-70643386D01*
X99536614Y-70816744D01*
X99740461Y-70952950D01*
X99966964Y-71046771D01*
X100207418Y-71094600D01*
X100452582Y-71094600D01*
X100693036Y-71046771D01*
X100919539Y-70952950D01*
X101123386Y-70816744D01*
X101296744Y-70643386D01*
X101432950Y-70439539D01*
X101526771Y-70213036D01*
X101574600Y-69972582D01*
X101574600Y-69727418D01*
X101526771Y-69486964D01*
X101432950Y-69260461D01*
X101296744Y-69056614D01*
X101123386Y-68883256D01*
X100919539Y-68747050D01*
X100693036Y-68653229D01*
X100452582Y-68605400D01*
X100207418Y-68605400D01*
X99966964Y-68653229D01*
X99740461Y-68747050D01*
X99536614Y-68883256D01*
X99363256Y-69056614D01*
X99227050Y-69260461D01*
X99133229Y-69486964D01*
X99085400Y-69727418D01*
X99034600Y-69727418D01*
X98986771Y-69486964D01*
X98892950Y-69260461D01*
X98756744Y-69056614D01*
X98583386Y-68883256D01*
X98379539Y-68747050D01*
X98153036Y-68653229D01*
X97912582Y-68605400D01*
X97667418Y-68605400D01*
X97426964Y-68653229D01*
X97200461Y-68747050D01*
X96996614Y-68883256D01*
X96823256Y-69056614D01*
X96687050Y-69260461D01*
X96593229Y-69486964D01*
X96545400Y-69727418D01*
X91986100Y-69727418D01*
X91986100Y-62262925D01*
X92024822Y-61868009D01*
X92129949Y-61519809D01*
X92300709Y-61198658D01*
X92530593Y-60916792D01*
X92810847Y-60684946D01*
X93130796Y-60511950D01*
X93478257Y-60404393D01*
X93869928Y-60363227D01*
X203167066Y-60363099D01*
X203561991Y-60401822D01*
G37*
%TD.AperFunction*%
%TD*%
M02*
