%TF.GenerationSoftware,KiCad,Pcbnew,(5.1.12)-1*%
%TF.CreationDate,2022-04-27T23:33:07+02:00*%
%TF.ProjectId,1834_Ethernet,31383334-5f45-4746-9865-726e65742e6b,1.0*%
%TF.SameCoordinates,Original*%
%TF.FileFunction,Copper,L1,Top*%
%TF.FilePolarity,Positive*%
%FSLAX46Y46*%
G04 Gerber Fmt 4.6, Leading zero omitted, Abs format (unit mm)*
G04 Created by KiCad (PCBNEW (5.1.12)-1) date 2022-04-27 23:33:07*
%MOMM*%
%LPD*%
G01*
G04 APERTURE LIST*
%TA.AperFunction,ComponentPad*%
%ADD10C,1.550000*%
%TD*%
%TA.AperFunction,ComponentPad*%
%ADD11C,1.524000*%
%TD*%
%TA.AperFunction,ComponentPad*%
%ADD12R,1.524000X1.524000*%
%TD*%
%TA.AperFunction,ComponentPad*%
%ADD13C,1.397000*%
%TD*%
%TA.AperFunction,ComponentPad*%
%ADD14R,1.397000X1.397000*%
%TD*%
%TA.AperFunction,SMDPad,CuDef*%
%ADD15R,0.500000X0.800000*%
%TD*%
%TA.AperFunction,SMDPad,CuDef*%
%ADD16R,0.400000X0.800000*%
%TD*%
%TA.AperFunction,ComponentPad*%
%ADD17C,6.400000*%
%TD*%
%TA.AperFunction,ComponentPad*%
%ADD18C,0.800000*%
%TD*%
%TA.AperFunction,ComponentPad*%
%ADD19R,1.900000X1.900000*%
%TD*%
%TA.AperFunction,ComponentPad*%
%ADD20C,1.900000*%
%TD*%
%TA.AperFunction,ComponentPad*%
%ADD21C,1.890000*%
%TD*%
%TA.AperFunction,ComponentPad*%
%ADD22C,2.600000*%
%TD*%
%TA.AperFunction,ViaPad*%
%ADD23C,0.889000*%
%TD*%
%TA.AperFunction,Conductor*%
%ADD24C,0.368300*%
%TD*%
%TA.AperFunction,Conductor*%
%ADD25C,0.254000*%
%TD*%
%TA.AperFunction,Conductor*%
%ADD26C,1.016000*%
%TD*%
%TA.AperFunction,Conductor*%
%ADD27C,0.762000*%
%TD*%
%TA.AperFunction,Conductor*%
%ADD28C,1.524000*%
%TD*%
%TA.AperFunction,Conductor*%
%ADD29C,0.150000*%
%TD*%
G04 APERTURE END LIST*
D10*
%TO.P,BUS2,c32*%
%TO.N,Net-(BUS2-Padc32)*%
X101600000Y-124206000D03*
%TO.P,BUS2,c31*%
%TO.N,/A0*%
X104140000Y-124206000D03*
%TO.P,BUS2,c30*%
%TO.N,/A1*%
X106680000Y-124206000D03*
%TO.P,BUS2,c29*%
%TO.N,/A2*%
X109220000Y-124206000D03*
%TO.P,BUS2,c28*%
%TO.N,/A3*%
X111760000Y-124206000D03*
%TO.P,BUS2,c27*%
%TO.N,/A4*%
X114300000Y-124206000D03*
%TO.P,BUS2,c26*%
%TO.N,/A5*%
X116840000Y-124206000D03*
%TO.P,BUS2,c25*%
%TO.N,/A6*%
X119380000Y-124206000D03*
%TO.P,BUS2,c24*%
%TO.N,/A7*%
X121920000Y-124206000D03*
%TO.P,BUS2,c23*%
%TO.N,/A8*%
X124460000Y-124206000D03*
%TO.P,BUS2,c22*%
%TO.N,/A9*%
X127000000Y-124206000D03*
%TO.P,BUS2,c21*%
%TO.N,/A10*%
X129540000Y-124206000D03*
%TO.P,BUS2,c20*%
%TO.N,/A11*%
X132080000Y-124206000D03*
%TO.P,BUS2,c19*%
%TO.N,/A12*%
X134620000Y-124206000D03*
%TO.P,BUS2,c18*%
%TO.N,/A13*%
X137160000Y-124206000D03*
%TO.P,BUS2,c17*%
%TO.N,/A14*%
X139700000Y-124206000D03*
%TO.P,BUS2,c16*%
%TO.N,/A15*%
X142240000Y-124206000D03*
%TO.P,BUS2,c15*%
%TO.N,/A16*%
X144780000Y-124206000D03*
%TO.P,BUS2,c14*%
%TO.N,/A17*%
X147320000Y-124206000D03*
%TO.P,BUS2,c13*%
%TO.N,/A18*%
X149860000Y-124206000D03*
%TO.P,BUS2,c12*%
%TO.N,/A19*%
X152400000Y-124206000D03*
%TO.P,BUS2,c11*%
%TO.N,/AEN*%
X154940000Y-124206000D03*
%TO.P,BUS2,c10*%
%TO.N,/IOCHRDY*%
X157480000Y-124206000D03*
%TO.P,BUS2,c9*%
%TO.N,/D0*%
X160020000Y-124206000D03*
%TO.P,BUS2,c8*%
%TO.N,/D1*%
X162560000Y-124206000D03*
%TO.P,BUS2,c7*%
%TO.N,/D2*%
X165100000Y-124206000D03*
%TO.P,BUS2,c6*%
%TO.N,/D3*%
X167640000Y-124206000D03*
%TO.P,BUS2,c5*%
%TO.N,/D4*%
X170180000Y-124206000D03*
%TO.P,BUS2,c4*%
%TO.N,/D5*%
X172720000Y-124206000D03*
%TO.P,BUS2,c3*%
%TO.N,/D6*%
X175260000Y-124206000D03*
%TO.P,BUS2,c2*%
%TO.N,/D7*%
X177800000Y-124206000D03*
%TO.P,BUS2,c1*%
%TO.N,Net-(BUS2-Padc1)*%
X180340000Y-124206000D03*
%TO.P,BUS2,a32*%
%TO.N,Net-(BUS2-Pada32)*%
X101600000Y-129286000D03*
%TO.P,BUS2,a31*%
%TO.N,GND*%
X104140000Y-129286000D03*
%TO.P,BUS2,a30*%
%TO.N,Net-(BUS2-Pada30)*%
X106680000Y-129286000D03*
%TO.P,BUS2,a29*%
%TO.N,VCC*%
X109220000Y-129286000D03*
%TO.P,BUS2,a28*%
%TO.N,Net-(BUS2-Pada28)*%
X111760000Y-129286000D03*
%TO.P,BUS2,a27*%
%TO.N,Net-(BUS2-Pada27)*%
X114300000Y-129286000D03*
%TO.P,BUS2,a26*%
%TO.N,Net-(BUS2-Pada26)*%
X116840000Y-129286000D03*
%TO.P,BUS2,a25*%
%TO.N,/IRQ3*%
X119380000Y-129286000D03*
%TO.P,BUS2,a24*%
%TO.N,/IRQ4*%
X121920000Y-129286000D03*
%TO.P,BUS2,a23*%
%TO.N,/IRQ5*%
X124460000Y-129286000D03*
%TO.P,BUS2,a22*%
%TO.N,Net-(BUS2-Pada22)*%
X127000000Y-129286000D03*
%TO.P,BUS2,a21*%
%TO.N,Net-(BUS2-Pada21)*%
X129540000Y-129286000D03*
%TO.P,BUS2,a20*%
%TO.N,Net-(BUS2-Pada20)*%
X132080000Y-129286000D03*
%TO.P,BUS2,a19*%
%TO.N,Net-(BUS2-Pada19)*%
X134620000Y-129286000D03*
%TO.P,BUS2,a18*%
%TO.N,Net-(BUS2-Pada18)*%
X137160000Y-129286000D03*
%TO.P,BUS2,a17*%
%TO.N,Net-(BUS2-Pada17)*%
X139700000Y-129286000D03*
%TO.P,BUS2,a16*%
%TO.N,Net-(BUS2-Pada16)*%
X142240000Y-129286000D03*
%TO.P,BUS2,a15*%
%TO.N,Net-(BUS2-Pada15)*%
X144780000Y-129286000D03*
%TO.P,BUS2,a14*%
%TO.N,/~IOR*%
X147320000Y-129286000D03*
%TO.P,BUS2,a13*%
%TO.N,/~IOW*%
X149860000Y-129286000D03*
%TO.P,BUS2,a12*%
%TO.N,/~SMEMR*%
X152400000Y-129286000D03*
%TO.P,BUS2,a11*%
%TO.N,/~SMEMW*%
X154940000Y-129286000D03*
%TO.P,BUS2,a10*%
%TO.N,GND*%
X157480000Y-129286000D03*
%TO.P,BUS2,a9*%
%TO.N,Net-(BUS2-Pada9)*%
X160020000Y-129286000D03*
%TO.P,BUS2,a8*%
%TO.N,Net-(BUS2-Pada8)*%
X162560000Y-129286000D03*
%TO.P,BUS2,a7*%
%TO.N,Net-(BUS2-Pada7)*%
X165100000Y-129286000D03*
%TO.P,BUS2,a6*%
%TO.N,Net-(BUS2-Pada6)*%
X167640000Y-129286000D03*
%TO.P,BUS2,a5*%
%TO.N,Net-(BUS2-Pada5)*%
X170180000Y-129286000D03*
%TO.P,BUS2,a4*%
%TO.N,/IRQ9*%
X172720000Y-129286000D03*
%TO.P,BUS2,a3*%
%TO.N,VCC*%
X175260000Y-129286000D03*
%TO.P,BUS2,a2*%
%TO.N,/RSTDRV*%
X177800000Y-129286000D03*
%TO.P,BUS2,a1*%
%TO.N,GND*%
%TA.AperFunction,ComponentPad*%
G36*
G01*
X181115000Y-128760999D02*
X181115000Y-129811001D01*
G75*
G02*
X180865001Y-130061000I-249999J0D01*
G01*
X179814999Y-130061000D01*
G75*
G02*
X179565000Y-129811001I0J249999D01*
G01*
X179565000Y-128760999D01*
G75*
G02*
X179814999Y-128511000I249999J0D01*
G01*
X180865001Y-128511000D01*
G75*
G02*
X181115000Y-128760999I0J-249999D01*
G01*
G37*
%TD.AperFunction*%
%TD*%
D11*
%TO.P,J2,40*%
%TO.N,GND*%
X100330000Y-113030000D03*
%TO.P,J2,39*%
X97790000Y-113030000D03*
%TO.P,J2,38*%
%TO.N,/BD3*%
X100330000Y-110490000D03*
%TO.P,J2,37*%
%TO.N,/BD2*%
X97790000Y-110490000D03*
%TO.P,J2,36*%
%TO.N,/BD4*%
X100330000Y-107950000D03*
%TO.P,J2,35*%
%TO.N,/BD1*%
X97790000Y-107950000D03*
%TO.P,J2,34*%
%TO.N,/BD5*%
X100330000Y-105410000D03*
%TO.P,J2,33*%
%TO.N,/BD0*%
X97790000Y-105410000D03*
%TO.P,J2,32*%
%TO.N,/BD6*%
X100330000Y-102870000D03*
%TO.P,J2,31*%
%TO.N,/A0*%
X97790000Y-102870000D03*
%TO.P,J2,29*%
%TO.N,/A1*%
X97790000Y-100330000D03*
%TO.P,J2,30*%
%TO.N,/BD7*%
X100330000Y-100330000D03*
%TO.P,J2,27*%
%TO.N,/A2*%
X97790000Y-97790000D03*
%TO.P,J2,28*%
%TO.N,/~BCS*%
X100330000Y-97790000D03*
%TO.P,J2,26*%
%TO.N,/A10*%
X100330000Y-95250000D03*
%TO.P,J2,25*%
%TO.N,/A3*%
X97790000Y-95250000D03*
%TO.P,J2,24*%
%TO.N,/~SMEMR*%
X100330000Y-92710000D03*
%TO.P,J2,23*%
%TO.N,/A4*%
X97790000Y-92710000D03*
%TO.P,J2,22*%
%TO.N,/A11*%
X100330000Y-90170000D03*
%TO.P,J2,21*%
%TO.N,/A5*%
X97790000Y-90170000D03*
%TO.P,J2,20*%
%TO.N,/A9*%
X100330000Y-87630000D03*
%TO.P,J2,19*%
%TO.N,/A6*%
X97790000Y-87630000D03*
%TO.P,J2,18*%
%TO.N,/A8*%
X100330000Y-85090000D03*
%TO.P,J2,17*%
%TO.N,/A7*%
X97790000Y-85090000D03*
%TO.P,J2,16*%
%TO.N,/A13*%
X100330000Y-82550000D03*
%TO.P,J2,15*%
%TO.N,/A12*%
X97790000Y-82550000D03*
%TO.P,J2,14*%
%TO.N,/BA14*%
X100330000Y-80010000D03*
%TO.P,J2,13*%
%TO.N,/BA15*%
X97790000Y-80010000D03*
%TO.P,J2,12*%
%TO.N,/BA17*%
X100330000Y-77470000D03*
%TO.P,J2,11*%
%TO.N,/BA16*%
X97790000Y-77470000D03*
%TO.P,J2,10*%
%TO.N,/~SMEMW*%
X100330000Y-74930000D03*
%TO.P,J2,9*%
%TO.N,/BA18*%
X97790000Y-74930000D03*
%TO.P,J2,8*%
%TO.N,/BA19*%
X100330000Y-72390000D03*
%TO.P,J2,7*%
%TO.N,Net-(J2-Pad7)*%
X97790000Y-72390000D03*
%TO.P,J2,6*%
%TO.N,/BA20*%
X100330000Y-69850000D03*
%TO.P,J2,5*%
%TO.N,Net-(J2-Pad5)*%
X97790000Y-69850000D03*
%TO.P,J2,4*%
%TO.N,/BA21*%
X100330000Y-67310000D03*
%TO.P,J2,3*%
%TO.N,Net-(J2-Pad3)*%
X97790000Y-67310000D03*
%TO.P,J2,2*%
%TO.N,VCC*%
X100330000Y-64770000D03*
D12*
%TO.P,J2,1*%
X97790000Y-64770000D03*
%TD*%
D13*
%TO.P,SW4,10*%
%TO.N,VCC*%
X171450000Y-62230000D03*
%TO.P,SW4,9*%
X173990000Y-62230000D03*
%TO.P,SW4,8*%
X176530000Y-62230000D03*
%TO.P,SW4,7*%
X179070000Y-62230000D03*
%TO.P,SW4,6*%
X181610000Y-62230000D03*
%TO.P,SW4,5*%
%TO.N,Net-(RN4-Pad7)*%
X181610000Y-69850000D03*
%TO.P,SW4,4*%
%TO.N,Net-(RN3-Pad5)*%
X179070000Y-69850000D03*
%TO.P,SW4,3*%
%TO.N,Net-(RN3-Pad6)*%
X176530000Y-69850000D03*
%TO.P,SW4,2*%
%TO.N,Net-(RN3-Pad7)*%
X173990000Y-69850000D03*
D14*
%TO.P,SW4,1*%
%TO.N,Net-(RN3-Pad8)*%
X171450000Y-69850000D03*
%TD*%
D13*
%TO.P,SW3,8*%
%TO.N,VCC*%
X156210000Y-62230000D03*
%TO.P,SW3,7*%
X158750000Y-62230000D03*
%TO.P,SW3,6*%
X161290000Y-62230000D03*
%TO.P,SW3,5*%
X163830000Y-62230000D03*
%TO.P,SW3,4*%
%TO.N,Net-(RN2-Pad5)*%
X163830000Y-69850000D03*
%TO.P,SW3,3*%
%TO.N,Net-(RN2-Pad6)*%
X161290000Y-69850000D03*
%TO.P,SW3,2*%
%TO.N,Net-(RN2-Pad7)*%
X158750000Y-69850000D03*
D14*
%TO.P,SW3,1*%
%TO.N,Net-(RN2-Pad8)*%
X156210000Y-69850000D03*
%TD*%
D13*
%TO.P,SW2,4*%
%TO.N,VCC*%
X146050000Y-62230000D03*
%TO.P,SW2,3*%
X148590000Y-62230000D03*
%TO.P,SW2,2*%
%TO.N,Net-(RN1-Pad5)*%
X148590000Y-69850000D03*
D14*
%TO.P,SW2,1*%
%TO.N,Net-(RN1-Pad6)*%
X146050000Y-69850000D03*
%TD*%
D13*
%TO.P,SW1,4*%
%TO.N,VCC*%
X135890000Y-62230000D03*
%TO.P,SW1,3*%
X138430000Y-62230000D03*
%TO.P,SW1,2*%
%TO.N,Net-(RN1-Pad7)*%
X138430000Y-69850000D03*
D14*
%TO.P,SW1,1*%
%TO.N,Net-(RN1-Pad8)*%
X135890000Y-69850000D03*
%TD*%
D13*
%TO.P,Y1,2*%
%TO.N,Net-(C2-Pad2)*%
X177800000Y-83919060D03*
%TO.P,Y1,1*%
%TO.N,Net-(C1-Pad2)*%
X177800000Y-88800940D03*
%TD*%
D14*
%TO.P,U2,1*%
%TO.N,/BA18*%
X110363000Y-72390000D03*
D13*
%TO.P,U2,2*%
%TO.N,/BA16*%
X110363000Y-74930000D03*
%TO.P,U2,3*%
%TO.N,/BA15*%
X110363000Y-77470000D03*
%TO.P,U2,4*%
%TO.N,/A12*%
X110363000Y-80010000D03*
%TO.P,U2,5*%
%TO.N,/A7*%
X110363000Y-82550000D03*
%TO.P,U2,6*%
%TO.N,/A6*%
X110363000Y-85090000D03*
%TO.P,U2,7*%
%TO.N,/A5*%
X110363000Y-87630000D03*
%TO.P,U2,8*%
%TO.N,/A4*%
X110363000Y-90170000D03*
%TO.P,U2,9*%
%TO.N,/A3*%
X110363000Y-92710000D03*
%TO.P,U2,10*%
%TO.N,/A2*%
X110363000Y-95250000D03*
%TO.P,U2,11*%
%TO.N,/A1*%
X110363000Y-97790000D03*
%TO.P,U2,12*%
%TO.N,/A0*%
X110363000Y-100330000D03*
%TO.P,U2,13*%
%TO.N,/BD0*%
X110363000Y-102870000D03*
%TO.P,U2,14*%
%TO.N,/BD1*%
X110363000Y-105410000D03*
%TO.P,U2,15*%
%TO.N,/BD2*%
X110363000Y-107950000D03*
%TO.P,U2,16*%
%TO.N,GND*%
X110363000Y-110490000D03*
%TO.P,U2,17*%
%TO.N,/BD3*%
X125603000Y-110490000D03*
%TO.P,U2,18*%
%TO.N,/BD4*%
X125603000Y-107950000D03*
%TO.P,U2,19*%
%TO.N,/BD5*%
X125603000Y-105410000D03*
%TO.P,U2,20*%
%TO.N,/BD6*%
X125603000Y-102870000D03*
%TO.P,U2,21*%
%TO.N,/BD7*%
X125603000Y-100330000D03*
%TO.P,U2,22*%
%TO.N,/~BCS*%
X125603000Y-97790000D03*
%TO.P,U2,23*%
%TO.N,/A10*%
X125603000Y-95250000D03*
%TO.P,U2,24*%
%TO.N,/~SMEMR*%
X125603000Y-92710000D03*
%TO.P,U2,25*%
%TO.N,/A11*%
X125603000Y-90170000D03*
%TO.P,U2,26*%
%TO.N,/A9*%
X125603000Y-87630000D03*
%TO.P,U2,27*%
%TO.N,/A8*%
X125603000Y-85090000D03*
%TO.P,U2,28*%
%TO.N,/A13*%
X125603000Y-82550000D03*
%TO.P,U2,29*%
%TO.N,/BA14*%
X125603000Y-80010000D03*
%TO.P,U2,30*%
%TO.N,/BA17*%
X125603000Y-77470000D03*
%TO.P,U2,31*%
%TO.N,/~SMEMW*%
X125603000Y-74930000D03*
%TO.P,U2,32*%
%TO.N,VCC*%
X125603000Y-72390000D03*
%TD*%
D15*
%TO.P,RN2,5*%
%TO.N,Net-(RN2-Pad5)*%
X151060000Y-74030000D03*
D16*
%TO.P,RN2,6*%
%TO.N,Net-(RN2-Pad6)*%
X150260000Y-74030000D03*
D15*
%TO.P,RN2,8*%
%TO.N,Net-(RN2-Pad8)*%
X148660000Y-74030000D03*
D16*
%TO.P,RN2,7*%
%TO.N,Net-(RN2-Pad7)*%
X149460000Y-74030000D03*
D15*
%TO.P,RN2,4*%
%TO.N,/BD0*%
X151060000Y-75830000D03*
D16*
%TO.P,RN2,2*%
%TO.N,/BD2*%
X149460000Y-75830000D03*
%TO.P,RN2,3*%
%TO.N,/BD1*%
X150260000Y-75830000D03*
D15*
%TO.P,RN2,1*%
%TO.N,/BD3*%
X148660000Y-75830000D03*
%TD*%
D17*
%TO.P,HOLE1,1*%
%TO.N,GND*%
X201041000Y-66040000D03*
D18*
X203441000Y-66040000D03*
X202738056Y-67737056D03*
X201041000Y-68440000D03*
X199343944Y-67737056D03*
X198641000Y-66040000D03*
X199343944Y-64342944D03*
X201041000Y-63640000D03*
X202738056Y-64342944D03*
%TD*%
%TO.P,HOLE2,1*%
%TO.N,GND*%
X202738056Y-120857944D03*
X201041000Y-120155000D03*
X199343944Y-120857944D03*
X198641000Y-122555000D03*
X199343944Y-124252056D03*
X201041000Y-124955000D03*
X202738056Y-124252056D03*
X203441000Y-122555000D03*
D17*
X201041000Y-122555000D03*
%TD*%
%TO.P,U3,1*%
%TO.N,/EECS*%
%TA.AperFunction,SMDPad,CuDef*%
G36*
G01*
X132865000Y-92350000D02*
X132565000Y-92350000D01*
G75*
G02*
X132415000Y-92200000I0J150000D01*
G01*
X132415000Y-90750000D01*
G75*
G02*
X132565000Y-90600000I150000J0D01*
G01*
X132865000Y-90600000D01*
G75*
G02*
X133015000Y-90750000I0J-150000D01*
G01*
X133015000Y-92200000D01*
G75*
G02*
X132865000Y-92350000I-150000J0D01*
G01*
G37*
%TD.AperFunction*%
%TO.P,U3,2*%
%TO.N,/BD5*%
%TA.AperFunction,SMDPad,CuDef*%
G36*
G01*
X134135000Y-92350000D02*
X133835000Y-92350000D01*
G75*
G02*
X133685000Y-92200000I0J150000D01*
G01*
X133685000Y-90750000D01*
G75*
G02*
X133835000Y-90600000I150000J0D01*
G01*
X134135000Y-90600000D01*
G75*
G02*
X134285000Y-90750000I0J-150000D01*
G01*
X134285000Y-92200000D01*
G75*
G02*
X134135000Y-92350000I-150000J0D01*
G01*
G37*
%TD.AperFunction*%
%TO.P,U3,3*%
%TO.N,/BD6*%
%TA.AperFunction,SMDPad,CuDef*%
G36*
G01*
X135405000Y-92350000D02*
X135105000Y-92350000D01*
G75*
G02*
X134955000Y-92200000I0J150000D01*
G01*
X134955000Y-90750000D01*
G75*
G02*
X135105000Y-90600000I150000J0D01*
G01*
X135405000Y-90600000D01*
G75*
G02*
X135555000Y-90750000I0J-150000D01*
G01*
X135555000Y-92200000D01*
G75*
G02*
X135405000Y-92350000I-150000J0D01*
G01*
G37*
%TD.AperFunction*%
%TO.P,U3,4*%
%TO.N,/BD7*%
%TA.AperFunction,SMDPad,CuDef*%
G36*
G01*
X136675000Y-92350000D02*
X136375000Y-92350000D01*
G75*
G02*
X136225000Y-92200000I0J150000D01*
G01*
X136225000Y-90750000D01*
G75*
G02*
X136375000Y-90600000I150000J0D01*
G01*
X136675000Y-90600000D01*
G75*
G02*
X136825000Y-90750000I0J-150000D01*
G01*
X136825000Y-92200000D01*
G75*
G02*
X136675000Y-92350000I-150000J0D01*
G01*
G37*
%TD.AperFunction*%
%TO.P,U3,5*%
%TO.N,GND*%
%TA.AperFunction,SMDPad,CuDef*%
G36*
G01*
X136675000Y-87200000D02*
X136375000Y-87200000D01*
G75*
G02*
X136225000Y-87050000I0J150000D01*
G01*
X136225000Y-85600000D01*
G75*
G02*
X136375000Y-85450000I150000J0D01*
G01*
X136675000Y-85450000D01*
G75*
G02*
X136825000Y-85600000I0J-150000D01*
G01*
X136825000Y-87050000D01*
G75*
G02*
X136675000Y-87200000I-150000J0D01*
G01*
G37*
%TD.AperFunction*%
%TO.P,U3,6*%
%TO.N,VCC*%
%TA.AperFunction,SMDPad,CuDef*%
G36*
G01*
X135405000Y-87200000D02*
X135105000Y-87200000D01*
G75*
G02*
X134955000Y-87050000I0J150000D01*
G01*
X134955000Y-85600000D01*
G75*
G02*
X135105000Y-85450000I150000J0D01*
G01*
X135405000Y-85450000D01*
G75*
G02*
X135555000Y-85600000I0J-150000D01*
G01*
X135555000Y-87050000D01*
G75*
G02*
X135405000Y-87200000I-150000J0D01*
G01*
G37*
%TD.AperFunction*%
%TO.P,U3,7*%
%TO.N,Net-(U3-Pad7)*%
%TA.AperFunction,SMDPad,CuDef*%
G36*
G01*
X134135000Y-87200000D02*
X133835000Y-87200000D01*
G75*
G02*
X133685000Y-87050000I0J150000D01*
G01*
X133685000Y-85600000D01*
G75*
G02*
X133835000Y-85450000I150000J0D01*
G01*
X134135000Y-85450000D01*
G75*
G02*
X134285000Y-85600000I0J-150000D01*
G01*
X134285000Y-87050000D01*
G75*
G02*
X134135000Y-87200000I-150000J0D01*
G01*
G37*
%TD.AperFunction*%
%TO.P,U3,8*%
%TO.N,VCC*%
%TA.AperFunction,SMDPad,CuDef*%
G36*
G01*
X132865000Y-87200000D02*
X132565000Y-87200000D01*
G75*
G02*
X132415000Y-87050000I0J150000D01*
G01*
X132415000Y-85600000D01*
G75*
G02*
X132565000Y-85450000I150000J0D01*
G01*
X132865000Y-85450000D01*
G75*
G02*
X133015000Y-85600000I0J-150000D01*
G01*
X133015000Y-87050000D01*
G75*
G02*
X132865000Y-87200000I-150000J0D01*
G01*
G37*
%TD.AperFunction*%
%TD*%
%TO.P,C1,2*%
%TO.N,Net-(C1-Pad2)*%
%TA.AperFunction,SMDPad,CuDef*%
G36*
G01*
X172395000Y-89932500D02*
X172395000Y-90407500D01*
G75*
G02*
X172157500Y-90645000I-237500J0D01*
G01*
X171557500Y-90645000D01*
G75*
G02*
X171320000Y-90407500I0J237500D01*
G01*
X171320000Y-89932500D01*
G75*
G02*
X171557500Y-89695000I237500J0D01*
G01*
X172157500Y-89695000D01*
G75*
G02*
X172395000Y-89932500I0J-237500D01*
G01*
G37*
%TD.AperFunction*%
%TO.P,C1,1*%
%TO.N,GND*%
%TA.AperFunction,SMDPad,CuDef*%
G36*
G01*
X174120000Y-89932500D02*
X174120000Y-90407500D01*
G75*
G02*
X173882500Y-90645000I-237500J0D01*
G01*
X173282500Y-90645000D01*
G75*
G02*
X173045000Y-90407500I0J237500D01*
G01*
X173045000Y-89932500D01*
G75*
G02*
X173282500Y-89695000I237500J0D01*
G01*
X173882500Y-89695000D01*
G75*
G02*
X174120000Y-89932500I0J-237500D01*
G01*
G37*
%TD.AperFunction*%
%TD*%
%TO.P,C2,1*%
%TO.N,GND*%
%TA.AperFunction,SMDPad,CuDef*%
G36*
G01*
X174120000Y-82312500D02*
X174120000Y-82787500D01*
G75*
G02*
X173882500Y-83025000I-237500J0D01*
G01*
X173282500Y-83025000D01*
G75*
G02*
X173045000Y-82787500I0J237500D01*
G01*
X173045000Y-82312500D01*
G75*
G02*
X173282500Y-82075000I237500J0D01*
G01*
X173882500Y-82075000D01*
G75*
G02*
X174120000Y-82312500I0J-237500D01*
G01*
G37*
%TD.AperFunction*%
%TO.P,C2,2*%
%TO.N,Net-(C2-Pad2)*%
%TA.AperFunction,SMDPad,CuDef*%
G36*
G01*
X172395000Y-82312500D02*
X172395000Y-82787500D01*
G75*
G02*
X172157500Y-83025000I-237500J0D01*
G01*
X171557500Y-83025000D01*
G75*
G02*
X171320000Y-82787500I0J237500D01*
G01*
X171320000Y-82312500D01*
G75*
G02*
X171557500Y-82075000I237500J0D01*
G01*
X172157500Y-82075000D01*
G75*
G02*
X172395000Y-82312500I0J-237500D01*
G01*
G37*
%TD.AperFunction*%
%TD*%
%TO.P,C3,1*%
%TO.N,Net-(C3-Pad1)*%
%TA.AperFunction,SMDPad,CuDef*%
G36*
G01*
X182165000Y-94110000D02*
X181690000Y-94110000D01*
G75*
G02*
X181452500Y-93872500I0J237500D01*
G01*
X181452500Y-93272500D01*
G75*
G02*
X181690000Y-93035000I237500J0D01*
G01*
X182165000Y-93035000D01*
G75*
G02*
X182402500Y-93272500I0J-237500D01*
G01*
X182402500Y-93872500D01*
G75*
G02*
X182165000Y-94110000I-237500J0D01*
G01*
G37*
%TD.AperFunction*%
%TO.P,C3,2*%
%TO.N,GND*%
%TA.AperFunction,SMDPad,CuDef*%
G36*
G01*
X182165000Y-92385000D02*
X181690000Y-92385000D01*
G75*
G02*
X181452500Y-92147500I0J237500D01*
G01*
X181452500Y-91547500D01*
G75*
G02*
X181690000Y-91310000I237500J0D01*
G01*
X182165000Y-91310000D01*
G75*
G02*
X182402500Y-91547500I0J-237500D01*
G01*
X182402500Y-92147500D01*
G75*
G02*
X182165000Y-92385000I-237500J0D01*
G01*
G37*
%TD.AperFunction*%
%TD*%
%TO.P,C4,2*%
%TO.N,GND*%
%TA.AperFunction,SMDPad,CuDef*%
G36*
G01*
X191142500Y-82787500D02*
X191142500Y-82312500D01*
G75*
G02*
X191380000Y-82075000I237500J0D01*
G01*
X191980000Y-82075000D01*
G75*
G02*
X192217500Y-82312500I0J-237500D01*
G01*
X192217500Y-82787500D01*
G75*
G02*
X191980000Y-83025000I-237500J0D01*
G01*
X191380000Y-83025000D01*
G75*
G02*
X191142500Y-82787500I0J237500D01*
G01*
G37*
%TD.AperFunction*%
%TO.P,C4,1*%
%TO.N,Net-(C4-Pad1)*%
%TA.AperFunction,SMDPad,CuDef*%
G36*
G01*
X189417500Y-82787500D02*
X189417500Y-82312500D01*
G75*
G02*
X189655000Y-82075000I237500J0D01*
G01*
X190255000Y-82075000D01*
G75*
G02*
X190492500Y-82312500I0J-237500D01*
G01*
X190492500Y-82787500D01*
G75*
G02*
X190255000Y-83025000I-237500J0D01*
G01*
X189655000Y-83025000D01*
G75*
G02*
X189417500Y-82787500I0J237500D01*
G01*
G37*
%TD.AperFunction*%
%TD*%
%TO.P,C5,2*%
%TO.N,GND*%
%TA.AperFunction,SMDPad,CuDef*%
G36*
G01*
X167315000Y-82312500D02*
X167315000Y-82787500D01*
G75*
G02*
X167077500Y-83025000I-237500J0D01*
G01*
X166477500Y-83025000D01*
G75*
G02*
X166240000Y-82787500I0J237500D01*
G01*
X166240000Y-82312500D01*
G75*
G02*
X166477500Y-82075000I237500J0D01*
G01*
X167077500Y-82075000D01*
G75*
G02*
X167315000Y-82312500I0J-237500D01*
G01*
G37*
%TD.AperFunction*%
%TO.P,C5,1*%
%TO.N,VCC*%
%TA.AperFunction,SMDPad,CuDef*%
G36*
G01*
X169040000Y-82312500D02*
X169040000Y-82787500D01*
G75*
G02*
X168802500Y-83025000I-237500J0D01*
G01*
X168202500Y-83025000D01*
G75*
G02*
X167965000Y-82787500I0J237500D01*
G01*
X167965000Y-82312500D01*
G75*
G02*
X168202500Y-82075000I237500J0D01*
G01*
X168802500Y-82075000D01*
G75*
G02*
X169040000Y-82312500I0J-237500D01*
G01*
G37*
%TD.AperFunction*%
%TD*%
%TO.P,C6,1*%
%TO.N,VCC*%
%TA.AperFunction,SMDPad,CuDef*%
G36*
G01*
X143640000Y-110252500D02*
X143640000Y-110727500D01*
G75*
G02*
X143402500Y-110965000I-237500J0D01*
G01*
X142802500Y-110965000D01*
G75*
G02*
X142565000Y-110727500I0J237500D01*
G01*
X142565000Y-110252500D01*
G75*
G02*
X142802500Y-110015000I237500J0D01*
G01*
X143402500Y-110015000D01*
G75*
G02*
X143640000Y-110252500I0J-237500D01*
G01*
G37*
%TD.AperFunction*%
%TO.P,C6,2*%
%TO.N,GND*%
%TA.AperFunction,SMDPad,CuDef*%
G36*
G01*
X141915000Y-110252500D02*
X141915000Y-110727500D01*
G75*
G02*
X141677500Y-110965000I-237500J0D01*
G01*
X141077500Y-110965000D01*
G75*
G02*
X140840000Y-110727500I0J237500D01*
G01*
X140840000Y-110252500D01*
G75*
G02*
X141077500Y-110015000I237500J0D01*
G01*
X141677500Y-110015000D01*
G75*
G02*
X141915000Y-110252500I0J-237500D01*
G01*
G37*
%TD.AperFunction*%
%TD*%
%TO.P,C7,2*%
%TO.N,GND*%
%TA.AperFunction,SMDPad,CuDef*%
G36*
G01*
X124389000Y-68977500D02*
X124389000Y-69452500D01*
G75*
G02*
X124151500Y-69690000I-237500J0D01*
G01*
X123551500Y-69690000D01*
G75*
G02*
X123314000Y-69452500I0J237500D01*
G01*
X123314000Y-68977500D01*
G75*
G02*
X123551500Y-68740000I237500J0D01*
G01*
X124151500Y-68740000D01*
G75*
G02*
X124389000Y-68977500I0J-237500D01*
G01*
G37*
%TD.AperFunction*%
%TO.P,C7,1*%
%TO.N,VCC*%
%TA.AperFunction,SMDPad,CuDef*%
G36*
G01*
X126114000Y-68977500D02*
X126114000Y-69452500D01*
G75*
G02*
X125876500Y-69690000I-237500J0D01*
G01*
X125276500Y-69690000D01*
G75*
G02*
X125039000Y-69452500I0J237500D01*
G01*
X125039000Y-68977500D01*
G75*
G02*
X125276500Y-68740000I237500J0D01*
G01*
X125876500Y-68740000D01*
G75*
G02*
X126114000Y-68977500I0J-237500D01*
G01*
G37*
%TD.AperFunction*%
%TD*%
%TO.P,C8,1*%
%TO.N,VCC*%
%TA.AperFunction,SMDPad,CuDef*%
G36*
G01*
X133220000Y-82787500D02*
X133220000Y-82312500D01*
G75*
G02*
X133457500Y-82075000I237500J0D01*
G01*
X134057500Y-82075000D01*
G75*
G02*
X134295000Y-82312500I0J-237500D01*
G01*
X134295000Y-82787500D01*
G75*
G02*
X134057500Y-83025000I-237500J0D01*
G01*
X133457500Y-83025000D01*
G75*
G02*
X133220000Y-82787500I0J237500D01*
G01*
G37*
%TD.AperFunction*%
%TO.P,C8,2*%
%TO.N,GND*%
%TA.AperFunction,SMDPad,CuDef*%
G36*
G01*
X134945000Y-82787500D02*
X134945000Y-82312500D01*
G75*
G02*
X135182500Y-82075000I237500J0D01*
G01*
X135782500Y-82075000D01*
G75*
G02*
X136020000Y-82312500I0J-237500D01*
G01*
X136020000Y-82787500D01*
G75*
G02*
X135782500Y-83025000I-237500J0D01*
G01*
X135182500Y-83025000D01*
G75*
G02*
X134945000Y-82787500I0J237500D01*
G01*
G37*
%TD.AperFunction*%
%TD*%
%TO.P,R1,2*%
%TO.N,/TP_RX-*%
%TA.AperFunction,SMDPad,CuDef*%
G36*
G01*
X185312500Y-82312500D02*
X185312500Y-82787500D01*
G75*
G02*
X185075000Y-83025000I-237500J0D01*
G01*
X184575000Y-83025000D01*
G75*
G02*
X184337500Y-82787500I0J237500D01*
G01*
X184337500Y-82312500D01*
G75*
G02*
X184575000Y-82075000I237500J0D01*
G01*
X185075000Y-82075000D01*
G75*
G02*
X185312500Y-82312500I0J-237500D01*
G01*
G37*
%TD.AperFunction*%
%TO.P,R1,1*%
%TO.N,/TP_RX+*%
%TA.AperFunction,SMDPad,CuDef*%
G36*
G01*
X187137500Y-82312500D02*
X187137500Y-82787500D01*
G75*
G02*
X186900000Y-83025000I-237500J0D01*
G01*
X186400000Y-83025000D01*
G75*
G02*
X186162500Y-82787500I0J237500D01*
G01*
X186162500Y-82312500D01*
G75*
G02*
X186400000Y-82075000I237500J0D01*
G01*
X186900000Y-82075000D01*
G75*
G02*
X187137500Y-82312500I0J-237500D01*
G01*
G37*
%TD.AperFunction*%
%TD*%
%TO.P,R2,1*%
%TO.N,Net-(J1-PadL3)*%
%TA.AperFunction,SMDPad,CuDef*%
G36*
G01*
X197297500Y-82312500D02*
X197297500Y-82787500D01*
G75*
G02*
X197060000Y-83025000I-237500J0D01*
G01*
X196560000Y-83025000D01*
G75*
G02*
X196322500Y-82787500I0J237500D01*
G01*
X196322500Y-82312500D01*
G75*
G02*
X196560000Y-82075000I237500J0D01*
G01*
X197060000Y-82075000D01*
G75*
G02*
X197297500Y-82312500I0J-237500D01*
G01*
G37*
%TD.AperFunction*%
%TO.P,R2,2*%
%TO.N,/LED_LINK*%
%TA.AperFunction,SMDPad,CuDef*%
G36*
G01*
X195472500Y-82312500D02*
X195472500Y-82787500D01*
G75*
G02*
X195235000Y-83025000I-237500J0D01*
G01*
X194735000Y-83025000D01*
G75*
G02*
X194497500Y-82787500I0J237500D01*
G01*
X194497500Y-82312500D01*
G75*
G02*
X194735000Y-82075000I237500J0D01*
G01*
X195235000Y-82075000D01*
G75*
G02*
X195472500Y-82312500I0J-237500D01*
G01*
G37*
%TD.AperFunction*%
%TD*%
%TO.P,R3,2*%
%TO.N,/LED_CRS*%
%TA.AperFunction,SMDPad,CuDef*%
G36*
G01*
X200552500Y-82312500D02*
X200552500Y-82787500D01*
G75*
G02*
X200315000Y-83025000I-237500J0D01*
G01*
X199815000Y-83025000D01*
G75*
G02*
X199577500Y-82787500I0J237500D01*
G01*
X199577500Y-82312500D01*
G75*
G02*
X199815000Y-82075000I237500J0D01*
G01*
X200315000Y-82075000D01*
G75*
G02*
X200552500Y-82312500I0J-237500D01*
G01*
G37*
%TD.AperFunction*%
%TO.P,R3,1*%
%TO.N,Net-(J1-PadL2)*%
%TA.AperFunction,SMDPad,CuDef*%
G36*
G01*
X202377500Y-82312500D02*
X202377500Y-82787500D01*
G75*
G02*
X202140000Y-83025000I-237500J0D01*
G01*
X201640000Y-83025000D01*
G75*
G02*
X201402500Y-82787500I0J237500D01*
G01*
X201402500Y-82312500D01*
G75*
G02*
X201640000Y-82075000I237500J0D01*
G01*
X202140000Y-82075000D01*
G75*
G02*
X202377500Y-82312500I0J-237500D01*
G01*
G37*
%TD.AperFunction*%
%TD*%
%TO.P,R6,1*%
%TO.N,GND*%
%TA.AperFunction,SMDPad,CuDef*%
G36*
G01*
X135760000Y-103107500D02*
X135760000Y-102632500D01*
G75*
G02*
X135997500Y-102395000I237500J0D01*
G01*
X136497500Y-102395000D01*
G75*
G02*
X136735000Y-102632500I0J-237500D01*
G01*
X136735000Y-103107500D01*
G75*
G02*
X136497500Y-103345000I-237500J0D01*
G01*
X135997500Y-103345000D01*
G75*
G02*
X135760000Y-103107500I0J237500D01*
G01*
G37*
%TD.AperFunction*%
%TO.P,R6,2*%
%TO.N,/~IOCS16*%
%TA.AperFunction,SMDPad,CuDef*%
G36*
G01*
X137585000Y-103107500D02*
X137585000Y-102632500D01*
G75*
G02*
X137822500Y-102395000I237500J0D01*
G01*
X138322500Y-102395000D01*
G75*
G02*
X138560000Y-102632500I0J-237500D01*
G01*
X138560000Y-103107500D01*
G75*
G02*
X138322500Y-103345000I-237500J0D01*
G01*
X137822500Y-103345000D01*
G75*
G02*
X137585000Y-103107500I0J237500D01*
G01*
G37*
%TD.AperFunction*%
%TD*%
%TO.P,R7,2*%
%TO.N,Net-(C2-Pad2)*%
%TA.AperFunction,SMDPad,CuDef*%
G36*
G01*
X172295000Y-86122500D02*
X172295000Y-86597500D01*
G75*
G02*
X172057500Y-86835000I-237500J0D01*
G01*
X171557500Y-86835000D01*
G75*
G02*
X171320000Y-86597500I0J237500D01*
G01*
X171320000Y-86122500D01*
G75*
G02*
X171557500Y-85885000I237500J0D01*
G01*
X172057500Y-85885000D01*
G75*
G02*
X172295000Y-86122500I0J-237500D01*
G01*
G37*
%TD.AperFunction*%
%TO.P,R7,1*%
%TO.N,Net-(C1-Pad2)*%
%TA.AperFunction,SMDPad,CuDef*%
G36*
G01*
X174120000Y-86122500D02*
X174120000Y-86597500D01*
G75*
G02*
X173882500Y-86835000I-237500J0D01*
G01*
X173382500Y-86835000D01*
G75*
G02*
X173145000Y-86597500I0J237500D01*
G01*
X173145000Y-86122500D01*
G75*
G02*
X173382500Y-85885000I237500J0D01*
G01*
X173882500Y-85885000D01*
G75*
G02*
X174120000Y-86122500I0J-237500D01*
G01*
G37*
%TD.AperFunction*%
%TD*%
D15*
%TO.P,RN1,1*%
%TO.N,/JP*%
X141040000Y-75830000D03*
D16*
%TO.P,RN1,3*%
%TO.N,/BD6*%
X142640000Y-75830000D03*
%TO.P,RN1,2*%
%TO.N,/BA21*%
X141840000Y-75830000D03*
D15*
%TO.P,RN1,4*%
%TO.N,/BD5*%
X143440000Y-75830000D03*
D16*
%TO.P,RN1,7*%
%TO.N,Net-(RN1-Pad7)*%
X141840000Y-74030000D03*
D15*
%TO.P,RN1,8*%
%TO.N,Net-(RN1-Pad8)*%
X141040000Y-74030000D03*
D16*
%TO.P,RN1,6*%
%TO.N,Net-(RN1-Pad6)*%
X142640000Y-74030000D03*
D15*
%TO.P,RN1,5*%
%TO.N,Net-(RN1-Pad5)*%
X143440000Y-74030000D03*
%TD*%
%TO.P,RN3,1*%
%TO.N,/BA20*%
X163900000Y-75830000D03*
D16*
%TO.P,RN3,3*%
%TO.N,/BA18*%
X165500000Y-75830000D03*
%TO.P,RN3,2*%
%TO.N,/BA19*%
X164700000Y-75830000D03*
D15*
%TO.P,RN3,4*%
%TO.N,/BA17*%
X166300000Y-75830000D03*
D16*
%TO.P,RN3,7*%
%TO.N,Net-(RN3-Pad7)*%
X164700000Y-74030000D03*
D15*
%TO.P,RN3,8*%
%TO.N,Net-(RN3-Pad8)*%
X163900000Y-74030000D03*
D16*
%TO.P,RN3,6*%
%TO.N,Net-(RN3-Pad6)*%
X165500000Y-74030000D03*
D15*
%TO.P,RN3,5*%
%TO.N,Net-(RN3-Pad5)*%
X166300000Y-74030000D03*
%TD*%
%TO.P,U1,1*%
%TO.N,/IRQ5*%
%TA.AperFunction,SMDPad,CuDef*%
G36*
G01*
X145615000Y-106770000D02*
X145415000Y-106770000D01*
G75*
G02*
X145315000Y-106670000I0J100000D01*
G01*
X145315000Y-104370000D01*
G75*
G02*
X145415000Y-104270000I100000J0D01*
G01*
X145615000Y-104270000D01*
G75*
G02*
X145715000Y-104370000I0J-100000D01*
G01*
X145715000Y-106670000D01*
G75*
G02*
X145615000Y-106770000I-100000J0D01*
G01*
G37*
%TD.AperFunction*%
%TO.P,U1,2*%
%TO.N,/IRQ4*%
%TA.AperFunction,SMDPad,CuDef*%
G36*
G01*
X146265000Y-106770000D02*
X146065000Y-106770000D01*
G75*
G02*
X145965000Y-106670000I0J100000D01*
G01*
X145965000Y-104370000D01*
G75*
G02*
X146065000Y-104270000I100000J0D01*
G01*
X146265000Y-104270000D01*
G75*
G02*
X146365000Y-104370000I0J-100000D01*
G01*
X146365000Y-106670000D01*
G75*
G02*
X146265000Y-106770000I-100000J0D01*
G01*
G37*
%TD.AperFunction*%
%TO.P,U1,3*%
%TO.N,/IRQ3*%
%TA.AperFunction,SMDPad,CuDef*%
G36*
G01*
X146915000Y-106770000D02*
X146715000Y-106770000D01*
G75*
G02*
X146615000Y-106670000I0J100000D01*
G01*
X146615000Y-104370000D01*
G75*
G02*
X146715000Y-104270000I100000J0D01*
G01*
X146915000Y-104270000D01*
G75*
G02*
X147015000Y-104370000I0J-100000D01*
G01*
X147015000Y-106670000D01*
G75*
G02*
X146915000Y-106770000I-100000J0D01*
G01*
G37*
%TD.AperFunction*%
%TO.P,U1,4*%
%TO.N,/IRQ9*%
%TA.AperFunction,SMDPad,CuDef*%
G36*
G01*
X147565000Y-106770000D02*
X147365000Y-106770000D01*
G75*
G02*
X147265000Y-106670000I0J100000D01*
G01*
X147265000Y-104370000D01*
G75*
G02*
X147365000Y-104270000I100000J0D01*
G01*
X147565000Y-104270000D01*
G75*
G02*
X147665000Y-104370000I0J-100000D01*
G01*
X147665000Y-106670000D01*
G75*
G02*
X147565000Y-106770000I-100000J0D01*
G01*
G37*
%TD.AperFunction*%
%TO.P,U1,5*%
%TO.N,/A0*%
%TA.AperFunction,SMDPad,CuDef*%
G36*
G01*
X148190000Y-106770000D02*
X147990000Y-106770000D01*
G75*
G02*
X147890000Y-106670000I0J100000D01*
G01*
X147890000Y-104370000D01*
G75*
G02*
X147990000Y-104270000I100000J0D01*
G01*
X148190000Y-104270000D01*
G75*
G02*
X148290000Y-104370000I0J-100000D01*
G01*
X148290000Y-106670000D01*
G75*
G02*
X148190000Y-106770000I-100000J0D01*
G01*
G37*
%TD.AperFunction*%
%TO.P,U1,6*%
%TO.N,VCC*%
%TA.AperFunction,SMDPad,CuDef*%
G36*
G01*
X148840000Y-106770000D02*
X148640000Y-106770000D01*
G75*
G02*
X148540000Y-106670000I0J100000D01*
G01*
X148540000Y-104370000D01*
G75*
G02*
X148640000Y-104270000I100000J0D01*
G01*
X148840000Y-104270000D01*
G75*
G02*
X148940000Y-104370000I0J-100000D01*
G01*
X148940000Y-106670000D01*
G75*
G02*
X148840000Y-106770000I-100000J0D01*
G01*
G37*
%TD.AperFunction*%
%TO.P,U1,7*%
%TO.N,/A1*%
%TA.AperFunction,SMDPad,CuDef*%
G36*
G01*
X149490000Y-106770000D02*
X149290000Y-106770000D01*
G75*
G02*
X149190000Y-106670000I0J100000D01*
G01*
X149190000Y-104370000D01*
G75*
G02*
X149290000Y-104270000I100000J0D01*
G01*
X149490000Y-104270000D01*
G75*
G02*
X149590000Y-104370000I0J-100000D01*
G01*
X149590000Y-106670000D01*
G75*
G02*
X149490000Y-106770000I-100000J0D01*
G01*
G37*
%TD.AperFunction*%
%TO.P,U1,8*%
%TO.N,/A2*%
%TA.AperFunction,SMDPad,CuDef*%
G36*
G01*
X150140000Y-106770000D02*
X149940000Y-106770000D01*
G75*
G02*
X149840000Y-106670000I0J100000D01*
G01*
X149840000Y-104370000D01*
G75*
G02*
X149940000Y-104270000I100000J0D01*
G01*
X150140000Y-104270000D01*
G75*
G02*
X150240000Y-104370000I0J-100000D01*
G01*
X150240000Y-106670000D01*
G75*
G02*
X150140000Y-106770000I-100000J0D01*
G01*
G37*
%TD.AperFunction*%
%TO.P,U1,9*%
%TO.N,/A3*%
%TA.AperFunction,SMDPad,CuDef*%
G36*
G01*
X150790000Y-106770000D02*
X150590000Y-106770000D01*
G75*
G02*
X150490000Y-106670000I0J100000D01*
G01*
X150490000Y-104370000D01*
G75*
G02*
X150590000Y-104270000I100000J0D01*
G01*
X150790000Y-104270000D01*
G75*
G02*
X150890000Y-104370000I0J-100000D01*
G01*
X150890000Y-106670000D01*
G75*
G02*
X150790000Y-106770000I-100000J0D01*
G01*
G37*
%TD.AperFunction*%
%TO.P,U1,10*%
%TO.N,/A4*%
%TA.AperFunction,SMDPad,CuDef*%
G36*
G01*
X151440000Y-106770000D02*
X151240000Y-106770000D01*
G75*
G02*
X151140000Y-106670000I0J100000D01*
G01*
X151140000Y-104370000D01*
G75*
G02*
X151240000Y-104270000I100000J0D01*
G01*
X151440000Y-104270000D01*
G75*
G02*
X151540000Y-104370000I0J-100000D01*
G01*
X151540000Y-106670000D01*
G75*
G02*
X151440000Y-106770000I-100000J0D01*
G01*
G37*
%TD.AperFunction*%
%TO.P,U1,11*%
%TO.N,/A5*%
%TA.AperFunction,SMDPad,CuDef*%
G36*
G01*
X152090000Y-106770000D02*
X151890000Y-106770000D01*
G75*
G02*
X151790000Y-106670000I0J100000D01*
G01*
X151790000Y-104370000D01*
G75*
G02*
X151890000Y-104270000I100000J0D01*
G01*
X152090000Y-104270000D01*
G75*
G02*
X152190000Y-104370000I0J-100000D01*
G01*
X152190000Y-106670000D01*
G75*
G02*
X152090000Y-106770000I-100000J0D01*
G01*
G37*
%TD.AperFunction*%
%TO.P,U1,12*%
%TO.N,/A6*%
%TA.AperFunction,SMDPad,CuDef*%
G36*
G01*
X152740000Y-106770000D02*
X152540000Y-106770000D01*
G75*
G02*
X152440000Y-106670000I0J100000D01*
G01*
X152440000Y-104370000D01*
G75*
G02*
X152540000Y-104270000I100000J0D01*
G01*
X152740000Y-104270000D01*
G75*
G02*
X152840000Y-104370000I0J-100000D01*
G01*
X152840000Y-106670000D01*
G75*
G02*
X152740000Y-106770000I-100000J0D01*
G01*
G37*
%TD.AperFunction*%
%TO.P,U1,13*%
%TO.N,/A7*%
%TA.AperFunction,SMDPad,CuDef*%
G36*
G01*
X153390000Y-106770000D02*
X153190000Y-106770000D01*
G75*
G02*
X153090000Y-106670000I0J100000D01*
G01*
X153090000Y-104370000D01*
G75*
G02*
X153190000Y-104270000I100000J0D01*
G01*
X153390000Y-104270000D01*
G75*
G02*
X153490000Y-104370000I0J-100000D01*
G01*
X153490000Y-106670000D01*
G75*
G02*
X153390000Y-106770000I-100000J0D01*
G01*
G37*
%TD.AperFunction*%
%TO.P,U1,14*%
%TO.N,GND*%
%TA.AperFunction,SMDPad,CuDef*%
G36*
G01*
X154040000Y-106770000D02*
X153840000Y-106770000D01*
G75*
G02*
X153740000Y-106670000I0J100000D01*
G01*
X153740000Y-104370000D01*
G75*
G02*
X153840000Y-104270000I100000J0D01*
G01*
X154040000Y-104270000D01*
G75*
G02*
X154140000Y-104370000I0J-100000D01*
G01*
X154140000Y-106670000D01*
G75*
G02*
X154040000Y-106770000I-100000J0D01*
G01*
G37*
%TD.AperFunction*%
%TO.P,U1,15*%
%TO.N,/A8*%
%TA.AperFunction,SMDPad,CuDef*%
G36*
G01*
X154690000Y-106770000D02*
X154490000Y-106770000D01*
G75*
G02*
X154390000Y-106670000I0J100000D01*
G01*
X154390000Y-104370000D01*
G75*
G02*
X154490000Y-104270000I100000J0D01*
G01*
X154690000Y-104270000D01*
G75*
G02*
X154790000Y-104370000I0J-100000D01*
G01*
X154790000Y-106670000D01*
G75*
G02*
X154690000Y-106770000I-100000J0D01*
G01*
G37*
%TD.AperFunction*%
%TO.P,U1,16*%
%TO.N,/A9*%
%TA.AperFunction,SMDPad,CuDef*%
G36*
G01*
X155340000Y-106770000D02*
X155140000Y-106770000D01*
G75*
G02*
X155040000Y-106670000I0J100000D01*
G01*
X155040000Y-104370000D01*
G75*
G02*
X155140000Y-104270000I100000J0D01*
G01*
X155340000Y-104270000D01*
G75*
G02*
X155440000Y-104370000I0J-100000D01*
G01*
X155440000Y-106670000D01*
G75*
G02*
X155340000Y-106770000I-100000J0D01*
G01*
G37*
%TD.AperFunction*%
%TO.P,U1,17*%
%TO.N,VCC*%
%TA.AperFunction,SMDPad,CuDef*%
G36*
G01*
X155990000Y-106770000D02*
X155790000Y-106770000D01*
G75*
G02*
X155690000Y-106670000I0J100000D01*
G01*
X155690000Y-104370000D01*
G75*
G02*
X155790000Y-104270000I100000J0D01*
G01*
X155990000Y-104270000D01*
G75*
G02*
X156090000Y-104370000I0J-100000D01*
G01*
X156090000Y-106670000D01*
G75*
G02*
X155990000Y-106770000I-100000J0D01*
G01*
G37*
%TD.AperFunction*%
%TO.P,U1,18*%
%TO.N,/A10*%
%TA.AperFunction,SMDPad,CuDef*%
G36*
G01*
X156640000Y-106770000D02*
X156440000Y-106770000D01*
G75*
G02*
X156340000Y-106670000I0J100000D01*
G01*
X156340000Y-104370000D01*
G75*
G02*
X156440000Y-104270000I100000J0D01*
G01*
X156640000Y-104270000D01*
G75*
G02*
X156740000Y-104370000I0J-100000D01*
G01*
X156740000Y-106670000D01*
G75*
G02*
X156640000Y-106770000I-100000J0D01*
G01*
G37*
%TD.AperFunction*%
%TO.P,U1,19*%
%TO.N,/A11*%
%TA.AperFunction,SMDPad,CuDef*%
G36*
G01*
X157290000Y-106770000D02*
X157090000Y-106770000D01*
G75*
G02*
X156990000Y-106670000I0J100000D01*
G01*
X156990000Y-104370000D01*
G75*
G02*
X157090000Y-104270000I100000J0D01*
G01*
X157290000Y-104270000D01*
G75*
G02*
X157390000Y-104370000I0J-100000D01*
G01*
X157390000Y-106670000D01*
G75*
G02*
X157290000Y-106770000I-100000J0D01*
G01*
G37*
%TD.AperFunction*%
%TO.P,U1,20*%
%TO.N,/A12*%
%TA.AperFunction,SMDPad,CuDef*%
G36*
G01*
X157940000Y-106770000D02*
X157740000Y-106770000D01*
G75*
G02*
X157640000Y-106670000I0J100000D01*
G01*
X157640000Y-104370000D01*
G75*
G02*
X157740000Y-104270000I100000J0D01*
G01*
X157940000Y-104270000D01*
G75*
G02*
X158040000Y-104370000I0J-100000D01*
G01*
X158040000Y-106670000D01*
G75*
G02*
X157940000Y-106770000I-100000J0D01*
G01*
G37*
%TD.AperFunction*%
%TO.P,U1,21*%
%TO.N,/A13*%
%TA.AperFunction,SMDPad,CuDef*%
G36*
G01*
X158590000Y-106770000D02*
X158390000Y-106770000D01*
G75*
G02*
X158290000Y-106670000I0J100000D01*
G01*
X158290000Y-104370000D01*
G75*
G02*
X158390000Y-104270000I100000J0D01*
G01*
X158590000Y-104270000D01*
G75*
G02*
X158690000Y-104370000I0J-100000D01*
G01*
X158690000Y-106670000D01*
G75*
G02*
X158590000Y-106770000I-100000J0D01*
G01*
G37*
%TD.AperFunction*%
%TO.P,U1,22*%
%TO.N,/A14*%
%TA.AperFunction,SMDPad,CuDef*%
G36*
G01*
X159240000Y-106770000D02*
X159040000Y-106770000D01*
G75*
G02*
X158940000Y-106670000I0J100000D01*
G01*
X158940000Y-104370000D01*
G75*
G02*
X159040000Y-104270000I100000J0D01*
G01*
X159240000Y-104270000D01*
G75*
G02*
X159340000Y-104370000I0J-100000D01*
G01*
X159340000Y-106670000D01*
G75*
G02*
X159240000Y-106770000I-100000J0D01*
G01*
G37*
%TD.AperFunction*%
%TO.P,U1,23*%
%TO.N,/A15*%
%TA.AperFunction,SMDPad,CuDef*%
G36*
G01*
X159890000Y-106770000D02*
X159690000Y-106770000D01*
G75*
G02*
X159590000Y-106670000I0J100000D01*
G01*
X159590000Y-104370000D01*
G75*
G02*
X159690000Y-104270000I100000J0D01*
G01*
X159890000Y-104270000D01*
G75*
G02*
X159990000Y-104370000I0J-100000D01*
G01*
X159990000Y-106670000D01*
G75*
G02*
X159890000Y-106770000I-100000J0D01*
G01*
G37*
%TD.AperFunction*%
%TO.P,U1,24*%
%TO.N,/A16*%
%TA.AperFunction,SMDPad,CuDef*%
G36*
G01*
X160540000Y-106770000D02*
X160340000Y-106770000D01*
G75*
G02*
X160240000Y-106670000I0J100000D01*
G01*
X160240000Y-104370000D01*
G75*
G02*
X160340000Y-104270000I100000J0D01*
G01*
X160540000Y-104270000D01*
G75*
G02*
X160640000Y-104370000I0J-100000D01*
G01*
X160640000Y-106670000D01*
G75*
G02*
X160540000Y-106770000I-100000J0D01*
G01*
G37*
%TD.AperFunction*%
%TO.P,U1,25*%
%TO.N,/A17*%
%TA.AperFunction,SMDPad,CuDef*%
G36*
G01*
X161190000Y-106770000D02*
X160990000Y-106770000D01*
G75*
G02*
X160890000Y-106670000I0J100000D01*
G01*
X160890000Y-104370000D01*
G75*
G02*
X160990000Y-104270000I100000J0D01*
G01*
X161190000Y-104270000D01*
G75*
G02*
X161290000Y-104370000I0J-100000D01*
G01*
X161290000Y-106670000D01*
G75*
G02*
X161190000Y-106770000I-100000J0D01*
G01*
G37*
%TD.AperFunction*%
%TO.P,U1,26*%
%TO.N,/A18*%
%TA.AperFunction,SMDPad,CuDef*%
G36*
G01*
X161840000Y-106770000D02*
X161640000Y-106770000D01*
G75*
G02*
X161540000Y-106670000I0J100000D01*
G01*
X161540000Y-104370000D01*
G75*
G02*
X161640000Y-104270000I100000J0D01*
G01*
X161840000Y-104270000D01*
G75*
G02*
X161940000Y-104370000I0J-100000D01*
G01*
X161940000Y-106670000D01*
G75*
G02*
X161840000Y-106770000I-100000J0D01*
G01*
G37*
%TD.AperFunction*%
%TO.P,U1,27*%
%TO.N,/A19*%
%TA.AperFunction,SMDPad,CuDef*%
G36*
G01*
X162490000Y-106770000D02*
X162290000Y-106770000D01*
G75*
G02*
X162190000Y-106670000I0J100000D01*
G01*
X162190000Y-104370000D01*
G75*
G02*
X162290000Y-104270000I100000J0D01*
G01*
X162490000Y-104270000D01*
G75*
G02*
X162590000Y-104370000I0J-100000D01*
G01*
X162590000Y-106670000D01*
G75*
G02*
X162490000Y-106770000I-100000J0D01*
G01*
G37*
%TD.AperFunction*%
%TO.P,U1,28*%
%TO.N,GND*%
%TA.AperFunction,SMDPad,CuDef*%
G36*
G01*
X163140000Y-106770000D02*
X162940000Y-106770000D01*
G75*
G02*
X162840000Y-106670000I0J100000D01*
G01*
X162840000Y-104370000D01*
G75*
G02*
X162940000Y-104270000I100000J0D01*
G01*
X163140000Y-104270000D01*
G75*
G02*
X163240000Y-104370000I0J-100000D01*
G01*
X163240000Y-106670000D01*
G75*
G02*
X163140000Y-106770000I-100000J0D01*
G01*
G37*
%TD.AperFunction*%
%TO.P,U1,29*%
%TO.N,/~IOR*%
%TA.AperFunction,SMDPad,CuDef*%
G36*
G01*
X163790000Y-106770000D02*
X163590000Y-106770000D01*
G75*
G02*
X163490000Y-106670000I0J100000D01*
G01*
X163490000Y-104370000D01*
G75*
G02*
X163590000Y-104270000I100000J0D01*
G01*
X163790000Y-104270000D01*
G75*
G02*
X163890000Y-104370000I0J-100000D01*
G01*
X163890000Y-106670000D01*
G75*
G02*
X163790000Y-106770000I-100000J0D01*
G01*
G37*
%TD.AperFunction*%
%TO.P,U1,30*%
%TO.N,/~IOW*%
%TA.AperFunction,SMDPad,CuDef*%
G36*
G01*
X164440000Y-106770000D02*
X164240000Y-106770000D01*
G75*
G02*
X164140000Y-106670000I0J100000D01*
G01*
X164140000Y-104370000D01*
G75*
G02*
X164240000Y-104270000I100000J0D01*
G01*
X164440000Y-104270000D01*
G75*
G02*
X164540000Y-104370000I0J-100000D01*
G01*
X164540000Y-106670000D01*
G75*
G02*
X164440000Y-106770000I-100000J0D01*
G01*
G37*
%TD.AperFunction*%
%TO.P,U1,31*%
%TO.N,/~SMEMR*%
%TA.AperFunction,SMDPad,CuDef*%
G36*
G01*
X168190000Y-102595000D02*
X168190000Y-102795000D01*
G75*
G02*
X168090000Y-102895000I-100000J0D01*
G01*
X165790000Y-102895000D01*
G75*
G02*
X165690000Y-102795000I0J100000D01*
G01*
X165690000Y-102595000D01*
G75*
G02*
X165790000Y-102495000I100000J0D01*
G01*
X168090000Y-102495000D01*
G75*
G02*
X168190000Y-102595000I0J-100000D01*
G01*
G37*
%TD.AperFunction*%
%TO.P,U1,32*%
%TO.N,/~SMEMW*%
%TA.AperFunction,SMDPad,CuDef*%
G36*
G01*
X168190000Y-101945000D02*
X168190000Y-102145000D01*
G75*
G02*
X168090000Y-102245000I-100000J0D01*
G01*
X165790000Y-102245000D01*
G75*
G02*
X165690000Y-102145000I0J100000D01*
G01*
X165690000Y-101945000D01*
G75*
G02*
X165790000Y-101845000I100000J0D01*
G01*
X168090000Y-101845000D01*
G75*
G02*
X168190000Y-101945000I0J-100000D01*
G01*
G37*
%TD.AperFunction*%
%TO.P,U1,33*%
%TO.N,/RSTDRV*%
%TA.AperFunction,SMDPad,CuDef*%
G36*
G01*
X168190000Y-101295000D02*
X168190000Y-101495000D01*
G75*
G02*
X168090000Y-101595000I-100000J0D01*
G01*
X165790000Y-101595000D01*
G75*
G02*
X165690000Y-101495000I0J100000D01*
G01*
X165690000Y-101295000D01*
G75*
G02*
X165790000Y-101195000I100000J0D01*
G01*
X168090000Y-101195000D01*
G75*
G02*
X168190000Y-101295000I0J-100000D01*
G01*
G37*
%TD.AperFunction*%
%TO.P,U1,34*%
%TO.N,/AEN*%
%TA.AperFunction,SMDPad,CuDef*%
G36*
G01*
X168190000Y-100645000D02*
X168190000Y-100845000D01*
G75*
G02*
X168090000Y-100945000I-100000J0D01*
G01*
X165790000Y-100945000D01*
G75*
G02*
X165690000Y-100845000I0J100000D01*
G01*
X165690000Y-100645000D01*
G75*
G02*
X165790000Y-100545000I100000J0D01*
G01*
X168090000Y-100545000D01*
G75*
G02*
X168190000Y-100645000I0J-100000D01*
G01*
G37*
%TD.AperFunction*%
%TO.P,U1,35*%
%TO.N,/IOCHRDY*%
%TA.AperFunction,SMDPad,CuDef*%
G36*
G01*
X168190000Y-99995000D02*
X168190000Y-100195000D01*
G75*
G02*
X168090000Y-100295000I-100000J0D01*
G01*
X165790000Y-100295000D01*
G75*
G02*
X165690000Y-100195000I0J100000D01*
G01*
X165690000Y-99995000D01*
G75*
G02*
X165790000Y-99895000I100000J0D01*
G01*
X168090000Y-99895000D01*
G75*
G02*
X168190000Y-99995000I0J-100000D01*
G01*
G37*
%TD.AperFunction*%
%TO.P,U1,36*%
%TO.N,/D0*%
%TA.AperFunction,SMDPad,CuDef*%
G36*
G01*
X168190000Y-99345000D02*
X168190000Y-99545000D01*
G75*
G02*
X168090000Y-99645000I-100000J0D01*
G01*
X165790000Y-99645000D01*
G75*
G02*
X165690000Y-99545000I0J100000D01*
G01*
X165690000Y-99345000D01*
G75*
G02*
X165790000Y-99245000I100000J0D01*
G01*
X168090000Y-99245000D01*
G75*
G02*
X168190000Y-99345000I0J-100000D01*
G01*
G37*
%TD.AperFunction*%
%TO.P,U1,37*%
%TO.N,/D1*%
%TA.AperFunction,SMDPad,CuDef*%
G36*
G01*
X168190000Y-98695000D02*
X168190000Y-98895000D01*
G75*
G02*
X168090000Y-98995000I-100000J0D01*
G01*
X165790000Y-98995000D01*
G75*
G02*
X165690000Y-98895000I0J100000D01*
G01*
X165690000Y-98695000D01*
G75*
G02*
X165790000Y-98595000I100000J0D01*
G01*
X168090000Y-98595000D01*
G75*
G02*
X168190000Y-98695000I0J-100000D01*
G01*
G37*
%TD.AperFunction*%
%TO.P,U1,38*%
%TO.N,/D2*%
%TA.AperFunction,SMDPad,CuDef*%
G36*
G01*
X168190000Y-98045000D02*
X168190000Y-98245000D01*
G75*
G02*
X168090000Y-98345000I-100000J0D01*
G01*
X165790000Y-98345000D01*
G75*
G02*
X165690000Y-98245000I0J100000D01*
G01*
X165690000Y-98045000D01*
G75*
G02*
X165790000Y-97945000I100000J0D01*
G01*
X168090000Y-97945000D01*
G75*
G02*
X168190000Y-98045000I0J-100000D01*
G01*
G37*
%TD.AperFunction*%
%TO.P,U1,39*%
%TO.N,/D3*%
%TA.AperFunction,SMDPad,CuDef*%
G36*
G01*
X168190000Y-97395000D02*
X168190000Y-97595000D01*
G75*
G02*
X168090000Y-97695000I-100000J0D01*
G01*
X165790000Y-97695000D01*
G75*
G02*
X165690000Y-97595000I0J100000D01*
G01*
X165690000Y-97395000D01*
G75*
G02*
X165790000Y-97295000I100000J0D01*
G01*
X168090000Y-97295000D01*
G75*
G02*
X168190000Y-97395000I0J-100000D01*
G01*
G37*
%TD.AperFunction*%
%TO.P,U1,40*%
%TO.N,/D4*%
%TA.AperFunction,SMDPad,CuDef*%
G36*
G01*
X168190000Y-96745000D02*
X168190000Y-96945000D01*
G75*
G02*
X168090000Y-97045000I-100000J0D01*
G01*
X165790000Y-97045000D01*
G75*
G02*
X165690000Y-96945000I0J100000D01*
G01*
X165690000Y-96745000D01*
G75*
G02*
X165790000Y-96645000I100000J0D01*
G01*
X168090000Y-96645000D01*
G75*
G02*
X168190000Y-96745000I0J-100000D01*
G01*
G37*
%TD.AperFunction*%
%TO.P,U1,41*%
%TO.N,/D5*%
%TA.AperFunction,SMDPad,CuDef*%
G36*
G01*
X168190000Y-96095000D02*
X168190000Y-96295000D01*
G75*
G02*
X168090000Y-96395000I-100000J0D01*
G01*
X165790000Y-96395000D01*
G75*
G02*
X165690000Y-96295000I0J100000D01*
G01*
X165690000Y-96095000D01*
G75*
G02*
X165790000Y-95995000I100000J0D01*
G01*
X168090000Y-95995000D01*
G75*
G02*
X168190000Y-96095000I0J-100000D01*
G01*
G37*
%TD.AperFunction*%
%TO.P,U1,42*%
%TO.N,/D6*%
%TA.AperFunction,SMDPad,CuDef*%
G36*
G01*
X168190000Y-95445000D02*
X168190000Y-95645000D01*
G75*
G02*
X168090000Y-95745000I-100000J0D01*
G01*
X165790000Y-95745000D01*
G75*
G02*
X165690000Y-95645000I0J100000D01*
G01*
X165690000Y-95445000D01*
G75*
G02*
X165790000Y-95345000I100000J0D01*
G01*
X168090000Y-95345000D01*
G75*
G02*
X168190000Y-95445000I0J-100000D01*
G01*
G37*
%TD.AperFunction*%
%TO.P,U1,43*%
%TO.N,/D7*%
%TA.AperFunction,SMDPad,CuDef*%
G36*
G01*
X168190000Y-94795000D02*
X168190000Y-94995000D01*
G75*
G02*
X168090000Y-95095000I-100000J0D01*
G01*
X165790000Y-95095000D01*
G75*
G02*
X165690000Y-94995000I0J100000D01*
G01*
X165690000Y-94795000D01*
G75*
G02*
X165790000Y-94695000I100000J0D01*
G01*
X168090000Y-94695000D01*
G75*
G02*
X168190000Y-94795000I0J-100000D01*
G01*
G37*
%TD.AperFunction*%
%TO.P,U1,44*%
%TO.N,GND*%
%TA.AperFunction,SMDPad,CuDef*%
G36*
G01*
X168190000Y-94145000D02*
X168190000Y-94345000D01*
G75*
G02*
X168090000Y-94445000I-100000J0D01*
G01*
X165790000Y-94445000D01*
G75*
G02*
X165690000Y-94345000I0J100000D01*
G01*
X165690000Y-94145000D01*
G75*
G02*
X165790000Y-94045000I100000J0D01*
G01*
X168090000Y-94045000D01*
G75*
G02*
X168190000Y-94145000I0J-100000D01*
G01*
G37*
%TD.AperFunction*%
%TO.P,U1,45*%
%TO.N,/TP_TX+*%
%TA.AperFunction,SMDPad,CuDef*%
G36*
G01*
X168190000Y-93495000D02*
X168190000Y-93695000D01*
G75*
G02*
X168090000Y-93795000I-100000J0D01*
G01*
X165790000Y-93795000D01*
G75*
G02*
X165690000Y-93695000I0J100000D01*
G01*
X165690000Y-93495000D01*
G75*
G02*
X165790000Y-93395000I100000J0D01*
G01*
X168090000Y-93395000D01*
G75*
G02*
X168190000Y-93495000I0J-100000D01*
G01*
G37*
%TD.AperFunction*%
%TO.P,U1,46*%
%TO.N,/TP_TX-*%
%TA.AperFunction,SMDPad,CuDef*%
G36*
G01*
X168190000Y-92845000D02*
X168190000Y-93045000D01*
G75*
G02*
X168090000Y-93145000I-100000J0D01*
G01*
X165790000Y-93145000D01*
G75*
G02*
X165690000Y-93045000I0J100000D01*
G01*
X165690000Y-92845000D01*
G75*
G02*
X165790000Y-92745000I100000J0D01*
G01*
X168090000Y-92745000D01*
G75*
G02*
X168190000Y-92845000I0J-100000D01*
G01*
G37*
%TD.AperFunction*%
%TO.P,U1,47*%
%TO.N,VCC*%
%TA.AperFunction,SMDPad,CuDef*%
G36*
G01*
X168190000Y-92195000D02*
X168190000Y-92395000D01*
G75*
G02*
X168090000Y-92495000I-100000J0D01*
G01*
X165790000Y-92495000D01*
G75*
G02*
X165690000Y-92395000I0J100000D01*
G01*
X165690000Y-92195000D01*
G75*
G02*
X165790000Y-92095000I100000J0D01*
G01*
X168090000Y-92095000D01*
G75*
G02*
X168190000Y-92195000I0J-100000D01*
G01*
G37*
%TD.AperFunction*%
%TO.P,U1,48*%
%TO.N,Net-(U1-Pad48)*%
%TA.AperFunction,SMDPad,CuDef*%
G36*
G01*
X168190000Y-91545000D02*
X168190000Y-91745000D01*
G75*
G02*
X168090000Y-91845000I-100000J0D01*
G01*
X165790000Y-91845000D01*
G75*
G02*
X165690000Y-91745000I0J100000D01*
G01*
X165690000Y-91545000D01*
G75*
G02*
X165790000Y-91445000I100000J0D01*
G01*
X168090000Y-91445000D01*
G75*
G02*
X168190000Y-91545000I0J-100000D01*
G01*
G37*
%TD.AperFunction*%
%TO.P,U1,49*%
%TO.N,Net-(U1-Pad49)*%
%TA.AperFunction,SMDPad,CuDef*%
G36*
G01*
X168190000Y-90895000D02*
X168190000Y-91095000D01*
G75*
G02*
X168090000Y-91195000I-100000J0D01*
G01*
X165790000Y-91195000D01*
G75*
G02*
X165690000Y-91095000I0J100000D01*
G01*
X165690000Y-90895000D01*
G75*
G02*
X165790000Y-90795000I100000J0D01*
G01*
X168090000Y-90795000D01*
G75*
G02*
X168190000Y-90895000I0J-100000D01*
G01*
G37*
%TD.AperFunction*%
%TO.P,U1,50*%
%TO.N,Net-(C1-Pad2)*%
%TA.AperFunction,SMDPad,CuDef*%
G36*
G01*
X168190000Y-90245000D02*
X168190000Y-90445000D01*
G75*
G02*
X168090000Y-90545000I-100000J0D01*
G01*
X165790000Y-90545000D01*
G75*
G02*
X165690000Y-90445000I0J100000D01*
G01*
X165690000Y-90245000D01*
G75*
G02*
X165790000Y-90145000I100000J0D01*
G01*
X168090000Y-90145000D01*
G75*
G02*
X168190000Y-90245000I0J-100000D01*
G01*
G37*
%TD.AperFunction*%
%TO.P,U1,51*%
%TO.N,Net-(C2-Pad2)*%
%TA.AperFunction,SMDPad,CuDef*%
G36*
G01*
X164465000Y-88770000D02*
X164265000Y-88770000D01*
G75*
G02*
X164165000Y-88670000I0J100000D01*
G01*
X164165000Y-86370000D01*
G75*
G02*
X164265000Y-86270000I100000J0D01*
G01*
X164465000Y-86270000D01*
G75*
G02*
X164565000Y-86370000I0J-100000D01*
G01*
X164565000Y-88670000D01*
G75*
G02*
X164465000Y-88770000I-100000J0D01*
G01*
G37*
%TD.AperFunction*%
%TO.P,U1,52*%
%TO.N,GND*%
%TA.AperFunction,SMDPad,CuDef*%
G36*
G01*
X163815000Y-88770000D02*
X163615000Y-88770000D01*
G75*
G02*
X163515000Y-88670000I0J100000D01*
G01*
X163515000Y-86370000D01*
G75*
G02*
X163615000Y-86270000I100000J0D01*
G01*
X163815000Y-86270000D01*
G75*
G02*
X163915000Y-86370000I0J-100000D01*
G01*
X163915000Y-88670000D01*
G75*
G02*
X163815000Y-88770000I-100000J0D01*
G01*
G37*
%TD.AperFunction*%
%TO.P,U1,53*%
%TO.N,Net-(U1-Pad53)*%
%TA.AperFunction,SMDPad,CuDef*%
G36*
G01*
X163165000Y-88770000D02*
X162965000Y-88770000D01*
G75*
G02*
X162865000Y-88670000I0J100000D01*
G01*
X162865000Y-86370000D01*
G75*
G02*
X162965000Y-86270000I100000J0D01*
G01*
X163165000Y-86270000D01*
G75*
G02*
X163265000Y-86370000I0J-100000D01*
G01*
X163265000Y-88670000D01*
G75*
G02*
X163165000Y-88770000I-100000J0D01*
G01*
G37*
%TD.AperFunction*%
%TO.P,U1,54*%
%TO.N,Net-(U1-Pad54)*%
%TA.AperFunction,SMDPad,CuDef*%
G36*
G01*
X162515000Y-88770000D02*
X162315000Y-88770000D01*
G75*
G02*
X162215000Y-88670000I0J100000D01*
G01*
X162215000Y-86370000D01*
G75*
G02*
X162315000Y-86270000I100000J0D01*
G01*
X162515000Y-86270000D01*
G75*
G02*
X162615000Y-86370000I0J-100000D01*
G01*
X162615000Y-88670000D01*
G75*
G02*
X162515000Y-88770000I-100000J0D01*
G01*
G37*
%TD.AperFunction*%
%TO.P,U1,55*%
%TO.N,Net-(U1-Pad55)*%
%TA.AperFunction,SMDPad,CuDef*%
G36*
G01*
X161865000Y-88770000D02*
X161665000Y-88770000D01*
G75*
G02*
X161565000Y-88670000I0J100000D01*
G01*
X161565000Y-86370000D01*
G75*
G02*
X161665000Y-86270000I100000J0D01*
G01*
X161865000Y-86270000D01*
G75*
G02*
X161965000Y-86370000I0J-100000D01*
G01*
X161965000Y-88670000D01*
G75*
G02*
X161865000Y-88770000I-100000J0D01*
G01*
G37*
%TD.AperFunction*%
%TO.P,U1,56*%
%TO.N,Net-(U1-Pad56)*%
%TA.AperFunction,SMDPad,CuDef*%
G36*
G01*
X161215000Y-88770000D02*
X161015000Y-88770000D01*
G75*
G02*
X160915000Y-88670000I0J100000D01*
G01*
X160915000Y-86370000D01*
G75*
G02*
X161015000Y-86270000I100000J0D01*
G01*
X161215000Y-86270000D01*
G75*
G02*
X161315000Y-86370000I0J-100000D01*
G01*
X161315000Y-88670000D01*
G75*
G02*
X161215000Y-88770000I-100000J0D01*
G01*
G37*
%TD.AperFunction*%
%TO.P,U1,57*%
%TO.N,VCC*%
%TA.AperFunction,SMDPad,CuDef*%
G36*
G01*
X160565000Y-88770000D02*
X160365000Y-88770000D01*
G75*
G02*
X160265000Y-88670000I0J100000D01*
G01*
X160265000Y-86370000D01*
G75*
G02*
X160365000Y-86270000I100000J0D01*
G01*
X160565000Y-86270000D01*
G75*
G02*
X160665000Y-86370000I0J-100000D01*
G01*
X160665000Y-88670000D01*
G75*
G02*
X160565000Y-88770000I-100000J0D01*
G01*
G37*
%TD.AperFunction*%
%TO.P,U1,58*%
%TO.N,/TP_RX-*%
%TA.AperFunction,SMDPad,CuDef*%
G36*
G01*
X159915000Y-88770000D02*
X159715000Y-88770000D01*
G75*
G02*
X159615000Y-88670000I0J100000D01*
G01*
X159615000Y-86370000D01*
G75*
G02*
X159715000Y-86270000I100000J0D01*
G01*
X159915000Y-86270000D01*
G75*
G02*
X160015000Y-86370000I0J-100000D01*
G01*
X160015000Y-88670000D01*
G75*
G02*
X159915000Y-88770000I-100000J0D01*
G01*
G37*
%TD.AperFunction*%
%TO.P,U1,59*%
%TO.N,/TP_RX+*%
%TA.AperFunction,SMDPad,CuDef*%
G36*
G01*
X159265000Y-88770000D02*
X159065000Y-88770000D01*
G75*
G02*
X158965000Y-88670000I0J100000D01*
G01*
X158965000Y-86370000D01*
G75*
G02*
X159065000Y-86270000I100000J0D01*
G01*
X159265000Y-86270000D01*
G75*
G02*
X159365000Y-86370000I0J-100000D01*
G01*
X159365000Y-88670000D01*
G75*
G02*
X159265000Y-88770000I-100000J0D01*
G01*
G37*
%TD.AperFunction*%
%TO.P,U1,60*%
%TO.N,Net-(U1-Pad60)*%
%TA.AperFunction,SMDPad,CuDef*%
G36*
G01*
X158615000Y-88770000D02*
X158415000Y-88770000D01*
G75*
G02*
X158315000Y-88670000I0J100000D01*
G01*
X158315000Y-86370000D01*
G75*
G02*
X158415000Y-86270000I100000J0D01*
G01*
X158615000Y-86270000D01*
G75*
G02*
X158715000Y-86370000I0J-100000D01*
G01*
X158715000Y-88670000D01*
G75*
G02*
X158615000Y-88770000I-100000J0D01*
G01*
G37*
%TD.AperFunction*%
%TO.P,U1,61*%
%TO.N,/LED_LINK*%
%TA.AperFunction,SMDPad,CuDef*%
G36*
G01*
X157965000Y-88770000D02*
X157765000Y-88770000D01*
G75*
G02*
X157665000Y-88670000I0J100000D01*
G01*
X157665000Y-86370000D01*
G75*
G02*
X157765000Y-86270000I100000J0D01*
G01*
X157965000Y-86270000D01*
G75*
G02*
X158065000Y-86370000I0J-100000D01*
G01*
X158065000Y-88670000D01*
G75*
G02*
X157965000Y-88770000I-100000J0D01*
G01*
G37*
%TD.AperFunction*%
%TO.P,U1,62*%
%TO.N,/LED_CRS*%
%TA.AperFunction,SMDPad,CuDef*%
G36*
G01*
X157315000Y-88770000D02*
X157115000Y-88770000D01*
G75*
G02*
X157015000Y-88670000I0J100000D01*
G01*
X157015000Y-86370000D01*
G75*
G02*
X157115000Y-86270000I100000J0D01*
G01*
X157315000Y-86270000D01*
G75*
G02*
X157415000Y-86370000I0J-100000D01*
G01*
X157415000Y-88670000D01*
G75*
G02*
X157315000Y-88770000I-100000J0D01*
G01*
G37*
%TD.AperFunction*%
%TO.P,U1,63*%
%TO.N,Net-(U1-Pad63)*%
%TA.AperFunction,SMDPad,CuDef*%
G36*
G01*
X156665000Y-88770000D02*
X156465000Y-88770000D01*
G75*
G02*
X156365000Y-88670000I0J100000D01*
G01*
X156365000Y-86370000D01*
G75*
G02*
X156465000Y-86270000I100000J0D01*
G01*
X156665000Y-86270000D01*
G75*
G02*
X156765000Y-86370000I0J-100000D01*
G01*
X156765000Y-88670000D01*
G75*
G02*
X156665000Y-88770000I-100000J0D01*
G01*
G37*
%TD.AperFunction*%
%TO.P,U1,64*%
%TO.N,/AUI*%
%TA.AperFunction,SMDPad,CuDef*%
G36*
G01*
X156015000Y-88770000D02*
X155815000Y-88770000D01*
G75*
G02*
X155715000Y-88670000I0J100000D01*
G01*
X155715000Y-86370000D01*
G75*
G02*
X155815000Y-86270000I100000J0D01*
G01*
X156015000Y-86270000D01*
G75*
G02*
X156115000Y-86370000I0J-100000D01*
G01*
X156115000Y-88670000D01*
G75*
G02*
X156015000Y-88770000I-100000J0D01*
G01*
G37*
%TD.AperFunction*%
%TO.P,U1,65*%
%TO.N,/JP*%
%TA.AperFunction,SMDPad,CuDef*%
G36*
G01*
X155365000Y-88770000D02*
X155165000Y-88770000D01*
G75*
G02*
X155065000Y-88670000I0J100000D01*
G01*
X155065000Y-86370000D01*
G75*
G02*
X155165000Y-86270000I100000J0D01*
G01*
X155365000Y-86270000D01*
G75*
G02*
X155465000Y-86370000I0J-100000D01*
G01*
X155465000Y-88670000D01*
G75*
G02*
X155365000Y-88770000I-100000J0D01*
G01*
G37*
%TD.AperFunction*%
%TO.P,U1,66*%
%TO.N,/BA21*%
%TA.AperFunction,SMDPad,CuDef*%
G36*
G01*
X154715000Y-88770000D02*
X154515000Y-88770000D01*
G75*
G02*
X154415000Y-88670000I0J100000D01*
G01*
X154415000Y-86370000D01*
G75*
G02*
X154515000Y-86270000I100000J0D01*
G01*
X154715000Y-86270000D01*
G75*
G02*
X154815000Y-86370000I0J-100000D01*
G01*
X154815000Y-88670000D01*
G75*
G02*
X154715000Y-88770000I-100000J0D01*
G01*
G37*
%TD.AperFunction*%
%TO.P,U1,67*%
%TO.N,/BA20*%
%TA.AperFunction,SMDPad,CuDef*%
G36*
G01*
X154065000Y-88770000D02*
X153865000Y-88770000D01*
G75*
G02*
X153765000Y-88670000I0J100000D01*
G01*
X153765000Y-86370000D01*
G75*
G02*
X153865000Y-86270000I100000J0D01*
G01*
X154065000Y-86270000D01*
G75*
G02*
X154165000Y-86370000I0J-100000D01*
G01*
X154165000Y-88670000D01*
G75*
G02*
X154065000Y-88770000I-100000J0D01*
G01*
G37*
%TD.AperFunction*%
%TO.P,U1,68*%
%TO.N,/BA19*%
%TA.AperFunction,SMDPad,CuDef*%
G36*
G01*
X153415000Y-88770000D02*
X153215000Y-88770000D01*
G75*
G02*
X153115000Y-88670000I0J100000D01*
G01*
X153115000Y-86370000D01*
G75*
G02*
X153215000Y-86270000I100000J0D01*
G01*
X153415000Y-86270000D01*
G75*
G02*
X153515000Y-86370000I0J-100000D01*
G01*
X153515000Y-88670000D01*
G75*
G02*
X153415000Y-88770000I-100000J0D01*
G01*
G37*
%TD.AperFunction*%
%TO.P,U1,69*%
%TO.N,/BA18*%
%TA.AperFunction,SMDPad,CuDef*%
G36*
G01*
X152765000Y-88770000D02*
X152565000Y-88770000D01*
G75*
G02*
X152465000Y-88670000I0J100000D01*
G01*
X152465000Y-86370000D01*
G75*
G02*
X152565000Y-86270000I100000J0D01*
G01*
X152765000Y-86270000D01*
G75*
G02*
X152865000Y-86370000I0J-100000D01*
G01*
X152865000Y-88670000D01*
G75*
G02*
X152765000Y-88770000I-100000J0D01*
G01*
G37*
%TD.AperFunction*%
%TO.P,U1,70*%
%TO.N,VCC*%
%TA.AperFunction,SMDPad,CuDef*%
G36*
G01*
X152115000Y-88770000D02*
X151915000Y-88770000D01*
G75*
G02*
X151815000Y-88670000I0J100000D01*
G01*
X151815000Y-86370000D01*
G75*
G02*
X151915000Y-86270000I100000J0D01*
G01*
X152115000Y-86270000D01*
G75*
G02*
X152215000Y-86370000I0J-100000D01*
G01*
X152215000Y-88670000D01*
G75*
G02*
X152115000Y-88770000I-100000J0D01*
G01*
G37*
%TD.AperFunction*%
%TO.P,U1,71*%
%TO.N,/BA17*%
%TA.AperFunction,SMDPad,CuDef*%
G36*
G01*
X151465000Y-88770000D02*
X151265000Y-88770000D01*
G75*
G02*
X151165000Y-88670000I0J100000D01*
G01*
X151165000Y-86370000D01*
G75*
G02*
X151265000Y-86270000I100000J0D01*
G01*
X151465000Y-86270000D01*
G75*
G02*
X151565000Y-86370000I0J-100000D01*
G01*
X151565000Y-88670000D01*
G75*
G02*
X151465000Y-88770000I-100000J0D01*
G01*
G37*
%TD.AperFunction*%
%TO.P,U1,72*%
%TO.N,/BA16*%
%TA.AperFunction,SMDPad,CuDef*%
G36*
G01*
X150815000Y-88770000D02*
X150615000Y-88770000D01*
G75*
G02*
X150515000Y-88670000I0J100000D01*
G01*
X150515000Y-86370000D01*
G75*
G02*
X150615000Y-86270000I100000J0D01*
G01*
X150815000Y-86270000D01*
G75*
G02*
X150915000Y-86370000I0J-100000D01*
G01*
X150915000Y-88670000D01*
G75*
G02*
X150815000Y-88770000I-100000J0D01*
G01*
G37*
%TD.AperFunction*%
%TO.P,U1,73*%
%TO.N,/BA15*%
%TA.AperFunction,SMDPad,CuDef*%
G36*
G01*
X150165000Y-88770000D02*
X149965000Y-88770000D01*
G75*
G02*
X149865000Y-88670000I0J100000D01*
G01*
X149865000Y-86370000D01*
G75*
G02*
X149965000Y-86270000I100000J0D01*
G01*
X150165000Y-86270000D01*
G75*
G02*
X150265000Y-86370000I0J-100000D01*
G01*
X150265000Y-88670000D01*
G75*
G02*
X150165000Y-88770000I-100000J0D01*
G01*
G37*
%TD.AperFunction*%
%TO.P,U1,74*%
%TO.N,/BA14*%
%TA.AperFunction,SMDPad,CuDef*%
G36*
G01*
X149515000Y-88770000D02*
X149315000Y-88770000D01*
G75*
G02*
X149215000Y-88670000I0J100000D01*
G01*
X149215000Y-86370000D01*
G75*
G02*
X149315000Y-86270000I100000J0D01*
G01*
X149515000Y-86270000D01*
G75*
G02*
X149615000Y-86370000I0J-100000D01*
G01*
X149615000Y-88670000D01*
G75*
G02*
X149515000Y-88770000I-100000J0D01*
G01*
G37*
%TD.AperFunction*%
%TO.P,U1,75*%
%TO.N,/~BCS*%
%TA.AperFunction,SMDPad,CuDef*%
G36*
G01*
X148865000Y-88770000D02*
X148665000Y-88770000D01*
G75*
G02*
X148565000Y-88670000I0J100000D01*
G01*
X148565000Y-86370000D01*
G75*
G02*
X148665000Y-86270000I100000J0D01*
G01*
X148865000Y-86270000D01*
G75*
G02*
X148965000Y-86370000I0J-100000D01*
G01*
X148965000Y-88670000D01*
G75*
G02*
X148865000Y-88770000I-100000J0D01*
G01*
G37*
%TD.AperFunction*%
%TO.P,U1,76*%
%TO.N,/EECS*%
%TA.AperFunction,SMDPad,CuDef*%
G36*
G01*
X148215000Y-88770000D02*
X148015000Y-88770000D01*
G75*
G02*
X147915000Y-88670000I0J100000D01*
G01*
X147915000Y-86370000D01*
G75*
G02*
X148015000Y-86270000I100000J0D01*
G01*
X148215000Y-86270000D01*
G75*
G02*
X148315000Y-86370000I0J-100000D01*
G01*
X148315000Y-88670000D01*
G75*
G02*
X148215000Y-88770000I-100000J0D01*
G01*
G37*
%TD.AperFunction*%
%TO.P,U1,77*%
%TO.N,/BD7*%
%TA.AperFunction,SMDPad,CuDef*%
G36*
G01*
X147565000Y-88770000D02*
X147365000Y-88770000D01*
G75*
G02*
X147265000Y-88670000I0J100000D01*
G01*
X147265000Y-86370000D01*
G75*
G02*
X147365000Y-86270000I100000J0D01*
G01*
X147565000Y-86270000D01*
G75*
G02*
X147665000Y-86370000I0J-100000D01*
G01*
X147665000Y-88670000D01*
G75*
G02*
X147565000Y-88770000I-100000J0D01*
G01*
G37*
%TD.AperFunction*%
%TO.P,U1,78*%
%TO.N,/BD6*%
%TA.AperFunction,SMDPad,CuDef*%
G36*
G01*
X146915000Y-88770000D02*
X146715000Y-88770000D01*
G75*
G02*
X146615000Y-88670000I0J100000D01*
G01*
X146615000Y-86370000D01*
G75*
G02*
X146715000Y-86270000I100000J0D01*
G01*
X146915000Y-86270000D01*
G75*
G02*
X147015000Y-86370000I0J-100000D01*
G01*
X147015000Y-88670000D01*
G75*
G02*
X146915000Y-88770000I-100000J0D01*
G01*
G37*
%TD.AperFunction*%
%TO.P,U1,79*%
%TO.N,/BD5*%
%TA.AperFunction,SMDPad,CuDef*%
G36*
G01*
X146265000Y-88770000D02*
X146065000Y-88770000D01*
G75*
G02*
X145965000Y-88670000I0J100000D01*
G01*
X145965000Y-86370000D01*
G75*
G02*
X146065000Y-86270000I100000J0D01*
G01*
X146265000Y-86270000D01*
G75*
G02*
X146365000Y-86370000I0J-100000D01*
G01*
X146365000Y-88670000D01*
G75*
G02*
X146265000Y-88770000I-100000J0D01*
G01*
G37*
%TD.AperFunction*%
%TO.P,U1,80*%
%TO.N,/BD4*%
%TA.AperFunction,SMDPad,CuDef*%
G36*
G01*
X145615000Y-88770000D02*
X145415000Y-88770000D01*
G75*
G02*
X145315000Y-88670000I0J100000D01*
G01*
X145315000Y-86370000D01*
G75*
G02*
X145415000Y-86270000I100000J0D01*
G01*
X145615000Y-86270000D01*
G75*
G02*
X145715000Y-86370000I0J-100000D01*
G01*
X145715000Y-88670000D01*
G75*
G02*
X145615000Y-88770000I-100000J0D01*
G01*
G37*
%TD.AperFunction*%
%TO.P,U1,81*%
%TO.N,/BD3*%
%TA.AperFunction,SMDPad,CuDef*%
G36*
G01*
X144190000Y-90245000D02*
X144190000Y-90445000D01*
G75*
G02*
X144090000Y-90545000I-100000J0D01*
G01*
X141790000Y-90545000D01*
G75*
G02*
X141690000Y-90445000I0J100000D01*
G01*
X141690000Y-90245000D01*
G75*
G02*
X141790000Y-90145000I100000J0D01*
G01*
X144090000Y-90145000D01*
G75*
G02*
X144190000Y-90245000I0J-100000D01*
G01*
G37*
%TD.AperFunction*%
%TO.P,U1,82*%
%TO.N,/BD2*%
%TA.AperFunction,SMDPad,CuDef*%
G36*
G01*
X144190000Y-90895000D02*
X144190000Y-91095000D01*
G75*
G02*
X144090000Y-91195000I-100000J0D01*
G01*
X141790000Y-91195000D01*
G75*
G02*
X141690000Y-91095000I0J100000D01*
G01*
X141690000Y-90895000D01*
G75*
G02*
X141790000Y-90795000I100000J0D01*
G01*
X144090000Y-90795000D01*
G75*
G02*
X144190000Y-90895000I0J-100000D01*
G01*
G37*
%TD.AperFunction*%
%TO.P,U1,83*%
%TO.N,GND*%
%TA.AperFunction,SMDPad,CuDef*%
G36*
G01*
X144190000Y-91545000D02*
X144190000Y-91745000D01*
G75*
G02*
X144090000Y-91845000I-100000J0D01*
G01*
X141790000Y-91845000D01*
G75*
G02*
X141690000Y-91745000I0J100000D01*
G01*
X141690000Y-91545000D01*
G75*
G02*
X141790000Y-91445000I100000J0D01*
G01*
X144090000Y-91445000D01*
G75*
G02*
X144190000Y-91545000I0J-100000D01*
G01*
G37*
%TD.AperFunction*%
%TO.P,U1,84*%
%TO.N,/BD1*%
%TA.AperFunction,SMDPad,CuDef*%
G36*
G01*
X144190000Y-92195000D02*
X144190000Y-92395000D01*
G75*
G02*
X144090000Y-92495000I-100000J0D01*
G01*
X141790000Y-92495000D01*
G75*
G02*
X141690000Y-92395000I0J100000D01*
G01*
X141690000Y-92195000D01*
G75*
G02*
X141790000Y-92095000I100000J0D01*
G01*
X144090000Y-92095000D01*
G75*
G02*
X144190000Y-92195000I0J-100000D01*
G01*
G37*
%TD.AperFunction*%
%TO.P,U1,85*%
%TO.N,/BD0*%
%TA.AperFunction,SMDPad,CuDef*%
G36*
G01*
X144190000Y-92845000D02*
X144190000Y-93045000D01*
G75*
G02*
X144090000Y-93145000I-100000J0D01*
G01*
X141790000Y-93145000D01*
G75*
G02*
X141690000Y-93045000I0J100000D01*
G01*
X141690000Y-92845000D01*
G75*
G02*
X141790000Y-92745000I100000J0D01*
G01*
X144090000Y-92745000D01*
G75*
G02*
X144190000Y-92845000I0J-100000D01*
G01*
G37*
%TD.AperFunction*%
%TO.P,U1,86*%
%TO.N,GND*%
%TA.AperFunction,SMDPad,CuDef*%
G36*
G01*
X144190000Y-93495000D02*
X144190000Y-93695000D01*
G75*
G02*
X144090000Y-93795000I-100000J0D01*
G01*
X141790000Y-93795000D01*
G75*
G02*
X141690000Y-93695000I0J100000D01*
G01*
X141690000Y-93495000D01*
G75*
G02*
X141790000Y-93395000I100000J0D01*
G01*
X144090000Y-93395000D01*
G75*
G02*
X144190000Y-93495000I0J-100000D01*
G01*
G37*
%TD.AperFunction*%
%TO.P,U1,87*%
%TO.N,Net-(U1-Pad87)*%
%TA.AperFunction,SMDPad,CuDef*%
G36*
G01*
X144190000Y-94145000D02*
X144190000Y-94345000D01*
G75*
G02*
X144090000Y-94445000I-100000J0D01*
G01*
X141790000Y-94445000D01*
G75*
G02*
X141690000Y-94345000I0J100000D01*
G01*
X141690000Y-94145000D01*
G75*
G02*
X141790000Y-94045000I100000J0D01*
G01*
X144090000Y-94045000D01*
G75*
G02*
X144190000Y-94145000I0J-100000D01*
G01*
G37*
%TD.AperFunction*%
%TO.P,U1,88*%
%TO.N,Net-(U1-Pad88)*%
%TA.AperFunction,SMDPad,CuDef*%
G36*
G01*
X144190000Y-94795000D02*
X144190000Y-94995000D01*
G75*
G02*
X144090000Y-95095000I-100000J0D01*
G01*
X141790000Y-95095000D01*
G75*
G02*
X141690000Y-94995000I0J100000D01*
G01*
X141690000Y-94795000D01*
G75*
G02*
X141790000Y-94695000I100000J0D01*
G01*
X144090000Y-94695000D01*
G75*
G02*
X144190000Y-94795000I0J-100000D01*
G01*
G37*
%TD.AperFunction*%
%TO.P,U1,89*%
%TO.N,VCC*%
%TA.AperFunction,SMDPad,CuDef*%
G36*
G01*
X144190000Y-95445000D02*
X144190000Y-95645000D01*
G75*
G02*
X144090000Y-95745000I-100000J0D01*
G01*
X141790000Y-95745000D01*
G75*
G02*
X141690000Y-95645000I0J100000D01*
G01*
X141690000Y-95445000D01*
G75*
G02*
X141790000Y-95345000I100000J0D01*
G01*
X144090000Y-95345000D01*
G75*
G02*
X144190000Y-95445000I0J-100000D01*
G01*
G37*
%TD.AperFunction*%
%TO.P,U1,90*%
%TO.N,Net-(U1-Pad90)*%
%TA.AperFunction,SMDPad,CuDef*%
G36*
G01*
X144190000Y-96095000D02*
X144190000Y-96295000D01*
G75*
G02*
X144090000Y-96395000I-100000J0D01*
G01*
X141790000Y-96395000D01*
G75*
G02*
X141690000Y-96295000I0J100000D01*
G01*
X141690000Y-96095000D01*
G75*
G02*
X141790000Y-95995000I100000J0D01*
G01*
X144090000Y-95995000D01*
G75*
G02*
X144190000Y-96095000I0J-100000D01*
G01*
G37*
%TD.AperFunction*%
%TO.P,U1,91*%
%TO.N,Net-(U1-Pad91)*%
%TA.AperFunction,SMDPad,CuDef*%
G36*
G01*
X144190000Y-96745000D02*
X144190000Y-96945000D01*
G75*
G02*
X144090000Y-97045000I-100000J0D01*
G01*
X141790000Y-97045000D01*
G75*
G02*
X141690000Y-96945000I0J100000D01*
G01*
X141690000Y-96745000D01*
G75*
G02*
X141790000Y-96645000I100000J0D01*
G01*
X144090000Y-96645000D01*
G75*
G02*
X144190000Y-96745000I0J-100000D01*
G01*
G37*
%TD.AperFunction*%
%TO.P,U1,92*%
%TO.N,Net-(U1-Pad92)*%
%TA.AperFunction,SMDPad,CuDef*%
G36*
G01*
X144190000Y-97395000D02*
X144190000Y-97595000D01*
G75*
G02*
X144090000Y-97695000I-100000J0D01*
G01*
X141790000Y-97695000D01*
G75*
G02*
X141690000Y-97595000I0J100000D01*
G01*
X141690000Y-97395000D01*
G75*
G02*
X141790000Y-97295000I100000J0D01*
G01*
X144090000Y-97295000D01*
G75*
G02*
X144190000Y-97395000I0J-100000D01*
G01*
G37*
%TD.AperFunction*%
%TO.P,U1,93*%
%TO.N,Net-(U1-Pad93)*%
%TA.AperFunction,SMDPad,CuDef*%
G36*
G01*
X144190000Y-98045000D02*
X144190000Y-98245000D01*
G75*
G02*
X144090000Y-98345000I-100000J0D01*
G01*
X141790000Y-98345000D01*
G75*
G02*
X141690000Y-98245000I0J100000D01*
G01*
X141690000Y-98045000D01*
G75*
G02*
X141790000Y-97945000I100000J0D01*
G01*
X144090000Y-97945000D01*
G75*
G02*
X144190000Y-98045000I0J-100000D01*
G01*
G37*
%TD.AperFunction*%
%TO.P,U1,94*%
%TO.N,Net-(U1-Pad94)*%
%TA.AperFunction,SMDPad,CuDef*%
G36*
G01*
X144190000Y-98695000D02*
X144190000Y-98895000D01*
G75*
G02*
X144090000Y-98995000I-100000J0D01*
G01*
X141790000Y-98995000D01*
G75*
G02*
X141690000Y-98895000I0J100000D01*
G01*
X141690000Y-98695000D01*
G75*
G02*
X141790000Y-98595000I100000J0D01*
G01*
X144090000Y-98595000D01*
G75*
G02*
X144190000Y-98695000I0J-100000D01*
G01*
G37*
%TD.AperFunction*%
%TO.P,U1,95*%
%TO.N,Net-(U1-Pad95)*%
%TA.AperFunction,SMDPad,CuDef*%
G36*
G01*
X144190000Y-99345000D02*
X144190000Y-99545000D01*
G75*
G02*
X144090000Y-99645000I-100000J0D01*
G01*
X141790000Y-99645000D01*
G75*
G02*
X141690000Y-99545000I0J100000D01*
G01*
X141690000Y-99345000D01*
G75*
G02*
X141790000Y-99245000I100000J0D01*
G01*
X144090000Y-99245000D01*
G75*
G02*
X144190000Y-99345000I0J-100000D01*
G01*
G37*
%TD.AperFunction*%
%TO.P,U1,96*%
%TO.N,/~IOCS16*%
%TA.AperFunction,SMDPad,CuDef*%
G36*
G01*
X144190000Y-99995000D02*
X144190000Y-100195000D01*
G75*
G02*
X144090000Y-100295000I-100000J0D01*
G01*
X141790000Y-100295000D01*
G75*
G02*
X141690000Y-100195000I0J100000D01*
G01*
X141690000Y-99995000D01*
G75*
G02*
X141790000Y-99895000I100000J0D01*
G01*
X144090000Y-99895000D01*
G75*
G02*
X144190000Y-99995000I0J-100000D01*
G01*
G37*
%TD.AperFunction*%
%TO.P,U1,97*%
%TO.N,Net-(U1-Pad97)*%
%TA.AperFunction,SMDPad,CuDef*%
G36*
G01*
X144190000Y-100645000D02*
X144190000Y-100845000D01*
G75*
G02*
X144090000Y-100945000I-100000J0D01*
G01*
X141790000Y-100945000D01*
G75*
G02*
X141690000Y-100845000I0J100000D01*
G01*
X141690000Y-100645000D01*
G75*
G02*
X141790000Y-100545000I100000J0D01*
G01*
X144090000Y-100545000D01*
G75*
G02*
X144190000Y-100645000I0J-100000D01*
G01*
G37*
%TD.AperFunction*%
%TO.P,U1,98*%
%TO.N,Net-(U1-Pad98)*%
%TA.AperFunction,SMDPad,CuDef*%
G36*
G01*
X144190000Y-101295000D02*
X144190000Y-101495000D01*
G75*
G02*
X144090000Y-101595000I-100000J0D01*
G01*
X141790000Y-101595000D01*
G75*
G02*
X141690000Y-101495000I0J100000D01*
G01*
X141690000Y-101295000D01*
G75*
G02*
X141790000Y-101195000I100000J0D01*
G01*
X144090000Y-101195000D01*
G75*
G02*
X144190000Y-101295000I0J-100000D01*
G01*
G37*
%TD.AperFunction*%
%TO.P,U1,99*%
%TO.N,Net-(U1-Pad99)*%
%TA.AperFunction,SMDPad,CuDef*%
G36*
G01*
X144190000Y-101945000D02*
X144190000Y-102145000D01*
G75*
G02*
X144090000Y-102245000I-100000J0D01*
G01*
X141790000Y-102245000D01*
G75*
G02*
X141690000Y-102145000I0J100000D01*
G01*
X141690000Y-101945000D01*
G75*
G02*
X141790000Y-101845000I100000J0D01*
G01*
X144090000Y-101845000D01*
G75*
G02*
X144190000Y-101945000I0J-100000D01*
G01*
G37*
%TD.AperFunction*%
%TO.P,U1,100*%
%TO.N,Net-(U1-Pad100)*%
%TA.AperFunction,SMDPad,CuDef*%
G36*
G01*
X144190000Y-102595000D02*
X144190000Y-102795000D01*
G75*
G02*
X144090000Y-102895000I-100000J0D01*
G01*
X141790000Y-102895000D01*
G75*
G02*
X141690000Y-102795000I0J100000D01*
G01*
X141690000Y-102595000D01*
G75*
G02*
X141790000Y-102495000I100000J0D01*
G01*
X144090000Y-102495000D01*
G75*
G02*
X144190000Y-102595000I0J-100000D01*
G01*
G37*
%TD.AperFunction*%
%TD*%
D19*
%TO.P,J1,R1*%
%TO.N,/TP_TX+*%
X189230000Y-99060000D03*
D20*
%TO.P,J1,R2*%
%TO.N,/TP_TX-*%
X186690000Y-97790000D03*
%TO.P,J1,R3*%
%TO.N,/TP_RX+*%
X189230000Y-96520000D03*
%TO.P,J1,R4*%
%TO.N,Net-(C3-Pad1)*%
X186690000Y-95250000D03*
%TO.P,J1,R5*%
%TO.N,Net-(C4-Pad1)*%
X189230000Y-93980000D03*
%TO.P,J1,R6*%
%TO.N,/TP_RX-*%
X186690000Y-92710000D03*
%TO.P,J1,R7*%
%TO.N,Net-(J1-PadR7)*%
X189230000Y-91440000D03*
%TO.P,J1,R8*%
%TO.N,GND*%
X186690000Y-90170000D03*
D21*
%TO.P,J1,L1*%
%TO.N,VCC*%
X198950000Y-88290000D03*
%TO.P,J1,L2*%
%TO.N,Net-(J1-PadL2)*%
X200470000Y-90830000D03*
%TO.P,J1,L3*%
%TO.N,Net-(J1-PadL3)*%
X198950000Y-98400000D03*
%TO.P,J1,L4*%
%TO.N,VCC*%
X200470000Y-100940000D03*
D22*
%TO.P,J1,13*%
%TO.N,GND*%
X192520000Y-102390000D03*
X192520000Y-86840000D03*
%TD*%
D15*
%TO.P,RN4,1*%
%TO.N,/AUI*%
X156280000Y-75830000D03*
D16*
%TO.P,RN4,3*%
%TO.N,Net-(RN4-Pad3)*%
X157880000Y-75830000D03*
%TO.P,RN4,2*%
%TO.N,/BA16*%
X157080000Y-75830000D03*
D15*
%TO.P,RN4,4*%
%TO.N,Net-(RN4-Pad4)*%
X158680000Y-75830000D03*
D16*
%TO.P,RN4,7*%
%TO.N,Net-(RN4-Pad7)*%
X157080000Y-74030000D03*
D15*
%TO.P,RN4,8*%
%TO.N,GND*%
X156280000Y-74030000D03*
D16*
%TO.P,RN4,6*%
%TO.N,Net-(RN4-Pad6)*%
X157880000Y-74030000D03*
D15*
%TO.P,RN4,5*%
%TO.N,Net-(RN4-Pad5)*%
X158680000Y-74030000D03*
%TD*%
%TO.P,C9,1*%
%TO.N,VCC*%
%TA.AperFunction,SMDPad,CuDef*%
G36*
G01*
X167475000Y-118137500D02*
X167475000Y-119987500D01*
G75*
G02*
X167225000Y-120237500I-250000J0D01*
G01*
X166225000Y-120237500D01*
G75*
G02*
X165975000Y-119987500I0J250000D01*
G01*
X165975000Y-118137500D01*
G75*
G02*
X166225000Y-117887500I250000J0D01*
G01*
X167225000Y-117887500D01*
G75*
G02*
X167475000Y-118137500I0J-250000D01*
G01*
G37*
%TD.AperFunction*%
%TO.P,C9,2*%
%TO.N,GND*%
%TA.AperFunction,SMDPad,CuDef*%
G36*
G01*
X164225000Y-118137500D02*
X164225000Y-119987500D01*
G75*
G02*
X163975000Y-120237500I-250000J0D01*
G01*
X162975000Y-120237500D01*
G75*
G02*
X162725000Y-119987500I0J250000D01*
G01*
X162725000Y-118137500D01*
G75*
G02*
X162975000Y-117887500I250000J0D01*
G01*
X163975000Y-117887500D01*
G75*
G02*
X164225000Y-118137500I0J-250000D01*
G01*
G37*
%TD.AperFunction*%
%TD*%
%TO.P,C10,2*%
%TO.N,GND*%
%TA.AperFunction,SMDPad,CuDef*%
G36*
G01*
X100217000Y-117947000D02*
X100217000Y-119797000D01*
G75*
G02*
X99967000Y-120047000I-250000J0D01*
G01*
X98967000Y-120047000D01*
G75*
G02*
X98717000Y-119797000I0J250000D01*
G01*
X98717000Y-117947000D01*
G75*
G02*
X98967000Y-117697000I250000J0D01*
G01*
X99967000Y-117697000D01*
G75*
G02*
X100217000Y-117947000I0J-250000D01*
G01*
G37*
%TD.AperFunction*%
%TO.P,C10,1*%
%TO.N,VCC*%
%TA.AperFunction,SMDPad,CuDef*%
G36*
G01*
X103467000Y-117947000D02*
X103467000Y-119797000D01*
G75*
G02*
X103217000Y-120047000I-250000J0D01*
G01*
X102217000Y-120047000D01*
G75*
G02*
X101967000Y-119797000I0J250000D01*
G01*
X101967000Y-117947000D01*
G75*
G02*
X102217000Y-117697000I250000J0D01*
G01*
X103217000Y-117697000D01*
G75*
G02*
X103467000Y-117947000I0J-250000D01*
G01*
G37*
%TD.AperFunction*%
%TD*%
D23*
%TO.N,/A0*%
X114839750Y-116617750D03*
%TO.N,/A1*%
X116078000Y-116967000D03*
%TO.N,/A10*%
X130200387Y-122212101D03*
%TO.N,/A11*%
X138430000Y-119062500D03*
%TO.N,/A12*%
X139382500Y-120015000D03*
X130238500Y-88963500D03*
%TO.N,/A13*%
X142557500Y-120015000D03*
%TO.N,/A2*%
X117379750Y-117252750D03*
%TO.N,/A3*%
X118491000Y-117729000D03*
%TO.N,/A4*%
X119475250Y-118332250D03*
%TO.N,/A5*%
X120332500Y-119062500D03*
%TO.N,/A6*%
X121666000Y-119634000D03*
%TO.N,/A7*%
X123698000Y-120269000D03*
%TO.N,/A8*%
X139700000Y-116205000D03*
%TO.N,/A9*%
X139065000Y-117157500D03*
%TO.N,/~IOR*%
X155575000Y-120015000D03*
%TO.N,/~IOW*%
X156845000Y-120014996D03*
%TO.N,GND*%
X153987500Y-102870000D03*
X162877500Y-102870000D03*
X164147500Y-94297500D03*
X163512500Y-90170000D03*
X145732500Y-93980000D03*
X193040000Y-82550000D03*
X181927500Y-90487500D03*
X173672500Y-81279998D03*
X173672500Y-91439988D03*
X174307500Y-94615000D03*
X140335000Y-110490000D03*
X140335000Y-104140000D03*
X146000952Y-91073452D03*
X135572500Y-83820000D03*
X153669998Y-73977500D03*
X122491500Y-69215000D03*
X170180000Y-86360000D03*
X170180000Y-87630000D03*
X141605000Y-104140000D03*
X167005000Y-104140000D03*
X168275000Y-104140000D03*
X162242500Y-119380048D03*
X162242500Y-120650000D03*
X98171000Y-119062500D03*
X98171000Y-120332500D03*
X98171000Y-117792506D03*
%TO.N,VCC*%
X152082500Y-90170000D03*
X164147500Y-92392500D03*
X155892500Y-102870000D03*
X148907500Y-102870000D03*
X145732500Y-95567500D03*
X168275000Y-83820000D03*
X144145000Y-110490000D03*
X133667500Y-83820000D03*
X168275000Y-118110000D03*
X168275000Y-116840000D03*
X168275000Y-115570000D03*
X178752500Y-106680000D03*
X160020000Y-90170000D03*
X104013000Y-120142000D03*
X104013000Y-118871999D03*
X104013000Y-117602000D03*
X178308000Y-119380000D03*
X178308000Y-120396000D03*
X178308000Y-121412000D03*
X127381000Y-69342000D03*
%TO.N,/RSTDRV*%
X171132514Y-108267500D03*
%TO.N,/IRQ9*%
X147320000Y-102870000D03*
%TO.N,/~SMEMW*%
X159385000Y-120015001D03*
%TO.N,/~SMEMR*%
X158115000Y-120015000D03*
%TO.N,/IRQ5*%
X125730006Y-112712500D03*
%TO.N,/IRQ4*%
X124777500Y-113665000D03*
%TO.N,/IRQ3*%
X122555000Y-114617500D03*
%TO.N,/BA18*%
X151764998Y-81279998D03*
X158750000Y-80010000D03*
%TO.N,/BA17*%
X151130000Y-82232500D03*
X158750000Y-81280000D03*
%TO.N,/BA16*%
X150495003Y-83185003D03*
X156844989Y-82232489D03*
X130373437Y-76636563D03*
%TO.N,/BD6*%
X142627488Y-77175423D03*
X142557508Y-85407500D03*
%TO.N,/BD5*%
X133985000Y-93662500D03*
X135572500Y-94932500D03*
X143827500Y-77152500D03*
X143827500Y-86360000D03*
%TO.N,/BD3*%
X143827500Y-88582500D03*
X147320000Y-77152500D03*
%TO.N,/BD2*%
X146050000Y-89852494D03*
X148590000Y-77152500D03*
X133096000Y-106553000D03*
X130937000Y-106807000D03*
%TO.N,/BD1*%
X147002500Y-92075000D03*
X149860000Y-77152500D03*
X133721499Y-105273499D03*
X128778000Y-106807000D03*
%TO.N,/BD0*%
X147954999Y-92709999D03*
X151130000Y-77152500D03*
X134493000Y-102997000D03*
X128270000Y-102997000D03*
%TO.N,/BA19*%
X152400000Y-80327500D03*
X158750000Y-78740000D03*
%TO.N,/BA20*%
X153035000Y-79375000D03*
X158750000Y-77470000D03*
%TD*%
D24*
%TO.N,/A0*%
X115887500Y-115570000D02*
X115570000Y-115887500D01*
X146050000Y-109220000D02*
X137477500Y-109220000D01*
X148115000Y-107155000D02*
X146050000Y-109220000D01*
X148115000Y-104645000D02*
X148115000Y-107155000D01*
X114300000Y-117157500D02*
X114839750Y-116617750D01*
X109855000Y-120967500D02*
X113665000Y-117157500D01*
X113665000Y-117157500D02*
X114300000Y-117157500D01*
X131762500Y-114935000D02*
X126047500Y-114935000D01*
X126047500Y-114935000D02*
X125412500Y-115570000D01*
X125412500Y-115570000D02*
X115887500Y-115570000D01*
X137477500Y-109220000D02*
X131762500Y-114935000D01*
X105886250Y-122078750D02*
X106108500Y-121856500D01*
X104140001Y-122872499D02*
X104933750Y-122078750D01*
X104933750Y-122078750D02*
X105886250Y-122078750D01*
X106997500Y-120967500D02*
X109855000Y-120967500D01*
X104140000Y-123109985D02*
X104140000Y-124206000D01*
X104140001Y-122872499D02*
X104140000Y-123109985D01*
X106997500Y-120967500D02*
X106997500Y-120967500D01*
X106108500Y-121856500D02*
X106997500Y-120967500D01*
X114839750Y-116617750D02*
X115570000Y-115887500D01*
D25*
X101005955Y-101780999D02*
X98879001Y-101780999D01*
X98879001Y-101780999D02*
X97790000Y-102870000D01*
X102456954Y-100330000D02*
X101005955Y-101780999D01*
X110363000Y-100330000D02*
X102456954Y-100330000D01*
D24*
%TO.N,/A1*%
X114617500Y-118427500D02*
X116078000Y-116967000D01*
X113665000Y-118427500D02*
X114617500Y-118427500D01*
X110490000Y-121602500D02*
X113665000Y-118427500D01*
X107950000Y-121602500D02*
X110490000Y-121602500D01*
X106680001Y-122872499D02*
X107600750Y-121951750D01*
X116840000Y-116205000D02*
X116522500Y-116522500D01*
X126047500Y-116205000D02*
X116840000Y-116205000D01*
X126682500Y-115570000D02*
X126047500Y-116205000D01*
X132080000Y-115570000D02*
X126682500Y-115570000D01*
X145732500Y-111442500D02*
X136207500Y-111442500D01*
X136207500Y-111442500D02*
X132080000Y-115570000D01*
X149415000Y-107760000D02*
X145732500Y-111442500D01*
X149415000Y-104645000D02*
X149415000Y-107760000D01*
X106680000Y-123109985D02*
X106680000Y-124206000D01*
X106680001Y-122872499D02*
X106680000Y-123109985D01*
X107600750Y-121951750D02*
X107664250Y-121888250D01*
X107664250Y-121888250D02*
X107950000Y-121602500D01*
X116078000Y-116967000D02*
X116522500Y-116522500D01*
D25*
X98879001Y-99240999D02*
X97790000Y-100330000D01*
X100852721Y-99240999D02*
X98879001Y-99240999D01*
X102303720Y-97790000D02*
X100852721Y-99240999D01*
X110363000Y-97790000D02*
X102303720Y-97790000D01*
D24*
%TO.N,/A10*%
X129540001Y-122872487D02*
X130200387Y-122212101D01*
X141351002Y-118110000D02*
X138112500Y-118110000D01*
X141636751Y-117824251D02*
X141351002Y-118110000D01*
X147923249Y-117824251D02*
X141636751Y-117824251D01*
X156565000Y-109182500D02*
X147923249Y-117824251D01*
X156565000Y-104645000D02*
X156565000Y-109182500D01*
X138112500Y-118110000D02*
X134937500Y-121285000D01*
X130200387Y-122212101D02*
X131470399Y-122212101D01*
X131470399Y-122212101D02*
X132397500Y-121285000D01*
X134937500Y-121285000D02*
X132397500Y-121285000D01*
X129540000Y-123109985D02*
X129540000Y-124206000D01*
X129540001Y-122872487D02*
X129540000Y-123109985D01*
D25*
X101052888Y-95250000D02*
X100330000Y-95250000D01*
X102078389Y-94224499D02*
X101052888Y-95250000D01*
X124577499Y-94224499D02*
X102078389Y-94224499D01*
X125603000Y-95250000D02*
X124577499Y-94224499D01*
D24*
%TO.N,/A11*%
X141287500Y-119062500D02*
X138430000Y-119062500D01*
X141890749Y-118459251D02*
X141287500Y-119062500D01*
X157215000Y-104645000D02*
X157215000Y-109485000D01*
X148240749Y-118459251D02*
X141890749Y-118459251D01*
X157215000Y-109485000D02*
X148240749Y-118459251D01*
X132080000Y-122872500D02*
X133032500Y-121920000D01*
X133032500Y-121920000D02*
X135572500Y-121920000D01*
X135572500Y-121920000D02*
X138430000Y-119062500D01*
X132080000Y-122872500D02*
X132080000Y-124206000D01*
D25*
X101407630Y-90170000D02*
X100330000Y-90170000D01*
X102433131Y-89144499D02*
X101407630Y-90170000D01*
X124577499Y-89144499D02*
X102433131Y-89144499D01*
X125603000Y-90170000D02*
X124577499Y-89144499D01*
D24*
%TO.N,/A12*%
X142240000Y-119062500D02*
X141287500Y-120015000D01*
X141287500Y-120015000D02*
X139382500Y-120015000D01*
X157865000Y-104645000D02*
X157865000Y-109787500D01*
X157865000Y-109787500D02*
X148590000Y-119062500D01*
X148590000Y-119062500D02*
X142240000Y-119062500D01*
X134620000Y-122872500D02*
X134937500Y-122555000D01*
X136207500Y-122555000D02*
X138747500Y-120015000D01*
X134937500Y-122555000D02*
X136207500Y-122555000D01*
X138747500Y-120015000D02*
X139382500Y-120015000D01*
X134620000Y-122872500D02*
X134620000Y-124206000D01*
X130175000Y-88900000D02*
X130238500Y-88963500D01*
D25*
X111388501Y-81035501D02*
X110363000Y-80010000D01*
X125606243Y-81035501D02*
X111388501Y-81035501D01*
X130238500Y-85667758D02*
X125606243Y-81035501D01*
X130238500Y-88963500D02*
X130238500Y-85667758D01*
X98879001Y-81460999D02*
X97790000Y-82550000D01*
X100852721Y-81460999D02*
X98879001Y-81460999D01*
X102303720Y-80010000D02*
X100852721Y-81460999D01*
X110363000Y-80010000D02*
X102303720Y-80010000D01*
D24*
%TO.N,/A13*%
X140970000Y-121602500D02*
X142557500Y-120015000D01*
X138430000Y-121602500D02*
X140970000Y-121602500D01*
X137160001Y-122872499D02*
X138430000Y-121602500D01*
X142875000Y-119697500D02*
X142557500Y-120015000D01*
X148907500Y-119697500D02*
X142875000Y-119697500D01*
X158515000Y-110090000D02*
X148907500Y-119697500D01*
X158515000Y-104645000D02*
X158515000Y-110090000D01*
X137160000Y-123109985D02*
X137160000Y-124206000D01*
X137160001Y-122872499D02*
X137160000Y-123109985D01*
D25*
X101052888Y-82550000D02*
X100330000Y-82550000D01*
X102078389Y-81524499D02*
X101052888Y-82550000D01*
X110988499Y-81524499D02*
X102078389Y-81524499D01*
X112014000Y-82550000D02*
X110988499Y-81524499D01*
X125603000Y-82550000D02*
X112014000Y-82550000D01*
D24*
%TO.N,/A14*%
X149225000Y-120332500D02*
X159165000Y-110392500D01*
X159165000Y-110392500D02*
X159165000Y-104645000D01*
X143510000Y-120332500D02*
X149225000Y-120332500D01*
X140335000Y-122237500D02*
X141605000Y-122237500D01*
X141605000Y-122237500D02*
X143510000Y-120332500D01*
X139700001Y-122872499D02*
X140335000Y-122237500D01*
X139700000Y-123109985D02*
X139700000Y-124206000D01*
X139700001Y-122872499D02*
X139700000Y-123109985D01*
%TO.N,/A15*%
X159815000Y-110695000D02*
X159815000Y-104645000D01*
X149542500Y-120967500D02*
X159815000Y-110695000D01*
X144145000Y-120967500D02*
X149542500Y-120967500D01*
X142240001Y-122872499D02*
X144145000Y-120967500D01*
X142240000Y-123109985D02*
X142240000Y-124206000D01*
X142240001Y-122872499D02*
X142240000Y-123109985D01*
%TO.N,/A16*%
X146050000Y-121602500D02*
X144780001Y-122872499D01*
X149860000Y-121602500D02*
X146050000Y-121602500D01*
X160465000Y-110997500D02*
X149860000Y-121602500D01*
X160465000Y-104645000D02*
X160465000Y-110997500D01*
X144780000Y-123109985D02*
X144780000Y-124206000D01*
X144780001Y-122872499D02*
X144780000Y-123109985D01*
%TO.N,/A17*%
X150177500Y-122237500D02*
X161115000Y-111300000D01*
X147955000Y-122237500D02*
X150177500Y-122237500D01*
X161115000Y-111300000D02*
X161115000Y-104645000D01*
X147320001Y-122872499D02*
X147955000Y-122237500D01*
X147320000Y-123109985D02*
X147320000Y-124206000D01*
X147320001Y-122872499D02*
X147320000Y-123109985D01*
%TO.N,/A18*%
X161765000Y-111602500D02*
X161765000Y-104645000D01*
X149860001Y-123507499D02*
X161765000Y-111602500D01*
%TO.N,/A19*%
X152400000Y-123109985D02*
X152400000Y-124206000D01*
X152400001Y-121919999D02*
X152400000Y-123109985D01*
X162415000Y-111905000D02*
X152400001Y-121919999D01*
X162415000Y-104645000D02*
X162415000Y-111905000D01*
%TO.N,/A2*%
X114935000Y-119697500D02*
X117379750Y-117252750D01*
X109220001Y-122872499D02*
X109855000Y-122237500D01*
X109855000Y-122237500D02*
X111125000Y-122237500D01*
X111125000Y-122237500D02*
X111601250Y-121761250D01*
X113665000Y-119697500D02*
X114935000Y-119697500D01*
X117792500Y-116840000D02*
X117475000Y-117157500D01*
X127317500Y-116205000D02*
X126682500Y-116840000D01*
X126682500Y-116840000D02*
X117792500Y-116840000D01*
X132397500Y-116205000D02*
X127317500Y-116205000D01*
X136525000Y-112077500D02*
X132397500Y-116205000D01*
X146050000Y-112077500D02*
X136525000Y-112077500D01*
X150065000Y-108062500D02*
X146050000Y-112077500D01*
X150065000Y-104645000D02*
X150065000Y-108062500D01*
X109220000Y-123109985D02*
X109220000Y-124206000D01*
X109220001Y-122872499D02*
X109220000Y-123109985D01*
X113569750Y-119792750D02*
X113665000Y-119697500D01*
X111601250Y-121761250D02*
X113569750Y-119792750D01*
X117379750Y-117252750D02*
X117475000Y-117157500D01*
D25*
X98879001Y-96700999D02*
X97790000Y-97790000D01*
X100784001Y-96700999D02*
X98879001Y-96700999D01*
X102235000Y-95250000D02*
X100784001Y-96700999D01*
X110363000Y-95250000D02*
X102235000Y-95250000D01*
D24*
%TO.N,/A3*%
X111760001Y-122872499D02*
X112744250Y-121888250D01*
X115252500Y-120967500D02*
X115252500Y-120967500D01*
X113665000Y-120967500D02*
X115252500Y-120967500D01*
X127317500Y-117475000D02*
X118745000Y-117475000D01*
X132715000Y-116840000D02*
X127952500Y-116840000D01*
X136842500Y-112712500D02*
X132715000Y-116840000D01*
X118745000Y-117475000D02*
X118491000Y-117729000D01*
X146367500Y-112712500D02*
X136842500Y-112712500D01*
X150715000Y-108365000D02*
X146367500Y-112712500D01*
X127952500Y-116840000D02*
X127317500Y-117475000D01*
X150715000Y-104645000D02*
X150715000Y-108365000D01*
X111760000Y-123109985D02*
X111760000Y-124206000D01*
X111760001Y-122872499D02*
X111760000Y-123109985D01*
X115252500Y-120967500D02*
X118427500Y-117792500D01*
X112744250Y-121888250D02*
X113665000Y-120967500D01*
X118491000Y-117729000D02*
X118427500Y-117792500D01*
D25*
X100852721Y-94160999D02*
X98879001Y-94160999D01*
X102303720Y-92710000D02*
X100852721Y-94160999D01*
X98879001Y-94160999D02*
X97790000Y-95250000D01*
X110363000Y-92710000D02*
X102303720Y-92710000D01*
D24*
%TO.N,/A4*%
X114935000Y-122237500D02*
X114300001Y-122872499D01*
X115570000Y-122237500D02*
X114935000Y-122237500D01*
X119380000Y-118427500D02*
X116808250Y-120999250D01*
X127952500Y-118110000D02*
X119697500Y-118110000D01*
X128587500Y-117475000D02*
X127952500Y-118110000D01*
X119697500Y-118110000D02*
X119475250Y-118332250D01*
X133032500Y-117475000D02*
X128587500Y-117475000D01*
X137160000Y-113347500D02*
X133032500Y-117475000D01*
X151365000Y-108667500D02*
X146685000Y-113347500D01*
X146685000Y-113347500D02*
X137160000Y-113347500D01*
X151365000Y-104645000D02*
X151365000Y-108667500D01*
X114300000Y-123109985D02*
X114300000Y-124206000D01*
X114300001Y-122872499D02*
X114300000Y-123109985D01*
X116808250Y-120999250D02*
X116109750Y-121697750D01*
X116109750Y-121697750D02*
X115570000Y-122237500D01*
X119475250Y-118332250D02*
X119380000Y-118427500D01*
D25*
X98879001Y-91620999D02*
X97790000Y-92710000D01*
X100598697Y-91620999D02*
X98879001Y-91620999D01*
X102049696Y-90170000D02*
X100598697Y-91620999D01*
X110363000Y-90170000D02*
X102049696Y-90170000D01*
D24*
%TO.N,/A5*%
X120332500Y-119380000D02*
X120332500Y-119062500D01*
X116840001Y-122872499D02*
X118078250Y-121634250D01*
X137477500Y-113982500D02*
X147002500Y-113982500D01*
X147002500Y-113982500D02*
X152015000Y-108970000D01*
X133350000Y-118110000D02*
X137477500Y-113982500D01*
X129182813Y-118110000D02*
X133350000Y-118110000D01*
X152015000Y-108970000D02*
X152015000Y-104645000D01*
X128547813Y-118745000D02*
X129182813Y-118110000D01*
X120650000Y-118745000D02*
X128547813Y-118745000D01*
X120332500Y-119062500D02*
X120650000Y-118745000D01*
X116840000Y-123109985D02*
X116840000Y-124206000D01*
X116840001Y-122872499D02*
X116840000Y-123109985D01*
X118776750Y-120935750D02*
X120332500Y-119380000D01*
X118078250Y-121634250D02*
X118776750Y-120935750D01*
X120332500Y-119062500D02*
X120332500Y-119062500D01*
D25*
X98879001Y-89080999D02*
X97790000Y-90170000D01*
X100490723Y-89080999D02*
X98879001Y-89080999D01*
X101941722Y-87630000D02*
X100490723Y-89080999D01*
X110363000Y-87630000D02*
X101941722Y-87630000D01*
D24*
%TO.N,/A6*%
X119380001Y-121919999D02*
X119634000Y-121666000D01*
X152665000Y-109272500D02*
X152665000Y-104645000D01*
X147320000Y-114617500D02*
X152665000Y-109272500D01*
X137795000Y-114617500D02*
X147320000Y-114617500D01*
X129222500Y-119380000D02*
X129857500Y-118745000D01*
X121920000Y-119380000D02*
X129222500Y-119380000D01*
X133667500Y-118745000D02*
X137795000Y-114617500D01*
X129857500Y-118745000D02*
X133667500Y-118745000D01*
X121285000Y-120015000D02*
X121666000Y-119634000D01*
X119380000Y-123109985D02*
X119380000Y-124206000D01*
X119380001Y-121919999D02*
X119380000Y-123109985D01*
X120332500Y-120967500D02*
X121285000Y-120015000D01*
X119634000Y-121666000D02*
X120332500Y-120967500D01*
X121666000Y-119634000D02*
X121920000Y-119380000D01*
D25*
X98879001Y-86540999D02*
X97790000Y-87630000D01*
X100852721Y-86540999D02*
X98879001Y-86540999D01*
X102303720Y-85090000D02*
X100852721Y-86540999D01*
X110363000Y-85090000D02*
X102303720Y-85090000D01*
D24*
%TO.N,/A7*%
X121920001Y-122113659D02*
X122270830Y-121762830D01*
X153315000Y-109575000D02*
X153315000Y-104645000D01*
X147637500Y-115252500D02*
X153315000Y-109575000D01*
X133985000Y-119380000D02*
X138112500Y-115252500D01*
X130492500Y-119380000D02*
X133985000Y-119380000D01*
X138112500Y-115252500D02*
X147637500Y-115252500D01*
X129857500Y-120015000D02*
X130492500Y-119380000D01*
X124018660Y-120015000D02*
X129857500Y-120015000D01*
X123825000Y-120208660D02*
X124018660Y-120015000D01*
X121920000Y-123109985D02*
X121920000Y-124206000D01*
X121920001Y-122113659D02*
X121920000Y-123109985D01*
X122270830Y-121762830D02*
X123825000Y-120208660D01*
D25*
X100657001Y-84000999D02*
X98879001Y-84000999D01*
X98879001Y-84000999D02*
X97790000Y-85090000D01*
X102108000Y-82550000D02*
X100657001Y-84000999D01*
X110363000Y-82550000D02*
X102108000Y-82550000D01*
D24*
%TO.N,/A8*%
X147637500Y-116205000D02*
X139700000Y-116205000D01*
X154615000Y-109227500D02*
X147637500Y-116205000D01*
X154615000Y-104645000D02*
X154615000Y-109227500D01*
X134302500Y-120015000D02*
X138112500Y-116205000D01*
X131127500Y-120015000D02*
X134302500Y-120015000D01*
X130492500Y-120650000D02*
X131127500Y-120015000D01*
X126682500Y-120650000D02*
X130492500Y-120650000D01*
X138112500Y-116205000D02*
X139700000Y-116205000D01*
X124460001Y-122872499D02*
X126682500Y-120650000D01*
X124460000Y-123109985D02*
X124460000Y-124206000D01*
X124460001Y-122872499D02*
X124460000Y-123109985D01*
D25*
X101179889Y-85090000D02*
X100330000Y-85090000D01*
X124577499Y-84064499D02*
X102205390Y-84064499D01*
X102205390Y-84064499D02*
X101179889Y-85090000D01*
X125603000Y-85090000D02*
X124577499Y-84064499D01*
D24*
%TO.N,/A9*%
X147637500Y-117157500D02*
X139065000Y-117157500D01*
X155265000Y-109530000D02*
X147637500Y-117157500D01*
X155265000Y-104645000D02*
X155265000Y-109530000D01*
X138112500Y-117157500D02*
X139065000Y-117157500D01*
X134620000Y-120650000D02*
X138112500Y-117157500D01*
X131762500Y-120650000D02*
X134620000Y-120650000D01*
X128587500Y-121285000D02*
X131127500Y-121285000D01*
X131127500Y-121285000D02*
X131762500Y-120650000D01*
X127000001Y-122872499D02*
X128587500Y-121285000D01*
X127000000Y-123109985D02*
X127000000Y-124206000D01*
X127000001Y-122872499D02*
X127000000Y-123109985D01*
D25*
X101179888Y-87630000D02*
X100330000Y-87630000D01*
X102205389Y-86604499D02*
X101179888Y-87630000D01*
X124577499Y-86604499D02*
X102205389Y-86604499D01*
X125603000Y-87630000D02*
X124577499Y-86604499D01*
D24*
%TO.N,/AEN*%
X170277500Y-100745000D02*
X166065000Y-100745000D01*
X172085000Y-108585000D02*
X172085000Y-102552500D01*
X172085000Y-102552500D02*
X170277500Y-100745000D01*
X164465000Y-116205000D02*
X172085000Y-108585000D01*
X162877500Y-116205000D02*
X164465000Y-116205000D01*
X160337500Y-118745000D02*
X162877500Y-116205000D01*
X160337500Y-120332500D02*
X160337500Y-118745000D01*
X156686250Y-121126250D02*
X159543750Y-121126250D01*
X159543750Y-121126250D02*
X160337500Y-120332500D01*
X154940001Y-122872499D02*
X156686250Y-121126250D01*
X154940000Y-123109985D02*
X154940000Y-124206000D01*
X154940001Y-122872499D02*
X154940000Y-123109985D01*
%TO.N,/D0*%
X173355000Y-101917500D02*
X170882500Y-99445000D01*
X173355000Y-114754340D02*
X173355000Y-101917500D01*
X170882500Y-99445000D02*
X166065000Y-99445000D01*
X163821704Y-120650000D02*
X167459340Y-120650000D01*
X162560000Y-121911704D02*
X163821704Y-120650000D01*
X160980796Y-121911704D02*
X162560000Y-121911704D01*
X160020001Y-122872499D02*
X160980796Y-121911704D01*
X167459340Y-120650000D02*
X173355000Y-114754340D01*
X160020000Y-123109985D02*
X160020000Y-124206000D01*
X160020001Y-122872499D02*
X160020000Y-123109985D01*
%TO.N,/D1*%
X168116250Y-121285000D02*
X164147500Y-121285000D01*
X164147500Y-121285000D02*
X162560001Y-122872499D01*
X173990000Y-115411250D02*
X168116250Y-121285000D01*
X173990000Y-101600000D02*
X173990000Y-115411250D01*
X171185000Y-98795000D02*
X173990000Y-101600000D01*
X166065000Y-98795000D02*
X171185000Y-98795000D01*
X162560000Y-123109985D02*
X162560000Y-124206000D01*
X162560001Y-122872499D02*
X162560000Y-123109985D01*
%TO.N,/D2*%
X171487500Y-98145000D02*
X166065000Y-98145000D01*
X174625000Y-115887500D02*
X174625000Y-101282500D01*
X168592500Y-121920000D02*
X174625000Y-115887500D01*
X174625000Y-101282500D02*
X171487500Y-98145000D01*
X166052500Y-121920000D02*
X168592500Y-121920000D01*
X165100001Y-122872499D02*
X166052500Y-121920000D01*
X165100000Y-123109985D02*
X165100000Y-124206000D01*
X165100001Y-122872499D02*
X165100000Y-123109985D01*
%TO.N,/D3*%
X169227500Y-122555000D02*
X175260000Y-116522500D01*
X171790000Y-97495000D02*
X166065000Y-97495000D01*
X175260000Y-100965000D02*
X171790000Y-97495000D01*
X167957500Y-122555000D02*
X169227500Y-122555000D01*
X167640001Y-122872499D02*
X167957500Y-122555000D01*
X175260000Y-116522500D02*
X175260000Y-100965000D01*
X167640000Y-123109985D02*
X167640000Y-124206000D01*
X167640001Y-122872499D02*
X167640000Y-123109985D01*
%TO.N,/D4*%
X175895000Y-117157500D02*
X170180001Y-122872499D01*
X175895000Y-100647500D02*
X175895000Y-117157500D01*
X172092500Y-96845000D02*
X175895000Y-100647500D01*
X166065000Y-96845000D02*
X172092500Y-96845000D01*
X170180000Y-123109985D02*
X170180000Y-124206000D01*
X170180001Y-122872499D02*
X170180000Y-123109985D01*
%TO.N,/D5*%
X172395000Y-96195000D02*
X166065000Y-96195000D01*
X176530000Y-100330000D02*
X172395000Y-96195000D01*
X176530000Y-117348000D02*
X176530000Y-100330000D01*
X172974000Y-120904000D02*
X176530000Y-117348000D01*
X172974000Y-123952000D02*
X172720000Y-124206000D01*
X172974000Y-120904000D02*
X172974000Y-123952000D01*
%TO.N,/D6*%
X172697500Y-95545000D02*
X166065000Y-95545000D01*
X177165000Y-100012500D02*
X172697500Y-95545000D01*
X177292000Y-117856000D02*
X177165000Y-100012500D01*
X175768000Y-119380000D02*
X177292000Y-117856000D01*
X175768000Y-123698000D02*
X175768000Y-119380000D01*
X175260000Y-124206000D02*
X175768000Y-123698000D01*
%TO.N,/D7*%
X173000000Y-94895000D02*
X166065000Y-94895000D01*
X177800000Y-99695000D02*
X173000000Y-94895000D01*
X177161840Y-118905245D02*
X177161840Y-123567840D01*
X177864659Y-118202426D02*
X177161840Y-118905245D01*
X177161840Y-123567840D02*
X177800000Y-124206000D01*
X177800000Y-109247043D02*
X177864659Y-118202426D01*
X177800000Y-99695000D02*
X177800000Y-109247043D01*
%TO.N,/~IOR*%
X163715000Y-111557500D02*
X163715000Y-104645000D01*
X155575000Y-119697500D02*
X163715000Y-111557500D01*
X155575000Y-120015000D02*
X155575000Y-119697500D01*
%TO.N,/~IOW*%
X164365000Y-111860000D02*
X164365000Y-104645000D01*
X156845000Y-119380000D02*
X164365000Y-111860000D01*
X156845000Y-120014996D02*
X156845000Y-119380000D01*
%TO.N,GND*%
X153965000Y-102892500D02*
X153987500Y-102870000D01*
X153965000Y-104645000D02*
X153965000Y-102892500D01*
X163065000Y-103057500D02*
X162877500Y-102870000D01*
X163065000Y-104645000D02*
X163065000Y-103057500D01*
X164200000Y-94245000D02*
X164147500Y-94297500D01*
X166065000Y-94245000D02*
X164200000Y-94245000D01*
X163715000Y-89967500D02*
X163512500Y-90170000D01*
X163715000Y-88395000D02*
X163715000Y-89967500D01*
X153987500Y-102870000D02*
X153987500Y-101600000D01*
X153987500Y-101600000D02*
X162877500Y-101600000D01*
X162877500Y-101600000D02*
X162877500Y-102870000D01*
X162877500Y-101600000D02*
X162877500Y-94297500D01*
X162877500Y-94297500D02*
X164147500Y-94297500D01*
X162877500Y-94297500D02*
X162877500Y-90170000D01*
X162877500Y-90170000D02*
X163512500Y-90170000D01*
X153987500Y-101600000D02*
X153987500Y-93980000D01*
X148907500Y-93980000D02*
X145732500Y-93980000D01*
X153987500Y-93980000D02*
X148907500Y-93980000D01*
X191680000Y-82550000D02*
X193040000Y-82550000D01*
X181927500Y-91847500D02*
X181927500Y-90487500D01*
X173582500Y-91440000D02*
X173672488Y-91440000D01*
X173672488Y-91440000D02*
X173672500Y-91439988D01*
X163715000Y-87520000D02*
X163715000Y-84887500D01*
X166052500Y-82550000D02*
X166777500Y-82550000D01*
X163715000Y-84887500D02*
X166052500Y-82550000D01*
X166777500Y-82550000D02*
X166777500Y-81825000D01*
X167322502Y-81279998D02*
X173672500Y-81279998D01*
X166777500Y-81825000D02*
X167322502Y-81279998D01*
X173672500Y-81279998D02*
X178434998Y-81279998D01*
X178434998Y-81279998D02*
X179705000Y-82550000D01*
X179705000Y-82550000D02*
X179705000Y-90487500D01*
X178752512Y-91439988D02*
X173672500Y-91439988D01*
X179705000Y-90487500D02*
X178752512Y-91439988D01*
X173937500Y-94245000D02*
X166940000Y-94245000D01*
X174307500Y-94615000D02*
X173937500Y-94245000D01*
D26*
X141377500Y-110490000D02*
X140335000Y-110490000D01*
D27*
X128925839Y-111769501D02*
X130482999Y-111769501D01*
X128916338Y-111760000D02*
X128925839Y-111769501D01*
X127635000Y-111760000D02*
X128916338Y-111760000D01*
D26*
X140335000Y-104140000D02*
X138112500Y-104140000D01*
D27*
X130482999Y-111769501D02*
X131127500Y-111125000D01*
D24*
X136247500Y-103545000D02*
X137477500Y-104775000D01*
X136247500Y-102870000D02*
X136247500Y-103545000D01*
D26*
X137477500Y-104775000D02*
X131127500Y-111125000D01*
X138112500Y-104140000D02*
X137477500Y-104775000D01*
D24*
X146685000Y-101600000D02*
X153987500Y-101600000D01*
X144145000Y-104140000D02*
X146685000Y-101600000D01*
X148907500Y-93980000D02*
X148907500Y-91122500D01*
X148907500Y-91122500D02*
X148858452Y-91073452D01*
X148858452Y-91073452D02*
X146000952Y-91073452D01*
D27*
X173672500Y-90260000D02*
X173582500Y-90170000D01*
X173672500Y-91439988D02*
X173672500Y-90260000D01*
X173672500Y-82460000D02*
X173582500Y-82550000D01*
X173672500Y-81279998D02*
X173672500Y-82460000D01*
D24*
X136525000Y-84772500D02*
X135572500Y-83820000D01*
X136525000Y-86325000D02*
X136525000Y-84772500D01*
D27*
X135572500Y-82640000D02*
X135482500Y-82550000D01*
X135572500Y-83820000D02*
X135572500Y-82640000D01*
D24*
X145347500Y-93595000D02*
X145732500Y-93980000D01*
X142940000Y-93595000D02*
X145347500Y-93595000D01*
X145429404Y-91645000D02*
X146000952Y-91073452D01*
X142940000Y-91645000D02*
X145429404Y-91645000D01*
D27*
X153669998Y-73977500D02*
X155257500Y-73977500D01*
D24*
X156227500Y-73977500D02*
X156280000Y-74030000D01*
X155257500Y-73977500D02*
X156227500Y-73977500D01*
D27*
X123851500Y-69215000D02*
X122491500Y-69215000D01*
D24*
X163512500Y-90170000D02*
X164465000Y-90170000D01*
X164465000Y-90170000D02*
X167005000Y-87630000D01*
X167005000Y-87630000D02*
X167957500Y-86677500D01*
X167957500Y-86677500D02*
X168275000Y-86360000D01*
X168275000Y-86360000D02*
X170180000Y-86360000D01*
X141605000Y-104140000D02*
X144145000Y-104140000D01*
X162877500Y-102870000D02*
X164465000Y-102870000D01*
X164465000Y-102870000D02*
X165735000Y-104140000D01*
X165735000Y-104140000D02*
X167005000Y-104140000D01*
X167005000Y-104140000D02*
X168275000Y-104140000D01*
D28*
X127758840Y-111883840D02*
X128406501Y-111883840D01*
X137845246Y-104373840D02*
X131110793Y-111108293D01*
X140101160Y-104373840D02*
X140335000Y-104140000D01*
X137845246Y-104373840D02*
X140101160Y-104373840D01*
D24*
X111760000Y-113030000D02*
X114300000Y-110490000D01*
X114300000Y-110490000D02*
X115570000Y-111760000D01*
X115570000Y-111760000D02*
X125095000Y-111760000D01*
X111760000Y-113030000D02*
X110490000Y-114300000D01*
X105410000Y-113030000D02*
X106680000Y-114300000D01*
X106680000Y-114300000D02*
X107950000Y-113030000D01*
X107950000Y-113030000D02*
X109220000Y-114300000D01*
X110490000Y-114300000D02*
X109220000Y-114300000D01*
D26*
X162242500Y-120650000D02*
X162242500Y-119380048D01*
X162242500Y-120650000D02*
X162560000Y-120650000D01*
X163475000Y-119735000D02*
X163475000Y-119062500D01*
X162560000Y-120650000D02*
X163475000Y-119735000D01*
X162560048Y-119062500D02*
X162242500Y-119380048D01*
X163475000Y-119062500D02*
X162560048Y-119062500D01*
X130355999Y-111896501D02*
X127771501Y-111896501D01*
X131127500Y-111125000D02*
X130355999Y-111896501D01*
X135482500Y-82550000D02*
X135482500Y-82400344D01*
%TO.N,VCC*%
X103505000Y-119062500D02*
X103505000Y-120332500D01*
X103505000Y-119062500D02*
X103505000Y-117792506D01*
D24*
X132715000Y-86325000D02*
X132715000Y-87630000D01*
X132715000Y-87630000D02*
X133032500Y-87947500D01*
X133032500Y-87947500D02*
X134937500Y-87947500D01*
X135255000Y-87630000D02*
X135255000Y-86325000D01*
X134937500Y-87947500D02*
X135255000Y-87630000D01*
X152015000Y-90102500D02*
X152082500Y-90170000D01*
X152015000Y-88395000D02*
X152015000Y-90102500D01*
X164245000Y-92295000D02*
X164147500Y-92392500D01*
X166065000Y-92295000D02*
X164245000Y-92295000D01*
X155915000Y-104645000D02*
X155915000Y-102892500D01*
X155915000Y-102892500D02*
X155892500Y-102870000D01*
D26*
X168502500Y-83592500D02*
X168275000Y-83820000D01*
X168502500Y-82550000D02*
X168502500Y-83592500D01*
D24*
X148740000Y-103037500D02*
X148907500Y-102870000D01*
X148740000Y-105520000D02*
X148740000Y-103037500D01*
X148740000Y-107482500D02*
X148740000Y-105520000D01*
X145732500Y-110490000D02*
X148740000Y-107482500D01*
X143102500Y-110490000D02*
X144145000Y-110490000D01*
X132715000Y-84772500D02*
X133667500Y-83820000D01*
X132715000Y-86325000D02*
X132715000Y-84772500D01*
D27*
X133667500Y-82640000D02*
X133757500Y-82550000D01*
X133667500Y-83820000D02*
X133667500Y-82640000D01*
D24*
X145710000Y-95545000D02*
X145732500Y-95567500D01*
X142940000Y-95545000D02*
X145710000Y-95545000D01*
X199285178Y-100940000D02*
X200470000Y-100940000D01*
X197485000Y-89958544D02*
X197485000Y-99139822D01*
X198950000Y-88493544D02*
X197485000Y-89958544D01*
X197485000Y-99139822D02*
X199285178Y-100940000D01*
X198950000Y-88290000D02*
X198950000Y-88493544D01*
X193545178Y-106680000D02*
X199285178Y-100940000D01*
X178752500Y-106680000D02*
X193545178Y-106680000D01*
X144145000Y-110490000D02*
X145732500Y-110490000D01*
X160465000Y-88395000D02*
X160465000Y-89725000D01*
X160465000Y-89725000D02*
X160020000Y-90170000D01*
D26*
X168275000Y-116840000D02*
X168275000Y-115570000D01*
X168275000Y-117512500D02*
X168275000Y-117475000D01*
X166725000Y-119062500D02*
X168275000Y-117512500D01*
X168275000Y-117475000D02*
X168275000Y-116840000D01*
X168275000Y-118110000D02*
X168275000Y-117475000D01*
X167322500Y-119062500D02*
X168275000Y-118110000D01*
X166725000Y-119062500D02*
X167322500Y-119062500D01*
D28*
X175260000Y-129286000D02*
X175260000Y-128524000D01*
X175260000Y-128524000D02*
X176784000Y-127000000D01*
X176784000Y-127000000D02*
X182118000Y-127000000D01*
X182118000Y-127000000D02*
X183642000Y-125476000D01*
X183642000Y-125476000D02*
X183642000Y-122936000D01*
X182118000Y-121412000D02*
X178308000Y-121412000D01*
X183642000Y-122936000D02*
X182118000Y-121412000D01*
X178308000Y-121412000D02*
X178308000Y-120396000D01*
X178308000Y-120396000D02*
X178308000Y-119380000D01*
D26*
X103505000Y-119062500D02*
X102717000Y-118872000D01*
X125576500Y-72363500D02*
X125603000Y-72390000D01*
X125576500Y-69215000D02*
X125576500Y-72363500D01*
X125703500Y-69342000D02*
X125576500Y-69215000D01*
X127381000Y-69342000D02*
X125703500Y-69342000D01*
D24*
%TO.N,/RSTDRV*%
X166065000Y-101395000D02*
X169975000Y-101395000D01*
X169975000Y-101395000D02*
X171132514Y-102552514D01*
X171132514Y-102552514D02*
X171132514Y-108267500D01*
%TO.N,/IRQ9*%
X147465000Y-103015000D02*
X147320000Y-102870000D01*
X147465000Y-105520000D02*
X147465000Y-103015000D01*
%TO.N,/~SMEMW*%
X169672500Y-102045000D02*
X166065000Y-102045000D01*
X170180000Y-102552500D02*
X169672500Y-102045000D01*
X164147501Y-115252500D02*
X170180000Y-109220001D01*
X162877500Y-115252500D02*
X164147501Y-115252500D01*
X159385000Y-118745000D02*
X162877500Y-115252500D01*
X170180000Y-109220001D02*
X170180000Y-102552500D01*
X159385000Y-120015001D02*
X159385000Y-118745000D01*
D25*
X102205390Y-73904499D02*
X101179889Y-74930000D01*
X101179889Y-74930000D02*
X100330000Y-74930000D01*
X110855241Y-73904499D02*
X102205390Y-73904499D01*
X111880742Y-74930000D02*
X110855241Y-73904499D01*
X125603000Y-74930000D02*
X111880742Y-74930000D01*
D24*
%TO.N,/~SMEMR*%
X169545000Y-103187500D02*
X169052500Y-102695000D01*
X169545000Y-108585000D02*
X169545000Y-103187500D01*
X163830000Y-114300000D02*
X169545000Y-108585000D01*
X162877500Y-114300000D02*
X163830000Y-114300000D01*
X169052500Y-102695000D02*
X166940000Y-102695000D01*
X158115000Y-119062500D02*
X162877500Y-114300000D01*
X158115000Y-120015000D02*
X158115000Y-119062500D01*
D25*
X101052888Y-92710000D02*
X100330000Y-92710000D01*
X102078389Y-91684499D02*
X101052888Y-92710000D01*
X124577499Y-91684499D02*
X102078389Y-91684499D01*
X125603000Y-92710000D02*
X124577499Y-91684499D01*
D24*
%TO.N,/IRQ5*%
X126047506Y-113030000D02*
X125730006Y-112712500D01*
X130810000Y-113030000D02*
X126047506Y-113030000D01*
X138320000Y-105520000D02*
X130810000Y-113030000D01*
X145515000Y-105520000D02*
X138320000Y-105520000D01*
%TO.N,/IRQ4*%
X131127500Y-113665000D02*
X124777500Y-113665000D01*
X136842500Y-107950000D02*
X131127500Y-113665000D01*
X145415000Y-107950000D02*
X136842500Y-107950000D01*
X146165000Y-107200000D02*
X145415000Y-107950000D01*
X146165000Y-105520000D02*
X146165000Y-107200000D01*
%TO.N,/IRQ3*%
X125095000Y-114617500D02*
X122555000Y-114617500D01*
X131445000Y-114300000D02*
X125412500Y-114300000D01*
X137160000Y-108585000D02*
X131445000Y-114300000D01*
X145732500Y-108585000D02*
X137160000Y-108585000D01*
X146815000Y-107502500D02*
X145732500Y-108585000D01*
X125412500Y-114300000D02*
X125095000Y-114617500D01*
X146815000Y-105520000D02*
X146815000Y-107502500D01*
%TO.N,/IOCHRDY*%
X172720000Y-109213160D02*
X172720000Y-102235000D01*
X162877500Y-117157500D02*
X164775660Y-117157500D01*
X170580000Y-100095000D02*
X166065000Y-100095000D01*
X172720000Y-102235000D02*
X170580000Y-100095000D01*
X160972500Y-119062500D02*
X162877500Y-117157500D01*
X160020000Y-121920000D02*
X160972500Y-120967500D01*
X160972500Y-120967500D02*
X160972500Y-119062500D01*
X158432500Y-121920000D02*
X160020000Y-121920000D01*
X164775660Y-117157500D02*
X172720000Y-109213160D01*
X157480001Y-122872499D02*
X158432500Y-121920000D01*
X157480000Y-123109985D02*
X157480000Y-124206000D01*
X157480001Y-122872499D02*
X157480000Y-123109985D01*
%TO.N,/~IOCS16*%
X140847500Y-100095000D02*
X138072500Y-102870000D01*
X142940000Y-100095000D02*
X140847500Y-100095000D01*
%TO.N,Net-(C1-Pad2)*%
X175795940Y-88800940D02*
X177800000Y-88800940D01*
X169052500Y-90345000D02*
X171132500Y-88265000D01*
X166940000Y-90345000D02*
X169052500Y-90345000D01*
X175260000Y-88265000D02*
X175795940Y-88800940D01*
X173672500Y-86400000D02*
X173632500Y-86360000D01*
X173672500Y-88265000D02*
X173672500Y-86400000D01*
X173672500Y-88265000D02*
X175260000Y-88265000D01*
X171767500Y-88265000D02*
X171767500Y-90080000D01*
X171132500Y-88265000D02*
X171767500Y-88265000D01*
X171767500Y-90080000D02*
X171857500Y-90170000D01*
X171767500Y-88265000D02*
X173672500Y-88265000D01*
%TO.N,Net-(C2-Pad2)*%
X172085000Y-86320000D02*
X172125000Y-86360000D01*
X175795940Y-83919060D02*
X177800000Y-83919060D01*
X175260000Y-84455000D02*
X175795940Y-83919060D01*
X171767500Y-84455000D02*
X175260000Y-84455000D01*
X171767500Y-82640000D02*
X171857500Y-82550000D01*
X171767500Y-84455000D02*
X171767500Y-82640000D01*
X171767500Y-86320000D02*
X171807500Y-86360000D01*
X171767500Y-84455000D02*
X171767500Y-86320000D01*
X170815000Y-84455000D02*
X171767500Y-84455000D01*
X170497500Y-84772500D02*
X170815000Y-84455000D01*
X165100000Y-84772500D02*
X170497500Y-84772500D01*
X164365000Y-85507500D02*
X165100000Y-84772500D01*
X164365000Y-87520000D02*
X164365000Y-85507500D01*
%TO.N,Net-(C3-Pad1)*%
X183605000Y-95250000D02*
X181927500Y-93572500D01*
X186690000Y-95250000D02*
X183605000Y-95250000D01*
%TO.N,Net-(C4-Pad1)*%
X189955000Y-87720000D02*
X189955000Y-82550000D01*
X190817500Y-88582500D02*
X189955000Y-87720000D01*
X190817500Y-92392500D02*
X190817500Y-88582500D01*
X189230000Y-93980000D02*
X190817500Y-92392500D01*
%TO.N,/TP_RX-*%
X184825000Y-90845000D02*
X184825000Y-82550000D01*
X186690000Y-92710000D02*
X184825000Y-90845000D01*
X159815000Y-85612500D02*
X159815000Y-88395000D01*
X160337500Y-85090000D02*
X159815000Y-85612500D01*
X162242500Y-85090000D02*
X160337500Y-85090000D01*
X167005000Y-80327500D02*
X162242500Y-85090000D01*
X183832500Y-80327500D02*
X167005000Y-80327500D01*
X184825000Y-81320000D02*
X183832500Y-80327500D01*
X184825000Y-82550000D02*
X184825000Y-81320000D01*
%TO.N,/TP_RX+*%
X187895849Y-90799607D02*
X188277500Y-90417956D01*
X188024151Y-92208695D02*
X187895849Y-92080393D01*
X188024151Y-93350393D02*
X188024151Y-92208695D01*
X187895849Y-93478695D02*
X188024151Y-93350393D01*
X187895849Y-92080393D02*
X187895849Y-90799607D01*
X187895849Y-94620393D02*
X187895849Y-93478695D01*
X188024151Y-95314151D02*
X188024151Y-94748695D01*
X188024151Y-94748695D02*
X187895849Y-94620393D01*
X189230000Y-96520000D02*
X188024151Y-95314151D01*
X188277500Y-86995000D02*
X186650000Y-85367500D01*
X188277500Y-90417956D02*
X188277500Y-86995000D01*
X186650000Y-85367500D02*
X186650000Y-82550000D01*
X186650000Y-81240000D02*
X186650000Y-82550000D01*
X167005000Y-79057500D02*
X184467500Y-79057500D01*
X162242500Y-83820000D02*
X167005000Y-79057500D01*
X160337500Y-83820000D02*
X162242500Y-83820000D01*
X159165000Y-84992500D02*
X160337500Y-83820000D01*
X184467500Y-79057500D02*
X186650000Y-81240000D01*
X159165000Y-88395000D02*
X159165000Y-84992500D01*
%TO.N,/TP_TX-*%
X177241250Y-92945000D02*
X166940000Y-92945000D01*
X182086250Y-97790000D02*
X177241250Y-92945000D01*
X186690000Y-97790000D02*
X182086250Y-97790000D01*
%TO.N,/TP_TX+*%
X175827500Y-93595000D02*
X166940000Y-93595000D01*
X181610000Y-99377500D02*
X175827500Y-93595000D01*
X188912500Y-99377500D02*
X181610000Y-99377500D01*
X189230000Y-99060000D02*
X188912500Y-99377500D01*
%TO.N,/LED_LINK*%
X160655000Y-82232500D02*
X157865000Y-85022500D01*
X162560000Y-82232500D02*
X160655000Y-82232500D01*
X167005000Y-77787500D02*
X162560000Y-82232500D01*
X191452500Y-77787500D02*
X167005000Y-77787500D01*
X194985000Y-81320000D02*
X191452500Y-77787500D01*
X157865000Y-85022500D02*
X157865000Y-88395000D01*
X194985000Y-82550000D02*
X194985000Y-81320000D01*
%TO.N,/JP*%
X155265000Y-78430000D02*
X155265000Y-79382500D01*
X151765000Y-74930000D02*
X155265000Y-78430000D01*
X141287500Y-74930000D02*
X151765000Y-74930000D01*
X155265000Y-79382500D02*
X155265000Y-88395000D01*
X141040000Y-75177500D02*
X141287500Y-74930000D01*
X141040000Y-75830000D02*
X141040000Y-75177500D01*
%TO.N,/BA18*%
X152665000Y-88395000D02*
X152665000Y-82180000D01*
X152665000Y-82180000D02*
X151764998Y-81279998D01*
X165500000Y-76435000D02*
X165500000Y-75830000D01*
X164147500Y-77787500D02*
X165500000Y-76435000D01*
X161290000Y-77787500D02*
X164147500Y-77787500D01*
X159067500Y-80010000D02*
X161290000Y-77787500D01*
X158750000Y-80010000D02*
X159067500Y-80010000D01*
D25*
X100852721Y-73840999D02*
X98879001Y-73840999D01*
X102303720Y-72390000D02*
X100852721Y-73840999D01*
X98879001Y-73840999D02*
X97790000Y-74930000D01*
X110363000Y-72390000D02*
X102303720Y-72390000D01*
X150685530Y-80200530D02*
X151764998Y-81279998D01*
X140010464Y-80200530D02*
X150685530Y-80200530D01*
X133225435Y-73415501D02*
X140010464Y-80200530D01*
X111388501Y-73415501D02*
X133225435Y-73415501D01*
X110363000Y-72390000D02*
X111388501Y-73415501D01*
D24*
%TO.N,/BA17*%
X151365000Y-88395000D02*
X151365000Y-82467500D01*
X151365000Y-82467500D02*
X151130000Y-82232500D01*
X166300000Y-76587500D02*
X166300000Y-75830000D01*
X164147500Y-78740000D02*
X166300000Y-76587500D01*
X161607500Y-78740000D02*
X164147500Y-78740000D01*
X159067500Y-81280000D02*
X161607500Y-78740000D01*
X158750000Y-81280000D02*
X159067500Y-81280000D01*
D25*
X101407630Y-77470000D02*
X100330000Y-77470000D01*
X102433131Y-76444499D02*
X101407630Y-77470000D01*
X124577499Y-76444499D02*
X102433131Y-76444499D01*
X125603000Y-77470000D02*
X124577499Y-76444499D01*
X149666340Y-80768840D02*
X151130000Y-82232500D01*
X139936708Y-80768840D02*
X149666340Y-80768840D01*
X135032930Y-75865062D02*
X139936708Y-80768840D01*
X127207938Y-75865062D02*
X135032930Y-75865062D01*
X125603000Y-77470000D02*
X127207938Y-75865062D01*
D24*
%TO.N,/BA16*%
X150715000Y-88395000D02*
X150715000Y-83405000D01*
X150715000Y-83405000D02*
X150495003Y-83185003D01*
X157080000Y-75830000D02*
X157080000Y-81997478D01*
X157080000Y-81997478D02*
X156844989Y-82232489D01*
X130373437Y-76636563D02*
X130302000Y-76581000D01*
D25*
X98879001Y-76380999D02*
X97790000Y-77470000D01*
X100490723Y-76380999D02*
X98879001Y-76380999D01*
X101941722Y-74930000D02*
X100490723Y-76380999D01*
X110363000Y-74930000D02*
X101941722Y-74930000D01*
X132611517Y-76636563D02*
X130373437Y-76636563D01*
X148647150Y-81337150D02*
X137312104Y-81337150D01*
X137312104Y-81337150D02*
X132611517Y-76636563D01*
X150495003Y-83185003D02*
X148647150Y-81337150D01*
D24*
%TO.N,/BD6*%
X135255000Y-91475000D02*
X135255000Y-93662500D01*
X142640000Y-77162911D02*
X142627488Y-77175423D01*
X142640000Y-75830000D02*
X142640000Y-77162911D01*
X142246383Y-85407500D02*
X142557508Y-85407500D01*
X146815000Y-85855000D02*
X146050000Y-85090000D01*
X146815000Y-88395000D02*
X146815000Y-85855000D01*
X142875008Y-85090000D02*
X142557508Y-85407500D01*
X137477500Y-90176383D02*
X142246383Y-85407500D01*
X146050000Y-85090000D02*
X142875008Y-85090000D01*
X135255000Y-93662500D02*
X136842500Y-93662500D01*
X136842500Y-93662500D02*
X137477500Y-93027500D01*
X137477500Y-93027500D02*
X137477500Y-90176383D01*
D25*
X134483499Y-94434001D02*
X132141065Y-94434001D01*
X135255000Y-93662500D02*
X134483499Y-94434001D01*
X132141065Y-94434001D02*
X127000000Y-99575066D01*
X127000000Y-101473000D02*
X125603000Y-102870000D01*
X127000000Y-99575066D02*
X127000000Y-101473000D01*
X101306888Y-102870000D02*
X100330000Y-102870000D01*
X102332389Y-101844499D02*
X101306888Y-102870000D01*
X124577499Y-101844499D02*
X102332389Y-101844499D01*
X125603000Y-102870000D02*
X124577499Y-101844499D01*
D24*
%TO.N,/BD5*%
X133985000Y-91475000D02*
X133985000Y-93662500D01*
X143440000Y-75830000D02*
X143440000Y-76765000D01*
X143440000Y-76765000D02*
X143827500Y-77152500D01*
X135572500Y-94932500D02*
X137477500Y-94932500D01*
X142240000Y-86360000D02*
X143827500Y-86360000D01*
X137477500Y-94932500D02*
X138112500Y-94297500D01*
X138112500Y-94297500D02*
X138112500Y-90487500D01*
X145732500Y-85725000D02*
X144462500Y-85725000D01*
X138112500Y-90487500D02*
X142240000Y-86360000D01*
X146165000Y-86157500D02*
X145732500Y-85725000D01*
X146165000Y-88395000D02*
X146165000Y-86157500D01*
X144462500Y-85725000D02*
X143827500Y-86360000D01*
D25*
X126998822Y-105410000D02*
X125603000Y-105410000D01*
X130048000Y-102360822D02*
X126998822Y-105410000D01*
X130048000Y-97169132D02*
X130048000Y-102360822D01*
X132284632Y-94932500D02*
X130048000Y-97169132D01*
X135572500Y-94932500D02*
X132284632Y-94932500D01*
X108465066Y-105410000D02*
X100330000Y-105410000D01*
X109490567Y-104384499D02*
X108465066Y-105410000D01*
X124577499Y-104384499D02*
X109490567Y-104384499D01*
X125603000Y-105410000D02*
X124577499Y-104384499D01*
%TO.N,/BD4*%
X131191000Y-103886000D02*
X131191000Y-103886000D01*
X129549501Y-107177321D02*
X128776822Y-107950000D01*
X131191000Y-105156000D02*
X129549501Y-106797499D01*
X128776822Y-107950000D02*
X125603000Y-107950000D01*
X131191000Y-102718612D02*
X131191000Y-105156000D01*
X129549501Y-106797499D02*
X129549501Y-107177321D01*
X138623660Y-90699228D02*
X138623660Y-95285952D01*
X141802888Y-87520000D02*
X138623660Y-90699228D01*
X138623660Y-95285952D02*
X131191000Y-102718612D01*
X145515000Y-87520000D02*
X141802888Y-87520000D01*
X108845258Y-107950000D02*
X100330000Y-107950000D01*
X109870759Y-106924499D02*
X108845258Y-107950000D01*
X124577499Y-106924499D02*
X109870759Y-106924499D01*
X125603000Y-107950000D02*
X124577499Y-106924499D01*
D24*
%TO.N,/BD3*%
X143815000Y-90345000D02*
X142097500Y-90345000D01*
X142940000Y-89470000D02*
X143827500Y-88582500D01*
X142940000Y-90345000D02*
X142940000Y-89470000D01*
X148642500Y-75830000D02*
X147320000Y-77152500D01*
X148660000Y-75830000D02*
X148642500Y-75830000D01*
D25*
X124577499Y-109464499D02*
X103641501Y-109464499D01*
X125603000Y-110490000D02*
X124577499Y-109464499D01*
X102616000Y-110490000D02*
X100330000Y-110490000D01*
X103641501Y-109464499D02*
X102616000Y-110490000D01*
X141690000Y-90345000D02*
X142940000Y-90345000D01*
X139439650Y-92595350D02*
X141690000Y-90345000D01*
X139439650Y-95112029D02*
X139439650Y-92595350D01*
X131708501Y-102843178D02*
X139439650Y-95112029D01*
X131708501Y-107177321D02*
X131708501Y-102843178D01*
X128395822Y-110490000D02*
X131708501Y-107177321D01*
X125603000Y-110490000D02*
X128395822Y-110490000D01*
D24*
%TO.N,/BD2*%
X144907494Y-90995000D02*
X146050000Y-89852494D01*
X142940000Y-90995000D02*
X144907494Y-90995000D01*
X149460000Y-76282500D02*
X149460000Y-75830000D01*
X148590000Y-77152500D02*
X149460000Y-76282500D01*
D25*
X139893660Y-95812452D02*
X133096000Y-102362000D01*
X139893660Y-92791340D02*
X139893660Y-95812452D01*
X141690000Y-90995000D02*
X139893660Y-92791340D01*
X142940000Y-90995000D02*
X141690000Y-90995000D01*
X132949998Y-102508002D02*
X132949998Y-106406998D01*
X133096000Y-102362000D02*
X132949998Y-102508002D01*
X132949998Y-106406998D02*
X133096000Y-106553000D01*
X133096000Y-106553000D02*
X133096000Y-106553000D01*
X123785888Y-107950000D02*
X110363000Y-107950000D01*
X124811389Y-108975501D02*
X123785888Y-107950000D01*
X128768499Y-108975501D02*
X124811389Y-108975501D01*
X130937000Y-106807000D02*
X128768499Y-108975501D01*
X98879001Y-109400999D02*
X97790000Y-110490000D01*
X100784001Y-109400999D02*
X98879001Y-109400999D01*
X101174511Y-109010489D02*
X100784001Y-109400999D01*
X109302511Y-109010489D02*
X101174511Y-109010489D01*
X110363000Y-107950000D02*
X109302511Y-109010489D01*
D24*
%TO.N,/BD1*%
X146782500Y-92295000D02*
X147002500Y-92075000D01*
X142940000Y-92295000D02*
X146782500Y-92295000D01*
X150260000Y-76752500D02*
X150260000Y-75830000D01*
X149860000Y-77152500D02*
X150260000Y-76752500D01*
D25*
X141736114Y-92295000D02*
X140908980Y-93122134D01*
X142940000Y-92295000D02*
X141736114Y-92295000D01*
X133721499Y-102626679D02*
X133721499Y-104511499D01*
X140908980Y-95439198D02*
X133721499Y-102626679D01*
X140908980Y-93122134D02*
X140908980Y-95439198D01*
X133721499Y-104511499D02*
X133721499Y-105273499D01*
X133721499Y-105273499D02*
X133721499Y-105273499D01*
X125182888Y-106807000D02*
X123785888Y-105410000D01*
X128778000Y-106807000D02*
X125182888Y-106807000D01*
X99240999Y-106499001D02*
X97790000Y-107950000D01*
X109273999Y-106499001D02*
X99240999Y-106499001D01*
X110363000Y-105410000D02*
X109273999Y-106499001D01*
X123785888Y-105410000D02*
X110363000Y-105410000D01*
D24*
%TO.N,/BD0*%
X147719998Y-92945000D02*
X147954999Y-92709999D01*
X142940000Y-92945000D02*
X147719998Y-92945000D01*
X151060000Y-77082500D02*
X151130000Y-77152500D01*
X151060000Y-75830000D02*
X151060000Y-77082500D01*
D25*
X141362990Y-93318124D02*
X141362990Y-95821876D01*
X141736114Y-92945000D02*
X141362990Y-93318124D01*
X142940000Y-92945000D02*
X141736114Y-92945000D01*
X141362990Y-95821876D02*
X134493000Y-102691866D01*
X134493000Y-102691866D02*
X134493000Y-102997000D01*
X134493000Y-102997000D02*
X134493000Y-102997000D01*
X111388501Y-103895501D02*
X110363000Y-102870000D01*
X127371499Y-103895501D02*
X111388501Y-103895501D01*
X128270000Y-102997000D02*
X127371499Y-103895501D01*
X98879001Y-104320999D02*
X97790000Y-105410000D01*
X108912001Y-104320999D02*
X98879001Y-104320999D01*
X110363000Y-102870000D02*
X108912001Y-104320999D01*
%TO.N,/BA15*%
X111388501Y-78495501D02*
X110363000Y-77470000D01*
X133828389Y-78495501D02*
X111388501Y-78495501D01*
X147601544Y-81791160D02*
X137124048Y-81791160D01*
X137124048Y-81791160D02*
X133828389Y-78495501D01*
X150065000Y-84254616D02*
X147601544Y-81791160D01*
X150065000Y-87520000D02*
X150065000Y-84254616D01*
X98879001Y-78920999D02*
X97790000Y-80010000D01*
X100490723Y-78920999D02*
X98879001Y-78920999D01*
X101243223Y-78168499D02*
X100490723Y-78920999D01*
X109664501Y-78168499D02*
X101243223Y-78168499D01*
X110363000Y-77470000D02*
X109664501Y-78168499D01*
%TO.N,/BA14*%
X101407630Y-80010000D02*
X100330000Y-80010000D01*
X102433131Y-78984499D02*
X101407630Y-80010000D01*
X124577499Y-78984499D02*
X102433131Y-78984499D01*
X125603000Y-80010000D02*
X124577499Y-78984499D01*
X149415000Y-84264000D02*
X149415000Y-87520000D01*
X147758150Y-82607150D02*
X149415000Y-84264000D01*
X137297972Y-82607150D02*
X147758150Y-82607150D01*
X134700822Y-80010000D02*
X137297972Y-82607150D01*
X125603000Y-80010000D02*
X134700822Y-80010000D01*
%TO.N,/~BCS*%
X127254000Y-97790000D02*
X125603000Y-97790000D01*
X133138271Y-88706340D02*
X131699000Y-90145611D01*
X135693256Y-88706340D02*
X133138271Y-88706340D01*
X131699000Y-90145611D02*
X131699000Y-93345000D01*
X141338436Y-83061160D02*
X135693256Y-88706340D01*
X146966549Y-83061160D02*
X141338436Y-83061160D01*
X131699000Y-93345000D02*
X127254000Y-97790000D01*
X148765000Y-84859612D02*
X146966549Y-83061160D01*
X148765000Y-87520000D02*
X148765000Y-84859612D01*
X101306888Y-97790000D02*
X100330000Y-97790000D01*
X102332389Y-96764499D02*
X101306888Y-97790000D01*
X124577499Y-96764499D02*
X102332389Y-96764499D01*
X125603000Y-97790000D02*
X124577499Y-96764499D01*
D24*
%TO.N,/EECS*%
X132715000Y-89852500D02*
X132715000Y-91475000D01*
X133350000Y-89217500D02*
X132715000Y-89852500D01*
X136525000Y-89217500D02*
X133350000Y-89217500D01*
X141922500Y-83820000D02*
X136525000Y-89217500D01*
X147002500Y-83820000D02*
X141922500Y-83820000D01*
X148115000Y-84932500D02*
X147002500Y-83820000D01*
X148115000Y-88395000D02*
X148115000Y-84932500D01*
%TO.N,/BD7*%
X136525000Y-89852500D02*
X136525000Y-91475000D01*
X147465000Y-85552500D02*
X147465000Y-88395000D01*
X146367500Y-84455000D02*
X147465000Y-85552500D01*
X142240000Y-84455000D02*
X146367500Y-84455000D01*
X136842500Y-89852500D02*
X142240000Y-84455000D01*
X136525000Y-89852500D02*
X136842500Y-89852500D01*
D25*
X133342010Y-92590990D02*
X125603000Y-100330000D01*
X133342010Y-90568394D02*
X133342010Y-92590990D01*
X134057904Y-89852500D02*
X133342010Y-90568394D01*
X136525000Y-89852500D02*
X134057904Y-89852500D01*
X101814888Y-100330000D02*
X100330000Y-100330000D01*
X102840389Y-99304499D02*
X101814888Y-100330000D01*
X124577499Y-99304499D02*
X102840389Y-99304499D01*
X125603000Y-100330000D02*
X124577499Y-99304499D01*
D24*
%TO.N,/BA19*%
X153315000Y-88395000D02*
X153315000Y-81242500D01*
X153315000Y-81242500D02*
X152400000Y-80327500D01*
X159067500Y-78740000D02*
X158750000Y-78740000D01*
X164236472Y-76835000D02*
X160972500Y-76835000D01*
X164700000Y-76371472D02*
X164236472Y-76835000D01*
X160972500Y-76835000D02*
X159067500Y-78740000D01*
X164700000Y-75830000D02*
X164700000Y-76371472D01*
D25*
X104340010Y-68379990D02*
X128831990Y-68379990D01*
X100330000Y-72390000D02*
X104340010Y-68379990D01*
X151571340Y-79498840D02*
X152400000Y-80327500D01*
X139950840Y-79498840D02*
X151571340Y-79498840D01*
X128831990Y-68379990D02*
X139950840Y-79498840D01*
D24*
%TO.N,/BA20*%
X153965000Y-88395000D02*
X153965000Y-80305000D01*
X153965000Y-80305000D02*
X153035000Y-79375000D01*
X159067500Y-77470000D02*
X158750000Y-77470000D01*
X160707500Y-75830000D02*
X159067500Y-77470000D01*
X163900000Y-75830000D02*
X160707500Y-75830000D01*
D25*
X102254020Y-67925980D02*
X100330000Y-69850000D01*
X129020047Y-67925980D02*
X102254020Y-67925980D01*
X140024567Y-78930501D02*
X129020047Y-67925980D01*
X152590501Y-78930501D02*
X140024567Y-78930501D01*
X153035000Y-79375000D02*
X152590501Y-78930501D01*
D24*
%TO.N,/BA21*%
X153035000Y-78105000D02*
X149860000Y-78105000D01*
X149860000Y-78105000D02*
X141605000Y-78105000D01*
X154615000Y-79685000D02*
X153035000Y-78105000D01*
X154615000Y-88395000D02*
X154615000Y-79685000D01*
X141605000Y-76835000D02*
X141605000Y-78105000D01*
X141840000Y-76600000D02*
X141605000Y-76835000D01*
X141840000Y-75830000D02*
X141840000Y-76600000D01*
D25*
X130810000Y-67310000D02*
X100330000Y-67310000D01*
X141605000Y-78105000D02*
X130810000Y-67310000D01*
D24*
%TO.N,/LED_CRS*%
X200065000Y-82075000D02*
X200065000Y-82550000D01*
X200025000Y-82035000D02*
X200065000Y-82075000D01*
X166687500Y-77152500D02*
X195897500Y-77152500D01*
X162560000Y-81280000D02*
X166687500Y-77152500D01*
X160337500Y-81280000D02*
X162560000Y-81280000D01*
X200025000Y-81280000D02*
X200025000Y-82035000D01*
X195897500Y-77152500D02*
X200025000Y-81280000D01*
X157215000Y-84402500D02*
X160337500Y-81280000D01*
X157215000Y-88395000D02*
X157215000Y-84402500D01*
%TO.N,Net-(RN1-Pad7)*%
X139617500Y-69850000D02*
X138430000Y-69850000D01*
X141840000Y-72072500D02*
X139617500Y-69850000D01*
X141840000Y-74030000D02*
X141840000Y-72072500D01*
%TO.N,Net-(RN1-Pad8)*%
X138112500Y-72072500D02*
X135890000Y-69850000D01*
X140335000Y-72072500D02*
X138112500Y-72072500D01*
X141040000Y-72777500D02*
X140335000Y-72072500D01*
X141040000Y-74030000D02*
X141040000Y-72777500D01*
%TO.N,Net-(RN1-Pad6)*%
X142640000Y-71990000D02*
X142640000Y-74030000D01*
X144780000Y-69850000D02*
X142640000Y-71990000D01*
X146050000Y-69850000D02*
X144780000Y-69850000D01*
%TO.N,Net-(RN1-Pad5)*%
X143440000Y-74030000D02*
X143440000Y-72777500D01*
X143440000Y-72777500D02*
X144145000Y-72072500D01*
X146367500Y-72072500D02*
X148590000Y-69850000D01*
X144145000Y-72072500D02*
X146367500Y-72072500D01*
%TO.N,Net-(RN2-Pad5)*%
X163195000Y-69850000D02*
X160655000Y-72390000D01*
X163830000Y-69850000D02*
X163195000Y-69850000D01*
X151060000Y-72777500D02*
X151060000Y-74030000D01*
X151447500Y-72390000D02*
X151060000Y-72777500D01*
X160655000Y-72390000D02*
X151447500Y-72390000D01*
%TO.N,Net-(RN2-Pad6)*%
X159385000Y-71755000D02*
X161290000Y-69850000D01*
X150260000Y-72625000D02*
X150260000Y-74030000D01*
X151130000Y-71755000D02*
X150260000Y-72625000D01*
X159385000Y-71755000D02*
X151130000Y-71755000D01*
%TO.N,Net-(RN2-Pad8)*%
X148660000Y-74030000D02*
X148660000Y-72320000D01*
X151130000Y-69850000D02*
X156210000Y-69850000D01*
X148660000Y-72320000D02*
X151130000Y-69850000D01*
%TO.N,Net-(RN2-Pad7)*%
X149460000Y-72472500D02*
X149460000Y-74030000D01*
X150812500Y-71120000D02*
X149460000Y-72472500D01*
X157480000Y-71120000D02*
X150812500Y-71120000D01*
X158750000Y-69850000D02*
X157480000Y-71120000D01*
%TO.N,Net-(RN3-Pad7)*%
X172085000Y-71755000D02*
X173990000Y-69850000D01*
X164700000Y-72790000D02*
X165735000Y-71755000D01*
X164700000Y-74030000D02*
X164700000Y-72790000D01*
X165735000Y-71755000D02*
X172085000Y-71755000D01*
%TO.N,Net-(RN3-Pad8)*%
X169862500Y-69850000D02*
X171450000Y-69850000D01*
X168592500Y-71120000D02*
X169862500Y-69850000D01*
X163900000Y-72637500D02*
X165417500Y-71120000D01*
X163900000Y-74030000D02*
X163900000Y-72637500D01*
X165417500Y-71120000D02*
X168592500Y-71120000D01*
%TO.N,Net-(RN3-Pad6)*%
X173990000Y-72390000D02*
X176530000Y-69850000D01*
X166370000Y-72390000D02*
X166052500Y-72390000D01*
X166370000Y-72390000D02*
X173990000Y-72390000D01*
X165500000Y-72942500D02*
X165500000Y-74030000D01*
X166052500Y-72390000D02*
X165500000Y-72942500D01*
%TO.N,Net-(RN3-Pad5)*%
X174890000Y-74030000D02*
X179070000Y-69850000D01*
X174890000Y-74030000D02*
X166300000Y-74030000D01*
%TO.N,Net-(J1-PadL2)*%
X201890000Y-89410000D02*
X200470000Y-90830000D01*
X201890000Y-82550000D02*
X201890000Y-89410000D01*
%TO.N,Net-(J1-PadL3)*%
X198950000Y-90257144D02*
X198950000Y-98400000D01*
X200660000Y-88547144D02*
X198950000Y-90257144D01*
X200660000Y-87630000D02*
X200660000Y-88547144D01*
X196810000Y-83780000D02*
X200660000Y-87630000D01*
X196810000Y-82550000D02*
X196810000Y-83780000D01*
%TO.N,/AUI*%
X155915000Y-88242500D02*
X155980840Y-88176660D01*
X155915000Y-88395000D02*
X155915000Y-88242500D01*
X156280000Y-78211680D02*
X155980840Y-78510840D01*
X156280000Y-75830000D02*
X156280000Y-78211680D01*
X155980840Y-88176660D02*
X155980840Y-78510840D01*
%TO.N,Net-(RN4-Pad7)*%
X157080000Y-74720500D02*
X157080000Y-74030000D01*
X157289500Y-74930000D02*
X157080000Y-74720500D01*
X176530000Y-74930000D02*
X157289500Y-74930000D01*
X181610000Y-69850000D02*
X176530000Y-74930000D01*
%TD*%
D25*
%TO.N,GND*%
X171100751Y-85567271D02*
X171046661Y-85611661D01*
X170956817Y-85721137D01*
X170890057Y-85846036D01*
X170848946Y-85981560D01*
X170835065Y-86122500D01*
X170835065Y-86597500D01*
X170848946Y-86738440D01*
X170890057Y-86873964D01*
X170956817Y-86998863D01*
X171046661Y-87108339D01*
X171156137Y-87198183D01*
X171281036Y-87264943D01*
X171416560Y-87306054D01*
X171557500Y-87319935D01*
X172057500Y-87319935D01*
X172198440Y-87306054D01*
X172333964Y-87264943D01*
X172458863Y-87198183D01*
X172568339Y-87108339D01*
X172658183Y-86998863D01*
X172720000Y-86883212D01*
X172781817Y-86998863D01*
X172871661Y-87108339D01*
X172981137Y-87198183D01*
X173005751Y-87211339D01*
X173005750Y-87598250D01*
X171800255Y-87598250D01*
X171767500Y-87595024D01*
X171734745Y-87598250D01*
X171165252Y-87598250D01*
X171132499Y-87595024D01*
X171099746Y-87598250D01*
X171099745Y-87598250D01*
X171001794Y-87607897D01*
X170876111Y-87646023D01*
X170760281Y-87707935D01*
X170658755Y-87791255D01*
X170637872Y-87816701D01*
X168776324Y-89678250D01*
X168227012Y-89678250D01*
X168204115Y-89671304D01*
X168090000Y-89660065D01*
X165790000Y-89660065D01*
X165675885Y-89671304D01*
X165566155Y-89704591D01*
X165465028Y-89758644D01*
X165376388Y-89831388D01*
X165303644Y-89920028D01*
X165249591Y-90021155D01*
X165216304Y-90130885D01*
X165205065Y-90245000D01*
X165205065Y-90445000D01*
X165216304Y-90559115D01*
X165249591Y-90668845D01*
X165250208Y-90670000D01*
X165249591Y-90671155D01*
X165216304Y-90780885D01*
X165205065Y-90895000D01*
X165205065Y-91095000D01*
X165216304Y-91209115D01*
X165249591Y-91318845D01*
X165250208Y-91320000D01*
X165249591Y-91321155D01*
X165216304Y-91430885D01*
X165205065Y-91545000D01*
X165205065Y-91628250D01*
X164672456Y-91628250D01*
X164586647Y-91570914D01*
X164417925Y-91501028D01*
X164238811Y-91465400D01*
X164056189Y-91465400D01*
X163877075Y-91501028D01*
X163708353Y-91570914D01*
X163556508Y-91672374D01*
X163427374Y-91801508D01*
X163325914Y-91953353D01*
X163256028Y-92122075D01*
X163220400Y-92301189D01*
X163220400Y-92483811D01*
X163256028Y-92662925D01*
X163325914Y-92831647D01*
X163427374Y-92983492D01*
X163556508Y-93112626D01*
X163708353Y-93214086D01*
X163877075Y-93283972D01*
X164056189Y-93319600D01*
X164238811Y-93319600D01*
X164417925Y-93283972D01*
X164586647Y-93214086D01*
X164738492Y-93112626D01*
X164867626Y-92983492D01*
X164882154Y-92961750D01*
X165205065Y-92961750D01*
X165205065Y-93045000D01*
X165216304Y-93159115D01*
X165249591Y-93268845D01*
X165250208Y-93270000D01*
X165249591Y-93271155D01*
X165216304Y-93380885D01*
X165205065Y-93495000D01*
X165205065Y-93635036D01*
X165163080Y-93685152D01*
X165103001Y-93794863D01*
X165065481Y-93914187D01*
X165055000Y-94013250D01*
X165213750Y-94172000D01*
X165453628Y-94172000D01*
X165465028Y-94181356D01*
X165566155Y-94235409D01*
X165597772Y-94245000D01*
X165566155Y-94254591D01*
X165465028Y-94308644D01*
X165453628Y-94318000D01*
X165213750Y-94318000D01*
X165055000Y-94476750D01*
X165065481Y-94575813D01*
X165103001Y-94695137D01*
X165163080Y-94804848D01*
X165205065Y-94854964D01*
X165205065Y-94995000D01*
X165216304Y-95109115D01*
X165249591Y-95218845D01*
X165250208Y-95220000D01*
X165249591Y-95221155D01*
X165216304Y-95330885D01*
X165205065Y-95445000D01*
X165205065Y-95645000D01*
X165216304Y-95759115D01*
X165249591Y-95868845D01*
X165250208Y-95870000D01*
X165249591Y-95871155D01*
X165216304Y-95980885D01*
X165205065Y-96095000D01*
X165205065Y-96295000D01*
X165216304Y-96409115D01*
X165249591Y-96518845D01*
X165250208Y-96520000D01*
X165249591Y-96521155D01*
X165216304Y-96630885D01*
X165205065Y-96745000D01*
X165205065Y-96945000D01*
X165216304Y-97059115D01*
X165249591Y-97168845D01*
X165250208Y-97170000D01*
X165249591Y-97171155D01*
X165216304Y-97280885D01*
X165205065Y-97395000D01*
X165205065Y-97595000D01*
X165216304Y-97709115D01*
X165249591Y-97818845D01*
X165250208Y-97820000D01*
X165249591Y-97821155D01*
X165216304Y-97930885D01*
X165205065Y-98045000D01*
X165205065Y-98245000D01*
X165216304Y-98359115D01*
X165249591Y-98468845D01*
X165250208Y-98470000D01*
X165249591Y-98471155D01*
X165216304Y-98580885D01*
X165205065Y-98695000D01*
X165205065Y-98895000D01*
X165216304Y-99009115D01*
X165249591Y-99118845D01*
X165250208Y-99120000D01*
X165249591Y-99121155D01*
X165216304Y-99230885D01*
X165205065Y-99345000D01*
X165205065Y-99545000D01*
X165216304Y-99659115D01*
X165249591Y-99768845D01*
X165250208Y-99770000D01*
X165249591Y-99771155D01*
X165216304Y-99880885D01*
X165205065Y-99995000D01*
X165205065Y-100195000D01*
X165216304Y-100309115D01*
X165249591Y-100418845D01*
X165250208Y-100420000D01*
X165249591Y-100421155D01*
X165216304Y-100530885D01*
X165205065Y-100645000D01*
X165205065Y-100845000D01*
X165216304Y-100959115D01*
X165249591Y-101068845D01*
X165250208Y-101070000D01*
X165249591Y-101071155D01*
X165216304Y-101180885D01*
X165205065Y-101295000D01*
X165205065Y-101495000D01*
X165216304Y-101609115D01*
X165249591Y-101718845D01*
X165250208Y-101720000D01*
X165249591Y-101721155D01*
X165216304Y-101830885D01*
X165205065Y-101945000D01*
X165205065Y-102145000D01*
X165216304Y-102259115D01*
X165249591Y-102368845D01*
X165250208Y-102370000D01*
X165249591Y-102371155D01*
X165216304Y-102480885D01*
X165205065Y-102595000D01*
X165205065Y-102795000D01*
X165216304Y-102909115D01*
X165249591Y-103018845D01*
X165303644Y-103119972D01*
X165376388Y-103208612D01*
X165465028Y-103281356D01*
X165566155Y-103335409D01*
X165675885Y-103368696D01*
X165790000Y-103379935D01*
X168090000Y-103379935D01*
X168204115Y-103368696D01*
X168227012Y-103361750D01*
X168776324Y-103361750D01*
X168878251Y-103463678D01*
X168878251Y-104965500D01*
X165787606Y-104965500D01*
X164985699Y-104163593D01*
X164980409Y-104146155D01*
X164926356Y-104045028D01*
X164853612Y-103956388D01*
X164764972Y-103883644D01*
X164663845Y-103829591D01*
X164646407Y-103824301D01*
X164554803Y-103732697D01*
X164535557Y-103716903D01*
X164513601Y-103705167D01*
X164489776Y-103697940D01*
X164465000Y-103695500D01*
X163512962Y-103695500D01*
X163490137Y-103683001D01*
X163370813Y-103645481D01*
X163271750Y-103635000D01*
X163211250Y-103695500D01*
X162868750Y-103695500D01*
X162808250Y-103635000D01*
X162709187Y-103645481D01*
X162589863Y-103683001D01*
X162567038Y-103695500D01*
X156581750Y-103695500D01*
X156581750Y-103491868D01*
X156612626Y-103460992D01*
X156714086Y-103309147D01*
X156783972Y-103140425D01*
X156819600Y-102961311D01*
X156819600Y-102778689D01*
X156783972Y-102599575D01*
X156714086Y-102430853D01*
X156612626Y-102279008D01*
X156483492Y-102149874D01*
X156331647Y-102048414D01*
X156162925Y-101978528D01*
X155983811Y-101942900D01*
X155801189Y-101942900D01*
X155622075Y-101978528D01*
X155453353Y-102048414D01*
X155301508Y-102149874D01*
X155172374Y-102279008D01*
X155070914Y-102430853D01*
X155001028Y-102599575D01*
X154965400Y-102778689D01*
X154965400Y-102961311D01*
X155001028Y-103140425D01*
X155070914Y-103309147D01*
X155172374Y-103460992D01*
X155248251Y-103536869D01*
X155248250Y-103695500D01*
X154412962Y-103695500D01*
X154390137Y-103683001D01*
X154270813Y-103645481D01*
X154171750Y-103635000D01*
X154111250Y-103695500D01*
X153768750Y-103695500D01*
X153708250Y-103635000D01*
X153609187Y-103645481D01*
X153489863Y-103683001D01*
X153467038Y-103695500D01*
X149406750Y-103695500D01*
X149406750Y-103651426D01*
X149498492Y-103590126D01*
X149627626Y-103460992D01*
X149729086Y-103309147D01*
X149798972Y-103140425D01*
X149834600Y-102961311D01*
X149834600Y-102778689D01*
X149798972Y-102599575D01*
X149729086Y-102430853D01*
X149627626Y-102279008D01*
X149498492Y-102149874D01*
X149346647Y-102048414D01*
X149177925Y-101978528D01*
X148998811Y-101942900D01*
X148816189Y-101942900D01*
X148637075Y-101978528D01*
X148468353Y-102048414D01*
X148316508Y-102149874D01*
X148187374Y-102279008D01*
X148113750Y-102389194D01*
X148040126Y-102279008D01*
X147910992Y-102149874D01*
X147759147Y-102048414D01*
X147590425Y-101978528D01*
X147411311Y-101942900D01*
X147228689Y-101942900D01*
X147049575Y-101978528D01*
X146880853Y-102048414D01*
X146729008Y-102149874D01*
X146599874Y-102279008D01*
X146498414Y-102430853D01*
X146428528Y-102599575D01*
X146392900Y-102778689D01*
X146392900Y-102961311D01*
X146428528Y-103140425D01*
X146498414Y-103309147D01*
X146599874Y-103460992D01*
X146729008Y-103590126D01*
X146798251Y-103636393D01*
X146798251Y-103695500D01*
X145415000Y-103695500D01*
X145390224Y-103697940D01*
X145366399Y-103705167D01*
X145344443Y-103716903D01*
X145325197Y-103732697D01*
X145244479Y-103813415D01*
X145191155Y-103829591D01*
X145090028Y-103883644D01*
X145001388Y-103956388D01*
X144928644Y-104045028D01*
X144874591Y-104146155D01*
X144858415Y-104199479D01*
X144204644Y-104853250D01*
X138352755Y-104853250D01*
X138320000Y-104850024D01*
X138287245Y-104853250D01*
X138189294Y-104862897D01*
X138063611Y-104901023D01*
X137947781Y-104962935D01*
X137944656Y-104965500D01*
X137795000Y-104965500D01*
X137770224Y-104967940D01*
X137746399Y-104975167D01*
X137724443Y-104986903D01*
X137705197Y-105002697D01*
X135382000Y-107325894D01*
X135382000Y-103856246D01*
X135405506Y-103875537D01*
X135515820Y-103934502D01*
X135635518Y-103970812D01*
X135760000Y-103983072D01*
X135961750Y-103980000D01*
X136120500Y-103821250D01*
X136120500Y-102997000D01*
X136100500Y-102997000D01*
X136100500Y-102743000D01*
X136120500Y-102743000D01*
X136120500Y-102723000D01*
X136374500Y-102723000D01*
X136374500Y-102743000D01*
X136394500Y-102743000D01*
X136394500Y-102997000D01*
X136374500Y-102997000D01*
X136374500Y-103821250D01*
X136533250Y-103980000D01*
X136735000Y-103983072D01*
X136859482Y-103970812D01*
X136979180Y-103934502D01*
X137089494Y-103875537D01*
X137186185Y-103796185D01*
X137224677Y-103749283D01*
X137387697Y-103912303D01*
X137406943Y-103928097D01*
X137428899Y-103939833D01*
X137452724Y-103947060D01*
X137477500Y-103949500D01*
X139700000Y-103949500D01*
X139724776Y-103947060D01*
X139748601Y-103939833D01*
X139770557Y-103928097D01*
X139789803Y-103912303D01*
X140387606Y-103314500D01*
X141527037Y-103314500D01*
X141566155Y-103335409D01*
X141675885Y-103368696D01*
X141790000Y-103379935D01*
X144090000Y-103379935D01*
X144204115Y-103368696D01*
X144313845Y-103335409D01*
X144352963Y-103314500D01*
X144462500Y-103314500D01*
X144487276Y-103312060D01*
X144511101Y-103304833D01*
X144533057Y-103293097D01*
X144552303Y-103277303D01*
X144869803Y-102959803D01*
X144885597Y-102940557D01*
X144897333Y-102918601D01*
X144904560Y-102894776D01*
X144907000Y-102870000D01*
X144907000Y-96211750D01*
X145065632Y-96211750D01*
X145141508Y-96287626D01*
X145293353Y-96389086D01*
X145462075Y-96458972D01*
X145641189Y-96494600D01*
X145823811Y-96494600D01*
X146002925Y-96458972D01*
X146171647Y-96389086D01*
X146323492Y-96287626D01*
X146452626Y-96158492D01*
X146554086Y-96006647D01*
X146623972Y-95837925D01*
X146659600Y-95658811D01*
X146659600Y-95476189D01*
X146623972Y-95297075D01*
X146554086Y-95128353D01*
X146452626Y-94976508D01*
X146323492Y-94847374D01*
X146171647Y-94745914D01*
X146002925Y-94676028D01*
X145823811Y-94640400D01*
X145641189Y-94640400D01*
X145462075Y-94676028D01*
X145293353Y-94745914D01*
X145141508Y-94847374D01*
X145110632Y-94878250D01*
X144907000Y-94878250D01*
X144907000Y-93611750D01*
X147687243Y-93611750D01*
X147719998Y-93614976D01*
X147741715Y-93612837D01*
X147863688Y-93637099D01*
X148046310Y-93637099D01*
X148225424Y-93601471D01*
X148394146Y-93531585D01*
X148483321Y-93472000D01*
X148590000Y-93472000D01*
X148614776Y-93469560D01*
X148638601Y-93462333D01*
X148660557Y-93450597D01*
X148679803Y-93434803D01*
X148695597Y-93415557D01*
X148707333Y-93393601D01*
X148714560Y-93369776D01*
X148717000Y-93345000D01*
X148717000Y-93238321D01*
X148776585Y-93149146D01*
X148846471Y-92980424D01*
X148882099Y-92801310D01*
X148882099Y-92618688D01*
X148846471Y-92439574D01*
X148776585Y-92270852D01*
X148717000Y-92181677D01*
X148717000Y-91440000D01*
X148714560Y-91415224D01*
X148707333Y-91391399D01*
X148695597Y-91369443D01*
X148679803Y-91350197D01*
X148660557Y-91334403D01*
X148638601Y-91322667D01*
X148614776Y-91315440D01*
X148590000Y-91313000D01*
X147530823Y-91313000D01*
X147441647Y-91253414D01*
X147272925Y-91183528D01*
X147093811Y-91147900D01*
X146911189Y-91147900D01*
X146732075Y-91183528D01*
X146563353Y-91253414D01*
X146474177Y-91313000D01*
X145542000Y-91313000D01*
X145542000Y-91303420D01*
X146065827Y-90779594D01*
X146141311Y-90779594D01*
X146320425Y-90743966D01*
X146489147Y-90674080D01*
X146640992Y-90572620D01*
X146770126Y-90443486D01*
X146871586Y-90291641D01*
X146941472Y-90122919D01*
X146977100Y-89943805D01*
X146977100Y-89761183D01*
X146941472Y-89582069D01*
X146905173Y-89494433D01*
X147055106Y-89344500D01*
X151348251Y-89344500D01*
X151348251Y-89600145D01*
X151260914Y-89730853D01*
X151191028Y-89899575D01*
X151155400Y-90078689D01*
X151155400Y-90261311D01*
X151191028Y-90440425D01*
X151260914Y-90609147D01*
X151362374Y-90760992D01*
X151491508Y-90890126D01*
X151643353Y-90991586D01*
X151812075Y-91061472D01*
X151991189Y-91097100D01*
X152173811Y-91097100D01*
X152352925Y-91061472D01*
X152521647Y-90991586D01*
X152673492Y-90890126D01*
X152802626Y-90760992D01*
X152904086Y-90609147D01*
X152973972Y-90440425D01*
X153009600Y-90261311D01*
X153009600Y-90078689D01*
X152973972Y-89899575D01*
X152904086Y-89730853D01*
X152802626Y-89579008D01*
X152681750Y-89458132D01*
X152681750Y-89344500D01*
X159590302Y-89344500D01*
X159580853Y-89348414D01*
X159429008Y-89449874D01*
X159299874Y-89579008D01*
X159198414Y-89730853D01*
X159128528Y-89899575D01*
X159092900Y-90078689D01*
X159092900Y-90261311D01*
X159128528Y-90440425D01*
X159198414Y-90609147D01*
X159299874Y-90760992D01*
X159429008Y-90890126D01*
X159580853Y-90991586D01*
X159749575Y-91061472D01*
X159928689Y-91097100D01*
X160111311Y-91097100D01*
X160290425Y-91061472D01*
X160459147Y-90991586D01*
X160610992Y-90890126D01*
X160740126Y-90760992D01*
X160841586Y-90609147D01*
X160911472Y-90440425D01*
X160947100Y-90261311D01*
X160947100Y-90188564D01*
X161022065Y-90097219D01*
X161083977Y-89981389D01*
X161122103Y-89855706D01*
X161131750Y-89757755D01*
X161131750Y-89757753D01*
X161134976Y-89725001D01*
X161131750Y-89692248D01*
X161131750Y-89344500D01*
X163242038Y-89344500D01*
X163264863Y-89356999D01*
X163384187Y-89394519D01*
X163483250Y-89405000D01*
X163543750Y-89344500D01*
X163886250Y-89344500D01*
X163946750Y-89405000D01*
X164045813Y-89394519D01*
X164165137Y-89356999D01*
X164187962Y-89344500D01*
X164782500Y-89344500D01*
X164807276Y-89342060D01*
X164831101Y-89334833D01*
X164853057Y-89323097D01*
X164872303Y-89307303D01*
X165189803Y-88989803D01*
X165205597Y-88970557D01*
X165217333Y-88948601D01*
X165224560Y-88924776D01*
X165227000Y-88900000D01*
X165227000Y-86042500D01*
X165224560Y-86017724D01*
X165217333Y-85993899D01*
X165205597Y-85971943D01*
X165189803Y-85952697D01*
X165031750Y-85794644D01*
X165031750Y-85783676D01*
X165376177Y-85439250D01*
X170464745Y-85439250D01*
X170497500Y-85442476D01*
X170530255Y-85439250D01*
X170628206Y-85429603D01*
X170753889Y-85391477D01*
X170869719Y-85329565D01*
X170971245Y-85246245D01*
X170992132Y-85220794D01*
X171091176Y-85121750D01*
X171100750Y-85121750D01*
X171100751Y-85567271D01*
%TA.AperFunction,Conductor*%
D29*
G36*
X171100751Y-85567271D02*
G01*
X171046661Y-85611661D01*
X170956817Y-85721137D01*
X170890057Y-85846036D01*
X170848946Y-85981560D01*
X170835065Y-86122500D01*
X170835065Y-86597500D01*
X170848946Y-86738440D01*
X170890057Y-86873964D01*
X170956817Y-86998863D01*
X171046661Y-87108339D01*
X171156137Y-87198183D01*
X171281036Y-87264943D01*
X171416560Y-87306054D01*
X171557500Y-87319935D01*
X172057500Y-87319935D01*
X172198440Y-87306054D01*
X172333964Y-87264943D01*
X172458863Y-87198183D01*
X172568339Y-87108339D01*
X172658183Y-86998863D01*
X172720000Y-86883212D01*
X172781817Y-86998863D01*
X172871661Y-87108339D01*
X172981137Y-87198183D01*
X173005751Y-87211339D01*
X173005750Y-87598250D01*
X171800255Y-87598250D01*
X171767500Y-87595024D01*
X171734745Y-87598250D01*
X171165252Y-87598250D01*
X171132499Y-87595024D01*
X171099746Y-87598250D01*
X171099745Y-87598250D01*
X171001794Y-87607897D01*
X170876111Y-87646023D01*
X170760281Y-87707935D01*
X170658755Y-87791255D01*
X170637872Y-87816701D01*
X168776324Y-89678250D01*
X168227012Y-89678250D01*
X168204115Y-89671304D01*
X168090000Y-89660065D01*
X165790000Y-89660065D01*
X165675885Y-89671304D01*
X165566155Y-89704591D01*
X165465028Y-89758644D01*
X165376388Y-89831388D01*
X165303644Y-89920028D01*
X165249591Y-90021155D01*
X165216304Y-90130885D01*
X165205065Y-90245000D01*
X165205065Y-90445000D01*
X165216304Y-90559115D01*
X165249591Y-90668845D01*
X165250208Y-90670000D01*
X165249591Y-90671155D01*
X165216304Y-90780885D01*
X165205065Y-90895000D01*
X165205065Y-91095000D01*
X165216304Y-91209115D01*
X165249591Y-91318845D01*
X165250208Y-91320000D01*
X165249591Y-91321155D01*
X165216304Y-91430885D01*
X165205065Y-91545000D01*
X165205065Y-91628250D01*
X164672456Y-91628250D01*
X164586647Y-91570914D01*
X164417925Y-91501028D01*
X164238811Y-91465400D01*
X164056189Y-91465400D01*
X163877075Y-91501028D01*
X163708353Y-91570914D01*
X163556508Y-91672374D01*
X163427374Y-91801508D01*
X163325914Y-91953353D01*
X163256028Y-92122075D01*
X163220400Y-92301189D01*
X163220400Y-92483811D01*
X163256028Y-92662925D01*
X163325914Y-92831647D01*
X163427374Y-92983492D01*
X163556508Y-93112626D01*
X163708353Y-93214086D01*
X163877075Y-93283972D01*
X164056189Y-93319600D01*
X164238811Y-93319600D01*
X164417925Y-93283972D01*
X164586647Y-93214086D01*
X164738492Y-93112626D01*
X164867626Y-92983492D01*
X164882154Y-92961750D01*
X165205065Y-92961750D01*
X165205065Y-93045000D01*
X165216304Y-93159115D01*
X165249591Y-93268845D01*
X165250208Y-93270000D01*
X165249591Y-93271155D01*
X165216304Y-93380885D01*
X165205065Y-93495000D01*
X165205065Y-93635036D01*
X165163080Y-93685152D01*
X165103001Y-93794863D01*
X165065481Y-93914187D01*
X165055000Y-94013250D01*
X165213750Y-94172000D01*
X165453628Y-94172000D01*
X165465028Y-94181356D01*
X165566155Y-94235409D01*
X165597772Y-94245000D01*
X165566155Y-94254591D01*
X165465028Y-94308644D01*
X165453628Y-94318000D01*
X165213750Y-94318000D01*
X165055000Y-94476750D01*
X165065481Y-94575813D01*
X165103001Y-94695137D01*
X165163080Y-94804848D01*
X165205065Y-94854964D01*
X165205065Y-94995000D01*
X165216304Y-95109115D01*
X165249591Y-95218845D01*
X165250208Y-95220000D01*
X165249591Y-95221155D01*
X165216304Y-95330885D01*
X165205065Y-95445000D01*
X165205065Y-95645000D01*
X165216304Y-95759115D01*
X165249591Y-95868845D01*
X165250208Y-95870000D01*
X165249591Y-95871155D01*
X165216304Y-95980885D01*
X165205065Y-96095000D01*
X165205065Y-96295000D01*
X165216304Y-96409115D01*
X165249591Y-96518845D01*
X165250208Y-96520000D01*
X165249591Y-96521155D01*
X165216304Y-96630885D01*
X165205065Y-96745000D01*
X165205065Y-96945000D01*
X165216304Y-97059115D01*
X165249591Y-97168845D01*
X165250208Y-97170000D01*
X165249591Y-97171155D01*
X165216304Y-97280885D01*
X165205065Y-97395000D01*
X165205065Y-97595000D01*
X165216304Y-97709115D01*
X165249591Y-97818845D01*
X165250208Y-97820000D01*
X165249591Y-97821155D01*
X165216304Y-97930885D01*
X165205065Y-98045000D01*
X165205065Y-98245000D01*
X165216304Y-98359115D01*
X165249591Y-98468845D01*
X165250208Y-98470000D01*
X165249591Y-98471155D01*
X165216304Y-98580885D01*
X165205065Y-98695000D01*
X165205065Y-98895000D01*
X165216304Y-99009115D01*
X165249591Y-99118845D01*
X165250208Y-99120000D01*
X165249591Y-99121155D01*
X165216304Y-99230885D01*
X165205065Y-99345000D01*
X165205065Y-99545000D01*
X165216304Y-99659115D01*
X165249591Y-99768845D01*
X165250208Y-99770000D01*
X165249591Y-99771155D01*
X165216304Y-99880885D01*
X165205065Y-99995000D01*
X165205065Y-100195000D01*
X165216304Y-100309115D01*
X165249591Y-100418845D01*
X165250208Y-100420000D01*
X165249591Y-100421155D01*
X165216304Y-100530885D01*
X165205065Y-100645000D01*
X165205065Y-100845000D01*
X165216304Y-100959115D01*
X165249591Y-101068845D01*
X165250208Y-101070000D01*
X165249591Y-101071155D01*
X165216304Y-101180885D01*
X165205065Y-101295000D01*
X165205065Y-101495000D01*
X165216304Y-101609115D01*
X165249591Y-101718845D01*
X165250208Y-101720000D01*
X165249591Y-101721155D01*
X165216304Y-101830885D01*
X165205065Y-101945000D01*
X165205065Y-102145000D01*
X165216304Y-102259115D01*
X165249591Y-102368845D01*
X165250208Y-102370000D01*
X165249591Y-102371155D01*
X165216304Y-102480885D01*
X165205065Y-102595000D01*
X165205065Y-102795000D01*
X165216304Y-102909115D01*
X165249591Y-103018845D01*
X165303644Y-103119972D01*
X165376388Y-103208612D01*
X165465028Y-103281356D01*
X165566155Y-103335409D01*
X165675885Y-103368696D01*
X165790000Y-103379935D01*
X168090000Y-103379935D01*
X168204115Y-103368696D01*
X168227012Y-103361750D01*
X168776324Y-103361750D01*
X168878251Y-103463678D01*
X168878251Y-104965500D01*
X165787606Y-104965500D01*
X164985699Y-104163593D01*
X164980409Y-104146155D01*
X164926356Y-104045028D01*
X164853612Y-103956388D01*
X164764972Y-103883644D01*
X164663845Y-103829591D01*
X164646407Y-103824301D01*
X164554803Y-103732697D01*
X164535557Y-103716903D01*
X164513601Y-103705167D01*
X164489776Y-103697940D01*
X164465000Y-103695500D01*
X163512962Y-103695500D01*
X163490137Y-103683001D01*
X163370813Y-103645481D01*
X163271750Y-103635000D01*
X163211250Y-103695500D01*
X162868750Y-103695500D01*
X162808250Y-103635000D01*
X162709187Y-103645481D01*
X162589863Y-103683001D01*
X162567038Y-103695500D01*
X156581750Y-103695500D01*
X156581750Y-103491868D01*
X156612626Y-103460992D01*
X156714086Y-103309147D01*
X156783972Y-103140425D01*
X156819600Y-102961311D01*
X156819600Y-102778689D01*
X156783972Y-102599575D01*
X156714086Y-102430853D01*
X156612626Y-102279008D01*
X156483492Y-102149874D01*
X156331647Y-102048414D01*
X156162925Y-101978528D01*
X155983811Y-101942900D01*
X155801189Y-101942900D01*
X155622075Y-101978528D01*
X155453353Y-102048414D01*
X155301508Y-102149874D01*
X155172374Y-102279008D01*
X155070914Y-102430853D01*
X155001028Y-102599575D01*
X154965400Y-102778689D01*
X154965400Y-102961311D01*
X155001028Y-103140425D01*
X155070914Y-103309147D01*
X155172374Y-103460992D01*
X155248251Y-103536869D01*
X155248250Y-103695500D01*
X154412962Y-103695500D01*
X154390137Y-103683001D01*
X154270813Y-103645481D01*
X154171750Y-103635000D01*
X154111250Y-103695500D01*
X153768750Y-103695500D01*
X153708250Y-103635000D01*
X153609187Y-103645481D01*
X153489863Y-103683001D01*
X153467038Y-103695500D01*
X149406750Y-103695500D01*
X149406750Y-103651426D01*
X149498492Y-103590126D01*
X149627626Y-103460992D01*
X149729086Y-103309147D01*
X149798972Y-103140425D01*
X149834600Y-102961311D01*
X149834600Y-102778689D01*
X149798972Y-102599575D01*
X149729086Y-102430853D01*
X149627626Y-102279008D01*
X149498492Y-102149874D01*
X149346647Y-102048414D01*
X149177925Y-101978528D01*
X148998811Y-101942900D01*
X148816189Y-101942900D01*
X148637075Y-101978528D01*
X148468353Y-102048414D01*
X148316508Y-102149874D01*
X148187374Y-102279008D01*
X148113750Y-102389194D01*
X148040126Y-102279008D01*
X147910992Y-102149874D01*
X147759147Y-102048414D01*
X147590425Y-101978528D01*
X147411311Y-101942900D01*
X147228689Y-101942900D01*
X147049575Y-101978528D01*
X146880853Y-102048414D01*
X146729008Y-102149874D01*
X146599874Y-102279008D01*
X146498414Y-102430853D01*
X146428528Y-102599575D01*
X146392900Y-102778689D01*
X146392900Y-102961311D01*
X146428528Y-103140425D01*
X146498414Y-103309147D01*
X146599874Y-103460992D01*
X146729008Y-103590126D01*
X146798251Y-103636393D01*
X146798251Y-103695500D01*
X145415000Y-103695500D01*
X145390224Y-103697940D01*
X145366399Y-103705167D01*
X145344443Y-103716903D01*
X145325197Y-103732697D01*
X145244479Y-103813415D01*
X145191155Y-103829591D01*
X145090028Y-103883644D01*
X145001388Y-103956388D01*
X144928644Y-104045028D01*
X144874591Y-104146155D01*
X144858415Y-104199479D01*
X144204644Y-104853250D01*
X138352755Y-104853250D01*
X138320000Y-104850024D01*
X138287245Y-104853250D01*
X138189294Y-104862897D01*
X138063611Y-104901023D01*
X137947781Y-104962935D01*
X137944656Y-104965500D01*
X137795000Y-104965500D01*
X137770224Y-104967940D01*
X137746399Y-104975167D01*
X137724443Y-104986903D01*
X137705197Y-105002697D01*
X135382000Y-107325894D01*
X135382000Y-103856246D01*
X135405506Y-103875537D01*
X135515820Y-103934502D01*
X135635518Y-103970812D01*
X135760000Y-103983072D01*
X135961750Y-103980000D01*
X136120500Y-103821250D01*
X136120500Y-102997000D01*
X136100500Y-102997000D01*
X136100500Y-102743000D01*
X136120500Y-102743000D01*
X136120500Y-102723000D01*
X136374500Y-102723000D01*
X136374500Y-102743000D01*
X136394500Y-102743000D01*
X136394500Y-102997000D01*
X136374500Y-102997000D01*
X136374500Y-103821250D01*
X136533250Y-103980000D01*
X136735000Y-103983072D01*
X136859482Y-103970812D01*
X136979180Y-103934502D01*
X137089494Y-103875537D01*
X137186185Y-103796185D01*
X137224677Y-103749283D01*
X137387697Y-103912303D01*
X137406943Y-103928097D01*
X137428899Y-103939833D01*
X137452724Y-103947060D01*
X137477500Y-103949500D01*
X139700000Y-103949500D01*
X139724776Y-103947060D01*
X139748601Y-103939833D01*
X139770557Y-103928097D01*
X139789803Y-103912303D01*
X140387606Y-103314500D01*
X141527037Y-103314500D01*
X141566155Y-103335409D01*
X141675885Y-103368696D01*
X141790000Y-103379935D01*
X144090000Y-103379935D01*
X144204115Y-103368696D01*
X144313845Y-103335409D01*
X144352963Y-103314500D01*
X144462500Y-103314500D01*
X144487276Y-103312060D01*
X144511101Y-103304833D01*
X144533057Y-103293097D01*
X144552303Y-103277303D01*
X144869803Y-102959803D01*
X144885597Y-102940557D01*
X144897333Y-102918601D01*
X144904560Y-102894776D01*
X144907000Y-102870000D01*
X144907000Y-96211750D01*
X145065632Y-96211750D01*
X145141508Y-96287626D01*
X145293353Y-96389086D01*
X145462075Y-96458972D01*
X145641189Y-96494600D01*
X145823811Y-96494600D01*
X146002925Y-96458972D01*
X146171647Y-96389086D01*
X146323492Y-96287626D01*
X146452626Y-96158492D01*
X146554086Y-96006647D01*
X146623972Y-95837925D01*
X146659600Y-95658811D01*
X146659600Y-95476189D01*
X146623972Y-95297075D01*
X146554086Y-95128353D01*
X146452626Y-94976508D01*
X146323492Y-94847374D01*
X146171647Y-94745914D01*
X146002925Y-94676028D01*
X145823811Y-94640400D01*
X145641189Y-94640400D01*
X145462075Y-94676028D01*
X145293353Y-94745914D01*
X145141508Y-94847374D01*
X145110632Y-94878250D01*
X144907000Y-94878250D01*
X144907000Y-93611750D01*
X147687243Y-93611750D01*
X147719998Y-93614976D01*
X147741715Y-93612837D01*
X147863688Y-93637099D01*
X148046310Y-93637099D01*
X148225424Y-93601471D01*
X148394146Y-93531585D01*
X148483321Y-93472000D01*
X148590000Y-93472000D01*
X148614776Y-93469560D01*
X148638601Y-93462333D01*
X148660557Y-93450597D01*
X148679803Y-93434803D01*
X148695597Y-93415557D01*
X148707333Y-93393601D01*
X148714560Y-93369776D01*
X148717000Y-93345000D01*
X148717000Y-93238321D01*
X148776585Y-93149146D01*
X148846471Y-92980424D01*
X148882099Y-92801310D01*
X148882099Y-92618688D01*
X148846471Y-92439574D01*
X148776585Y-92270852D01*
X148717000Y-92181677D01*
X148717000Y-91440000D01*
X148714560Y-91415224D01*
X148707333Y-91391399D01*
X148695597Y-91369443D01*
X148679803Y-91350197D01*
X148660557Y-91334403D01*
X148638601Y-91322667D01*
X148614776Y-91315440D01*
X148590000Y-91313000D01*
X147530823Y-91313000D01*
X147441647Y-91253414D01*
X147272925Y-91183528D01*
X147093811Y-91147900D01*
X146911189Y-91147900D01*
X146732075Y-91183528D01*
X146563353Y-91253414D01*
X146474177Y-91313000D01*
X145542000Y-91313000D01*
X145542000Y-91303420D01*
X146065827Y-90779594D01*
X146141311Y-90779594D01*
X146320425Y-90743966D01*
X146489147Y-90674080D01*
X146640992Y-90572620D01*
X146770126Y-90443486D01*
X146871586Y-90291641D01*
X146941472Y-90122919D01*
X146977100Y-89943805D01*
X146977100Y-89761183D01*
X146941472Y-89582069D01*
X146905173Y-89494433D01*
X147055106Y-89344500D01*
X151348251Y-89344500D01*
X151348251Y-89600145D01*
X151260914Y-89730853D01*
X151191028Y-89899575D01*
X151155400Y-90078689D01*
X151155400Y-90261311D01*
X151191028Y-90440425D01*
X151260914Y-90609147D01*
X151362374Y-90760992D01*
X151491508Y-90890126D01*
X151643353Y-90991586D01*
X151812075Y-91061472D01*
X151991189Y-91097100D01*
X152173811Y-91097100D01*
X152352925Y-91061472D01*
X152521647Y-90991586D01*
X152673492Y-90890126D01*
X152802626Y-90760992D01*
X152904086Y-90609147D01*
X152973972Y-90440425D01*
X153009600Y-90261311D01*
X153009600Y-90078689D01*
X152973972Y-89899575D01*
X152904086Y-89730853D01*
X152802626Y-89579008D01*
X152681750Y-89458132D01*
X152681750Y-89344500D01*
X159590302Y-89344500D01*
X159580853Y-89348414D01*
X159429008Y-89449874D01*
X159299874Y-89579008D01*
X159198414Y-89730853D01*
X159128528Y-89899575D01*
X159092900Y-90078689D01*
X159092900Y-90261311D01*
X159128528Y-90440425D01*
X159198414Y-90609147D01*
X159299874Y-90760992D01*
X159429008Y-90890126D01*
X159580853Y-90991586D01*
X159749575Y-91061472D01*
X159928689Y-91097100D01*
X160111311Y-91097100D01*
X160290425Y-91061472D01*
X160459147Y-90991586D01*
X160610992Y-90890126D01*
X160740126Y-90760992D01*
X160841586Y-90609147D01*
X160911472Y-90440425D01*
X160947100Y-90261311D01*
X160947100Y-90188564D01*
X161022065Y-90097219D01*
X161083977Y-89981389D01*
X161122103Y-89855706D01*
X161131750Y-89757755D01*
X161131750Y-89757753D01*
X161134976Y-89725001D01*
X161131750Y-89692248D01*
X161131750Y-89344500D01*
X163242038Y-89344500D01*
X163264863Y-89356999D01*
X163384187Y-89394519D01*
X163483250Y-89405000D01*
X163543750Y-89344500D01*
X163886250Y-89344500D01*
X163946750Y-89405000D01*
X164045813Y-89394519D01*
X164165137Y-89356999D01*
X164187962Y-89344500D01*
X164782500Y-89344500D01*
X164807276Y-89342060D01*
X164831101Y-89334833D01*
X164853057Y-89323097D01*
X164872303Y-89307303D01*
X165189803Y-88989803D01*
X165205597Y-88970557D01*
X165217333Y-88948601D01*
X165224560Y-88924776D01*
X165227000Y-88900000D01*
X165227000Y-86042500D01*
X165224560Y-86017724D01*
X165217333Y-85993899D01*
X165205597Y-85971943D01*
X165189803Y-85952697D01*
X165031750Y-85794644D01*
X165031750Y-85783676D01*
X165376177Y-85439250D01*
X170464745Y-85439250D01*
X170497500Y-85442476D01*
X170530255Y-85439250D01*
X170628206Y-85429603D01*
X170753889Y-85391477D01*
X170869719Y-85329565D01*
X170971245Y-85246245D01*
X170992132Y-85220794D01*
X171091176Y-85121750D01*
X171100750Y-85121750D01*
X171100751Y-85567271D01*
G37*
%TD.AperFunction*%
D25*
X181115372Y-99825799D02*
X181136255Y-99851245D01*
X181187502Y-99893302D01*
X181237781Y-99934565D01*
X181353611Y-99996477D01*
X181479294Y-100034603D01*
X181610000Y-100047476D01*
X181642755Y-100044250D01*
X184027555Y-100044250D01*
X184032667Y-100061101D01*
X184044403Y-100083057D01*
X184060197Y-100102303D01*
X184695197Y-100737303D01*
X184714443Y-100753097D01*
X184736399Y-100764833D01*
X184760224Y-100772060D01*
X184785000Y-100774500D01*
X191399894Y-100774500D01*
X191447949Y-100822555D01*
X191350381Y-101040776D01*
X192520000Y-102210395D01*
X192534143Y-102196253D01*
X192713748Y-102375858D01*
X192699605Y-102390000D01*
X193869224Y-103559619D01*
X194087445Y-103462051D01*
X194183000Y-103557606D01*
X194183000Y-104722394D01*
X193939894Y-104965500D01*
X178466750Y-104965500D01*
X178466750Y-103739224D01*
X191350381Y-103739224D01*
X191482317Y-104034312D01*
X191823045Y-104205159D01*
X192190557Y-104306250D01*
X192570729Y-104333701D01*
X192948951Y-104286457D01*
X193310690Y-104166333D01*
X193557683Y-104034312D01*
X193689619Y-103739224D01*
X192520000Y-102569605D01*
X191350381Y-103739224D01*
X178466750Y-103739224D01*
X178466750Y-102440729D01*
X190576299Y-102440729D01*
X190623543Y-102818951D01*
X190743667Y-103180690D01*
X190875688Y-103427683D01*
X191170776Y-103559619D01*
X192340395Y-102390000D01*
X191170776Y-101220381D01*
X190875688Y-101352317D01*
X190704841Y-101693045D01*
X190603750Y-102060557D01*
X190576299Y-102440729D01*
X178466750Y-102440729D01*
X178466750Y-99727752D01*
X178469976Y-99694999D01*
X178464978Y-99644256D01*
X178457103Y-99564294D01*
X178418977Y-99438611D01*
X178357065Y-99322781D01*
X178273745Y-99221255D01*
X178248300Y-99200373D01*
X173494632Y-94446706D01*
X173473745Y-94421255D01*
X173372219Y-94337935D01*
X173256389Y-94276023D01*
X173209338Y-94261750D01*
X175551324Y-94261750D01*
X181115372Y-99825799D01*
%TA.AperFunction,Conductor*%
D29*
G36*
X181115372Y-99825799D02*
G01*
X181136255Y-99851245D01*
X181187502Y-99893302D01*
X181237781Y-99934565D01*
X181353611Y-99996477D01*
X181479294Y-100034603D01*
X181610000Y-100047476D01*
X181642755Y-100044250D01*
X184027555Y-100044250D01*
X184032667Y-100061101D01*
X184044403Y-100083057D01*
X184060197Y-100102303D01*
X184695197Y-100737303D01*
X184714443Y-100753097D01*
X184736399Y-100764833D01*
X184760224Y-100772060D01*
X184785000Y-100774500D01*
X191399894Y-100774500D01*
X191447949Y-100822555D01*
X191350381Y-101040776D01*
X192520000Y-102210395D01*
X192534143Y-102196253D01*
X192713748Y-102375858D01*
X192699605Y-102390000D01*
X193869224Y-103559619D01*
X194087445Y-103462051D01*
X194183000Y-103557606D01*
X194183000Y-104722394D01*
X193939894Y-104965500D01*
X178466750Y-104965500D01*
X178466750Y-103739224D01*
X191350381Y-103739224D01*
X191482317Y-104034312D01*
X191823045Y-104205159D01*
X192190557Y-104306250D01*
X192570729Y-104333701D01*
X192948951Y-104286457D01*
X193310690Y-104166333D01*
X193557683Y-104034312D01*
X193689619Y-103739224D01*
X192520000Y-102569605D01*
X191350381Y-103739224D01*
X178466750Y-103739224D01*
X178466750Y-102440729D01*
X190576299Y-102440729D01*
X190623543Y-102818951D01*
X190743667Y-103180690D01*
X190875688Y-103427683D01*
X191170776Y-103559619D01*
X192340395Y-102390000D01*
X191170776Y-101220381D01*
X190875688Y-101352317D01*
X190704841Y-101693045D01*
X190603750Y-102060557D01*
X190576299Y-102440729D01*
X178466750Y-102440729D01*
X178466750Y-99727752D01*
X178469976Y-99694999D01*
X178464978Y-99644256D01*
X178457103Y-99564294D01*
X178418977Y-99438611D01*
X178357065Y-99322781D01*
X178273745Y-99221255D01*
X178248300Y-99200373D01*
X173494632Y-94446706D01*
X173473745Y-94421255D01*
X173372219Y-94337935D01*
X173256389Y-94276023D01*
X173209338Y-94261750D01*
X175551324Y-94261750D01*
X181115372Y-99825799D01*
G37*
%TD.AperFunction*%
D25*
X183971605Y-81916211D02*
X183907557Y-82036036D01*
X183866446Y-82171560D01*
X183852565Y-82312500D01*
X183852565Y-82787500D01*
X183866446Y-82928440D01*
X183907557Y-83063964D01*
X183974317Y-83188863D01*
X184023000Y-83248184D01*
X184023000Y-94583250D01*
X183881177Y-94583250D01*
X182887435Y-93589509D01*
X182887435Y-93272500D01*
X182873554Y-93131560D01*
X182832443Y-92996036D01*
X182779530Y-92897042D01*
X182853685Y-92836185D01*
X182933037Y-92739494D01*
X182992002Y-92629180D01*
X183028312Y-92509482D01*
X183040572Y-92385000D01*
X183037500Y-92133250D01*
X182878750Y-91974500D01*
X182054500Y-91974500D01*
X182054500Y-91994500D01*
X181800500Y-91994500D01*
X181800500Y-91974500D01*
X180976250Y-91974500D01*
X180817500Y-92133250D01*
X180814428Y-92385000D01*
X180826688Y-92509482D01*
X180862998Y-92629180D01*
X180921963Y-92739494D01*
X181001315Y-92836185D01*
X181075470Y-92897042D01*
X181022557Y-92996036D01*
X180981446Y-93131560D01*
X180967565Y-93272500D01*
X180967565Y-93872500D01*
X180981446Y-94013440D01*
X181022557Y-94148964D01*
X181089317Y-94273863D01*
X181179161Y-94383339D01*
X181288637Y-94473183D01*
X181413536Y-94539943D01*
X181549060Y-94581054D01*
X181690000Y-94594935D01*
X182007009Y-94594935D01*
X183110372Y-95698299D01*
X183131255Y-95723745D01*
X183232781Y-95807065D01*
X183348611Y-95868977D01*
X183474294Y-95907103D01*
X183572245Y-95916750D01*
X183572246Y-95916750D01*
X183604999Y-95919976D01*
X183637752Y-95916750D01*
X184023000Y-95916750D01*
X184023000Y-97123250D01*
X182362426Y-97123250D01*
X177735882Y-92496706D01*
X177714995Y-92471255D01*
X177613469Y-92387935D01*
X177497639Y-92326023D01*
X177371956Y-92287897D01*
X177274005Y-92278250D01*
X177241250Y-92275024D01*
X177208495Y-92278250D01*
X168674935Y-92278250D01*
X168674935Y-92195000D01*
X168663696Y-92080885D01*
X168630409Y-91971155D01*
X168629792Y-91970000D01*
X168630409Y-91968845D01*
X168663696Y-91859115D01*
X168674935Y-91745000D01*
X168674935Y-91545000D01*
X168663696Y-91430885D01*
X168630409Y-91321155D01*
X168629792Y-91320000D01*
X168630409Y-91318845D01*
X168633092Y-91310000D01*
X180814428Y-91310000D01*
X180817500Y-91561750D01*
X180976250Y-91720500D01*
X181800500Y-91720500D01*
X181800500Y-90833750D01*
X182054500Y-90833750D01*
X182054500Y-91720500D01*
X182878750Y-91720500D01*
X183037500Y-91561750D01*
X183040572Y-91310000D01*
X183028312Y-91185518D01*
X182992002Y-91065820D01*
X182933037Y-90955506D01*
X182853685Y-90858815D01*
X182756994Y-90779463D01*
X182646680Y-90720498D01*
X182526982Y-90684188D01*
X182402500Y-90671928D01*
X182213250Y-90675000D01*
X182054500Y-90833750D01*
X181800500Y-90833750D01*
X181641750Y-90675000D01*
X181452500Y-90671928D01*
X181328018Y-90684188D01*
X181208320Y-90720498D01*
X181098006Y-90779463D01*
X181001315Y-90858815D01*
X180921963Y-90955506D01*
X180862998Y-91065820D01*
X180826688Y-91185518D01*
X180814428Y-91310000D01*
X168633092Y-91310000D01*
X168663696Y-91209115D01*
X168674935Y-91095000D01*
X168674935Y-91011750D01*
X169019745Y-91011750D01*
X169052500Y-91014976D01*
X169085255Y-91011750D01*
X169183206Y-91002103D01*
X169308889Y-90963977D01*
X169424719Y-90902065D01*
X169526245Y-90818745D01*
X169547132Y-90793294D01*
X171100751Y-89239676D01*
X171100751Y-89377271D01*
X171046661Y-89421661D01*
X170956817Y-89531137D01*
X170890057Y-89656036D01*
X170848946Y-89791560D01*
X170835065Y-89932500D01*
X170835065Y-90407500D01*
X170848946Y-90548440D01*
X170890057Y-90683964D01*
X170956817Y-90808863D01*
X171046661Y-90918339D01*
X171156137Y-91008183D01*
X171281036Y-91074943D01*
X171416560Y-91116054D01*
X171557500Y-91129935D01*
X172157500Y-91129935D01*
X172298440Y-91116054D01*
X172433964Y-91074943D01*
X172532958Y-91022030D01*
X172593815Y-91096185D01*
X172690506Y-91175537D01*
X172800820Y-91234502D01*
X172920518Y-91270812D01*
X173045000Y-91283072D01*
X173296750Y-91280000D01*
X173455500Y-91121250D01*
X173455500Y-90297000D01*
X173709500Y-90297000D01*
X173709500Y-91121250D01*
X173868250Y-91280000D01*
X174120000Y-91283072D01*
X174244482Y-91270812D01*
X174364180Y-91234502D01*
X174474494Y-91175537D01*
X174571185Y-91096185D01*
X174650537Y-90999494D01*
X174709502Y-90889180D01*
X174745812Y-90769482D01*
X174758072Y-90645000D01*
X174755000Y-90455750D01*
X174596250Y-90297000D01*
X173709500Y-90297000D01*
X173455500Y-90297000D01*
X173435500Y-90297000D01*
X173435500Y-90043000D01*
X173455500Y-90043000D01*
X173455500Y-89218750D01*
X173709500Y-89218750D01*
X173709500Y-90043000D01*
X174596250Y-90043000D01*
X174755000Y-89884250D01*
X174758072Y-89695000D01*
X174745812Y-89570518D01*
X174709502Y-89450820D01*
X174650537Y-89340506D01*
X174571185Y-89243815D01*
X174474494Y-89164463D01*
X174364180Y-89105498D01*
X174244482Y-89069188D01*
X174120000Y-89056928D01*
X173868250Y-89060000D01*
X173709500Y-89218750D01*
X173455500Y-89218750D01*
X173296750Y-89060000D01*
X173045000Y-89056928D01*
X172920518Y-89069188D01*
X172800820Y-89105498D01*
X172690506Y-89164463D01*
X172593815Y-89243815D01*
X172532958Y-89317970D01*
X172434250Y-89265210D01*
X172434250Y-88931750D01*
X173639745Y-88931750D01*
X173672500Y-88934976D01*
X173705255Y-88931750D01*
X174983824Y-88931750D01*
X175301312Y-89249239D01*
X175322195Y-89274685D01*
X175405662Y-89343184D01*
X175423721Y-89358005D01*
X175539551Y-89419917D01*
X175665234Y-89458043D01*
X175795940Y-89470916D01*
X175828695Y-89467690D01*
X176825012Y-89467690D01*
X176882580Y-89553847D01*
X177047093Y-89718360D01*
X177240539Y-89847617D01*
X177455486Y-89936651D01*
X177683672Y-89982040D01*
X177916328Y-89982040D01*
X178144514Y-89936651D01*
X178359461Y-89847617D01*
X178552907Y-89718360D01*
X178717420Y-89553847D01*
X178846677Y-89360401D01*
X178935711Y-89145454D01*
X178981100Y-88917268D01*
X178981100Y-88684612D01*
X178935711Y-88456426D01*
X178846677Y-88241479D01*
X178717420Y-88048033D01*
X178552907Y-87883520D01*
X178359461Y-87754263D01*
X178144514Y-87665229D01*
X177916328Y-87619840D01*
X177683672Y-87619840D01*
X177455486Y-87665229D01*
X177240539Y-87754263D01*
X177047093Y-87883520D01*
X176882580Y-88048033D01*
X176825012Y-88134190D01*
X176072117Y-88134190D01*
X175754632Y-87816706D01*
X175733745Y-87791255D01*
X175632219Y-87707935D01*
X175516389Y-87646023D01*
X175390706Y-87607897D01*
X175292755Y-87598250D01*
X175260000Y-87595024D01*
X175227245Y-87598250D01*
X174339250Y-87598250D01*
X174339250Y-87152728D01*
X174393339Y-87108339D01*
X174483183Y-86998863D01*
X174549943Y-86873964D01*
X174591054Y-86738440D01*
X174604935Y-86597500D01*
X174604935Y-86122500D01*
X174591054Y-85981560D01*
X174549943Y-85846036D01*
X174483183Y-85721137D01*
X174393339Y-85611661D01*
X174283863Y-85521817D01*
X174158964Y-85455057D01*
X174023440Y-85413946D01*
X173882500Y-85400065D01*
X173382500Y-85400065D01*
X173241560Y-85413946D01*
X173106036Y-85455057D01*
X172981137Y-85521817D01*
X172871661Y-85611661D01*
X172781817Y-85721137D01*
X172720000Y-85836788D01*
X172658183Y-85721137D01*
X172568339Y-85611661D01*
X172458863Y-85521817D01*
X172434250Y-85508661D01*
X172434250Y-85121750D01*
X175227245Y-85121750D01*
X175260000Y-85124976D01*
X175292755Y-85121750D01*
X175390706Y-85112103D01*
X175516389Y-85073977D01*
X175632219Y-85012065D01*
X175733745Y-84928745D01*
X175754632Y-84903294D01*
X176072117Y-84585810D01*
X176825012Y-84585810D01*
X176882580Y-84671967D01*
X177047093Y-84836480D01*
X177240539Y-84965737D01*
X177455486Y-85054771D01*
X177683672Y-85100160D01*
X177916328Y-85100160D01*
X178144514Y-85054771D01*
X178359461Y-84965737D01*
X178552907Y-84836480D01*
X178717420Y-84671967D01*
X178846677Y-84478521D01*
X178935711Y-84263574D01*
X178981100Y-84035388D01*
X178981100Y-83802732D01*
X178935711Y-83574546D01*
X178846677Y-83359599D01*
X178717420Y-83166153D01*
X178552907Y-83001640D01*
X178359461Y-82872383D01*
X178144514Y-82783349D01*
X177916328Y-82737960D01*
X177683672Y-82737960D01*
X177455486Y-82783349D01*
X177240539Y-82872383D01*
X177047093Y-83001640D01*
X176882580Y-83166153D01*
X176825012Y-83252310D01*
X175828695Y-83252310D01*
X175795940Y-83249084D01*
X175763185Y-83252310D01*
X175665234Y-83261957D01*
X175539551Y-83300083D01*
X175423721Y-83361995D01*
X175322195Y-83445315D01*
X175301312Y-83470761D01*
X174983824Y-83788250D01*
X172434250Y-83788250D01*
X172434250Y-83454790D01*
X172532958Y-83402030D01*
X172593815Y-83476185D01*
X172690506Y-83555537D01*
X172800820Y-83614502D01*
X172920518Y-83650812D01*
X173045000Y-83663072D01*
X173296750Y-83660000D01*
X173455500Y-83501250D01*
X173455500Y-82677000D01*
X173709500Y-82677000D01*
X173709500Y-83501250D01*
X173868250Y-83660000D01*
X174120000Y-83663072D01*
X174244482Y-83650812D01*
X174364180Y-83614502D01*
X174474494Y-83555537D01*
X174571185Y-83476185D01*
X174650537Y-83379494D01*
X174709502Y-83269180D01*
X174745812Y-83149482D01*
X174758072Y-83025000D01*
X174755000Y-82835750D01*
X174596250Y-82677000D01*
X173709500Y-82677000D01*
X173455500Y-82677000D01*
X173435500Y-82677000D01*
X173435500Y-82423000D01*
X173455500Y-82423000D01*
X173455500Y-81598750D01*
X173709500Y-81598750D01*
X173709500Y-82423000D01*
X174596250Y-82423000D01*
X174755000Y-82264250D01*
X174758072Y-82075000D01*
X174745812Y-81950518D01*
X174709502Y-81830820D01*
X174650537Y-81720506D01*
X174571185Y-81623815D01*
X174474494Y-81544463D01*
X174364180Y-81485498D01*
X174244482Y-81449188D01*
X174120000Y-81436928D01*
X173868250Y-81440000D01*
X173709500Y-81598750D01*
X173455500Y-81598750D01*
X173296750Y-81440000D01*
X173045000Y-81436928D01*
X172920518Y-81449188D01*
X172800820Y-81485498D01*
X172690506Y-81544463D01*
X172593815Y-81623815D01*
X172532958Y-81697970D01*
X172433964Y-81645057D01*
X172298440Y-81603946D01*
X172157500Y-81590065D01*
X171557500Y-81590065D01*
X171416560Y-81603946D01*
X171281036Y-81645057D01*
X171156137Y-81711817D01*
X171046661Y-81801661D01*
X170956817Y-81911137D01*
X170890057Y-82036036D01*
X170848946Y-82171560D01*
X170835065Y-82312500D01*
X170835065Y-82787500D01*
X170848946Y-82928440D01*
X170890057Y-83063964D01*
X170956817Y-83188863D01*
X171046661Y-83298339D01*
X171100751Y-83342729D01*
X171100750Y-83788250D01*
X170847755Y-83788250D01*
X170815000Y-83785024D01*
X170782245Y-83788250D01*
X170684294Y-83797897D01*
X170558611Y-83836023D01*
X170442781Y-83897935D01*
X170341255Y-83981255D01*
X170320368Y-84006706D01*
X170221324Y-84105750D01*
X169351392Y-84105750D01*
X169422123Y-83973420D01*
X169478767Y-83786692D01*
X169493100Y-83641165D01*
X169497893Y-83592500D01*
X169493100Y-83543835D01*
X169493100Y-82987626D01*
X169511054Y-82928440D01*
X169524935Y-82787500D01*
X169524935Y-82312500D01*
X169511054Y-82171560D01*
X169469943Y-82036036D01*
X169403183Y-81911137D01*
X169313339Y-81801661D01*
X169203863Y-81711817D01*
X169078964Y-81645057D01*
X168943440Y-81603946D01*
X168802500Y-81590065D01*
X168750530Y-81590065D01*
X168696691Y-81573733D01*
X168502500Y-81554607D01*
X168308308Y-81573733D01*
X168254469Y-81590065D01*
X168202500Y-81590065D01*
X168061560Y-81603946D01*
X167926036Y-81645057D01*
X167827042Y-81697970D01*
X167766185Y-81623815D01*
X167669494Y-81544463D01*
X167559180Y-81485498D01*
X167439482Y-81449188D01*
X167315000Y-81436928D01*
X167063250Y-81440000D01*
X166904502Y-81598748D01*
X166904502Y-81440000D01*
X166835427Y-81440000D01*
X167281177Y-80994250D01*
X183049644Y-80994250D01*
X183971605Y-81916211D01*
%TA.AperFunction,Conductor*%
D29*
G36*
X183971605Y-81916211D02*
G01*
X183907557Y-82036036D01*
X183866446Y-82171560D01*
X183852565Y-82312500D01*
X183852565Y-82787500D01*
X183866446Y-82928440D01*
X183907557Y-83063964D01*
X183974317Y-83188863D01*
X184023000Y-83248184D01*
X184023000Y-94583250D01*
X183881177Y-94583250D01*
X182887435Y-93589509D01*
X182887435Y-93272500D01*
X182873554Y-93131560D01*
X182832443Y-92996036D01*
X182779530Y-92897042D01*
X182853685Y-92836185D01*
X182933037Y-92739494D01*
X182992002Y-92629180D01*
X183028312Y-92509482D01*
X183040572Y-92385000D01*
X183037500Y-92133250D01*
X182878750Y-91974500D01*
X182054500Y-91974500D01*
X182054500Y-91994500D01*
X181800500Y-91994500D01*
X181800500Y-91974500D01*
X180976250Y-91974500D01*
X180817500Y-92133250D01*
X180814428Y-92385000D01*
X180826688Y-92509482D01*
X180862998Y-92629180D01*
X180921963Y-92739494D01*
X181001315Y-92836185D01*
X181075470Y-92897042D01*
X181022557Y-92996036D01*
X180981446Y-93131560D01*
X180967565Y-93272500D01*
X180967565Y-93872500D01*
X180981446Y-94013440D01*
X181022557Y-94148964D01*
X181089317Y-94273863D01*
X181179161Y-94383339D01*
X181288637Y-94473183D01*
X181413536Y-94539943D01*
X181549060Y-94581054D01*
X181690000Y-94594935D01*
X182007009Y-94594935D01*
X183110372Y-95698299D01*
X183131255Y-95723745D01*
X183232781Y-95807065D01*
X183348611Y-95868977D01*
X183474294Y-95907103D01*
X183572245Y-95916750D01*
X183572246Y-95916750D01*
X183604999Y-95919976D01*
X183637752Y-95916750D01*
X184023000Y-95916750D01*
X184023000Y-97123250D01*
X182362426Y-97123250D01*
X177735882Y-92496706D01*
X177714995Y-92471255D01*
X177613469Y-92387935D01*
X177497639Y-92326023D01*
X177371956Y-92287897D01*
X177274005Y-92278250D01*
X177241250Y-92275024D01*
X177208495Y-92278250D01*
X168674935Y-92278250D01*
X168674935Y-92195000D01*
X168663696Y-92080885D01*
X168630409Y-91971155D01*
X168629792Y-91970000D01*
X168630409Y-91968845D01*
X168663696Y-91859115D01*
X168674935Y-91745000D01*
X168674935Y-91545000D01*
X168663696Y-91430885D01*
X168630409Y-91321155D01*
X168629792Y-91320000D01*
X168630409Y-91318845D01*
X168633092Y-91310000D01*
X180814428Y-91310000D01*
X180817500Y-91561750D01*
X180976250Y-91720500D01*
X181800500Y-91720500D01*
X181800500Y-90833750D01*
X182054500Y-90833750D01*
X182054500Y-91720500D01*
X182878750Y-91720500D01*
X183037500Y-91561750D01*
X183040572Y-91310000D01*
X183028312Y-91185518D01*
X182992002Y-91065820D01*
X182933037Y-90955506D01*
X182853685Y-90858815D01*
X182756994Y-90779463D01*
X182646680Y-90720498D01*
X182526982Y-90684188D01*
X182402500Y-90671928D01*
X182213250Y-90675000D01*
X182054500Y-90833750D01*
X181800500Y-90833750D01*
X181641750Y-90675000D01*
X181452500Y-90671928D01*
X181328018Y-90684188D01*
X181208320Y-90720498D01*
X181098006Y-90779463D01*
X181001315Y-90858815D01*
X180921963Y-90955506D01*
X180862998Y-91065820D01*
X180826688Y-91185518D01*
X180814428Y-91310000D01*
X168633092Y-91310000D01*
X168663696Y-91209115D01*
X168674935Y-91095000D01*
X168674935Y-91011750D01*
X169019745Y-91011750D01*
X169052500Y-91014976D01*
X169085255Y-91011750D01*
X169183206Y-91002103D01*
X169308889Y-90963977D01*
X169424719Y-90902065D01*
X169526245Y-90818745D01*
X169547132Y-90793294D01*
X171100751Y-89239676D01*
X171100751Y-89377271D01*
X171046661Y-89421661D01*
X170956817Y-89531137D01*
X170890057Y-89656036D01*
X170848946Y-89791560D01*
X170835065Y-89932500D01*
X170835065Y-90407500D01*
X170848946Y-90548440D01*
X170890057Y-90683964D01*
X170956817Y-90808863D01*
X171046661Y-90918339D01*
X171156137Y-91008183D01*
X171281036Y-91074943D01*
X171416560Y-91116054D01*
X171557500Y-91129935D01*
X172157500Y-91129935D01*
X172298440Y-91116054D01*
X172433964Y-91074943D01*
X172532958Y-91022030D01*
X172593815Y-91096185D01*
X172690506Y-91175537D01*
X172800820Y-91234502D01*
X172920518Y-91270812D01*
X173045000Y-91283072D01*
X173296750Y-91280000D01*
X173455500Y-91121250D01*
X173455500Y-90297000D01*
X173709500Y-90297000D01*
X173709500Y-91121250D01*
X173868250Y-91280000D01*
X174120000Y-91283072D01*
X174244482Y-91270812D01*
X174364180Y-91234502D01*
X174474494Y-91175537D01*
X174571185Y-91096185D01*
X174650537Y-90999494D01*
X174709502Y-90889180D01*
X174745812Y-90769482D01*
X174758072Y-90645000D01*
X174755000Y-90455750D01*
X174596250Y-90297000D01*
X173709500Y-90297000D01*
X173455500Y-90297000D01*
X173435500Y-90297000D01*
X173435500Y-90043000D01*
X173455500Y-90043000D01*
X173455500Y-89218750D01*
X173709500Y-89218750D01*
X173709500Y-90043000D01*
X174596250Y-90043000D01*
X174755000Y-89884250D01*
X174758072Y-89695000D01*
X174745812Y-89570518D01*
X174709502Y-89450820D01*
X174650537Y-89340506D01*
X174571185Y-89243815D01*
X174474494Y-89164463D01*
X174364180Y-89105498D01*
X174244482Y-89069188D01*
X174120000Y-89056928D01*
X173868250Y-89060000D01*
X173709500Y-89218750D01*
X173455500Y-89218750D01*
X173296750Y-89060000D01*
X173045000Y-89056928D01*
X172920518Y-89069188D01*
X172800820Y-89105498D01*
X172690506Y-89164463D01*
X172593815Y-89243815D01*
X172532958Y-89317970D01*
X172434250Y-89265210D01*
X172434250Y-88931750D01*
X173639745Y-88931750D01*
X173672500Y-88934976D01*
X173705255Y-88931750D01*
X174983824Y-88931750D01*
X175301312Y-89249239D01*
X175322195Y-89274685D01*
X175405662Y-89343184D01*
X175423721Y-89358005D01*
X175539551Y-89419917D01*
X175665234Y-89458043D01*
X175795940Y-89470916D01*
X175828695Y-89467690D01*
X176825012Y-89467690D01*
X176882580Y-89553847D01*
X177047093Y-89718360D01*
X177240539Y-89847617D01*
X177455486Y-89936651D01*
X177683672Y-89982040D01*
X177916328Y-89982040D01*
X178144514Y-89936651D01*
X178359461Y-89847617D01*
X178552907Y-89718360D01*
X178717420Y-89553847D01*
X178846677Y-89360401D01*
X178935711Y-89145454D01*
X178981100Y-88917268D01*
X178981100Y-88684612D01*
X178935711Y-88456426D01*
X178846677Y-88241479D01*
X178717420Y-88048033D01*
X178552907Y-87883520D01*
X178359461Y-87754263D01*
X178144514Y-87665229D01*
X177916328Y-87619840D01*
X177683672Y-87619840D01*
X177455486Y-87665229D01*
X177240539Y-87754263D01*
X177047093Y-87883520D01*
X176882580Y-88048033D01*
X176825012Y-88134190D01*
X176072117Y-88134190D01*
X175754632Y-87816706D01*
X175733745Y-87791255D01*
X175632219Y-87707935D01*
X175516389Y-87646023D01*
X175390706Y-87607897D01*
X175292755Y-87598250D01*
X175260000Y-87595024D01*
X175227245Y-87598250D01*
X174339250Y-87598250D01*
X174339250Y-87152728D01*
X174393339Y-87108339D01*
X174483183Y-86998863D01*
X174549943Y-86873964D01*
X174591054Y-86738440D01*
X174604935Y-86597500D01*
X174604935Y-86122500D01*
X174591054Y-85981560D01*
X174549943Y-85846036D01*
X174483183Y-85721137D01*
X174393339Y-85611661D01*
X174283863Y-85521817D01*
X174158964Y-85455057D01*
X174023440Y-85413946D01*
X173882500Y-85400065D01*
X173382500Y-85400065D01*
X173241560Y-85413946D01*
X173106036Y-85455057D01*
X172981137Y-85521817D01*
X172871661Y-85611661D01*
X172781817Y-85721137D01*
X172720000Y-85836788D01*
X172658183Y-85721137D01*
X172568339Y-85611661D01*
X172458863Y-85521817D01*
X172434250Y-85508661D01*
X172434250Y-85121750D01*
X175227245Y-85121750D01*
X175260000Y-85124976D01*
X175292755Y-85121750D01*
X175390706Y-85112103D01*
X175516389Y-85073977D01*
X175632219Y-85012065D01*
X175733745Y-84928745D01*
X175754632Y-84903294D01*
X176072117Y-84585810D01*
X176825012Y-84585810D01*
X176882580Y-84671967D01*
X177047093Y-84836480D01*
X177240539Y-84965737D01*
X177455486Y-85054771D01*
X177683672Y-85100160D01*
X177916328Y-85100160D01*
X178144514Y-85054771D01*
X178359461Y-84965737D01*
X178552907Y-84836480D01*
X178717420Y-84671967D01*
X178846677Y-84478521D01*
X178935711Y-84263574D01*
X178981100Y-84035388D01*
X178981100Y-83802732D01*
X178935711Y-83574546D01*
X178846677Y-83359599D01*
X178717420Y-83166153D01*
X178552907Y-83001640D01*
X178359461Y-82872383D01*
X178144514Y-82783349D01*
X177916328Y-82737960D01*
X177683672Y-82737960D01*
X177455486Y-82783349D01*
X177240539Y-82872383D01*
X177047093Y-83001640D01*
X176882580Y-83166153D01*
X176825012Y-83252310D01*
X175828695Y-83252310D01*
X175795940Y-83249084D01*
X175763185Y-83252310D01*
X175665234Y-83261957D01*
X175539551Y-83300083D01*
X175423721Y-83361995D01*
X175322195Y-83445315D01*
X175301312Y-83470761D01*
X174983824Y-83788250D01*
X172434250Y-83788250D01*
X172434250Y-83454790D01*
X172532958Y-83402030D01*
X172593815Y-83476185D01*
X172690506Y-83555537D01*
X172800820Y-83614502D01*
X172920518Y-83650812D01*
X173045000Y-83663072D01*
X173296750Y-83660000D01*
X173455500Y-83501250D01*
X173455500Y-82677000D01*
X173709500Y-82677000D01*
X173709500Y-83501250D01*
X173868250Y-83660000D01*
X174120000Y-83663072D01*
X174244482Y-83650812D01*
X174364180Y-83614502D01*
X174474494Y-83555537D01*
X174571185Y-83476185D01*
X174650537Y-83379494D01*
X174709502Y-83269180D01*
X174745812Y-83149482D01*
X174758072Y-83025000D01*
X174755000Y-82835750D01*
X174596250Y-82677000D01*
X173709500Y-82677000D01*
X173455500Y-82677000D01*
X173435500Y-82677000D01*
X173435500Y-82423000D01*
X173455500Y-82423000D01*
X173455500Y-81598750D01*
X173709500Y-81598750D01*
X173709500Y-82423000D01*
X174596250Y-82423000D01*
X174755000Y-82264250D01*
X174758072Y-82075000D01*
X174745812Y-81950518D01*
X174709502Y-81830820D01*
X174650537Y-81720506D01*
X174571185Y-81623815D01*
X174474494Y-81544463D01*
X174364180Y-81485498D01*
X174244482Y-81449188D01*
X174120000Y-81436928D01*
X173868250Y-81440000D01*
X173709500Y-81598750D01*
X173455500Y-81598750D01*
X173296750Y-81440000D01*
X173045000Y-81436928D01*
X172920518Y-81449188D01*
X172800820Y-81485498D01*
X172690506Y-81544463D01*
X172593815Y-81623815D01*
X172532958Y-81697970D01*
X172433964Y-81645057D01*
X172298440Y-81603946D01*
X172157500Y-81590065D01*
X171557500Y-81590065D01*
X171416560Y-81603946D01*
X171281036Y-81645057D01*
X171156137Y-81711817D01*
X171046661Y-81801661D01*
X170956817Y-81911137D01*
X170890057Y-82036036D01*
X170848946Y-82171560D01*
X170835065Y-82312500D01*
X170835065Y-82787500D01*
X170848946Y-82928440D01*
X170890057Y-83063964D01*
X170956817Y-83188863D01*
X171046661Y-83298339D01*
X171100751Y-83342729D01*
X171100750Y-83788250D01*
X170847755Y-83788250D01*
X170815000Y-83785024D01*
X170782245Y-83788250D01*
X170684294Y-83797897D01*
X170558611Y-83836023D01*
X170442781Y-83897935D01*
X170341255Y-83981255D01*
X170320368Y-84006706D01*
X170221324Y-84105750D01*
X169351392Y-84105750D01*
X169422123Y-83973420D01*
X169478767Y-83786692D01*
X169493100Y-83641165D01*
X169497893Y-83592500D01*
X169493100Y-83543835D01*
X169493100Y-82987626D01*
X169511054Y-82928440D01*
X169524935Y-82787500D01*
X169524935Y-82312500D01*
X169511054Y-82171560D01*
X169469943Y-82036036D01*
X169403183Y-81911137D01*
X169313339Y-81801661D01*
X169203863Y-81711817D01*
X169078964Y-81645057D01*
X168943440Y-81603946D01*
X168802500Y-81590065D01*
X168750530Y-81590065D01*
X168696691Y-81573733D01*
X168502500Y-81554607D01*
X168308308Y-81573733D01*
X168254469Y-81590065D01*
X168202500Y-81590065D01*
X168061560Y-81603946D01*
X167926036Y-81645057D01*
X167827042Y-81697970D01*
X167766185Y-81623815D01*
X167669494Y-81544463D01*
X167559180Y-81485498D01*
X167439482Y-81449188D01*
X167315000Y-81436928D01*
X167063250Y-81440000D01*
X166904502Y-81598748D01*
X166904502Y-81440000D01*
X166835427Y-81440000D01*
X167281177Y-80994250D01*
X183049644Y-80994250D01*
X183971605Y-81916211D01*
G37*
%TD.AperFunction*%
D25*
X166904500Y-82423000D02*
X166924500Y-82423000D01*
X166924500Y-82677000D01*
X166904500Y-82677000D01*
X166904500Y-83501250D01*
X167063250Y-83660000D01*
X167295088Y-83662829D01*
X167279608Y-83820000D01*
X167298734Y-84014191D01*
X167326508Y-84105750D01*
X165132755Y-84105750D01*
X165100000Y-84102524D01*
X165067245Y-84105750D01*
X164969294Y-84115397D01*
X164843611Y-84153523D01*
X164727781Y-84215435D01*
X164626255Y-84298755D01*
X164605375Y-84324198D01*
X163916701Y-85012873D01*
X163891256Y-85033755D01*
X163836759Y-85100160D01*
X163807935Y-85135282D01*
X163746023Y-85251112D01*
X163707897Y-85376795D01*
X163695024Y-85507500D01*
X163698251Y-85540265D01*
X163698251Y-85598000D01*
X163247606Y-85598000D01*
X162962516Y-85312910D01*
X165605000Y-82670427D01*
X165605000Y-82677002D01*
X165763748Y-82677002D01*
X165605000Y-82835750D01*
X165601928Y-83025000D01*
X165614188Y-83149482D01*
X165650498Y-83269180D01*
X165709463Y-83379494D01*
X165788815Y-83476185D01*
X165885506Y-83555537D01*
X165995820Y-83614502D01*
X166115518Y-83650812D01*
X166240000Y-83663072D01*
X166491750Y-83660000D01*
X166650500Y-83501250D01*
X166650500Y-82677000D01*
X166630500Y-82677000D01*
X166630500Y-82423000D01*
X166650500Y-82423000D01*
X166650500Y-82403000D01*
X166904500Y-82403000D01*
X166904500Y-82423000D01*
%TA.AperFunction,Conductor*%
D29*
G36*
X166904500Y-82423000D02*
G01*
X166924500Y-82423000D01*
X166924500Y-82677000D01*
X166904500Y-82677000D01*
X166904500Y-83501250D01*
X167063250Y-83660000D01*
X167295088Y-83662829D01*
X167279608Y-83820000D01*
X167298734Y-84014191D01*
X167326508Y-84105750D01*
X165132755Y-84105750D01*
X165100000Y-84102524D01*
X165067245Y-84105750D01*
X164969294Y-84115397D01*
X164843611Y-84153523D01*
X164727781Y-84215435D01*
X164626255Y-84298755D01*
X164605375Y-84324198D01*
X163916701Y-85012873D01*
X163891256Y-85033755D01*
X163836759Y-85100160D01*
X163807935Y-85135282D01*
X163746023Y-85251112D01*
X163707897Y-85376795D01*
X163695024Y-85507500D01*
X163698251Y-85540265D01*
X163698251Y-85598000D01*
X163247606Y-85598000D01*
X162962516Y-85312910D01*
X165605000Y-82670427D01*
X165605000Y-82677002D01*
X165763748Y-82677002D01*
X165605000Y-82835750D01*
X165601928Y-83025000D01*
X165614188Y-83149482D01*
X165650498Y-83269180D01*
X165709463Y-83379494D01*
X165788815Y-83476185D01*
X165885506Y-83555537D01*
X165995820Y-83614502D01*
X166115518Y-83650812D01*
X166240000Y-83663072D01*
X166491750Y-83660000D01*
X166650500Y-83501250D01*
X166650500Y-82677000D01*
X166630500Y-82677000D01*
X166630500Y-82423000D01*
X166650500Y-82423000D01*
X166650500Y-82403000D01*
X166904500Y-82403000D01*
X166904500Y-82423000D01*
G37*
%TD.AperFunction*%
%TD*%
D25*
%TO.N,GND*%
X109036289Y-110302093D02*
X109025124Y-110564533D01*
X109065371Y-110824107D01*
X109155486Y-111070842D01*
X109209188Y-111171314D01*
X109442803Y-111230592D01*
X110183395Y-110490000D01*
X110169253Y-110475858D01*
X110348858Y-110296253D01*
X110363000Y-110310395D01*
X110377143Y-110296253D01*
X110556748Y-110475858D01*
X110542605Y-110490000D01*
X111283197Y-111230592D01*
X111516812Y-111171314D01*
X111627559Y-110933125D01*
X111689711Y-110677907D01*
X111700876Y-110415467D01*
X111660629Y-110155893D01*
X111630755Y-110074099D01*
X124107089Y-110074099D01*
X124207114Y-110824285D01*
X124212807Y-110848521D01*
X124223120Y-110871182D01*
X124243197Y-110897303D01*
X124878197Y-111532303D01*
X124897443Y-111548097D01*
X124919399Y-111559833D01*
X124943224Y-111567060D01*
X124968000Y-111569500D01*
X125122781Y-111569500D01*
X125258486Y-111625711D01*
X125486672Y-111671100D01*
X125719328Y-111671100D01*
X125947514Y-111625711D01*
X126083219Y-111569500D01*
X126619000Y-111569500D01*
X126643776Y-111567060D01*
X126667601Y-111559833D01*
X126695200Y-111544100D01*
X127287866Y-111099600D01*
X128365881Y-111099600D01*
X128395822Y-111102549D01*
X128425763Y-111099600D01*
X128515324Y-111090779D01*
X128630234Y-111055921D01*
X128736136Y-110999316D01*
X128759833Y-110979868D01*
X131918412Y-110938308D01*
X131555227Y-111341847D01*
X130533824Y-112363250D01*
X126830356Y-112363250D01*
X126454803Y-111987697D01*
X126435557Y-111971903D01*
X126413601Y-111960167D01*
X126389776Y-111952940D01*
X126365000Y-111950500D01*
X126258329Y-111950500D01*
X126169153Y-111890914D01*
X126000431Y-111821028D01*
X125821317Y-111785400D01*
X125638695Y-111785400D01*
X125459581Y-111821028D01*
X125290859Y-111890914D01*
X125201683Y-111950500D01*
X123825000Y-111950500D01*
X123800224Y-111952940D01*
X123776399Y-111960167D01*
X123754443Y-111971903D01*
X123735197Y-111987697D01*
X120914894Y-114808000D01*
X115252500Y-114808000D01*
X115227724Y-114810440D01*
X115203899Y-114817667D01*
X115176767Y-114833052D01*
X112987991Y-116459000D01*
X100584000Y-116459000D01*
X100559224Y-116461440D01*
X100535399Y-116468667D01*
X100513443Y-116480403D01*
X100494197Y-116496197D01*
X99929564Y-117060830D01*
X99752750Y-117062000D01*
X99594000Y-117220750D01*
X99594000Y-117396394D01*
X99478197Y-117512197D01*
X99462403Y-117531443D01*
X99450667Y-117553399D01*
X99443440Y-117577224D01*
X99441000Y-117602000D01*
X99441000Y-119019000D01*
X99340000Y-119019000D01*
X99340000Y-118999000D01*
X98240750Y-118999000D01*
X98082000Y-119157750D01*
X98078928Y-120047000D01*
X98091188Y-120171482D01*
X98127498Y-120291180D01*
X98186463Y-120401494D01*
X98265815Y-120498185D01*
X98362506Y-120577537D01*
X98472820Y-120636502D01*
X98592518Y-120672812D01*
X98717000Y-120685072D01*
X99181250Y-120682000D01*
X99339998Y-120523252D01*
X99339998Y-120682000D01*
X99373302Y-120682000D01*
X98747587Y-121412000D01*
X97472500Y-121412000D01*
X96774000Y-120480667D01*
X96774000Y-117697000D01*
X98078928Y-117697000D01*
X98082000Y-118586250D01*
X98240750Y-118745000D01*
X99340000Y-118745000D01*
X99340000Y-117220750D01*
X99181250Y-117062000D01*
X98717000Y-117058928D01*
X98592518Y-117071188D01*
X98472820Y-117107498D01*
X98362506Y-117166463D01*
X98265815Y-117245815D01*
X98186463Y-117342506D01*
X98127498Y-117452820D01*
X98091188Y-117572518D01*
X98078928Y-117697000D01*
X96774000Y-117697000D01*
X96774000Y-115316000D01*
X101854000Y-115316000D01*
X101878776Y-115313560D01*
X101902601Y-115306333D01*
X101924557Y-115294597D01*
X101936651Y-115285426D01*
X103714651Y-113761426D01*
X103716026Y-113760229D01*
X105872417Y-111857531D01*
X106439040Y-111410197D01*
X109622408Y-111410197D01*
X109681686Y-111643812D01*
X109919875Y-111754559D01*
X110175093Y-111816711D01*
X110437533Y-111827876D01*
X110697107Y-111787629D01*
X110943842Y-111697514D01*
X111044314Y-111643812D01*
X111103592Y-111410197D01*
X110363000Y-110669605D01*
X109622408Y-111410197D01*
X106439040Y-111410197D01*
X108131431Y-110074099D01*
X109091811Y-110074099D01*
X109036289Y-110302093D01*
%TA.AperFunction,Conductor*%
D29*
G36*
X109036289Y-110302093D02*
G01*
X109025124Y-110564533D01*
X109065371Y-110824107D01*
X109155486Y-111070842D01*
X109209188Y-111171314D01*
X109442803Y-111230592D01*
X110183395Y-110490000D01*
X110169253Y-110475858D01*
X110348858Y-110296253D01*
X110363000Y-110310395D01*
X110377143Y-110296253D01*
X110556748Y-110475858D01*
X110542605Y-110490000D01*
X111283197Y-111230592D01*
X111516812Y-111171314D01*
X111627559Y-110933125D01*
X111689711Y-110677907D01*
X111700876Y-110415467D01*
X111660629Y-110155893D01*
X111630755Y-110074099D01*
X124107089Y-110074099D01*
X124207114Y-110824285D01*
X124212807Y-110848521D01*
X124223120Y-110871182D01*
X124243197Y-110897303D01*
X124878197Y-111532303D01*
X124897443Y-111548097D01*
X124919399Y-111559833D01*
X124943224Y-111567060D01*
X124968000Y-111569500D01*
X125122781Y-111569500D01*
X125258486Y-111625711D01*
X125486672Y-111671100D01*
X125719328Y-111671100D01*
X125947514Y-111625711D01*
X126083219Y-111569500D01*
X126619000Y-111569500D01*
X126643776Y-111567060D01*
X126667601Y-111559833D01*
X126695200Y-111544100D01*
X127287866Y-111099600D01*
X128365881Y-111099600D01*
X128395822Y-111102549D01*
X128425763Y-111099600D01*
X128515324Y-111090779D01*
X128630234Y-111055921D01*
X128736136Y-110999316D01*
X128759833Y-110979868D01*
X131918412Y-110938308D01*
X131555227Y-111341847D01*
X130533824Y-112363250D01*
X126830356Y-112363250D01*
X126454803Y-111987697D01*
X126435557Y-111971903D01*
X126413601Y-111960167D01*
X126389776Y-111952940D01*
X126365000Y-111950500D01*
X126258329Y-111950500D01*
X126169153Y-111890914D01*
X126000431Y-111821028D01*
X125821317Y-111785400D01*
X125638695Y-111785400D01*
X125459581Y-111821028D01*
X125290859Y-111890914D01*
X125201683Y-111950500D01*
X123825000Y-111950500D01*
X123800224Y-111952940D01*
X123776399Y-111960167D01*
X123754443Y-111971903D01*
X123735197Y-111987697D01*
X120914894Y-114808000D01*
X115252500Y-114808000D01*
X115227724Y-114810440D01*
X115203899Y-114817667D01*
X115176767Y-114833052D01*
X112987991Y-116459000D01*
X100584000Y-116459000D01*
X100559224Y-116461440D01*
X100535399Y-116468667D01*
X100513443Y-116480403D01*
X100494197Y-116496197D01*
X99929564Y-117060830D01*
X99752750Y-117062000D01*
X99594000Y-117220750D01*
X99594000Y-117396394D01*
X99478197Y-117512197D01*
X99462403Y-117531443D01*
X99450667Y-117553399D01*
X99443440Y-117577224D01*
X99441000Y-117602000D01*
X99441000Y-119019000D01*
X99340000Y-119019000D01*
X99340000Y-118999000D01*
X98240750Y-118999000D01*
X98082000Y-119157750D01*
X98078928Y-120047000D01*
X98091188Y-120171482D01*
X98127498Y-120291180D01*
X98186463Y-120401494D01*
X98265815Y-120498185D01*
X98362506Y-120577537D01*
X98472820Y-120636502D01*
X98592518Y-120672812D01*
X98717000Y-120685072D01*
X99181250Y-120682000D01*
X99339998Y-120523252D01*
X99339998Y-120682000D01*
X99373302Y-120682000D01*
X98747587Y-121412000D01*
X97472500Y-121412000D01*
X96774000Y-120480667D01*
X96774000Y-117697000D01*
X98078928Y-117697000D01*
X98082000Y-118586250D01*
X98240750Y-118745000D01*
X99340000Y-118745000D01*
X99340000Y-117220750D01*
X99181250Y-117062000D01*
X98717000Y-117058928D01*
X98592518Y-117071188D01*
X98472820Y-117107498D01*
X98362506Y-117166463D01*
X98265815Y-117245815D01*
X98186463Y-117342506D01*
X98127498Y-117452820D01*
X98091188Y-117572518D01*
X98078928Y-117697000D01*
X96774000Y-117697000D01*
X96774000Y-115316000D01*
X101854000Y-115316000D01*
X101878776Y-115313560D01*
X101902601Y-115306333D01*
X101924557Y-115294597D01*
X101936651Y-115285426D01*
X103714651Y-113761426D01*
X103716026Y-113760229D01*
X105872417Y-111857531D01*
X106439040Y-111410197D01*
X109622408Y-111410197D01*
X109681686Y-111643812D01*
X109919875Y-111754559D01*
X110175093Y-111816711D01*
X110437533Y-111827876D01*
X110697107Y-111787629D01*
X110943842Y-111697514D01*
X111044314Y-111643812D01*
X111103592Y-111410197D01*
X110363000Y-110669605D01*
X109622408Y-111410197D01*
X106439040Y-111410197D01*
X108131431Y-110074099D01*
X109091811Y-110074099D01*
X109036289Y-110302093D01*
G37*
%TD.AperFunction*%
%TD*%
M02*
