M48
; DRILL file {KiCad (5.1.12)-1} date 04/27/22 23:33:14
; FORMAT={-:-/ absolute / inch / decimal}
; #@! TF.CreationDate,2022-04-27T23:33:14+02:00
; #@! TF.GenerationSoftware,Kicad,Pcbnew,(5.1.12)-1
; #@! TF.FileFunction,Plated,1,2,PTH
FMAT,2
INCH
T1C0.0197
T2C0.0250
T3C0.0320
T4C0.0350
T5C0.0354
T6C0.0394
T7C0.0400
T8C0.0630
T9C0.1260
%
G90
G05
T1
X7.8205Y-2.6
X7.8205Y-4.825
X7.8482Y-2.5332
X7.8482Y-2.6668
X7.8482Y-4.7582
X7.8482Y-4.8918
X7.915Y-2.5055
X7.915Y-2.6945
X7.915Y-4.7305
X7.915Y-4.9195
X7.9818Y-2.5332
X7.9818Y-2.6668
X7.9818Y-4.7582
X7.9818Y-4.8918
X8.0095Y-2.6
X8.0095Y-4.825
T2
X3.865Y-4.6375
X3.865Y-4.6875
X3.865Y-4.7375
X4.095Y-4.63
X4.095Y-4.68
X4.095Y-4.73
X4.5213Y-4.5912
X4.57Y-4.605
X4.6212Y-4.6162
X4.665Y-4.635
X4.7038Y-4.6587
X4.7375Y-4.6875
X4.79Y-4.71
X4.8225Y-2.725
X4.825Y-4.5125
X4.87Y-4.735
X4.9125Y-4.475
X4.95Y-4.4375
X5.015Y-2.73
X5.05Y-4.055
X5.07Y-4.205
X5.126Y-4.8115
X5.1275Y-3.5025
X5.1328Y-3.0172
X5.155Y-4.205
X5.24Y-4.195
X5.2625Y-3.3
X5.2646Y-4.1446
X5.275Y-3.6875
X5.295Y-4.055
X5.3375Y-3.3
X5.3375Y-3.7375
X5.45Y-4.6875
X5.475Y-4.6125
X5.4875Y-4.725
X5.5Y-4.575
X5.525Y-4.1
X5.525Y-4.35
X5.575Y-4.1
X5.6125Y-4.725
X5.6125Y-3.3625
X5.6153Y-3.0384
X5.6625Y-3.0375
X5.6625Y-3.4
X5.6625Y-3.4875
X5.675Y-4.35
X5.7375Y-3.7
X5.7375Y-3.7625
X5.7481Y-3.5856
X5.75Y-3.5375
X5.7875Y-3.625
X5.8Y-3.0375
X5.8Y-4.05
X5.825Y-3.65
X5.85Y-3.0375
X5.8625Y-4.05
X5.9Y-3.0375
X5.925Y-3.275
X5.95Y-3.0375
X5.95Y-3.2375
X5.975Y-3.2
X5.9875Y-3.55
X6.0Y-3.1625
X6.025Y-3.125
X6.05Y-2.9125
X6.0625Y-4.05
X6.125Y-4.725
X6.1375Y-4.05
X6.175Y-3.2375
X6.175Y-4.725
X6.225Y-4.725
X6.25Y-3.05
X6.25Y-3.1
X6.25Y-3.15
X6.25Y-3.2
X6.275Y-4.725
X6.3Y-3.55
X6.3875Y-4.7
X6.3875Y-4.75
X6.4125Y-4.05
X6.4375Y-3.55
X6.4625Y-3.6375
X6.4625Y-3.7125
X6.575Y-4.1
X6.625Y-3.3
X6.625Y-4.1
X6.625Y-4.55
X6.625Y-4.6
X6.625Y-4.65
X6.7Y-3.4
X6.7Y-3.45
X6.7375Y-4.2625
X6.8375Y-3.2
X6.8375Y-3.6
X6.8625Y-3.725
X7.02Y-4.7
X7.02Y-4.74
X7.02Y-4.78
X7.0375Y-4.2
X7.1625Y-3.5625
X7.6Y-3.25
T3
X4.345Y-2.85
X4.345Y-2.95
X4.345Y-3.05
X4.345Y-3.15
X4.345Y-3.25
X4.345Y-3.35
X4.345Y-3.45
X4.345Y-3.55
X4.345Y-3.65
X4.345Y-3.75
X4.345Y-3.85
X4.345Y-3.95
X4.345Y-4.05
X4.345Y-4.15
X4.345Y-4.25
X4.345Y-4.35
X4.945Y-2.85
X4.945Y-2.95
X4.945Y-3.05
X4.945Y-3.15
X4.945Y-3.25
X4.945Y-3.35
X4.945Y-3.45
X4.945Y-3.55
X4.945Y-3.65
X4.945Y-3.75
X4.945Y-3.85
X4.945Y-3.95
X4.945Y-4.05
X4.945Y-4.15
X4.945Y-4.25
X4.945Y-4.35
X5.35Y-2.45
X5.35Y-2.75
X5.45Y-2.45
X5.45Y-2.75
X5.75Y-2.45
X5.75Y-2.75
X5.85Y-2.45
X5.85Y-2.75
X6.15Y-2.45
X6.15Y-2.75
X6.25Y-2.45
X6.25Y-2.75
X6.35Y-2.45
X6.35Y-2.75
X6.45Y-2.45
X6.45Y-2.75
X6.75Y-2.45
X6.75Y-2.75
X6.85Y-2.45
X6.85Y-2.75
X6.95Y-2.45
X6.95Y-2.75
X7.0Y-3.3039
X7.0Y-3.4961
X7.05Y-2.45
X7.05Y-2.75
X7.15Y-2.45
X7.15Y-2.75
T4
X7.8327Y-3.476
X7.8327Y-3.874
X7.8925Y-3.576
X7.8925Y-3.974
T5
X7.35Y-3.55
X7.35Y-3.65
X7.35Y-3.75
X7.35Y-3.85
X7.45Y-3.6
X7.45Y-3.7
X7.45Y-3.8
X7.45Y-3.9
T6
X4.0Y-4.89
X4.0Y-5.09
X4.1Y-4.89
X4.1Y-5.09
X4.2Y-4.89
X4.2Y-5.09
X4.3Y-4.89
X4.3Y-5.09
X4.4Y-4.89
X4.4Y-5.09
X4.5Y-4.89
X4.5Y-5.09
X4.6Y-4.89
X4.6Y-5.09
X4.7Y-4.89
X4.7Y-5.09
X4.8Y-4.89
X4.8Y-5.09
X4.9Y-4.89
X4.9Y-5.09
X5.0Y-4.89
X5.0Y-5.09
X5.1Y-4.89
X5.1Y-5.09
X5.2Y-4.89
X5.2Y-5.09
X5.3Y-4.89
X5.3Y-5.09
X5.4Y-4.89
X5.4Y-5.09
X5.5Y-4.89
X5.5Y-5.09
X5.6Y-4.89
X5.6Y-5.09
X5.7Y-4.89
X5.7Y-5.09
X5.8Y-4.89
X5.8Y-5.09
X5.9Y-4.89
X5.9Y-5.09
X6.0Y-4.89
X6.0Y-5.09
X6.1Y-4.89
X6.1Y-5.09
X6.2Y-4.89
X6.2Y-5.09
X6.3Y-4.89
X6.3Y-5.09
X6.4Y-4.89
X6.4Y-5.09
X6.5Y-4.89
X6.5Y-5.09
X6.6Y-4.89
X6.6Y-5.09
X6.7Y-4.89
X6.7Y-5.09
X6.8Y-4.89
X6.8Y-5.09
X6.9Y-4.89
X6.9Y-5.09
X7.0Y-4.89
X7.0Y-5.09
X7.1Y-4.89
X7.1Y-5.09
T7
X3.85Y-2.55
X3.85Y-2.65
X3.85Y-2.75
X3.85Y-2.85
X3.85Y-2.95
X3.85Y-3.05
X3.85Y-3.15
X3.85Y-3.25
X3.85Y-3.35
X3.85Y-3.45
X3.85Y-3.55
X3.85Y-3.65
X3.85Y-3.75
X3.85Y-3.85
X3.85Y-3.95
X3.85Y-4.05
X3.85Y-4.15
X3.85Y-4.25
X3.85Y-4.35
X3.85Y-4.45
X3.95Y-2.55
X3.95Y-2.65
X3.95Y-2.75
X3.95Y-2.85
X3.95Y-2.95
X3.95Y-3.05
X3.95Y-3.15
X3.95Y-3.25
X3.95Y-3.35
X3.95Y-3.45
X3.95Y-3.55
X3.95Y-3.65
X3.95Y-3.75
X3.95Y-3.85
X3.95Y-3.95
X3.95Y-4.05
X3.95Y-4.15
X3.95Y-4.25
X3.95Y-4.35
X3.95Y-4.45
T8
X7.5795Y-3.4189
X7.5795Y-4.0311
T9
X7.915Y-2.6
X7.915Y-4.825
T0
M30
